<?xml version="1.0" encoding="utf-8"?>
<!-- Generator: Adobe Illustrator 17.0.0, SVG Export Plug-In . SVG Version: 6.00 Build 0)  -->
<!DOCTYPE svg PUBLIC "-//W3C//DTD SVG 1.1//EN" "http://www.w3.org/Graphics/SVG/1.1/DTD/svg11.dtd">
<svg version="1.1" id="Layer_1" xmlns="http://www.w3.org/2000/svg" xmlns:xlink="http://www.w3.org/1999/xlink" x="0px" y="0px"
	 width="998px" height="341px" viewBox="0 0 998 341" enable-background="new 0 0 998 341" xml:space="preserve">
<path d="M998,49.02V0H0v49.02h231.166v242.508H0V341h998v-49.471H769.599V49.02H998z M961.167,17.416
	c0-1.003,0.813-1.817,1.817-1.817h17.851c1.003,0,1.817,0.813,1.817,1.817v24.662c0,1.003-0.814,1.817-1.817,1.817h-17.851
	c-1.003,0-1.817-0.813-1.817-1.817V17.416z M913.678,17.416c0-1.003,0.814-1.817,1.817-1.817h17.851
	c1.003,0,1.817,0.813,1.817,1.817v24.662c0,1.003-0.813,1.817-1.817,1.817h-17.851c-1.003,0-1.817-0.813-1.817-1.817V17.416z
	 M866.19,17.416c0-1.003,0.813-1.817,1.817-1.817h17.851c1.003,0,1.817,0.813,1.817,1.817v24.662c0,1.003-0.814,1.817-1.817,1.817
	h-17.851c-1.003,0-1.817-0.813-1.817-1.817V17.416z M818.701,17.416c0-1.003,0.814-1.817,1.817-1.817h17.851
	c1.003,0,1.817,0.813,1.817,1.817v24.662c0,1.003-0.813,1.817-1.817,1.817h-17.851c-1.003,0-1.817-0.813-1.817-1.817V17.416z
	 M771.213,17.416c0-1.003,0.813-1.817,1.817-1.817h17.851c1.003,0,1.817,0.813,1.817,1.817v24.662c0,1.003-0.814,1.817-1.817,1.817
	h-17.851c-1.003,0-1.817-0.813-1.817-1.817V17.416z M32.88,42.078c0,1.003-0.813,1.817-1.817,1.817H13.212
	c-1.003,0-1.817-0.813-1.817-1.817V17.416c0-1.003,0.813-1.817,1.817-1.817h17.851c1.003,0,1.817,0.813,1.817,1.817V42.078z
	 M80.369,42.078c0,1.003-0.814,1.817-1.817,1.817H60.701c-1.003,0-1.817-0.813-1.817-1.817V17.416c0-1.003,0.813-1.817,1.817-1.817
	h17.851c1.003,0,1.817,0.813,1.817,1.817V42.078z M127.857,42.078c0,1.003-0.813,1.817-1.817,1.817H108.19
	c-1.003,0-1.817-0.813-1.817-1.817V17.416c0-1.003,0.813-1.817,1.817-1.817h17.851c1.003,0,1.817,0.813,1.817,1.817V42.078z
	 M175.346,42.078c0,1.003-0.813,1.817-1.817,1.817h-17.851c-1.003,0-1.817-0.813-1.817-1.817V17.416
	c0-1.003,0.813-1.817,1.817-1.817h17.851c1.003,0,1.817,0.813,1.817,1.817V42.078z M222.835,42.078c0,1.003-0.813,1.817-1.817,1.817
	h-17.851c-1.003,0-1.817-0.813-1.817-1.817V17.416c0-1.003,0.813-1.817,1.817-1.817h17.851c1.004,0,1.817,0.813,1.817,1.817V42.078z
	 M32.88,323.961c0,1.003-0.813,1.817-1.817,1.817H13.212c-1.003,0-1.817-0.813-1.817-1.817v-24.662c0-1.003,0.813-1.817,1.817-1.817
	h17.851c1.003,0,1.817,0.813,1.817,1.817V323.961z M80.369,323.961c0,1.003-0.814,1.817-1.817,1.817H60.701
	c-1.003,0-1.817-0.813-1.817-1.817v-24.662c0-1.003,0.813-1.817,1.817-1.817h17.851c1.003,0,1.817,0.813,1.817,1.817V323.961z
	 M127.857,323.961c0,1.003-0.813,1.817-1.817,1.817H108.19c-1.003,0-1.817-0.813-1.817-1.817v-24.662
	c0-1.003,0.813-1.817,1.817-1.817h17.851c1.003,0,1.817,0.813,1.817,1.817V323.961z M175.346,323.961
	c0,1.003-0.813,1.817-1.817,1.817h-17.851c-1.003,0-1.817-0.813-1.817-1.817v-24.662c0-1.003,0.813-1.817,1.817-1.817h17.851
	c1.003,0,1.817,0.813,1.817,1.817V323.961z M222.835,323.961c0,1.003-0.813,1.817-1.817,1.817h-17.851
	c-1.003,0-1.817-0.813-1.817-1.817v-24.662c0-1.003,0.813-1.817,1.817-1.817h17.851c1.004,0,1.817,0.813,1.817,1.817V323.961z
	 M961.167,299.299c0-1.003,0.813-1.817,1.817-1.817h17.851c1.003,0,1.817,0.813,1.817,1.817v24.662c0,1.003-0.814,1.817-1.817,1.817
	h-17.851c-1.003,0-1.817-0.813-1.817-1.817V299.299z M913.678,299.299c0-1.003,0.814-1.817,1.817-1.817h17.851
	c1.003,0,1.817,0.813,1.817,1.817v24.662c0,1.003-0.813,1.817-1.817,1.817h-17.851c-1.003,0-1.817-0.813-1.817-1.817V299.299z
	 M866.19,299.299c0-1.003,0.813-1.817,1.817-1.817h17.851c1.003,0,1.817,0.813,1.817,1.817v24.662c0,1.003-0.814,1.817-1.817,1.817
	h-17.851c-1.003,0-1.817-0.813-1.817-1.817V299.299z M818.701,299.299c0-1.003,0.814-1.817,1.817-1.817h17.851
	c1.003,0,1.817,0.813,1.817,1.817v24.662c0,1.003-0.813,1.817-1.817,1.817h-17.851c-1.003,0-1.817-0.813-1.817-1.817V299.299z
	 M771.213,299.299c0-1.003,0.813-1.817,1.817-1.817h17.851c1.003,0,1.817,0.813,1.817,1.817v24.662c0,1.003-0.814,1.817-1.817,1.817
	h-17.851c-1.003,0-1.817-0.813-1.817-1.817V299.299z M723.724,17.416c0-1.003,0.813-1.817,1.817-1.817h17.851
	c1.003,0,1.817,0.813,1.817,1.817v24.662c0,1.003-0.813,1.817-1.817,1.817h-17.851c-1.003,0-1.817-0.813-1.817-1.817V17.416z
	 M676.235,17.416c0-1.003,0.813-1.817,1.817-1.817h17.851c1.003,0,1.817,0.813,1.817,1.817v24.662c0,1.003-0.814,1.817-1.817,1.817
	h-17.851c-1.004,0-1.817-0.813-1.817-1.817V17.416z M628.747,17.416c0-1.003,0.813-1.817,1.817-1.817h17.851
	c1.003,0,1.817,0.813,1.817,1.817v24.662c0,1.003-0.813,1.817-1.817,1.817h-17.851c-1.003,0-1.817-0.813-1.817-1.817V17.416z
	 M581.258,17.416c0-1.003,0.813-1.817,1.817-1.817h17.851c1.003,0,1.817,0.813,1.817,1.817v24.662c0,1.003-0.814,1.817-1.817,1.817
	h-17.851c-1.004,0-1.817-0.813-1.817-1.817V17.416z M533.77,17.416c0-1.003,0.813-1.817,1.817-1.817h17.851
	c1.003,0,1.817,0.813,1.817,1.817v24.662c0,1.003-0.813,1.817-1.817,1.817h-17.851c-1.003,0-1.817-0.813-1.817-1.817V17.416z
	 M438.793,17.416c0-1.003,0.813-1.817,1.817-1.817h17.851c1.003,0,1.817,0.813,1.817,1.817v24.662c0,1.003-0.814,1.817-1.817,1.817
	h-17.851c-1.003,0-1.817-0.813-1.817-1.817V17.416z M391.304,17.416c0-1.003,0.813-1.817,1.817-1.817h17.851
	c1.003,0,1.817,0.813,1.817,1.817v24.662c0,1.003-0.814,1.817-1.817,1.817h-17.851c-1.003,0-1.817-0.813-1.817-1.817V17.416z
	 M343.816,17.416c0-1.003,0.813-1.817,1.817-1.817h17.851c1.003,0,1.817,0.813,1.817,1.817v24.662c0,1.003-0.813,1.817-1.817,1.817
	h-17.851c-1.004,0-1.817-0.813-1.817-1.817V17.416z M296.327,17.416c0-1.003,0.813-1.817,1.817-1.817h17.851
	c1.004,0,1.817,0.813,1.817,1.817v24.662c0,1.003-0.813,1.817-1.817,1.817h-17.851c-1.003,0-1.817-0.813-1.817-1.817V17.416z
	 M248.838,17.416c0-1.003,0.814-1.817,1.817-1.817h17.851c1.003,0,1.817,0.813,1.817,1.817v24.662c0,1.003-0.813,1.817-1.817,1.817
	h-17.851c-1.003,0-1.817-0.813-1.817-1.817V17.416z M248.26,49.02h243.577v242.508H248.26V49.02z M270.323,323.961
	c0,1.003-0.813,1.817-1.817,1.817h-17.851c-1.003,0-1.817-0.813-1.817-1.817v-24.662c0-1.003,0.814-1.817,1.817-1.817h17.851
	c1.003,0,1.817,0.813,1.817,1.817V323.961z M317.812,323.961c0,1.003-0.813,1.817-1.817,1.817h-17.851
	c-1.003,0-1.817-0.813-1.817-1.817v-24.662c0-1.003,0.813-1.817,1.817-1.817h17.851c1.004,0,1.817,0.813,1.817,1.817V323.961z
	 M365.3,323.961c0,1.003-0.813,1.817-1.817,1.817h-17.851c-1.004,0-1.817-0.813-1.817-1.817v-24.662
	c0-1.003,0.813-1.817,1.817-1.817h17.851c1.003,0,1.817,0.813,1.817,1.817V323.961z M412.789,323.961
	c0,1.003-0.814,1.817-1.817,1.817h-17.851c-1.003,0-1.817-0.813-1.817-1.817v-24.662c0-1.003,0.813-1.817,1.817-1.817h17.851
	c1.003,0,1.817,0.813,1.817,1.817V323.961z M460.277,323.961c0,1.003-0.814,1.817-1.817,1.817h-17.851
	c-1.003,0-1.817-0.813-1.817-1.817v-24.662c0-1.003,0.813-1.817,1.817-1.817h17.851c1.003,0,1.817,0.813,1.817,1.817V323.961z
	 M507.766,323.961c0,1.003-0.813,1.817-1.817,1.817h-17.851c-1.003,0-1.817-0.813-1.817-1.817v-24.662
	c0-1.003,0.814-1.817,1.817-1.817h17.851c1.003,0,1.817,0.813,1.817,1.817V323.961z M507.766,42.078
	c0,1.003-0.813,1.817-1.817,1.817h-17.851c-1.003,0-1.817-0.813-1.817-1.817V17.416c0-1.003,0.814-1.817,1.817-1.817h17.851
	c1.003,0,1.817,0.813,1.817,1.817V42.078z M555.254,323.961c0,1.003-0.813,1.817-1.817,1.817h-17.851
	c-1.003,0-1.817-0.813-1.817-1.817v-24.662c0-1.003,0.813-1.817,1.817-1.817h17.851c1.003,0,1.817,0.813,1.817,1.817V323.961z
	 M602.743,323.961c0,1.003-0.814,1.817-1.817,1.817h-17.851c-1.004,0-1.817-0.813-1.817-1.817v-24.662
	c0-1.003,0.813-1.817,1.817-1.817h17.851c1.003,0,1.817,0.813,1.817,1.817V323.961z M650.232,323.961
	c0,1.003-0.813,1.817-1.817,1.817h-17.851c-1.003,0-1.817-0.813-1.817-1.817v-24.662c0-1.003,0.813-1.817,1.817-1.817h17.851
	c1.003,0,1.817,0.813,1.817,1.817V323.961z M697.72,323.961c0,1.003-0.814,1.817-1.817,1.817h-17.851
	c-1.004,0-1.817-0.813-1.817-1.817v-24.662c0-1.003,0.813-1.817,1.817-1.817h17.851c1.003,0,1.817,0.813,1.817,1.817V323.961z
	 M745.209,323.961c0,1.003-0.813,1.817-1.817,1.817h-17.851c-1.003,0-1.817-0.813-1.817-1.817v-24.662
	c0-1.003,0.813-1.817,1.817-1.817h17.851c1.003,0,1.817,0.813,1.817,1.817V323.961z M752.506,291.529H508.93V49.02h243.577V291.529z
	"/>
</svg>
