<?xml version="1.0" encoding="utf-8"?>
<!-- Generator: Adobe Illustrator 17.0.0, SVG Export Plug-In . SVG Version: 6.00 Build 0)  -->
<!DOCTYPE svg PUBLIC "-//W3C//DTD SVG 1.1//EN" "http://www.w3.org/Graphics/SVG/1.1/DTD/svg11.dtd">
<svg version="1.1" id="Layer_1" xmlns="http://www.w3.org/2000/svg" xmlns:xlink="http://www.w3.org/1999/xlink" x="0px" y="0px"
	 width="510.838px" height="74.5px" viewBox="0 0 510.838 74.5" enable-background="new 0 0 510.838 74.5" xml:space="preserve">
<g>
	<path fill="#FFFFFF" d="M2.862,1.735c0-0.263,0.144-0.35,0.396-0.35h5.079c0.252,0,0.36,0.087,0.36,0.263v5.31
		c0,0.204,0.072,0.262,0.108,0.262s0.18-0.058,0.36-0.175c0.612-0.467,1.477-0.846,2.521-0.846c1.513,0,3.459,0.729,3.459,3.005
		v14.325c0,0.087-0.108,0.175-0.217,0.175H9.959c-0.144,0-0.252-0.088-0.252-0.204V11.421c0-0.438-0.288-0.583-0.576-0.583
		s-0.576,0.146-0.576,0.583V23.47c0,0.116-0.108,0.233-0.253,0.233H3.15c-0.145,0-0.288-0.146-0.288-0.263V1.735z"/>
	<path fill="#FFFFFF" d="M16.37,10.721c0-2.684,2.486-4.522,6.197-4.522c3.71,0,6.196,1.809,6.196,4.668v8.285
		c0,2.714-2.486,4.552-6.196,4.552c-3.675,0-6.197-1.867-6.197-4.552V10.721z M21.99,18.394c0,0.35,0.181,0.583,0.577,0.583
		c0.396,0,0.576-0.233,0.576-0.583V11.45c0-0.321-0.216-0.583-0.576-0.583c-0.396,0-0.577,0.263-0.577,0.583V18.394z"/>
	<path fill="#FFFFFF" d="M48.829,23.382c0,0.175-0.108,0.321-0.324,0.321h-4.828c-0.18,0-0.324-0.146-0.324-0.321V11.567
		c0-0.438-0.288-0.613-0.576-0.613S42.2,11.129,42.2,11.567v11.845c0,0.175-0.108,0.292-0.324,0.292H36.94
		c-0.181,0-0.324-0.088-0.324-0.263V11.538c0-0.438-0.288-0.583-0.577-0.583c-0.288,0-0.576,0.146-0.576,0.583V23.5
		c0,0.116-0.107,0.204-0.288,0.204h-4.936c-0.145,0-0.252-0.088-0.252-0.233V6.432c0-0.117,0.144-0.233,0.324-0.233h4.719
		c0.289,0,0.505,1.254,0.757,1.254c0.108,0,0.217-0.058,0.396-0.233c0.576-0.525,1.549-1.021,2.702-1.021
		c1.297,0,2.161,0.438,2.737,1.05c0.181,0.204,0.325,0.292,0.433,0.292c0.108,0,0.288-0.087,0.433-0.233
		c0.685-0.525,1.585-1.108,2.954-1.108c1.837,0,3.387,1.342,3.387,3.034V23.382z"/>
	<path fill="#FFFFFF" d="M50.052,10.925c0-3.443,3.279-4.727,6.197-4.727c4.07,0,6.412,2.538,6.412,5.397v1.779
		c0,0.146-0.144,0.263-0.324,0.263H56.32c-0.144,0-0.216,0.088-0.216,0.233v4.58c0,0.467,0.252,0.643,0.576,0.643
		c0.253,0,0.577-0.176,0.577-0.613v-1.779c0-0.117,0.107-0.233,0.324-0.233l4.647,0.204c0.216,0.029,0.359,0.146,0.359,0.321v1.867
		c0,3.734-3.17,4.843-6.484,4.843c-3.854,0-6.053-2.218-6.053-5.543V10.925z M56.104,11.917c0,0.087,0.108,0.146,0.216,0.146
		c0.829,0,0.938,0,0.938-0.146c0-1.867-0.036-2.071-0.613-2.071c-0.288,0-0.54,0.175-0.54,0.613V11.917z"/>
</g>
<g>
	<path fill="#FFFFFF" d="M76.913,23.704c-0.145,0-0.324-0.117-0.324-0.263V1.618c0-0.146,0.144-0.233,0.324-0.233h4.684
		c0.18,0,0.324,0.146,0.324,0.292v5.105c0,0.175,0.071,0.233,0.107,0.233c0.072,0,0.145-0.058,0.324-0.204
		c0.541-0.438,1.226-0.613,2.054-0.613c1.837,0,4.107,1.167,4.107,5.602v6.098c0,4.784-2.054,5.806-3.855,5.806
		c-0.828,0-1.585-0.204-2.125-0.525c-0.217-0.146-0.324-0.204-0.396-0.204c-0.18,0-0.54,0.729-0.685,0.729H76.913z M81.921,18.54
		c0,0.263,0.107,0.438,0.288,0.555c0.072,0.087,0.252,0.146,0.396,0.146c0.468,0,0.468-0.379,0.468-0.555v-7.322
		c0-0.292-0.144-0.555-0.468-0.555c-0.396,0-0.685,0.321-0.685,0.759V18.54z"/>
	<path fill="#FFFFFF" d="M95.609,23.47c0,0.116-0.108,0.233-0.252,0.233h-5.296c-0.145,0-0.288-0.146-0.288-0.263V6.549
		c0-0.204,0.144-0.35,0.36-0.35h5.115c0.217,0,0.36,0.146,0.36,0.292V23.47z M95.249,4.973c0,0.175-0.144,0.321-0.36,0.321h-4.395
		c-0.181,0-0.36-0.175-0.36-0.35V1.327c0-0.146,0.18-0.321,0.36-0.321h4.431c0.145,0,0.324,0.088,0.324,0.233V4.973z"/>
	<path fill="#FFFFFF" d="M96.833,10.721c0-2.684,2.486-4.522,6.197-4.522c3.71,0,6.196,1.809,6.196,4.668v8.285
		c0,2.714-2.486,4.552-6.196,4.552c-3.675,0-6.197-1.867-6.197-4.552V10.721z M102.453,18.394c0,0.35,0.181,0.583,0.577,0.583
		c0.396,0,0.576-0.233,0.576-0.583V11.45c0-0.321-0.216-0.583-0.576-0.583c-0.396,0-0.577,0.263-0.577,0.583V18.394z"/>
	<path fill="#FFFFFF" d="M110.233,10.283c0-2.421,2.198-4.084,5.332-4.084c1.045,0,1.909,0.146,2.522,0.438
		c0.216-0.321,1.188-1.284,1.981-1.284c0.9,0,1.873,1.517,1.873,1.692c0,0.292-1.657,0.758-1.873,0.934
		c0.432,0.467,0.756,1.4,0.756,2.421v4.347c0,2.421-2.161,4.084-5.26,4.084c-0.432,0-1.116-0.059-1.477-0.146
		c-0.145,0.204-0.217,0.351-0.217,0.467c0,0.351,0.469,0.555,1.946,0.729c3.854,0.438,5.548,1.575,5.548,4.318
		c0,2.567-2.414,3.88-5.548,3.88c-4.035,0-5.837-1.692-5.837-3.355c0-0.991,0.469-1.721,1.153-2.129
		c-0.505-0.351-0.865-1.021-0.865-1.984c0-1.05,0.901-2.275,1.766-2.801c-0.973-0.671-1.802-1.925-1.802-3.092V10.283z
		 M113.765,23.412c-0.145,0.088-0.217,0.263-0.217,0.408c0,0.788,1.657,0.817,1.945,0.817c0.613,0,1.441-0.117,1.441-0.613
		c0-0.175-0.18-0.32-0.54-0.32C115.529,23.674,114.449,23.557,113.765,23.412z M114.953,14.193c0,0.379,0.252,0.583,0.612,0.583
		s0.541-0.204,0.541-0.583v-3.209c0-0.379-0.217-0.583-0.541-0.583c-0.36,0-0.612,0.175-0.612,0.554V14.193z"/>
	<path fill="#FFFFFF" d="M122.05,6.432c0-0.146,0.072-0.233,0.216-0.233h5.08c0.216,0,0.468,0.934,0.648,0.934
		c0.072,0,0.144-0.059,0.216-0.204c0.36-0.7,1.153-0.729,2.27-0.729c0.108,0,0.217,0.087,0.217,0.204v4.201
		c0,0.117-0.072,0.204-0.253,0.204c-1.837,0-2.558,0.788-2.558,3.151v9.481c0,0.146-0.144,0.263-0.324,0.263h-5.26
		c-0.145,0-0.252-0.088-0.252-0.233V6.432z"/>
	<path fill="#FFFFFF" d="M132.135,12.092c-0.252,0-0.252-0.146-0.252-1.518c0-2.305,2.197-4.376,5.944-4.376
		c3.963,0,6.16,2.013,6.16,4.289v7.907c0,0.233,0.108,0.233,0.9,0.233c0.145,0,0.253,0.116,0.253,0.233v1.809
		c0,1.43-1.55,3.121-3.567,3.121c-1.656,0-2.305-0.438-2.846-1.108c-0.18-0.204-0.288-0.263-0.36-0.263
		c-0.036,0-0.18,0.059-0.396,0.292c-0.396,0.438-1.261,0.992-2.521,0.992c-1.513,0-3.747-1.021-3.747-3.938v-2.159
		c0-2.305,1.91-3.53,3.892-4.201c2.63-0.904,2.773-1.225,2.773-2.246c0-0.409-0.216-0.613-0.54-0.613
		c-0.576,0-0.576,0.175-0.576,1.517c0,0.146-0.145,0.233-0.324,0.233L132.135,12.092z M138.367,16.206
		c0-0.117-0.072-0.204-0.216-0.233c-0.216,0-0.937,0.263-0.937,0.904v2.159c0,0.35,0.288,0.496,0.576,0.496s0.576-0.146,0.576-0.496
		V16.206z"/>
	<path fill="#FFFFFF" d="M150.903,6.199c0.145,0,0.505,0.729,0.685,0.729c0.072,0,0.18-0.059,0.396-0.204
		c0.54-0.321,1.297-0.525,2.125-0.525c1.802,0,3.855,1.021,3.855,5.806v6.098c0,4.435-2.271,5.602-4.107,5.602
		c-0.828,0-1.513-0.233-2.054-0.613c-0.18-0.146-0.252-0.204-0.324-0.204c-0.036,0-0.107,0.059-0.107,0.233v4.668
		c0,0.146-0.145,0.292-0.324,0.292h-4.684c-0.181,0-0.324-0.116-0.324-0.263V6.461c0-0.146,0.18-0.263,0.324-0.263H150.903z
		 M151.372,18.335c0,0.438,0.288,0.759,0.685,0.759c0.324,0,0.468-0.263,0.468-0.584v-7.323c0-0.146,0-0.525-0.468-0.525
		c-0.145,0-0.324,0.058-0.396,0.117c-0.181,0.146-0.288,0.321-0.288,0.554V18.335z"/>
	<path fill="#FFFFFF" d="M159.152,1.735c0-0.263,0.144-0.35,0.396-0.35h5.079c0.252,0,0.36,0.087,0.36,0.263v5.31
		c0,0.204,0.072,0.262,0.108,0.262s0.18-0.058,0.36-0.175c0.612-0.467,1.477-0.846,2.521-0.846c1.513,0,3.459,0.729,3.459,3.005
		v14.325c0,0.087-0.108,0.175-0.217,0.175h-4.972c-0.144,0-0.252-0.088-0.252-0.204V11.421c0-0.438-0.288-0.583-0.576-0.583
		s-0.576,0.146-0.576,0.583V23.47c0,0.116-0.108,0.233-0.253,0.233h-5.151c-0.145,0-0.288-0.146-0.288-0.263V1.735z"/>
	<path fill="#FFFFFF" d="M172.156,6.403c0-0.087,0.036-0.204,0.18-0.204h4.972c0.181,0,0.253,0.087,0.288,0.204l0.793,4.376
		c0.036,0.117,0.072,0.233,0.145,0.233c0.036,0,0.107-0.117,0.144-0.233l1.009-4.435c0.036-0.059,0.072-0.146,0.216-0.146h4.756
		c0.145,0,0.252,0.087,0.216,0.117l-5.079,21.531c-0.036,0.117-0.145,0.233-0.324,0.233h-4.611c-0.181,0-0.288-0.116-0.252-0.263
		l1.657-7.352c0.035-0.146,0.035-0.292,0-0.438L172.156,6.403z"/>
</g>
<g>
	<path fill="#FFFFFF" d="M204.544,11.042c0-0.087-0.145-0.204-0.253-0.204c-1.585,0-1.765,0-1.765,0.204v12.399
		c0,0.146-0.181,0.263-0.324,0.263h-4.863c-0.181,0-0.289-0.146-0.289-0.263v-12.37c0-0.204-0.144-0.233-0.504-0.233
		c-0.396,0-0.505-0.087-0.505-0.233V6.52c0-0.175,0.108-0.321,0.577-0.321c0.252,0,0.432-0.059,0.432-0.146V4.244
		c0-1.838,2.27-2.859,5.62-2.859h4.144c1.585,0,3.206,0.905,3.206,2.217c0,1.517,0,1.692-0.433,1.692h-4.395
		c-0.396,0-0.648-0.233-0.648-0.583c0-0.759-0.433-0.875-0.901-0.875c-0.576,0-1.116,0.321-1.116,0.846v1.109
		c0,0.292,0.252,0.408,0.54,0.408h6.917c0.216,0,0.396,0.117,0.396,0.263V23.47c0,0.116-0.108,0.233-0.252,0.233h-5.296
		c-0.145,0-0.288-0.146-0.288-0.263V11.042z"/>
	<path fill="#FFFFFF" d="M212.108,23.704c-0.145,0-0.288-0.146-0.288-0.263V1.735c0-0.263,0.144-0.35,0.396-0.35h5.079
		c0.252,0,0.36,0.087,0.36,0.263V23.47c0,0.116-0.144,0.233-0.288,0.233H212.108z"/>
	<path fill="#FFFFFF" d="M237.938,23.382c0,0.175-0.108,0.321-0.324,0.321h-4.828c-0.18,0-0.324-0.146-0.324-0.321V11.567
		c0-0.438-0.288-0.613-0.576-0.613s-0.576,0.175-0.576,0.613v11.845c0,0.175-0.108,0.292-0.324,0.292h-4.936
		c-0.181,0-0.324-0.088-0.324-0.263V11.538c0-0.438-0.288-0.583-0.577-0.583c-0.288,0-0.576,0.146-0.576,0.583V23.5
		c0,0.116-0.107,0.204-0.288,0.204h-4.936c-0.145,0-0.252-0.088-0.252-0.233V6.432c0-0.117,0.144-0.233,0.324-0.233h4.72
		c0.288,0,0.504,1.254,0.756,1.254c0.108,0,0.217-0.058,0.396-0.233c0.576-0.525,1.549-1.021,2.702-1.021
		c1.297,0,2.161,0.438,2.737,1.05c0.181,0.204,0.324,0.292,0.433,0.292s0.288-0.087,0.433-0.233
		c0.685-0.525,1.585-1.108,2.954-1.108c1.837,0,3.387,1.342,3.387,3.034V23.382z"/>
	<path fill="#FFFFFF" d="M239.16,10.721c0-2.684,2.486-4.522,6.197-4.522c3.71,0,6.196,1.809,6.196,4.668v8.285
		c0,2.714-2.486,4.552-6.196,4.552c-3.675,0-6.197-1.867-6.197-4.552V10.721z M244.781,18.394c0,0.35,0.181,0.583,0.577,0.583
		c0.396,0,0.576-0.233,0.576-0.583V11.45c0-0.321-0.216-0.583-0.576-0.583c-0.396,0-0.577,0.263-0.577,0.583V18.394z"/>
	<path fill="#FFFFFF" d="M252.561,10.283c0-2.421,2.198-4.084,5.332-4.084c1.045,0,1.909,0.146,2.522,0.438
		c0.216-0.321,1.188-1.284,1.981-1.284c0.9,0,1.873,1.517,1.873,1.692c0,0.292-1.657,0.758-1.873,0.934
		c0.432,0.467,0.756,1.4,0.756,2.421v4.347c0,2.421-2.161,4.084-5.26,4.084c-0.432,0-1.116-0.059-1.477-0.146
		c-0.145,0.204-0.217,0.351-0.217,0.467c0,0.351,0.469,0.555,1.946,0.729c3.854,0.438,5.548,1.575,5.548,4.318
		c0,2.567-2.414,3.88-5.548,3.88c-4.035,0-5.837-1.692-5.837-3.355c0-0.991,0.469-1.721,1.153-2.129
		c-0.505-0.351-0.865-1.021-0.865-1.984c0-1.05,0.901-2.275,1.766-2.801c-0.973-0.671-1.802-1.925-1.802-3.092V10.283z
		 M256.092,23.412c-0.145,0.088-0.217,0.263-0.217,0.408c0,0.788,1.657,0.817,1.946,0.817c0.612,0,1.44-0.117,1.44-0.613
		c0-0.175-0.18-0.32-0.54-0.32C257.857,23.674,256.777,23.557,256.092,23.412z M257.281,14.193c0,0.379,0.252,0.583,0.612,0.583
		s0.541-0.204,0.541-0.583v-3.209c0-0.379-0.217-0.583-0.541-0.583c-0.36,0-0.612,0.175-0.612,0.554V14.193z"/>
	<path fill="#FFFFFF" d="M264.376,6.432c0-0.146,0.072-0.233,0.216-0.233h5.08c0.216,0,0.468,0.934,0.648,0.934
		c0.072,0,0.144-0.059,0.216-0.204c0.36-0.7,1.153-0.729,2.27-0.729c0.108,0,0.217,0.087,0.217,0.204v4.201
		c0,0.117-0.072,0.204-0.253,0.204c-1.837,0-2.558,0.788-2.558,3.151v9.481c0,0.146-0.144,0.263-0.324,0.263h-5.26
		c-0.145,0-0.252-0.088-0.252-0.233V6.432z"/>
	<path fill="#FFFFFF" d="M274.462,12.092c-0.252,0-0.252-0.146-0.252-1.518c0-2.305,2.197-4.376,5.944-4.376
		c3.963,0,6.16,2.013,6.16,4.289v7.907c0,0.233,0.108,0.233,0.9,0.233c0.145,0,0.253,0.116,0.253,0.233v1.809
		c0,1.43-1.55,3.121-3.566,3.121c-1.657,0-2.307-0.438-2.847-1.108c-0.18-0.204-0.288-0.263-0.36-0.263
		c-0.036,0-0.18,0.059-0.396,0.292c-0.396,0.438-1.261,0.992-2.521,0.992c-1.513,0-3.747-1.021-3.747-3.938v-2.159
		c0-2.305,1.91-3.53,3.892-4.201c2.63-0.904,2.773-1.225,2.773-2.246c0-0.409-0.216-0.613-0.54-0.613
		c-0.576,0-0.576,0.175-0.576,1.517c0,0.146-0.145,0.233-0.324,0.233L274.462,12.092z M280.695,16.206
		c0-0.117-0.072-0.204-0.216-0.233c-0.216,0-0.937,0.263-0.937,0.904v2.159c0,0.35,0.288,0.496,0.576,0.496s0.576-0.146,0.576-0.496
		V16.206z"/>
	<path fill="#FFFFFF" d="M293.231,6.199c0.145,0,0.505,0.729,0.685,0.729c0.072,0,0.18-0.059,0.396-0.204
		c0.54-0.321,1.297-0.525,2.125-0.525c1.802,0,3.855,1.021,3.855,5.806v6.098c0,4.435-2.27,5.602-4.107,5.602
		c-0.828,0-1.513-0.233-2.054-0.613c-0.18-0.146-0.252-0.204-0.324-0.204c-0.036,0-0.107,0.059-0.107,0.233v4.668
		c0,0.146-0.145,0.292-0.324,0.292h-4.684c-0.181,0-0.324-0.116-0.324-0.263V6.461c0-0.146,0.18-0.263,0.324-0.263H293.231z
		 M293.7,18.335c0,0.438,0.288,0.759,0.685,0.759c0.324,0,0.468-0.263,0.468-0.584v-7.323c0-0.146,0-0.525-0.468-0.525
		c-0.145,0-0.324,0.058-0.396,0.117c-0.181,0.146-0.288,0.321-0.288,0.554V18.335z"/>
	<path fill="#FFFFFF" d="M301.48,1.735c0-0.263,0.144-0.35,0.396-0.35h5.079c0.252,0,0.36,0.087,0.36,0.263v5.31
		c0,0.204,0.072,0.262,0.108,0.262s0.18-0.058,0.36-0.175c0.612-0.467,1.477-0.846,2.521-0.846c1.513,0,3.459,0.729,3.459,3.005
		v14.325c0,0.087-0.108,0.175-0.217,0.175h-4.972c-0.144,0-0.252-0.088-0.252-0.204V11.421c0-0.438-0.288-0.583-0.576-0.583
		s-0.576,0.146-0.576,0.583V23.47c0,0.116-0.108,0.233-0.253,0.233h-5.151c-0.145,0-0.288-0.146-0.288-0.263V1.735z"/>
	<path fill="#FFFFFF" d="M314.484,6.403c0-0.087,0.036-0.204,0.18-0.204h4.972c0.181,0,0.253,0.087,0.288,0.204l0.793,4.376
		c0.036,0.117,0.072,0.233,0.145,0.233c0.036,0,0.107-0.117,0.144-0.233l1.009-4.435c0.036-0.059,0.072-0.146,0.216-0.146h4.756
		c0.145,0,0.252,0.087,0.216,0.117l-5.079,21.531c-0.036,0.117-0.145,0.233-0.324,0.233h-4.611c-0.181,0-0.288-0.116-0.252-0.263
		l1.657-7.352c0.035-0.146,0.035-0.292,0-0.438L314.484,6.403z"/>
</g>
<g>
	<path fill="#FFFFFF" d="M343.15,23.704c-0.145,0-0.288-0.146-0.288-0.263V1.735c0-0.263,0.144-0.35,0.396-0.35h5.079
		c0.252,0,0.36,0.087,0.36,0.263V23.47c0,0.116-0.144,0.233-0.288,0.233H343.15z"/>
	<path fill="#FFFFFF" d="M355.974,23.47c0,0.116-0.108,0.233-0.252,0.233h-5.296c-0.145,0-0.288-0.146-0.288-0.263V6.549
		c0-0.204,0.144-0.35,0.36-0.35h5.115c0.217,0,0.36,0.146,0.36,0.292V23.47z M355.614,4.973c0,0.175-0.144,0.321-0.36,0.321h-4.395
		c-0.181,0-0.36-0.175-0.36-0.35V1.327c0-0.146,0.18-0.321,0.36-0.321h4.431c0.145,0,0.324,0.088,0.324,0.233V4.973z"/>
	<path fill="#FFFFFF" d="M357.703,23.704c-0.145,0-0.288-0.117-0.288-0.292V6.403c0-0.117,0.107-0.204,0.252-0.204h4.503
		c0.253,0,0.541,1.226,0.685,1.226c0.036,0,0.108-0.029,0.253-0.175c0.648-0.671,1.297-1.05,2.81-1.05
		c1.766,0,3.53,1.108,3.53,3.093v14.266c0,0.088-0.072,0.146-0.18,0.146h-4.972c-0.145,0-0.252-0.088-0.252-0.204V11.567
		c0-0.438-0.288-0.583-0.577-0.583c-0.288,0-0.576,0.146-0.576,0.583v11.962c0,0.116-0.072,0.175-0.252,0.175H357.703z"/>
	<path fill="#FFFFFF" d="M376.508,18.131c0-0.059-0.036-0.117-0.072-0.117s-0.072,0.059-0.072,0.117v5.397
		c0,0.116-0.072,0.175-0.252,0.175h-4.936c-0.145,0-0.288-0.117-0.288-0.292V1.618c0-0.117,0.107-0.233,0.252-0.233h4.827
		c0.145,0,0.217,0.117,0.217,0.233v8.84c0,0.087,0.036,0.116,0.072,0.116c0,0,0.035-0.058,0.035-0.116l0.973-4.026
		c0.036-0.146,0.181-0.233,0.289-0.233h5.007c0.145,0,0.288,0.117,0.253,0.263l-2.666,7.265c-0.036,0.087-0.072,0.175-0.072,0.233
		c0,0.058,0.072,0.146,0.108,0.204l3.062,9.277c0.036,0.116-0.107,0.263-0.216,0.263h-5.296c-0.108,0-0.252-0.088-0.288-0.233
		L376.508,18.131z"/>
	<path fill="#FFFFFF" d="M390.989,12.267c-0.18,0.029-0.288-0.087-0.288-0.263c0-0.904-0.252-1.371-0.793-1.371
		c-0.288,0-0.54,0.204-0.54,0.525c0,0.612,1.081,1.488,3.062,2.946c2.125,1.517,3.025,2.771,3.025,4.639
		c0,2.509-1.549,4.96-5.943,4.96c-2.414,0-5.656-1.08-5.656-5.981c0-0.146,0.107-0.262,0.252-0.262l3.927-0.205
		c0.145,0,0.252,0.088,0.288,0.205c0.072,1.05,0.505,1.691,1.045,1.691c0.324,0,0.504-0.204,0.504-0.496
		c0-0.7-1.368-1.809-3.386-3.18c-1.478-0.962-2.774-2.538-2.774-4.726c0-2.597,2.558-4.551,5.765-4.551
		c4.322,0,6.16,2.713,6.16,5.602c0,0.146-0.181,0.263-0.36,0.263L390.989,12.267z"/>
</g>
<g>
	<path fill="#ED1C24" d="M2.862,43.26c0-0.263,0.144-0.35,0.396-0.35h5.079c0.252,0,0.36,0.087,0.36,0.263v5.31
		c0,0.204,0.072,0.262,0.108,0.262s0.18-0.058,0.36-0.175c0.612-0.467,1.477-0.846,2.521-0.846c1.513,0,3.459,0.729,3.459,3.005
		v14.325c0,0.087-0.108,0.175-0.217,0.175H9.959c-0.144,0-0.252-0.088-0.252-0.204V52.946c0-0.438-0.288-0.583-0.576-0.583
		s-0.576,0.146-0.576,0.583v12.049c0,0.116-0.108,0.233-0.253,0.233H3.15c-0.145,0-0.288-0.146-0.288-0.263V43.26z"/>
	<path fill="#ED1C24" d="M16.37,52.246c0-2.684,2.486-4.522,6.197-4.522c3.71,0,6.196,1.809,6.196,4.668v8.285
		c0,2.714-2.486,4.552-6.196,4.552c-3.675,0-6.197-1.867-6.197-4.552V52.246z M21.99,59.92c0,0.35,0.181,0.583,0.577,0.583
		c0.396,0,0.576-0.233,0.576-0.583v-6.944c0-0.321-0.216-0.583-0.576-0.583c-0.396,0-0.577,0.263-0.577,0.583V59.92z"/>
	<path fill="#ED1C24" d="M48.829,64.908c0,0.175-0.108,0.321-0.324,0.321h-4.828c-0.18,0-0.324-0.146-0.324-0.321V53.092
		c0-0.438-0.288-0.613-0.576-0.613S42.2,52.655,42.2,53.092v11.845c0,0.175-0.108,0.292-0.324,0.292H36.94
		c-0.181,0-0.324-0.088-0.324-0.263V53.063c0-0.438-0.288-0.583-0.577-0.583c-0.288,0-0.576,0.146-0.576,0.583v11.962
		c0,0.116-0.107,0.204-0.288,0.204h-4.936c-0.145,0-0.252-0.088-0.252-0.233V47.958c0-0.117,0.144-0.233,0.324-0.233h4.719
		c0.289,0,0.505,1.254,0.757,1.254c0.108,0,0.217-0.058,0.396-0.233c0.576-0.525,1.549-1.021,2.702-1.021
		c1.297,0,2.161,0.438,2.737,1.05c0.181,0.204,0.325,0.292,0.433,0.292c0.108,0,0.288-0.087,0.433-0.233
		c0.685-0.525,1.585-1.108,2.954-1.108c1.837,0,3.387,1.342,3.387,3.034V64.908z"/>
	<path fill="#ED1C24" d="M50.052,52.451c0-3.443,3.279-4.727,6.197-4.727c4.07,0,6.412,2.538,6.412,5.397v1.779
		c0,0.146-0.144,0.263-0.324,0.263H56.32c-0.144,0-0.216,0.088-0.216,0.233v4.58c0,0.467,0.252,0.643,0.576,0.643
		c0.253,0,0.577-0.176,0.577-0.613v-1.779c0-0.117,0.107-0.233,0.324-0.233l4.647,0.204c0.216,0.029,0.359,0.146,0.359,0.321v1.867
		c0,3.734-3.17,4.843-6.484,4.843c-3.854,0-6.053-2.218-6.053-5.543V52.451z M56.104,53.442c0,0.087,0.108,0.146,0.216,0.146
		c0.829,0,0.938,0,0.938-0.146c0-1.867-0.036-2.071-0.613-2.071c-0.288,0-0.54,0.175-0.54,0.613V53.442z"/>
</g>
<g>
	<path fill="#ED1C24" d="M76.913,65.229c-0.145,0-0.324-0.117-0.324-0.263V43.144c0-0.146,0.144-0.233,0.324-0.233h4.684
		c0.18,0,0.324,0.146,0.324,0.292v5.105c0,0.175,0.071,0.233,0.107,0.233c0.072,0,0.145-0.058,0.324-0.204
		c0.541-0.438,1.226-0.613,2.054-0.613c1.837,0,4.107,1.167,4.107,5.602v6.098c0,4.784-2.054,5.806-3.855,5.806
		c-0.828,0-1.585-0.204-2.125-0.525c-0.217-0.146-0.324-0.204-0.396-0.204c-0.18,0-0.54,0.729-0.685,0.729H76.913z M81.921,60.065
		c0,0.263,0.107,0.438,0.288,0.555c0.072,0.087,0.252,0.146,0.396,0.146c0.468,0,0.468-0.379,0.468-0.555v-7.322
		c0-0.292-0.144-0.555-0.468-0.555c-0.396,0-0.685,0.321-0.685,0.759V60.065z"/>
	<path fill="#ED1C24" d="M95.609,64.996c0,0.116-0.108,0.233-0.252,0.233h-5.296c-0.145,0-0.288-0.146-0.288-0.263V48.074
		c0-0.204,0.144-0.35,0.36-0.35h5.115c0.217,0,0.36,0.146,0.36,0.292V64.996z M95.249,46.499c0,0.175-0.144,0.321-0.36,0.321h-4.395
		c-0.181,0-0.36-0.175-0.36-0.35v-3.618c0-0.146,0.18-0.321,0.36-0.321h4.431c0.145,0,0.324,0.088,0.324,0.233V46.499z"/>
	<path fill="#ED1C24" d="M96.833,52.246c0-2.684,2.486-4.522,6.197-4.522c3.71,0,6.196,1.809,6.196,4.668v8.285
		c0,2.714-2.486,4.552-6.196,4.552c-3.675,0-6.197-1.867-6.197-4.552V52.246z M102.453,59.92c0,0.35,0.181,0.583,0.577,0.583
		c0.396,0,0.576-0.233,0.576-0.583v-6.944c0-0.321-0.216-0.583-0.576-0.583c-0.396,0-0.577,0.263-0.577,0.583V59.92z"/>
	<path fill="#ED1C24" d="M110.233,51.809c0-2.421,2.198-4.084,5.332-4.084c1.045,0,1.909,0.146,2.522,0.438
		c0.216-0.321,1.188-1.284,1.981-1.284c0.9,0,1.873,1.517,1.873,1.692c0,0.292-1.657,0.758-1.873,0.934
		c0.432,0.467,0.756,1.4,0.756,2.421v4.347c0,2.421-2.161,4.084-5.26,4.084c-0.432,0-1.116-0.059-1.477-0.146
		c-0.145,0.204-0.217,0.351-0.217,0.467c0,0.351,0.469,0.555,1.946,0.729c3.854,0.438,5.548,1.575,5.548,4.318
		c0,2.567-2.414,3.88-5.548,3.88c-4.035,0-5.837-1.692-5.837-3.355c0-0.991,0.469-1.721,1.153-2.129
		c-0.505-0.351-0.865-1.021-0.865-1.984c0-1.05,0.901-2.275,1.766-2.801c-0.973-0.671-1.802-1.925-1.802-3.092V51.809z
		 M113.765,64.937c-0.145,0.088-0.217,0.263-0.217,0.408c0,0.788,1.657,0.817,1.945,0.817c0.613,0,1.441-0.117,1.441-0.613
		c0-0.175-0.18-0.32-0.54-0.32C115.529,65.2,114.449,65.083,113.765,64.937z M114.953,55.718c0,0.379,0.252,0.583,0.612,0.583
		s0.541-0.204,0.541-0.583v-3.209c0-0.379-0.217-0.583-0.541-0.583c-0.36,0-0.612,0.175-0.612,0.554V55.718z"/>
	<path fill="#ED1C24" d="M122.05,47.958c0-0.146,0.072-0.233,0.216-0.233h5.08c0.216,0,0.468,0.934,0.648,0.934
		c0.072,0,0.144-0.059,0.216-0.204c0.36-0.7,1.153-0.729,2.27-0.729c0.108,0,0.217,0.087,0.217,0.204v4.201
		c0,0.117-0.072,0.204-0.253,0.204c-1.837,0-2.558,0.788-2.558,3.151v9.481c0,0.146-0.144,0.263-0.324,0.263h-5.26
		c-0.145,0-0.252-0.088-0.252-0.233V47.958z"/>
	<path fill="#ED1C24" d="M132.135,53.618c-0.252,0-0.252-0.146-0.252-1.518c0-2.305,2.197-4.376,5.944-4.376
		c3.963,0,6.16,2.013,6.16,4.289v7.907c0,0.233,0.108,0.233,0.9,0.233c0.145,0,0.253,0.116,0.253,0.233v1.809
		c0,1.43-1.55,3.121-3.567,3.121c-1.656,0-2.305-0.438-2.846-1.108c-0.18-0.204-0.288-0.263-0.36-0.263
		c-0.036,0-0.18,0.059-0.396,0.292c-0.396,0.438-1.261,0.992-2.521,0.992c-1.513,0-3.747-1.021-3.747-3.938v-2.159
		c0-2.305,1.91-3.53,3.892-4.201c2.63-0.904,2.773-1.225,2.773-2.246c0-0.409-0.216-0.613-0.54-0.613
		c-0.576,0-0.576,0.175-0.576,1.517c0,0.146-0.145,0.233-0.324,0.233L132.135,53.618z M138.367,57.731
		c0-0.117-0.072-0.204-0.216-0.233c-0.216,0-0.937,0.263-0.937,0.904v2.159c0,0.35,0.288,0.496,0.576,0.496s0.576-0.146,0.576-0.496
		V57.731z"/>
	<path fill="#ED1C24" d="M150.903,47.724c0.145,0,0.505,0.729,0.685,0.729c0.072,0,0.18-0.059,0.396-0.204
		c0.54-0.321,1.297-0.525,2.125-0.525c1.802,0,3.855,1.021,3.855,5.806v6.098c0,4.435-2.271,5.602-4.107,5.602
		c-0.828,0-1.513-0.233-2.054-0.613c-0.18-0.146-0.252-0.204-0.324-0.204c-0.036,0-0.107,0.059-0.107,0.233v4.668
		c0,0.146-0.145,0.292-0.324,0.292h-4.684c-0.181,0-0.324-0.116-0.324-0.263V47.987c0-0.146,0.18-0.263,0.324-0.263H150.903z
		 M151.372,59.861c0,0.438,0.288,0.759,0.685,0.759c0.324,0,0.468-0.263,0.468-0.584v-7.323c0-0.146,0-0.525-0.468-0.525
		c-0.145,0-0.324,0.058-0.396,0.117c-0.181,0.146-0.288,0.321-0.288,0.554V59.861z"/>
	<path fill="#ED1C24" d="M159.152,43.26c0-0.263,0.144-0.35,0.396-0.35h5.079c0.252,0,0.36,0.087,0.36,0.263v5.31
		c0,0.204,0.072,0.262,0.108,0.262s0.18-0.058,0.36-0.175c0.612-0.467,1.477-0.846,2.521-0.846c1.513,0,3.459,0.729,3.459,3.005
		v14.325c0,0.087-0.108,0.175-0.217,0.175h-4.972c-0.144,0-0.252-0.088-0.252-0.204V52.946c0-0.438-0.288-0.583-0.576-0.583
		s-0.576,0.146-0.576,0.583v12.049c0,0.116-0.108,0.233-0.253,0.233h-5.151c-0.145,0-0.288-0.146-0.288-0.263V43.26z"/>
	<path fill="#ED1C24" d="M172.156,47.928c0-0.087,0.036-0.204,0.18-0.204h4.972c0.181,0,0.253,0.087,0.288,0.204l0.793,4.376
		c0.036,0.117,0.072,0.233,0.145,0.233c0.036,0,0.107-0.117,0.144-0.233l1.009-4.435c0.036-0.059,0.072-0.146,0.216-0.146h4.756
		c0.145,0,0.252,0.087,0.216,0.117l-5.079,21.531c-0.036,0.117-0.145,0.233-0.324,0.233h-4.611c-0.181,0-0.288-0.116-0.252-0.263
		l1.657-7.352c0.035-0.146,0.035-0.292,0-0.438L172.156,47.928z"/>
</g>
<g>
	<path fill="#ED1C24" d="M204.544,52.567c0-0.087-0.145-0.204-0.253-0.204c-1.585,0-1.765,0-1.765,0.204v12.399
		c0,0.146-0.181,0.263-0.324,0.263h-4.863c-0.181,0-0.289-0.146-0.289-0.263v-12.37c0-0.204-0.144-0.233-0.504-0.233
		c-0.396,0-0.505-0.087-0.505-0.233v-4.084c0-0.175,0.108-0.321,0.577-0.321c0.252,0,0.432-0.059,0.432-0.146V45.77
		c0-1.838,2.27-2.859,5.62-2.859h4.144c1.585,0,3.206,0.905,3.206,2.217c0,1.517,0,1.692-0.433,1.692h-4.395
		c-0.396,0-0.648-0.233-0.648-0.583c0-0.759-0.433-0.875-0.901-0.875c-0.576,0-1.116,0.321-1.116,0.846v1.109
		c0,0.292,0.252,0.408,0.54,0.408h6.917c0.216,0,0.396,0.117,0.396,0.263v17.009c0,0.116-0.108,0.233-0.252,0.233h-5.296
		c-0.145,0-0.288-0.146-0.288-0.263V52.567z"/>
	<path fill="#ED1C24" d="M212.108,65.229c-0.145,0-0.288-0.146-0.288-0.263V43.26c0-0.263,0.144-0.35,0.396-0.35h5.079
		c0.252,0,0.36,0.087,0.36,0.263v21.823c0,0.116-0.144,0.233-0.288,0.233H212.108z"/>
	<path fill="#ED1C24" d="M237.938,64.908c0,0.175-0.108,0.321-0.324,0.321h-4.828c-0.18,0-0.324-0.146-0.324-0.321V53.092
		c0-0.438-0.288-0.613-0.576-0.613s-0.576,0.175-0.576,0.613v11.845c0,0.175-0.108,0.292-0.324,0.292h-4.936
		c-0.181,0-0.324-0.088-0.324-0.263V53.063c0-0.438-0.288-0.583-0.577-0.583c-0.288,0-0.576,0.146-0.576,0.583v11.962
		c0,0.116-0.107,0.204-0.288,0.204h-4.936c-0.145,0-0.252-0.088-0.252-0.233V47.958c0-0.117,0.144-0.233,0.324-0.233h4.72
		c0.288,0,0.504,1.254,0.756,1.254c0.108,0,0.217-0.058,0.396-0.233c0.576-0.525,1.549-1.021,2.702-1.021
		c1.297,0,2.161,0.438,2.737,1.05c0.181,0.204,0.324,0.292,0.433,0.292s0.288-0.087,0.433-0.233
		c0.685-0.525,1.585-1.108,2.954-1.108c1.837,0,3.387,1.342,3.387,3.034V64.908z"/>
	<path fill="#ED1C24" d="M239.16,52.246c0-2.684,2.486-4.522,6.197-4.522c3.71,0,6.196,1.809,6.196,4.668v8.285
		c0,2.714-2.486,4.552-6.196,4.552c-3.675,0-6.197-1.867-6.197-4.552V52.246z M244.781,59.92c0,0.35,0.181,0.583,0.577,0.583
		c0.396,0,0.576-0.233,0.576-0.583v-6.944c0-0.321-0.216-0.583-0.576-0.583c-0.396,0-0.577,0.263-0.577,0.583V59.92z"/>
	<path fill="#ED1C24" d="M252.561,51.809c0-2.421,2.198-4.084,5.332-4.084c1.045,0,1.909,0.146,2.522,0.438
		c0.216-0.321,1.188-1.284,1.981-1.284c0.9,0,1.873,1.517,1.873,1.692c0,0.292-1.657,0.758-1.873,0.934
		c0.432,0.467,0.756,1.4,0.756,2.421v4.347c0,2.421-2.161,4.084-5.26,4.084c-0.432,0-1.116-0.059-1.477-0.146
		c-0.145,0.204-0.217,0.351-0.217,0.467c0,0.351,0.469,0.555,1.946,0.729c3.854,0.438,5.548,1.575,5.548,4.318
		c0,2.567-2.414,3.88-5.548,3.88c-4.035,0-5.837-1.692-5.837-3.355c0-0.991,0.469-1.721,1.153-2.129
		c-0.505-0.351-0.865-1.021-0.865-1.984c0-1.05,0.901-2.275,1.766-2.801c-0.973-0.671-1.802-1.925-1.802-3.092V51.809z
		 M256.092,64.937c-0.145,0.088-0.217,0.263-0.217,0.408c0,0.788,1.657,0.817,1.946,0.817c0.612,0,1.44-0.117,1.44-0.613
		c0-0.175-0.18-0.32-0.54-0.32C257.857,65.2,256.777,65.083,256.092,64.937z M257.281,55.718c0,0.379,0.252,0.583,0.612,0.583
		s0.541-0.204,0.541-0.583v-3.209c0-0.379-0.217-0.583-0.541-0.583c-0.36,0-0.612,0.175-0.612,0.554V55.718z"/>
	<path fill="#ED1C24" d="M264.376,47.958c0-0.146,0.072-0.233,0.216-0.233h5.08c0.216,0,0.468,0.934,0.648,0.934
		c0.072,0,0.144-0.059,0.216-0.204c0.36-0.7,1.153-0.729,2.27-0.729c0.108,0,0.217,0.087,0.217,0.204v4.201
		c0,0.117-0.072,0.204-0.253,0.204c-1.837,0-2.558,0.788-2.558,3.151v9.481c0,0.146-0.144,0.263-0.324,0.263h-5.26
		c-0.145,0-0.252-0.088-0.252-0.233V47.958z"/>
	<path fill="#ED1C24" d="M274.462,53.618c-0.252,0-0.252-0.146-0.252-1.518c0-2.305,2.197-4.376,5.944-4.376
		c3.963,0,6.16,2.013,6.16,4.289v7.907c0,0.233,0.108,0.233,0.9,0.233c0.145,0,0.253,0.116,0.253,0.233v1.809
		c0,1.43-1.55,3.121-3.566,3.121c-1.657,0-2.307-0.438-2.847-1.108c-0.18-0.204-0.288-0.263-0.36-0.263
		c-0.036,0-0.18,0.059-0.396,0.292c-0.396,0.438-1.261,0.992-2.521,0.992c-1.513,0-3.747-1.021-3.747-3.938v-2.159
		c0-2.305,1.91-3.53,3.892-4.201c2.63-0.904,2.773-1.225,2.773-2.246c0-0.409-0.216-0.613-0.54-0.613
		c-0.576,0-0.576,0.175-0.576,1.517c0,0.146-0.145,0.233-0.324,0.233L274.462,53.618z M280.695,57.731
		c0-0.117-0.072-0.204-0.216-0.233c-0.216,0-0.937,0.263-0.937,0.904v2.159c0,0.35,0.288,0.496,0.576,0.496s0.576-0.146,0.576-0.496
		V57.731z"/>
	<path fill="#ED1C24" d="M293.231,47.724c0.145,0,0.505,0.729,0.685,0.729c0.072,0,0.18-0.059,0.396-0.204
		c0.54-0.321,1.297-0.525,2.125-0.525c1.802,0,3.855,1.021,3.855,5.806v6.098c0,4.435-2.27,5.602-4.107,5.602
		c-0.828,0-1.513-0.233-2.054-0.613c-0.18-0.146-0.252-0.204-0.324-0.204c-0.036,0-0.107,0.059-0.107,0.233v4.668
		c0,0.146-0.145,0.292-0.324,0.292h-4.684c-0.181,0-0.324-0.116-0.324-0.263V47.987c0-0.146,0.18-0.263,0.324-0.263H293.231z
		 M293.7,59.861c0,0.438,0.288,0.759,0.685,0.759c0.324,0,0.468-0.263,0.468-0.584v-7.323c0-0.146,0-0.525-0.468-0.525
		c-0.145,0-0.324,0.058-0.396,0.117c-0.181,0.146-0.288,0.321-0.288,0.554V59.861z"/>
	<path fill="#ED1C24" d="M301.48,43.26c0-0.263,0.144-0.35,0.396-0.35h5.079c0.252,0,0.36,0.087,0.36,0.263v5.31
		c0,0.204,0.072,0.262,0.108,0.262s0.18-0.058,0.36-0.175c0.612-0.467,1.477-0.846,2.521-0.846c1.513,0,3.459,0.729,3.459,3.005
		v14.325c0,0.087-0.108,0.175-0.217,0.175h-4.972c-0.144,0-0.252-0.088-0.252-0.204V52.946c0-0.438-0.288-0.583-0.576-0.583
		s-0.576,0.146-0.576,0.583v12.049c0,0.116-0.108,0.233-0.253,0.233h-5.151c-0.145,0-0.288-0.146-0.288-0.263V43.26z"/>
	<path fill="#ED1C24" d="M314.484,47.928c0-0.087,0.036-0.204,0.18-0.204h4.972c0.181,0,0.253,0.087,0.288,0.204l0.793,4.376
		c0.036,0.117,0.072,0.233,0.145,0.233c0.036,0,0.107-0.117,0.144-0.233l1.009-4.435c0.036-0.059,0.072-0.146,0.216-0.146h4.756
		c0.145,0,0.252,0.087,0.216,0.117l-5.079,21.531c-0.036,0.117-0.145,0.233-0.324,0.233h-4.611c-0.181,0-0.288-0.116-0.252-0.263
		l1.657-7.352c0.035-0.146,0.035-0.292,0-0.438L314.484,47.928z"/>
</g>
<g>
	<path fill="#ED1C24" d="M343.15,65.229c-0.145,0-0.288-0.146-0.288-0.263V43.26c0-0.263,0.144-0.35,0.396-0.35h5.079
		c0.252,0,0.36,0.087,0.36,0.263v21.823c0,0.116-0.144,0.233-0.288,0.233H343.15z"/>
	<path fill="#ED1C24" d="M355.974,64.996c0,0.116-0.108,0.233-0.252,0.233h-5.296c-0.145,0-0.288-0.146-0.288-0.263V48.074
		c0-0.204,0.144-0.35,0.36-0.35h5.115c0.217,0,0.36,0.146,0.36,0.292V64.996z M355.614,46.499c0,0.175-0.144,0.321-0.36,0.321
		h-4.395c-0.181,0-0.36-0.175-0.36-0.35v-3.618c0-0.146,0.18-0.321,0.36-0.321h4.431c0.145,0,0.324,0.088,0.324,0.233V46.499z"/>
	<path fill="#ED1C24" d="M357.703,65.229c-0.145,0-0.288-0.117-0.288-0.292V47.928c0-0.117,0.107-0.204,0.252-0.204h4.503
		c0.253,0,0.541,1.226,0.685,1.226c0.036,0,0.108-0.029,0.253-0.175c0.648-0.671,1.297-1.05,2.81-1.05
		c1.766,0,3.53,1.108,3.53,3.093v14.266c0,0.088-0.072,0.146-0.18,0.146h-4.972c-0.145,0-0.252-0.088-0.252-0.204V53.092
		c0-0.438-0.288-0.583-0.577-0.583c-0.288,0-0.576,0.146-0.576,0.583v11.962c0,0.116-0.072,0.175-0.252,0.175H357.703z"/>
	<path fill="#ED1C24" d="M376.508,59.657c0-0.059-0.036-0.117-0.072-0.117s-0.072,0.059-0.072,0.117v5.397
		c0,0.116-0.072,0.175-0.252,0.175h-4.936c-0.145,0-0.288-0.117-0.288-0.292V43.144c0-0.117,0.107-0.233,0.252-0.233h4.827
		c0.145,0,0.217,0.117,0.217,0.233v8.84c0,0.087,0.036,0.116,0.072,0.116c0,0,0.035-0.058,0.035-0.116l0.973-4.026
		c0.036-0.146,0.181-0.233,0.289-0.233h5.007c0.145,0,0.288,0.117,0.253,0.263l-2.666,7.265c-0.036,0.087-0.072,0.175-0.072,0.233
		c0,0.058,0.072,0.146,0.108,0.204l3.062,9.277c0.036,0.116-0.107,0.263-0.216,0.263h-5.296c-0.108,0-0.252-0.088-0.288-0.233
		L376.508,59.657z"/>
	<path fill="#ED1C24" d="M390.989,53.793c-0.18,0.029-0.288-0.087-0.288-0.263c0-0.904-0.252-1.371-0.793-1.371
		c-0.288,0-0.54,0.204-0.54,0.525c0,0.612,1.081,1.488,3.062,2.946c2.125,1.517,3.025,2.771,3.025,4.639
		c0,2.509-1.549,4.96-5.943,4.96c-2.414,0-5.656-1.08-5.656-5.981c0-0.146,0.107-0.262,0.252-0.262l3.927-0.205
		c0.145,0,0.252,0.088,0.288,0.205c0.072,1.05,0.505,1.691,1.045,1.691c0.324,0,0.504-0.204,0.504-0.496
		c0-0.7-1.368-1.809-3.386-3.18c-1.478-0.962-2.774-2.538-2.774-4.726c0-2.597,2.558-4.551,5.765-4.551
		c4.322,0,6.16,2.713,6.16,5.602c0,0.146-0.181,0.263-0.36,0.263L390.989,53.793z"/>
</g>
<g>
	<path fill="#ED1C24" d="M481.166,25.277c-0.876-0.657-1.534-0.219-2.082,0c-0.329-0.986-1.369-1.808-1.972-2.027
		c-0.603-0.219-0.548,1.643-0.986,3.451c-0.438,1.808-1.15,0.219-1.479-1.589c-0.329-1.808-0.219-3.451-0.712-4.163
		c-0.493-0.712-1.15,1.753-1.479,2.52c-0.329,0.767-1.862,3.615-2.52,4.93c-0.657,1.315-0.055-2.465,0.164-3.999
		c0.219-1.534-0.219-1.698-0.822-1.972c-0.603-0.274-1.15,2.027-2.246,3.287c-1.096,1.26-2.903,2.41-3.944,2.465
		c-1.041,0.055-0.383-2.629,0.329-4.163c0.712-1.534,2.52-1.972,3.944-2.082c-1.534-1.589-3.78-0.11-4.766,1.096
		c0.164-0.657,0-1.753,0.055-3.615c1.862,0.931,2.903,0.822,4.82,0.329c1.917-0.493,2.794-2.629,3.889-4.875
		c1.096-2.246,0.055-5.094-0.767-6.464c-0.822-1.369-3.396-1.369-4.93-0.712s-6.354,4.218-6.354,4.218
		c-0.603,0.493-3.013,2.739-4.108,4.327c-1.096,1.589-2.191,4.601-2.52,8.929c-0.329,4.327,2.136,6.299,3.561,6.573
		c1.424,0.274,3.287-1.369,5.259-2.575c3.451,0.548,5.368-1.15,6.847-2.848c-0.383,2.684,0.219,5.094,0.931,5.368
		c0.712,0.274,1.15-0.822,2.027-3.232c0.876-2.41,1.972-4.163,1.972-4.163s0.11,0.219,0.274,1.589
		c0.164,1.369,1.424,3.396,2.136,3.725c0.712,0.329,1.589-1.808,1.972-3.78c1.534,0.876,1.041,4.108,1.808,4.82
		c0.767,0.712,1.15-4.437,1.15-4.437s0.931,0.055,1.589,0.219C482.864,26.592,482.042,25.934,481.166,25.277z M454.434,28.838
		c-1.096-1.753-0.383-5.861,0.712-9.038c1.096-3.177,2.739-4.547,3.834-5.697c0,0.986,1.698,3.232,1.698,3.232
		c-4.108,1.753-4.327,3.834-4.82,6.902c-0.493,3.068,1.424,4.711,2.191,5.587C456.79,30.7,455.53,30.59,454.434,28.838z
		 M461.829,20.402c-0.274,1.917-0.657,4.437-1.26,5.752c-0.603,1.315-1.424,3.177-2.52,2.355c-1.096-0.822-1.753-2.958-1.096-5.094
		c0.657-2.136,1.26-4.273,4.218-5.368C461.172,18.046,462.103,18.484,461.829,20.402z M461.555,16.732c0,0-1.698-2.301-1.096-3.506
		c0.603-1.205,3.287-3.068,4.492-3.78c1.205-0.712,3.944-1.972,4.711-0.767s1.534,2.903,0.657,4.985
		c-0.876,2.082-1.862,4.054-3.396,4.711C465.39,19.032,463.801,19.142,461.555,16.732z"/>
	<path fill="#ED1C24" d="M502.639,24.839c0.329-0.931,1.205-2.136,1.096-2.958c-0.11-0.822-1.205,0.383-1.753,1.15
		c-0.548,0.767-0.876,2.301-1.26,4.218s-0.548,2.301-0.986,2.739c-1.041,0.274-1.589-2.684-1.589-2.684s0.274-0.11,0.931-0.822
		c0.657-0.712,0.438-1.041,0.329-2.082c-0.11-1.041-1.205-0.548-1.972,0.329c-0.767,0.876-0.548,2.136-0.548,2.136
		s-0.274,0.219-0.931,0.603c-0.657,0.383-1.698,0.876-2.246,0.164c-0.548-0.712,0.055-2.082,0.438-3.287
		c0.383-1.205,0.329-1.205-0.383-1.424c-0.712-0.219-1.26,1.534-1.369,2.958c-0.11,1.424,0.548,3.013,1.753,3.561
		c1.205,0.548,2.794-0.986,2.794-0.986c0.493,3.013,2.848,2.903,2.848,2.903s-2.136,7.778-2.903,10.079
		c-0.767,2.301-1.369,4.711-1.205,6.354s1.534,1.096,1.534,0.876c0-0.219-0.055-3.232,0.219-4.163s1.26-4.547,2.027-7.121
		c0.767-2.575,1.424-6.026,1.753-6.409c0.329-0.383,1.096-1.534,1.698-2.903c0.603-1.369,0.712-1.698,0.712-3.177
		c-0.603,1.479-1.643,2.575-1.643,2.575S502.31,25.77,502.639,24.839z"/>
	<path fill="#ED1C24" d="M445.067,26.263c-1.479-1.808-1.369-4.547-1.479-6.519c-0.11-1.972-1.369-1.369-1.369-1.369l-0.164,1.589
		c0,0,0.164,0.822,0,3.834c-0.164,3.013-1.479,3.615-1.753,3.451c-0.274-0.164-0.329-3.287-0.438-4.82
		c-0.11-1.534-1.589-1.205-1.589-1.205s0.11,0.383,0.164,1.479c0.055,1.096-0.657,2.355-1.972,3.341
		c-1.315,0.986-2.355-0.055-2.355-0.055s0.493-0.712,1.698-1.589c1.205-0.876,1.369-1.315,1.643-2.465
		c0.274-1.15-1.753-1.15-3.068-0.876c-1.315,0.274-2.848,0.822-4.875,1.424c-2.027,0.603-3.506,0.11-3.506,0.11
		s-0.438-0.712-0.822-1.643c2.903-2.355,6.519-1.917,8.436-1.589c-1.15-1.096-2.246-1.26-3.67-1.534
		c-1.424-0.274-4.601,1.534-5.806,2.082c-0.11-0.438-1.534-1.643-3.177-2.739c-1.643-1.096-4.711-3.013-6.135-4.766
		c-1.424-1.753-1.096-3.67-0.164-5.916c0.931-2.246,2.629-2.684,4.82-3.013c2.191-0.329,3.341,0.767,4.656,1.589
		c1.315,0.822,3.177,2.465,3.506,3.78s-0.493,1.862-1.369,1.972c-0.876,0.11-2.903-1.369-3.889-2.355
		c-0.986-0.986-0.822,0.603-0.822,0.603c0.876,1.589,1.972,1.643,3.396,2.575s2.903,0.712,3.451-0.11
		c0.767-1.643-0.055-3.78-1.808-5.478c-2.301-2.629-5.259-3.506-8.052-3.725c-2.794-0.219-4.273,1.972-5.149,3.834
		c-0.876,1.862-1.041,3.944-0.383,5.697c0.657,1.753,3.287,3.67,6.409,5.533c3.122,1.862,3.999,3.068,3.999,3.068l-1.589,1.698
		c0,0-1.808-0.11-3.78,0.11c-1.972,0.219-3.725,1.972-4.985,3.287c-1.26,1.315-0.219,2.136-0.219,2.136s0.383,0.329,2.739,2.191
		c2.355,1.862,4.163,2.027,5.04,2.136c3.232,0.219,4.93-1.369,5.971-3.122c3.78,0,5.423-1.26,6.519-2.191
		c1.096,1.096,1.26,0.986,2.355,1.041c1.096,0.055,2.191-0.493,3.396-1.589c0.274,1.698,0.876,2.739,1.862,2.958
		c0.986,0.219,1.589-1.698,2.355-3.889c0.219,0.822,0.931,1.589,1.917,2.739c0.986,1.15,2.027,1.589,3.889,1.589
		c1.862,0,2.246-1.862,2.246-1.862s-0.876,0.548-2.191,0.876S446.546,28.071,445.067,26.263z M419.814,30.7
		c-2.41,0.055-4.492-1.972-5.697-2.903c-1.205-0.931,0.329-1.862,2.191-3.451s3.396-1.15,4.82-1.096
		c0.11,3.67,3.889,5.368,3.889,5.368C423.43,30.645,422.225,30.645,419.814,30.7z M425.566,27.413
		c-1.096,0.164-3.013-2.41-3.232-3.287c-0.219-0.876,0.712-0.931,2.136-0.822C425.895,23.415,425.566,27.413,425.566,27.413z
		 M427.1,27.687c-0.055-1.424,0.055-3.068-0.603-3.944c0,0,3.341,0.164,5.094-0.931c0,1.205,0.219,2.191,0.657,2.739
		C430.332,26.866,428.634,27.961,427.1,27.687z M435.152,22.155c1.479-0.603,1.096-0.055,0.767,0.493
		c-0.329,0.548-2.41,2.246-2.41,2.246C432.906,23.907,433.673,22.757,435.152,22.155z"/>
	<path fill="#ED1C24" d="M491.354,28.18c-0.767-0.548-1.643-0.11-2.684-0.219c0.493-0.603,0.383-1.369,0.657-2.301
		c0.274-0.931-1.643-0.986-2.794-0.822c-1.15,0.164-2.191,0.383-3.013,0.219c-0.822-0.164-0.164,0.767,0.11,1.315
		c0.274,0.548,1.041,1.534,2.082,2.739c1.041,1.205,2.684,0.493,2.848,0.383c0,0,0.931-0.055,1.917-0.329
		c0.986-0.274,0.548,0.603,0.11,1.808c-0.438,1.205-0.11,0.876,0.383,1.698c0.493,0.822,0.986-0.931,1.424-2.41
		S492.121,28.728,491.354,28.18z M488.068,26.537c-0.712,0.767-0.931,1.15-1.479,1.15c-0.395,0-1.808-0.822-1.589-1.26
		c0.219-0.438,0.767-0.493,1.589-0.548C487.41,25.825,488.78,25.77,488.068,26.537z"/>
</g>
<g>
	<g>
		<circle fill="#ED1C24" cx="480.504" cy="53.504" r="8.504"/>
		<linearGradient id="SVGID_1_" gradientUnits="userSpaceOnUse" x1="473.892" y1="49.4946" x2="478.9028" y2="51.0364">
			<stop  offset="0" style="stop-color:#FFFFFF"/>
			<stop  offset="1" style="stop-color:#ED1C24"/>
		</linearGradient>
		<path fill="url(#SVGID_1_)" d="M479.361,47.112c1.033,0.822,0.708,2.951-0.727,4.755c-1.435,1.804-3.436,2.6-4.469,1.778
			c-1.033-0.822-0.708-2.951,0.727-4.755S478.328,46.29,479.361,47.112z"/>
	</g>
	<rect x="477.894" y="50.894" width="5.221" height="5.221"/>
</g>
<g>
	<g>
		<g>
			<circle fill="#ED1C24" cx="424.504" cy="53.504" r="8.504"/>
			<linearGradient id="SVGID_2_" gradientUnits="userSpaceOnUse" x1="417.892" y1="49.4946" x2="422.9028" y2="51.0364">
				<stop  offset="0" style="stop-color:#FFFFFF"/>
				<stop  offset="1" style="stop-color:#ED1C24"/>
			</linearGradient>
			<path fill="url(#SVGID_2_)" d="M423.361,47.112c1.033,0.822,0.708,2.951-0.727,4.755c-1.435,1.804-3.436,2.6-4.469,1.778
				c-1.033-0.822-0.708-2.951,0.727-4.755S422.328,46.29,423.361,47.112z"/>
		</g>
	</g>
	<g>
		<rect x="420.616" y="52.029" width="3.538" height="3.373"/>
		<polygon points="423.006,52.687 425.209,50.378 425.209,56.882 423.006,54.861 		"/>
		<path fill="none" stroke="#000000" stroke-width="0.5" stroke-linecap="round" stroke-miterlimit="10" d="M425.768,50.378
			c0,0,3.015,2.483,0,6.504"/>
		<path fill="none" stroke="#000000" stroke-width="0.5" stroke-linecap="round" stroke-miterlimit="10" d="M426.603,49.288
			c0,0,4.025,3.314,0,8.684"/>
	</g>
</g>
<g>
	<g>
		<circle fill="#ED1C24" cx="452.504" cy="53.504" r="8.504"/>
		<linearGradient id="SVGID_3_" gradientUnits="userSpaceOnUse" x1="445.892" y1="49.4946" x2="450.9028" y2="51.0364">
			<stop  offset="0" style="stop-color:#FFFFFF"/>
			<stop  offset="1" style="stop-color:#ED1C24"/>
		</linearGradient>
		<path fill="url(#SVGID_3_)" d="M451.361,47.112c1.033,0.822,0.708,2.951-0.727,4.755c-1.435,1.804-3.436,2.6-4.469,1.778
			c-1.033-0.822-0.708-2.951,0.727-4.755S450.328,46.29,451.361,47.112z"/>
	</g>
</g>
<g>
	<rect x="447.345" y="51.505" width="4.694" height="4.476"/>
	<polygon points="450.516,52.378 453.439,49.315 453.439,57.945 450.516,55.264 	"/>
	<path fill="none" stroke="#000000" stroke-width="0.5" stroke-linecap="round" stroke-miterlimit="10" d="M454.181,49.315
		c0,0,4,3.294,0,8.63"/>
	<path fill="none" stroke="#000000" stroke-width="0.5" stroke-linecap="round" stroke-miterlimit="10" d="M455.289,47.869
		c0,0,5.341,4.398,0,11.522"/>
</g>
</svg>
