<?xml version="1.0" encoding="utf-8"?>
<!-- Generator: Adobe Illustrator 15.0.0, SVG Export Plug-In  -->
<!DOCTYPE svg PUBLIC "-//W3C//DTD SVG 1.1//EN" "http://www.w3.org/Graphics/SVG/1.1/DTD/svg11.dtd" [
	<!ENTITY ns_flows "http://ns.adobe.com/Flows/1.0/">
]>
<svg version="1.1"
	 xmlns="http://www.w3.org/2000/svg" xmlns:xlink="http://www.w3.org/1999/xlink" xmlns:a="http://ns.adobe.com/AdobeSVGViewerExtensions/3.0/"
	 x="0px" y="0px" width="75px" height="159px" viewBox="-7.4 -12.2 75 159" enable-background="new -7.4 -12.2 75 159"
	 xml:space="preserve">
<defs>
</defs>
<radialGradient id="SVGID_1_" cx="26.7324" cy="4.5308" r="126.79" gradientUnits="userSpaceOnUse">
	<stop  offset="0.1616" style="stop-color:#000000"/>
	<stop  offset="0.6993" style="stop-color:#999999"/>
	<stop  offset="1" style="stop-color:#808080"/>
</radialGradient>
<path fill="url(#SVGID_1_)" stroke="#000000" stroke-miterlimit="10" d="M0.5,18.9c0,0,15.8,61.2,13.9,98.8c-0.6,17.6,23,19.4,23,0
	S36.3,45,47.8,15.9C51.4,5.6,3.5-14.4,0.5,18.9z"/>
<linearGradient id="SVGID_2_" gradientUnits="userSpaceOnUse" x1="13.729" y1="43.0532" x2="13.729" y2="127.7473">
	<stop  offset="0.1616" style="stop-color:#000000"/>
	<stop  offset="0.6993" style="stop-color:#999999"/>
	<stop  offset="1" style="stop-color:#F2F2F2"/>
</linearGradient>
<path fill="url(#SVGID_2_)" d="M21.3,126.7c0,0-3.8-3.8-3.5-14s-4.9-60.8-11.7-81c5.5,16.3,12.5,45.1,13.6,69.1
	C20.2,114.9,19.4,122.2,21.3,126.7z"/>
<linearGradient id="SVGID_3_" gradientUnits="userSpaceOnUse" x1="36.604" y1="36.6094" x2="36.604" y2="139.0964">
	<stop  offset="0.1616" style="stop-color:#000000"/>
	<stop  offset="0.5273" style="stop-color:#999999"/>
	<stop  offset="1" style="stop-color:#E6E6E6"/>
</linearGradient>
<path fill="url(#SVGID_3_)" d="M32.5,127.2c0,0,3.5-4,2.5-14.2c-1-10.2,0.6-61,6-81.6c-4.4,16.6-9.3,45.9-8.7,69.9
	C32.7,115.2,34.1,122.4,32.5,127.2z"/>
</svg>
