<?xml version="1.0" encoding="utf-8"?>
<!-- Generator: Adobe Illustrator 15.0.0, SVG Export Plug-In . SVG Version: 6.00 Build 0)  -->
<!DOCTYPE svg PUBLIC "-//W3C//DTD SVG 1.1//EN" "http://www.w3.org/Graphics/SVG/1.1/DTD/svg11.dtd">
<svg version="1.1" id="Layer_1" xmlns="http://www.w3.org/2000/svg" xmlns:xlink="http://www.w3.org/1999/xlink" x="0px" y="0px"
	 width="23.714px" height="14.813px" viewBox="0 0 23.714 14.813" enable-background="new 0 0 23.714 14.813" xml:space="preserve">
<linearGradient id="SVGID_1_" gradientUnits="userSpaceOnUse" x1="29.0938" y1="18.5195" x2="-1.1265" y2="-2.3628">
	<stop  offset="0.1616" style="stop-color:#000000"/>
	<stop  offset="0.6993" style="stop-color:#999999"/>
	<stop  offset="1" style="stop-color:#808080"/>
</linearGradient>
<path fill="url(#SVGID_1_)" d="M21.7,11.7c-0.3,1.6-1.2,2.6-2.601,2.6h-14c-1.4,0-2.7-1-3-2.6L0.3,2.8C0,1.3,1.5,0.3,2.9,0.3h17.8
	c1.399,0,2.8,1.2,2.6,2.6L21.7,11.7z"/>
<path fill="#333333" d="M3.4,12.3L1.6,3.7C1.3,2.1,2.7,1.4,4.2,1.4H22c0.3,0,0.6,0,1,0.1c-0.5-0.6-1.3-1.1-2.1-1.1H3
	c-1.4,0-2.9,0.8-2.6,2.4l1.8,8.9c0.3,1.2,1,2,2,2.399C3.8,13.6,3.5,13,3.4,12.3z"/>
<path fill="none" stroke="#000000" stroke-width="0.5" stroke-miterlimit="10" d="M21.7,11.7c-0.3,1.6-1.2,2.6-2.601,2.6h-14
	c-1.4,0-2.7-1-3-2.6L0.3,2.8C0,1.3,1.5,0.3,2.9,0.3h17.8c1.399,0,2.8,1.2,2.6,2.6L21.7,11.7z"/>
<path d="M4.1,6.3c0.2,0.1,0.6,0.3,1,0.3s0.7-0.2,0.7-0.4c0-0.3-0.2-0.4-0.7-0.6C4.4,5.3,3.9,4.9,3.9,4.3c0-0.7,0.6-1.2,1.6-1.2
	c0.5,0,0.8,0.1,1,0.2L6.3,4C6.1,3.9,5.8,3.8,5.5,3.8C5,3.8,4.9,4,4.9,4.2c0,0.3,0.2,0.4,0.8,0.6c0.6,0.3,1,0.6,1,1.2
	c0,0.7-0.5,1.3-1.6,1.3c-0.5,0-1-0.1-1.2-0.3L4.1,6.3z"/>
<path d="M8.1,3.9H7V3.1h3.2v0.8H9v3.3H8.1V3.9z"/>
<path d="M11.2,6.2l-0.3,1.1h-1l1.2-4.1h1.2l1.3,4.1h-1l-0.3-1.1H11.2z M12.2,5.5l-0.3-0.9c-0.1-0.2-0.1-0.5-0.2-0.8l0,0
	c-0.1,0.2-0.1,0.6-0.2,0.8l-0.2,0.9H12.2z"/>
<path d="M14.2,3.2c0.3,0,0.7-0.1,1.2-0.1c0.6,0,1,0.1,1.3,0.3C16.9,3.6,17.1,3.9,17.1,4.3c0,0.5-0.399,0.9-0.7,1l0,0
	c0.3,0.1,0.4,0.4,0.5,0.8c0.1,0.5,0.2,1,0.3,1.2h-1c-0.1-0.1-0.2-0.5-0.3-1s-0.3-0.7-0.7-0.7h-0.3v1.6H14v-4H14.2z M15.1,5h0.4
	c0.5,0,0.7-0.2,0.7-0.6s-0.3-0.6-0.7-0.6c-0.2,0-0.4,0-0.4,0V5z"/>
<path d="M18.6,3.9h-1.1V3.1h3.2v0.8H19.6v3.3H18.7V3.9H18.6z"/>
</svg>
