<?xml version="1.0" encoding="utf-8"?>
<!-- Generator: Adobe Illustrator 15.0.0, SVG Export Plug-In  -->
<!DOCTYPE svg PUBLIC "-//W3C//DTD SVG 1.1//EN" "http://www.w3.org/Graphics/SVG/1.1/DTD/svg11.dtd" [
	<!ENTITY ns_flows "http://ns.adobe.com/Flows/1.0/">
]>
<svg version="1.1"
	 xmlns="http://www.w3.org/2000/svg" xmlns:xlink="http://www.w3.org/1999/xlink" xmlns:a="http://ns.adobe.com/AdobeSVGViewerExtensions/3.0/"
	 x="0px" y="0px" width="255px" height="202px" viewBox="-14.3 -20.1 255 202" enable-background="new -14.3 -20.1 255 202"
	 xml:space="preserve">
<defs>
</defs>
<path fill="#333333" stroke="#000000" stroke-miterlimit="10" d="M174.2,94.7c0,3.1-2.6,5.7-5.8,5.7H8.1c-3.2,0-5.8-2.5-5.8-5.7V11
	c0-3.1,2.6-5.7,5.8-5.7h160.3c3.2,0,5.8,2.5,5.8,5.7V94.7z"/>
<path stroke="#666666" stroke-miterlimit="10" d="M171.2,94.4c0,1.6-1.3,2.9-3,2.9H8.2c-1.7,0-3-1.3-3-2.9V8.3c0-1.6,1.3-2.9,3-2.9
	h160c1.7,0,3,1.3,3,2.9V94.4z"/>
<radialGradient id="SVGID_1_" cx="177.9155" cy="29.9517" r="181.3268" gradientUnits="userSpaceOnUse">
	<stop  offset="0.1616" style="stop-color:#000000"/>
	<stop  offset="0.6993" style="stop-color:#999999"/>
	<stop  offset="1" style="stop-color:#808080"/>
</radialGradient>
<path fill="url(#SVGID_1_)" stroke="#000000" stroke-miterlimit="10" d="M186.8,4.3C175.4,0.7,24.5-2.1,6.5,4.4
	c-5.3,1.9-6,4.2-6,20.5c0,6.9,2.8,6.6,2.8,3.9c0-8.7,29.7-48.6,152.4,1.7C194.5,38.7,197.4,7.7,186.8,4.3z"/>
<radialGradient id="SVGID_2_" cx="185.8896" cy="36.5854" r="126.79" gradientUnits="userSpaceOnUse">
	<stop  offset="0.1616" style="stop-color:#000000"/>
	<stop  offset="0.6993" style="stop-color:#999999"/>
	<stop  offset="1" style="stop-color:#808080"/>
</radialGradient>
<path fill="url(#SVGID_2_)" stroke="#000000" stroke-miterlimit="10" d="M159.7,51c0,0,15.8,61.2,13.9,98.8c-0.6,17.6,23,19.4,23,0
	S195.4,77,206.9,48C210.6,37.7,162.7,17.7,159.7,51z"/>
<radialGradient id="SVGID_3_" cx="182.3838" cy="34.6621" r="32.7258" gradientUnits="userSpaceOnUse">
	<stop  offset="0" style="stop-color:#FFFFFF"/>
	<stop  offset="0.4182" style="stop-color:#999999"/>
	<stop  offset="0.8909" style="stop-color:#000000"/>
	<stop  offset="1" style="stop-color:#808080"/>
</radialGradient>
<circle fill="url(#SVGID_3_)" stroke="#000000" stroke-miterlimit="10" cx="182.4" cy="34.7" r="32.7"/>
<radialGradient id="SVGID_4_" cx="182.354" cy="34.7422" r="30.9032" gradientUnits="userSpaceOnUse">
	<stop  offset="0.4182" style="stop-color:#999999"/>
	<stop  offset="0.729" style="stop-color:#000000"/>
	<stop  offset="0.8908" style="stop-color:#808080"/>
	<stop  offset="0.9932" style="stop-color:#FFFFFF"/>
</radialGradient>
<path fill="url(#SVGID_4_)" stroke="#000000" stroke-miterlimit="10" d="M149.7,34.7c0,5.9,1.6,11.4,4.3,16.2
	c8.4-5,28.4-16.2,28.4-16.2L154,18.3C151.3,23.1,149.7,28.7,149.7,34.7z"/>
<radialGradient id="SVGID_5_" cx="826.3535" cy="396.7427" r="30.9032" gradientTransform="matrix(-1 0 0 -1 1008.4277 431.0703)" gradientUnits="userSpaceOnUse">
	<stop  offset="0.4182" style="stop-color:#999999"/>
	<stop  offset="0.729" style="stop-color:#000000"/>
	<stop  offset="0.8908" style="stop-color:#808080"/>
	<stop  offset="0.9932" style="stop-color:#FFFFFF"/>
</radialGradient>
<path fill="url(#SVGID_5_)" stroke="#000000" stroke-miterlimit="10" d="M214.8,34.4c0-5.9-1.6-11.4-4.3-16.2
	c-8.4,5-28.4,16.2-28.4,16.2l28.3,16.3C213.2,45.9,214.8,40.4,214.8,34.4z"/>
<radialGradient id="SVGID_6_" cx="323.354" cy="537.7427" r="30.9032" gradientTransform="matrix(0 1 -1 0 719.7485 -288.6787)" gradientUnits="userSpaceOnUse">
	<stop  offset="0.4182" style="stop-color:#999999"/>
	<stop  offset="0.729" style="stop-color:#000000"/>
	<stop  offset="0.8908" style="stop-color:#808080"/>
	<stop  offset="0.9932" style="stop-color:#FFFFFF"/>
</radialGradient>
<path fill="url(#SVGID_6_)" stroke="#000000" stroke-miterlimit="10" d="M182.1,2c-5.9,0-11.4,1.6-16.2,4.3
	c5,8.4,16.2,28.4,16.2,28.4l16.3-28.3C193.6,3.6,188,2,182.1,2z"/>
<radialGradient id="SVGID_7_" cx="685.3535" cy="-106.2583" r="30.9032" gradientTransform="matrix(8.979319e-011 -1 1 8.979319e-011 288.6782 719.7485)" gradientUnits="userSpaceOnUse">
	<stop  offset="0.4182" style="stop-color:#999999"/>
	<stop  offset="0.729" style="stop-color:#000000"/>
	<stop  offset="0.8908" style="stop-color:#808080"/>
	<stop  offset="0.9932" style="stop-color:#FFFFFF"/>
</radialGradient>
<path fill="url(#SVGID_7_)" stroke="#000000" stroke-miterlimit="10" d="M182.3,67.1c5.9,0,11.4-1.6,16.2-4.3
	c-5-8.4-16.2-28.4-16.2-28.4L166,62.7C170.8,65.5,176.4,67.1,182.3,67.1z"/>
<radialGradient id="SVGID_8_" cx="182.3838" cy="34.6621" r="23.6387" gradientUnits="userSpaceOnUse">
	<stop  offset="0.8606" style="stop-color:#999999"/>
	<stop  offset="0.9818" style="stop-color:#000000"/>
</radialGradient>
<circle fill="url(#SVGID_8_)" cx="182.4" cy="34.7" r="23.6"/>
<radialGradient id="SVGID_9_" cx="182.3838" cy="34.6621" r="21.3926" gradientUnits="userSpaceOnUse">
	<stop  offset="0" style="stop-color:#FFFFFF"/>
	<stop  offset="0.4182" style="stop-color:#999999"/>
	<stop  offset="0.8909" style="stop-color:#000000"/>
	<stop  offset="1" style="stop-color:#808080"/>
</radialGradient>
<circle fill="url(#SVGID_9_)" stroke="#000000" stroke-width="0.5" stroke-miterlimit="10" cx="182.4" cy="34.7" r="21.4"/>
<polygon fill="#333333" points="176.7,44.9 176.7,24.9 193.7,34.6 "/>
<polygon points="207.7,38.7 207.7,31 210.8,34.8 "/>
<polygon points="210.7,38.7 210.7,31 213.8,34.8 "/>
<polygon points="157,38.7 157,31 153.9,34.8 "/>
<polygon points="154,38.7 154,31 150.9,34.8 "/>
<path d="M178.4,9.6c0,0,4.2-1.7,8.4,0.2l-4.1-6.5L178.4,9.6z"/>
<path d="M178.4,59.9c0,0,4.2,1.7,8.4-0.2l-4.1,6.5L178.4,59.9z"/>
<linearGradient id="SVGID_10_" gradientUnits="userSpaceOnUse" x1="172.8862" y1="75.1079" x2="172.8862" y2="159.802">
	<stop  offset="0.1616" style="stop-color:#000000"/>
	<stop  offset="0.6993" style="stop-color:#999999"/>
	<stop  offset="1" style="stop-color:#F2F2F2"/>
</linearGradient>
<path fill="url(#SVGID_10_)" d="M180.5,158.8c0,0-3.8-3.8-3.5-14s-4.9-60.8-11.7-81c5.5,16.3,12.5,45.1,13.6,69.1
	C179.4,146.9,178.6,154.2,180.5,158.8z"/>
<linearGradient id="SVGID_11_" gradientUnits="userSpaceOnUse" x1="195.7612" y1="68.6641" x2="195.7612" y2="171.1511">
	<stop  offset="0.1616" style="stop-color:#000000"/>
	<stop  offset="0.5273" style="stop-color:#999999"/>
	<stop  offset="1" style="stop-color:#E6E6E6"/>
</linearGradient>
<path fill="url(#SVGID_11_)" d="M191.6,159.2c0,0,3.5-4,2.5-14.2c-1-10.2,0.6-61,6-81.6c-4.4,16.6-9.3,45.9-8.7,69.9
	C191.9,147.3,193.2,154.5,191.6,159.2z"/>
</svg>
