<?xml version="1.0" encoding="utf-8"?>
<!-- Generator: Adobe Illustrator 17.0.0, SVG Export Plug-In . SVG Version: 6.00 Build 0)  -->
<!DOCTYPE svg PUBLIC "-//W3C//DTD SVG 1.1//EN" "http://www.w3.org/Graphics/SVG/1.1/DTD/svg11.dtd">
<svg version="1.1" id="Layer_1" xmlns="http://www.w3.org/2000/svg" xmlns:xlink="http://www.w3.org/1999/xlink" x="0px" y="0px"
	 width="601px" height="118.333px" viewBox="0 0 601 118.333" enable-background="new 0 0 601 118.333" xml:space="preserve">
<g>
	<polygon fill="#E6E6E6" stroke="#000000" stroke-linecap="round" stroke-linejoin="round" stroke-miterlimit="10" points="
		220.5,57.833 151.5,57.833 220.5,23.166 	"/>
	<polygon fill="#E6E6E6" stroke="#000000" stroke-linecap="round" stroke-linejoin="round" stroke-miterlimit="10" points="
		289.5,57.833 220.5,57.833 220.5,23.166 	"/>
	<polygon fill="#E6E6E6" stroke="#000000" stroke-linecap="round" stroke-linejoin="round" stroke-miterlimit="10" points="
		220.5,93.166 151.5,57.833 220.5,57.833 	"/>
	<polygon fill="#E6E6E6" stroke="#000000" stroke-linecap="round" stroke-linejoin="round" stroke-miterlimit="10" points="
		220.5,93.166 220.5,57.833 289.5,57.833 	"/>
</g>
<g>
	<polygon fill="#00FFFF" stroke="#000000" stroke-linecap="round" stroke-linejoin="round" stroke-miterlimit="10" points="
		367.5,57.833 298.5,57.833 367.5,23.166 	"/>
	<polygon fill="#00FFFF" stroke="#000000" stroke-linecap="round" stroke-linejoin="round" stroke-miterlimit="10" points="
		436.5,57.833 367.5,57.833 367.5,23.166 	"/>
	<polygon fill="#00FFFF" stroke="#000000" stroke-linecap="round" stroke-linejoin="round" stroke-miterlimit="10" points="
		367.5,93.166 298.5,57.833 367.5,57.833 	"/>
	<polygon fill="#00FFFF" stroke="#000000" stroke-linecap="round" stroke-linejoin="round" stroke-miterlimit="10" points="
		367.5,93.166 367.5,57.833 436.5,57.833 	"/>
</g>
<g>
	<polygon fill="#CCCCCC" stroke="#000000" stroke-linecap="round" stroke-linejoin="round" stroke-miterlimit="10" points="
		73.5,57.833 4.5,57.833 73.5,23.166 	"/>
	<polygon fill="#CCCCCC" stroke="#000000" stroke-linecap="round" stroke-linejoin="round" stroke-miterlimit="10" points="
		142.5,57.833 73.5,57.833 73.5,23.166 	"/>
	<polygon fill="#CCCCCC" stroke="#000000" stroke-linecap="round" stroke-linejoin="round" stroke-miterlimit="10" points="
		73.5,93.166 4.5,57.833 73.5,57.833 	"/>
	<polygon fill="#CCCCCC" stroke="#000000" stroke-linecap="round" stroke-linejoin="round" stroke-miterlimit="10" points="
		73.5,93.166 73.5,57.833 142.5,57.833 	"/>
</g>
<polygon fill="#666666" stroke="#000000" stroke-linecap="round" stroke-linejoin="round" stroke-miterlimit="10" points="
	450.5,8.852 519.5,43.852 519.5,54.166 450.5,19.166 "/>
<polygon fill="#666666" stroke="#000000" stroke-linecap="round" stroke-linejoin="round" stroke-miterlimit="10" points="
	519.5,62.852 450.5,97.852 450.5,108.166 519.5,73.166 "/>
<g>
	<path opacity="0.62" fill="#808080" enable-background="new    " d="M580.606,31.276c0,0,11.683-1.869,13.552-3.738
		s-1.157,1.392-6.775,7.01S571.728,48.1,565.887,49.735c-5.842,1.636-22.666-1.868-10.749-7.477S579.205,31.276,580.606,31.276z"/>
	
		<path fill="#FF0000" stroke="#000000" stroke-width="0.5221" stroke-linecap="round" stroke-linejoin="round" stroke-miterlimit="10" d="
		M543.869,36.997c5.939-15.691,20.579-7.323,34.859-8.87c5.818-0.631,4.02-4.742,11.312-8.27c-7.353,3.557-1.319,5.253-6.976,12.605
		c-7.496,9.746-15.48,13.754-22.433,16.777c-8.671,3.771-17.733,1.838-17.733-6.901C542.898,41.246,543.02,39.243,543.869,36.997z"
		/>
	<path fill="#C40000" d="M582.23,30.825c-1.15,1.15-1.184,5.313-9.678,9.521c-4.252,2.105-3.729,5.537-13.409,7.616
		c-3.549,0.763-6.825,3.1-13.2,1.167c3.387,2.587,9.111,2.536,14.688,0.111c6.952-3.023,14.937-7.031,22.433-16.777
		c3.107-4.04,2.688-6.371,2.897-8.242C584.82,27.009,585.962,27.094,582.23,30.825z"/>
	
		<circle fill="#FFFFFF" stroke="#000000" stroke-width="0.5221" stroke-linecap="round" stroke-linejoin="round" stroke-miterlimit="10" cx="549.245" cy="37.02" r="1.555"/>
	
		<circle fill="#FFFFFF" stroke="#000000" stroke-width="0.5221" stroke-linecap="round" stroke-linejoin="round" stroke-miterlimit="10" cx="555.245" cy="38.02" r="1.555"/>
	
		<path fill="#FFFFFF" stroke="#000000" stroke-width="0.5221" stroke-linecap="round" stroke-linejoin="round" stroke-miterlimit="10" d="
		M545.522,40.608c0,0,4.833,6.847,14.257,1.047c-4.269,3.222-6.604,4.673-9.344,4.108C547.697,45.199,546.489,42.461,545.522,40.608
		z"/>
</g>
<g>
	<path opacity="0.62" fill="#808080" enable-background="new    " d="M580.606,85.276c0,0,11.683-1.869,13.552-3.738
		s-1.157,1.392-6.775,7.01s-15.655,13.552-21.496,15.188c-5.842,1.636-22.666-1.868-10.749-7.477S579.205,85.276,580.606,85.276z"/>
	
		<path fill="#0071BC" stroke="#000000" stroke-width="0.5221" stroke-linecap="round" stroke-linejoin="round" stroke-miterlimit="10" d="
		M543.869,90.997c5.939-15.691,20.579-7.323,34.859-8.87c5.818-0.631,4.02-4.742,11.312-8.27c-7.353,3.557-1.319,5.253-6.976,12.605
		c-7.496,9.746-15.48,13.754-22.433,16.777c-8.671,3.771-17.733,1.838-17.733-6.901C542.898,95.246,543.02,93.243,543.869,90.997z"
		/>
	<path fill="#2E3192" d="M582.23,84.825c-1.15,1.15-1.184,5.313-9.678,9.521c-4.252,2.105-3.729,5.537-13.409,7.616
		c-3.549,0.763-6.825,3.1-13.2,1.167c3.387,2.587,9.111,2.536,14.688,0.111c6.952-3.023,14.937-7.031,22.433-16.777
		c3.107-4.04,2.688-6.371,2.897-8.242C584.82,81.009,585.962,81.094,582.23,84.825z"/>
	
		<circle fill="#FFFFFF" stroke="#000000" stroke-width="0.5221" stroke-linecap="round" stroke-linejoin="round" stroke-miterlimit="10" cx="549.245" cy="91.02" r="1.555"/>
	
		<circle fill="#FFFFFF" stroke="#000000" stroke-width="0.5221" stroke-linecap="round" stroke-linejoin="round" stroke-miterlimit="10" cx="555.245" cy="92.02" r="1.555"/>
	
		<path fill="#FFFFFF" stroke="#000000" stroke-width="0.5221" stroke-linecap="round" stroke-linejoin="round" stroke-miterlimit="10" d="
		M545.522,94.608c0,0,4.833,6.847,14.257,1.047c-4.269,3.222-6.604,4.673-9.344,4.108C547.697,99.199,546.489,96.461,545.522,94.608
		z"/>
</g>
<g>
	
		<line fill="none" stroke="#000000" stroke-linecap="round" stroke-linejoin="round" stroke-miterlimit="10" x1="39.029" y1="40.494" x2="108.029" y2="75.161"/>
	
		<line fill="none" stroke="#000000" stroke-linecap="round" stroke-linejoin="round" stroke-miterlimit="10" x1="108.029" y1="40.494" x2="39.029" y2="75.161"/>
</g>
<g>
	
		<line fill="none" stroke="#000000" stroke-linecap="round" stroke-linejoin="round" stroke-miterlimit="10" x1="186.029" y1="40.494" x2="255.029" y2="75.161"/>
	
		<line fill="none" stroke="#000000" stroke-linecap="round" stroke-linejoin="round" stroke-miterlimit="10" x1="255.029" y1="40.494" x2="186.029" y2="75.161"/>
</g>
<g>
	
		<line fill="none" stroke="#000000" stroke-linecap="round" stroke-linejoin="round" stroke-miterlimit="10" x1="333.029" y1="40.494" x2="402.029" y2="75.161"/>
	
		<line fill="none" stroke="#000000" stroke-linecap="round" stroke-linejoin="round" stroke-miterlimit="10" x1="402.029" y1="40.494" x2="333.029" y2="75.161"/>
</g>
</svg>
