<?xml version="1.0" encoding="utf-8"?>
<!-- Generator: Adobe Illustrator 17.0.0, SVG Export Plug-In . SVG Version: 6.00 Build 0)  -->
<!DOCTYPE svg PUBLIC "-//W3C//DTD SVG 1.1//EN" "http://www.w3.org/Graphics/SVG/1.1/DTD/svg11.dtd">
<svg version="1.1" id="Layer_1" xmlns="http://www.w3.org/2000/svg" xmlns:xlink="http://www.w3.org/1999/xlink" x="0px" y="0px"
	 width="127.087px" height="115.739px" viewBox="0 0 127.087 115.739" enable-background="new 0 0 127.087 115.739"
	 xml:space="preserve">
<g>
	<path opacity="0.8" fill="#1869B3" d="M75.807,8.469c-4.835,0-21.725,0-26.561,0c-21.553,0-39.026,17.472-39.026,39.026
		s17.472,39.026,39.026,39.026c4.835,0,21.725,0,26.561,0c21.553,0,39.026-17.472,39.026-39.026S97.36,8.469,75.807,8.469z"/>
	<linearGradient id="SVGID_1_" gradientUnits="userSpaceOnUse" x1="62.5268" y1="102.5981" x2="62.5268" y2="86.5208">
		<stop  offset="0.0284" style="stop-color:#1869B3;stop-opacity:0"/>
		<stop  offset="1" style="stop-color:#1869B3"/>
	</linearGradient>
	<path opacity="0.8" fill="url(#SVGID_1_)" d="M107.365,102.598c-7.096-9.741-18.584-16.077-31.558-16.077
		c-4.835,0-21.725,0-26.561,0c-12.974,0-24.462,6.336-31.558,16.077H107.365z"/>
	<g>
		<path fill="#FFFFFF" d="M40.364,45.309v-3.844l3.629-3.175c6.135-5.305,9.116-8.355,9.202-11.53c0-2.214-1.382-3.968-4.622-3.968
			c-2.419,0-4.536,1.17-6.006,2.256l-1.857-4.553c2.117-1.546,5.4-2.799,9.202-2.799c6.35,0,9.85,3.593,9.85,8.522
			c0,4.553-3.413,8.188-7.474,11.697l-2.592,2.089v0.083h10.584v5.222H40.364z"/>
		<path fill="#FFFFFF" d="M82.27,22.666c-0.735-0.041-1.512,0-2.55,0.083c-5.832,0.459-8.424,3.342-9.158,6.517h0.129
			c1.382-1.379,3.326-2.172,5.962-2.172c4.709,0,8.683,3.216,8.683,8.856c0,5.389-4.276,9.817-10.368,9.817
			c-7.474,0-11.146-5.389-11.146-11.865c0-5.096,1.944-9.358,4.968-12.073c2.808-2.465,6.437-3.801,10.844-4.01
			c1.21-0.083,1.987-0.083,2.635-0.042V22.666z M78.684,36.286c0-2.507-1.382-4.68-4.191-4.68c-1.771,0-3.24,1.045-3.888,2.423
			c-0.173,0.335-0.259,0.835-0.259,1.587c0.129,2.883,1.555,5.473,4.536,5.473C77.215,41.089,78.684,39.043,78.684,36.286z"/>
		<path fill="#FFFFFF" d="M40.995,52.136l0.998,3.174c0.109,0.383,0.246,0.86,0.328,1.203h0.041
			c0.096-0.343,0.205-0.833,0.301-1.203l0.821-3.174h2.228l-1.558,4.258c-0.957,2.565-1.6,3.596-2.352,4.244
			c-0.725,0.608-1.49,0.82-2.01,0.886l-0.438-1.706c0.26-0.04,0.588-0.159,0.902-0.344c0.315-0.159,0.657-0.476,0.862-0.806
			c0.068-0.093,0.109-0.199,0.109-0.291c0-0.066-0.014-0.172-0.096-0.331l-2.447-5.91H40.995z"/>
		<path fill="#FFFFFF" d="M47.985,56.01c0.068,0.833,0.916,1.23,1.887,1.23c0.711,0,1.285-0.093,1.846-0.264l0.273,1.362
			c-0.683,0.264-1.518,0.397-2.42,0.397c-2.27,0-3.568-1.27-3.568-3.293c0-1.639,1.052-3.451,3.377-3.451
			c2.16,0,2.981,1.627,2.981,3.227c0,0.344-0.041,0.648-0.069,0.793H47.985z M50.433,54.634c0-0.489-0.219-1.309-1.176-1.309
			c-0.875,0-1.231,0.767-1.285,1.309H50.433z"/>
		<path fill="#FFFFFF" d="M57.409,58.601l-0.123-0.648h-0.041c-0.438,0.516-1.122,0.793-1.915,0.793c-1.353,0-2.16-0.952-2.16-1.983
			c0-1.68,1.559-2.486,3.925-2.473v-0.092c0-0.344-0.192-0.833-1.217-0.833c-0.684,0-1.409,0.225-1.846,0.489l-0.383-1.296
			c0.465-0.251,1.381-0.569,2.598-0.569c2.229,0,2.94,1.27,2.94,2.791v2.248c0,0.621,0.027,1.216,0.096,1.573H57.409z
			 M57.164,55.547c-1.094-0.013-1.942,0.238-1.942,1.018c0,0.516,0.356,0.767,0.821,0.767c0.519,0,0.944-0.33,1.08-0.74
			c0.027-0.105,0.041-0.225,0.041-0.344V55.547z"/>
		<path fill="#FFFFFF" d="M60.83,54.264c0-0.952-0.027-1.573-0.055-2.128h1.792l0.069,1.19h0.055
			c0.342-0.939,1.162-1.336,1.805-1.336c0.191,0,0.287,0,0.438,0.027v1.891c-0.151-0.027-0.328-0.053-0.561-0.053
			c-0.766,0-1.285,0.396-1.422,1.018c-0.027,0.133-0.041,0.291-0.041,0.45v3.279H60.83V54.264z"/>
		<path fill="#FFFFFF" d="M66.014,56.843c0.383,0.225,1.176,0.489,1.791,0.489c0.629,0,0.889-0.211,0.889-0.542
			c0-0.33-0.205-0.489-0.984-0.74c-1.381-0.449-1.915-1.177-1.901-1.944c0-1.203,1.066-2.116,2.721-2.116
			c0.779,0,1.476,0.172,1.887,0.37l-0.369,1.388c-0.301-0.158-0.875-0.37-1.45-0.37c-0.505,0-0.793,0.198-0.793,0.529
			c0,0.304,0.261,0.463,1.08,0.74c1.272,0.424,1.806,1.044,1.819,1.997c0,1.203-0.984,2.089-2.899,2.089
			c-0.875,0-1.654-0.186-2.16-0.45L66.014,56.843z"/>
		<path fill="#FFFFFF" d="M81.333,55.296c0,2.366-1.736,3.45-3.528,3.45c-1.955,0-3.459-1.242-3.459-3.332
			c0-2.089,1.422-3.425,3.568-3.425C79.965,51.99,81.333,53.352,81.333,55.296z M76.492,55.361c0,1.111,0.479,1.944,1.367,1.944
			c0.806,0,1.327-0.781,1.327-1.944c0-0.965-0.383-1.944-1.327-1.944C76.861,53.418,76.492,54.41,76.492,55.361z"/>
		<path fill="#FFFFFF" d="M82.853,58.601v-4.985h-0.875v-1.481h0.875v-0.251c0-0.78,0.246-1.639,0.848-2.168
			c0.52-0.477,1.245-0.648,1.846-0.648c0.465,0,0.821,0.053,1.108,0.132l-0.082,1.547c-0.178-0.053-0.396-0.093-0.67-0.093
			c-0.684,0-0.971,0.516-0.971,1.15v0.331h1.34v1.481h-1.326v4.985H82.853z"/>
		<path fill="#FFFFFF" d="M31.447,69.301c0.068,0.833,0.916,1.23,1.887,1.23c0.711,0,1.285-0.093,1.846-0.264l0.273,1.362
			c-0.683,0.264-1.518,0.397-2.42,0.397c-2.27,0-3.568-1.27-3.568-3.293c0-1.639,1.052-3.451,3.377-3.451
			c2.16,0,2.981,1.627,2.981,3.227c0,0.344-0.041,0.648-0.069,0.793H31.447z M33.895,67.926c0-0.489-0.219-1.309-1.176-1.309
			c-0.875,0-1.231,0.767-1.285,1.309H33.895z"/>
		<path fill="#FFFFFF" d="M38.492,65.427l0.657,1.071c0.191,0.331,0.369,0.661,0.547,0.966h0.027
			c0.178-0.344,0.342-0.675,0.519-0.992l0.588-1.044h2.256l-2.202,3.081l2.229,3.385h-2.352l-0.67-1.164
			c-0.191-0.317-0.356-0.648-0.519-0.978h-0.041c-0.164,0.343-0.342,0.661-0.505,0.978l-0.629,1.164h-2.283l2.27-3.292l-2.215-3.174
			H38.492z"/>
		<path fill="#FFFFFF" d="M44.004,67.596c0-0.846-0.027-1.573-0.055-2.168h1.805l0.096,0.899h0.027
			c0.492-0.688,1.258-1.045,2.229-1.045c1.463,0,2.776,1.23,2.776,3.293c0,2.353-1.545,3.464-3.036,3.464
			c-0.807,0-1.436-0.317-1.737-0.74h-0.027v3.213h-2.079V67.596z M46.083,69.116c0,0.158,0.014,0.304,0.041,0.423
			c0.136,0.542,0.615,0.952,1.217,0.952c0.902,0,1.436-0.727,1.436-1.825c0-1.031-0.479-1.811-1.409-1.811
			c-0.588,0-1.108,0.423-1.244,1.018c-0.027,0.106-0.041,0.238-0.041,0.357V69.116z"/>
		<path fill="#FFFFFF" d="M53.826,69.301c0.068,0.833,0.916,1.23,1.887,1.23c0.711,0,1.285-0.093,1.846-0.264l0.273,1.362
			c-0.683,0.264-1.518,0.397-2.42,0.397c-2.27,0-3.568-1.27-3.568-3.293c0-1.639,1.052-3.451,3.377-3.451
			c2.16,0,2.981,1.627,2.981,3.227c0,0.344-0.041,0.648-0.069,0.793H53.826z M56.274,67.926c0-0.489-0.219-1.309-1.176-1.309
			c-0.875,0-1.231,0.767-1.285,1.309H56.274z"/>
		<path fill="#FFFFFF" d="M59.448,67.556c0-0.952-0.027-1.573-0.055-2.128h1.792l0.069,1.19h0.055
			c0.342-0.939,1.162-1.336,1.805-1.336c0.191,0,0.287,0,0.438,0.027v1.891c-0.151-0.027-0.328-0.053-0.561-0.053
			c-0.766,0-1.285,0.396-1.422,1.018c-0.027,0.133-0.041,0.291-0.041,0.45v3.279h-2.079V67.556z"/>
		<path fill="#FFFFFF" d="M66.793,63.629c0,0.555-0.438,1.005-1.122,1.005c-0.656,0-1.093-0.45-1.08-1.005
			c-0.013-0.582,0.424-1.018,1.094-1.018C66.355,62.611,66.779,63.047,66.793,63.629z M64.646,71.893v-6.466h2.079v6.466H64.646z"/>
		<path fill="#FFFFFF" d="M69.994,69.301c0.068,0.833,0.916,1.23,1.887,1.23c0.711,0,1.285-0.093,1.846-0.264L74,71.629
			c-0.683,0.264-1.518,0.397-2.42,0.397c-2.27,0-3.568-1.27-3.568-3.293c0-1.639,1.052-3.451,3.377-3.451
			c2.16,0,2.981,1.627,2.981,3.227c0,0.344-0.041,0.648-0.069,0.793H69.994z M72.442,67.926c0-0.489-0.219-1.309-1.176-1.309
			c-0.875,0-1.231,0.767-1.285,1.309H72.442z"/>
		<path fill="#FFFFFF" d="M75.616,67.49c0-0.807-0.027-1.494-0.055-2.063h1.805l0.096,0.886h0.041
			c0.273-0.41,0.957-1.032,2.065-1.032c1.367,0,2.393,0.873,2.393,2.777v3.834h-2.079V68.31c0-0.833-0.301-1.402-1.053-1.402
			c-0.574,0-0.916,0.383-1.053,0.753c-0.055,0.119-0.082,0.317-0.082,0.502v3.729h-2.079V67.49z"/>
		<path fill="#FFFFFF" d="M88.65,71.735c-0.369,0.158-1.066,0.291-1.859,0.291c-2.16,0-3.541-1.27-3.541-3.306
			c0-1.891,1.34-3.438,3.828-3.438c0.548,0,1.149,0.093,1.586,0.252l-0.328,1.494c-0.246-0.105-0.615-0.198-1.162-0.198
			c-1.093,0-1.805,0.753-1.792,1.812c0,1.189,0.821,1.811,1.833,1.811c0.492,0,0.875-0.08,1.189-0.198L88.65,71.735z"/>
		<path fill="#FFFFFF" d="M91.251,69.301c0.068,0.833,0.916,1.23,1.887,1.23c0.711,0,1.285-0.093,1.846-0.264l0.273,1.362
			c-0.683,0.264-1.518,0.397-2.42,0.397c-2.27,0-3.568-1.27-3.568-3.293c0-1.639,1.052-3.451,3.377-3.451
			c2.16,0,2.981,1.627,2.981,3.227c0,0.344-0.041,0.648-0.069,0.793H91.251z M93.699,67.926c0-0.489-0.219-1.309-1.176-1.309
			c-0.875,0-1.231,0.767-1.285,1.309H93.699z"/>
	</g>
</g>
</svg>
