<?xml version="1.0" encoding="utf-8"?>
<!-- Generator: Adobe Illustrator 17.0.0, SVG Export Plug-In . SVG Version: 6.00 Build 0)  -->
<!DOCTYPE svg PUBLIC "-//W3C//DTD SVG 1.1//EN" "http://www.w3.org/Graphics/SVG/1.1/DTD/svg11.dtd">
<svg version="1.1" id="Layer_1" xmlns="http://www.w3.org/2000/svg" xmlns:xlink="http://www.w3.org/1999/xlink" x="0px" y="0px"
	 width="196.783px" height="135px" viewBox="0 0 196.783 135" enable-background="new 0 0 196.783 135" xml:space="preserve">
<g>
	<path opacity="0.8" fill="#1869B3" d="M139.619,7.696c-5.955,0-75.946,0-81.902,0c-26.547,0-48.067,21.52-48.067,48.067
		s21.52,48.067,48.067,48.067c5.955,0,75.946,0,81.902,0c26.547,0,48.067-21.52,48.067-48.067S166.166,7.696,139.619,7.696z"/>
	<g>
		<path fill="#FFFFFF" d="M81.527,20.151c-0.32,0.166-1.138,0.358-2.161,0.358c-3.223,0-4.643-2.008-4.643-4.297
			c0-3.031,2.226-4.578,4.796-4.578c0.985,0,1.79,0.192,2.148,0.371l-0.448,1.829c-0.371-0.154-0.908-0.307-1.598-0.307
			c-1.317,0-2.468,0.781-2.468,2.532c0,1.56,0.934,2.532,2.519,2.532c0.55,0,1.177-0.102,1.535-0.243L81.527,20.151z"/>
		<path fill="#FFFFFF" d="M82.78,11.761h2.314v6.689h3.312v1.931H82.78V11.761z"/>
		<path fill="#FFFFFF" d="M91.846,11.761v8.62h-2.315v-8.62H91.846z"/>
		<path fill="#FFFFFF" d="M98.841,16.903h-3.094v1.586h3.465v1.892h-5.78v-8.62h5.601v1.893h-3.286v1.38h3.094V16.903z"/>
		<path fill="#FFFFFF" d="M100.49,20.381v-8.62h2.724l1.368,2.648c0.474,0.857,0.972,2.008,1.355,3.018h0.038
			c-0.128-1.138-0.179-2.34-0.179-3.62v-2.046h2.11v8.62h-2.429l-1.471-2.865c-0.473-0.908-1.036-2.072-1.445-3.108h-0.051
			c0.063,1.163,0.089,2.455,0.089,3.849v2.123H100.49z"/>
		<path fill="#FFFFFF" d="M111.181,13.706h-2.2v-1.944h6.752v1.944h-2.237v6.675h-2.315V13.706z"/>
		<path fill="#FFFFFF" d="M116.82,18.08c0.525,0.268,1.369,0.537,2.238,0.537c0.793,0,1.177-0.269,1.177-0.703
			c0-0.423-0.384-0.652-1.355-0.985c-1.458-0.525-2.43-1.318-2.43-2.597c0-1.522,1.292-2.698,3.466-2.698
			c1.023,0,1.765,0.192,2.328,0.435l-0.486,1.854c-0.371-0.166-1.011-0.409-1.867-0.409c-0.703,0-1.086,0.256-1.086,0.64
			c0,0.434,0.46,0.6,1.548,1.01c1.547,0.576,2.237,1.395,2.237,2.597c0,1.483-1.151,2.749-3.67,2.749
			c-1.037,0-2.046-0.268-2.532-0.525L116.82,18.08z"/>
		<path fill="#FFFFFF" d="M37.37,34.248l-0.52,1.872h-1.71l2.23-7.294h2.164l2.262,7.294h-1.775l-0.563-1.872H37.37z M39.221,33.015
			l-0.454-1.548c-0.13-0.433-0.259-0.974-0.368-1.407h-0.021c-0.109,0.433-0.217,0.985-0.336,1.407l-0.432,1.548H39.221z"/>
		<path fill="#FFFFFF" d="M47.856,35.915c-0.303,0.152-0.985,0.314-1.872,0.314c-2.522,0-3.819-1.57-3.819-3.648
			c0-2.489,1.774-3.874,3.982-3.874c0.855,0,1.504,0.173,1.796,0.325l-0.335,1.309c-0.335-0.14-0.8-0.27-1.385-0.27
			c-1.309,0-2.327,0.79-2.327,2.413c0,1.461,0.866,2.38,2.337,2.38c0.499,0,1.05-0.108,1.375-0.238L47.856,35.915z"/>
		<path fill="#FFFFFF" d="M53.277,33.036h-2.684v1.732h2.998v1.353h-4.653v-7.294h4.502v1.353h-2.846v1.515h2.684V33.036z"/>
		<path fill="#FFFFFF" d="M53.937,37.408c0.335-0.964,0.627-2.089,0.779-3.074l1.677-0.108c-0.357,1.104-0.844,2.239-1.363,3.084
			L53.937,37.408z"/>
		<path fill="#FFFFFF" d="M61.327,34.248l-0.519,1.872h-1.71l2.229-7.294h2.165l2.261,7.294h-1.774l-0.563-1.872H61.327z
			 M63.178,33.015l-0.454-1.548c-0.13-0.433-0.26-0.974-0.368-1.407h-0.022c-0.108,0.433-0.216,0.985-0.335,1.407l-0.433,1.548
			H63.178z"/>
		<path fill="#FFFFFF" d="M66.607,28.436h1.645v7.684h-1.645V28.436z"/>
		<path fill="#FFFFFF" d="M73.555,35.991c-0.292,0.13-0.844,0.238-1.472,0.238c-1.71,0-2.803-1.039-2.803-2.706
			c0-1.548,1.061-2.814,3.03-2.814c0.433,0,0.91,0.076,1.256,0.206l-0.259,1.223c-0.195-0.086-0.487-0.162-0.92-0.162
			c-0.866,0-1.428,0.617-1.418,1.483c0,0.974,0.649,1.482,1.451,1.482c0.39,0,0.693-0.065,0.941-0.162L73.555,35.991z"/>
		<path fill="#FFFFFF" d="M77.514,36.12l-0.097-0.53h-0.033c-0.346,0.422-0.888,0.649-1.515,0.649c-1.071,0-1.71-0.779-1.71-1.623
			c0-1.375,1.233-2.035,3.106-2.024v-0.075c0-0.281-0.152-0.682-0.963-0.682c-0.542,0-1.115,0.183-1.461,0.401l-0.304-1.061
			c0.368-0.206,1.093-0.466,2.057-0.466c1.764,0,2.327,1.039,2.327,2.283v1.84c0,0.509,0.021,0.996,0.076,1.288H77.514z
			 M77.32,33.621c-0.866-0.012-1.537,0.194-1.537,0.833c0,0.422,0.281,0.627,0.649,0.627c0.411,0,0.746-0.27,0.855-0.605
			c0.021-0.086,0.033-0.184,0.033-0.281V33.621z"/>
		<path fill="#FFFFFF" d="M81.973,29.313v1.515h1.18v1.212h-1.18v1.916c0,0.639,0.152,0.931,0.649,0.931
			c0.206,0,0.368-0.022,0.487-0.043l0.011,1.244c-0.216,0.086-0.606,0.141-1.071,0.141c-0.53,0-0.974-0.184-1.233-0.454
			c-0.304-0.314-0.454-0.823-0.454-1.57V32.04h-0.704v-1.212h0.704v-1.147L81.973,29.313z"/>
		<path fill="#FFFFFF" d="M85.317,33.999c0.054,0.682,0.724,1.007,1.493,1.007c0.563,0,1.017-0.076,1.461-0.217l0.216,1.115
			c-0.541,0.216-1.201,0.325-1.916,0.325c-1.796,0-2.824-1.039-2.824-2.695c0-1.342,0.833-2.825,2.673-2.825
			c1.71,0,2.359,1.331,2.359,2.641c0,0.281-0.033,0.53-0.055,0.649H85.317z M87.253,32.873c0-0.401-0.173-1.071-0.931-1.071
			c-0.693,0-0.974,0.627-1.017,1.071H87.253z"/>
		<path fill="#FFFFFF" d="M89.764,28.436h1.645v7.684h-1.645V28.436z"/>
		<path fill="#FFFFFF" d="M95.239,32.733v1.093h-2.836v-1.093H95.239z"/>
		<path fill="#FFFFFF" d="M96.278,28.826h1.655v5.909h2.901v1.385h-4.556V28.826z"/>
		<path fill="#FFFFFF" d="M106.623,34.421c0,0.693,0.022,1.256,0.043,1.699h-1.428l-0.075-0.746h-0.033
			c-0.206,0.325-0.704,0.866-1.656,0.866c-1.071,0-1.862-0.671-1.862-2.306v-3.106h1.656v2.846c0,0.769,0.249,1.233,0.822,1.233
			c0.454,0,0.715-0.313,0.822-0.574c0.044-0.097,0.055-0.227,0.055-0.357v-3.149h1.655V34.421z"/>
		<path fill="#FFFFFF" d="M111.914,35.991c-0.292,0.13-0.843,0.238-1.472,0.238c-1.71,0-2.802-1.039-2.802-2.706
			c0-1.548,1.061-2.814,3.03-2.814c0.433,0,0.909,0.076,1.256,0.206l-0.26,1.223c-0.194-0.086-0.487-0.162-0.919-0.162
			c-0.866,0-1.428,0.617-1.418,1.483c0,0.974,0.649,1.482,1.451,1.482c0.389,0,0.693-0.065,0.941-0.162L111.914,35.991z"/>
		<path fill="#FFFFFF" d="M113.97,33.999c0.054,0.682,0.725,1.007,1.494,1.007c0.563,0,1.017-0.076,1.461-0.217l0.216,1.115
			c-0.541,0.216-1.202,0.325-1.916,0.325c-1.796,0-2.824-1.039-2.824-2.695c0-1.342,0.833-2.825,2.672-2.825
			c1.71,0,2.359,1.331,2.359,2.641c0,0.281-0.033,0.53-0.054,0.649H113.97z M115.907,32.873c0-0.401-0.174-1.071-0.931-1.071
			c-0.693,0-0.974,0.627-1.017,1.071H115.907z"/>
		<path fill="#FFFFFF" d="M118.416,32.517c0-0.661-0.021-1.223-0.043-1.689h1.428l0.076,0.725h0.033
			c0.216-0.335,0.758-0.844,1.634-0.844c1.083,0,1.894,0.715,1.894,2.273v3.138h-1.646v-2.933c0-0.682-0.238-1.147-0.833-1.147
			c-0.454,0-0.725,0.314-0.834,0.617c-0.043,0.097-0.064,0.259-0.064,0.411v3.052h-1.646V32.517z"/>
		<path fill="#FFFFFF" d="M126.533,29.313v1.515h1.18v1.212h-1.18v1.916c0,0.639,0.151,0.931,0.649,0.931
			c0.206,0,0.368-0.022,0.487-0.043l0.011,1.244c-0.217,0.086-0.606,0.141-1.072,0.141c-0.53,0-0.973-0.184-1.233-0.454
			c-0.303-0.314-0.454-0.823-0.454-1.57V32.04h-0.703v-1.212h0.703v-1.147L126.533,29.313z"/>
		<path fill="#FFFFFF" d="M127.939,37.408c0.335-0.964,0.627-2.089,0.779-3.074l1.677-0.108c-0.357,1.104-0.844,2.239-1.363,3.084
			L127.939,37.408z"/>
		<path fill="#FFFFFF" d="M133.631,28.923c0.432-0.086,1.309-0.151,2.132-0.151c1.007,0,1.623,0.097,2.154,0.411
			c0.508,0.27,0.876,0.769,0.876,1.428c0,0.649-0.378,1.256-1.201,1.558v0.022c0.833,0.227,1.451,0.855,1.451,1.796
			c0,0.66-0.304,1.18-0.758,1.548c-0.53,0.422-1.418,0.66-2.867,0.66c-0.812,0-1.418-0.054-1.786-0.109V28.923z M135.265,31.716
			h0.541c0.866,0,1.331-0.357,1.331-0.898c0-0.552-0.423-0.844-1.169-0.844c-0.357,0-0.563,0.022-0.703,0.043V31.716z
			 M135.265,34.951c0.162,0.022,0.357,0.022,0.639,0.022c0.746,0,1.406-0.281,1.406-1.05c0-0.736-0.66-1.028-1.482-1.028h-0.563
			V34.951z"/>
		<path fill="#FFFFFF" d="M141.812,28.826v4.199c0,1.256,0.476,1.894,1.32,1.894c0.866,0,1.342-0.606,1.342-1.894v-4.199h1.645v4.09
			c0,2.252-1.136,3.323-3.04,3.323c-1.84,0-2.922-1.017-2.922-3.344v-4.069H141.812z"/>
		<path fill="#FFFFFF" d="M147.546,28.923c0.509-0.086,1.223-0.151,2.23-0.151c1.017,0,1.743,0.194,2.23,0.584
			c0.465,0.368,0.779,0.974,0.779,1.688c0,0.715-0.238,1.321-0.671,1.732c-0.562,0.53-1.396,0.769-2.37,0.769
			c-0.216,0-0.411-0.011-0.563-0.033v2.608h-1.634V28.923z M149.18,32.235c0.141,0.032,0.314,0.043,0.552,0.043
			c0.876,0,1.418-0.444,1.418-1.191c0-0.671-0.466-1.071-1.288-1.071c-0.335,0-0.563,0.033-0.682,0.065V32.235z"/>
		<path fill="#FFFFFF" d="M154.882,34.248l-0.519,1.872h-1.71l2.229-7.294h2.165l2.261,7.294h-1.774l-0.563-1.872H154.882z
			 M156.733,33.015l-0.454-1.548c-0.13-0.433-0.26-0.974-0.368-1.407h-0.022c-0.108,0.433-0.216,0.985-0.335,1.407l-0.433,1.548
			H156.733z"/>
		<path fill="#FFFFFF" d="M159.589,37.408c0.335-0.964,0.627-2.089,0.779-3.074l1.677-0.108c-0.357,1.104-0.844,2.239-1.363,3.084
			L159.589,37.408z"/>
		<path fill="#FFFFFF" d="M35.981,51.654c-0.304,0.152-0.985,0.314-1.872,0.314c-2.522,0-3.82-1.57-3.82-3.648
			c0-2.489,1.775-3.874,3.983-3.874c0.855,0,1.504,0.173,1.796,0.325l-0.335,1.309c-0.336-0.14-0.801-0.27-1.385-0.27
			c-1.309,0-2.327,0.79-2.327,2.413c0,1.461,0.866,2.38,2.337,2.38c0.498,0,1.05-0.108,1.375-0.238L35.981,51.654z"/>
		<path fill="#FFFFFF" d="M39.908,51.859l-0.097-0.53h-0.033c-0.346,0.422-0.888,0.649-1.515,0.649c-1.071,0-1.71-0.779-1.71-1.623
			c0-1.375,1.233-2.035,3.106-2.024v-0.075c0-0.281-0.152-0.682-0.963-0.682c-0.542,0-1.115,0.183-1.461,0.401l-0.304-1.061
			c0.368-0.206,1.093-0.466,2.057-0.466c1.764,0,2.327,1.039,2.327,2.283v1.84c0,0.509,0.021,0.996,0.076,1.288H39.908z
			 M39.714,49.36c-0.866-0.012-1.537,0.194-1.537,0.833c0,0.422,0.281,0.627,0.649,0.627c0.411,0,0.746-0.27,0.855-0.605
			c0.021-0.086,0.033-0.184,0.033-0.281V49.36z"/>
		<path fill="#FFFFFF" d="M42.614,44.175h1.645v7.684h-1.645V44.175z"/>
		<path fill="#FFFFFF" d="M46.812,46.567l0.715,2.456c0.13,0.444,0.228,0.866,0.303,1.288h0.033
			c0.086-0.433,0.173-0.833,0.292-1.288l0.682-2.456h1.732l-1.97,5.292h-1.645l-1.926-5.292H46.812z"/>
		<path fill="#FFFFFF" d="M53.023,45.095c0,0.454-0.346,0.822-0.888,0.822c-0.519,0-0.866-0.368-0.855-0.822
			c-0.011-0.476,0.336-0.833,0.866-0.833C52.677,44.263,53.012,44.619,53.023,45.095z M51.324,51.859v-5.292h1.646v5.292H51.324z"/>
		<path fill="#FFFFFF" d="M54.288,48.256c0-0.661-0.021-1.223-0.043-1.689h1.428l0.076,0.725h0.033
			c0.216-0.335,0.758-0.844,1.634-0.844c1.083,0,1.894,0.715,1.894,2.273v3.138h-1.646v-2.933c0-0.682-0.238-1.147-0.833-1.147
			c-0.454,0-0.725,0.314-0.834,0.617c-0.043,0.097-0.064,0.259-0.064,0.411v3.052h-1.646V48.256z"/>
		<path fill="#FFFFFF" d="M62.87,44.565h1.634v3.225h0.033c0.162-0.281,0.335-0.541,0.498-0.801l1.656-2.424h2.023L66.3,47.671
			l2.543,4.188h-1.926l-1.786-3.149l-0.627,0.769v2.38H62.87V44.565z"/>
		<path fill="#FFFFFF" d="M69.459,44.175h1.646v7.684h-1.646V44.175z"/>
		<path fill="#FFFFFF" d="M73.701,49.738c0.054,0.682,0.725,1.007,1.494,1.007c0.563,0,1.017-0.076,1.461-0.217l0.216,1.115
			c-0.541,0.216-1.202,0.325-1.916,0.325c-1.796,0-2.824-1.039-2.824-2.695c0-1.342,0.833-2.825,2.672-2.825
			c1.71,0,2.359,1.331,2.359,2.641c0,0.281-0.033,0.53-0.054,0.649H73.701z M75.638,48.612c0-0.401-0.174-1.071-0.931-1.071
			c-0.693,0-0.974,0.627-1.017,1.071H75.638z"/>
		<path fill="#FFFFFF" d="M79.847,45.095c0,0.454-0.346,0.822-0.888,0.822c-0.519,0-0.866-0.368-0.855-0.822
			c-0.011-0.476,0.336-0.833,0.866-0.833S79.836,44.619,79.847,45.095z M78.148,51.859v-5.292h1.646v5.292H78.148z"/>
		<path fill="#FFFFFF" d="M81.112,48.256c0-0.661-0.021-1.223-0.043-1.689h1.428l0.076,0.725h0.033
			c0.216-0.335,0.758-0.844,1.634-0.844c1.083,0,1.894,0.715,1.894,2.273v3.138h-1.646v-2.933c0-0.682-0.238-1.147-0.833-1.147
			c-0.454,0-0.725,0.314-0.834,0.617c-0.043,0.097-0.064,0.259-0.064,0.411v3.052h-1.646V48.256z"/>
		<path fill="#FFFFFF" d="M86.814,53.148c0.336-0.964,0.628-2.089,0.779-3.074l1.678-0.108c-0.357,1.104-0.844,2.239-1.364,3.084
			L86.814,53.148z"/>
		<path fill="#FFFFFF" d="M97.864,51.654c-0.304,0.152-0.985,0.314-1.872,0.314c-2.522,0-3.82-1.57-3.82-3.648
			c0-2.489,1.775-3.874,3.983-3.874c0.855,0,1.504,0.173,1.796,0.325l-0.335,1.309c-0.336-0.14-0.801-0.27-1.385-0.27
			c-1.309,0-2.327,0.79-2.327,2.413c0,1.461,0.866,2.38,2.337,2.38c0.498,0,1.05-0.108,1.375-0.238L97.864,51.654z"/>
		<path fill="#FFFFFF" d="M101.791,51.859l-0.097-0.53h-0.033c-0.346,0.422-0.888,0.649-1.515,0.649c-1.071,0-1.71-0.779-1.71-1.623
			c0-1.375,1.233-2.035,3.106-2.024v-0.075c0-0.281-0.152-0.682-0.963-0.682c-0.542,0-1.115,0.183-1.461,0.401l-0.304-1.061
			c0.368-0.206,1.093-0.466,2.057-0.466c1.764,0,2.327,1.039,2.327,2.283v1.84c0,0.509,0.021,0.996,0.076,1.288H101.791z
			 M101.597,49.36c-0.866-0.012-1.537,0.194-1.537,0.833c0,0.422,0.281,0.627,0.649,0.627c0.411,0,0.746-0.27,0.855-0.605
			c0.021-0.086,0.033-0.184,0.033-0.281V49.36z"/>
		<path fill="#FFFFFF" d="M104.496,48.31c0-0.779-0.022-1.288-0.043-1.743h1.418l0.054,0.974h0.043
			c0.271-0.769,0.92-1.093,1.428-1.093c0.152,0,0.228,0,0.347,0.022v1.548c-0.119-0.022-0.26-0.043-0.444-0.043
			c-0.606,0-1.017,0.325-1.126,0.833c-0.021,0.109-0.033,0.238-0.033,0.368v2.684h-1.645V48.31z"/>
		<path fill="#FFFFFF" d="M108.575,44.175h1.645v7.684h-1.645V44.175z"/>
		<path fill="#FFFFFF" d="M111.539,50.42c0.304,0.183,0.931,0.4,1.418,0.4c0.498,0,0.703-0.173,0.703-0.443
			c0-0.271-0.162-0.401-0.779-0.606c-1.093-0.368-1.515-0.964-1.504-1.591c0-0.985,0.844-1.732,2.154-1.732
			c0.617,0,1.169,0.141,1.494,0.304l-0.292,1.136c-0.238-0.131-0.693-0.304-1.148-0.304c-0.4,0-0.627,0.162-0.627,0.433
			c0,0.249,0.206,0.378,0.855,0.606c1.007,0.346,1.428,0.855,1.439,1.634c0,0.985-0.779,1.71-2.294,1.71
			c-0.693,0-1.309-0.152-1.71-0.368L111.539,50.42z"/>
		<path fill="#FFFFFF" d="M116.203,51.859c0.021-0.346,0.043-0.985,0.043-1.58v-6.104h1.645v3.02h0.022
			c0.314-0.455,0.866-0.747,1.601-0.747c1.266,0,2.197,1.05,2.186,2.673c0,1.905-1.212,2.857-2.425,2.857
			c-0.617,0-1.211-0.228-1.591-0.855h-0.021l-0.065,0.736H116.203z M117.891,49.609c0,0.108,0.012,0.206,0.033,0.292
			c0.109,0.444,0.487,0.779,0.964,0.779c0.703,0,1.136-0.541,1.136-1.494c0-0.822-0.368-1.472-1.136-1.472
			c-0.444,0-0.855,0.335-0.964,0.812c-0.021,0.098-0.033,0.195-0.033,0.304V49.609z"/>
		<path fill="#FFFFFF" d="M124.016,49.738c0.054,0.682,0.725,1.007,1.494,1.007c0.563,0,1.017-0.076,1.461-0.217l0.216,1.115
			c-0.541,0.216-1.202,0.325-1.916,0.325c-1.796,0-2.824-1.039-2.824-2.695c0-1.342,0.833-2.825,2.672-2.825
			c1.71,0,2.359,1.331,2.359,2.641c0,0.281-0.033,0.53-0.054,0.649H124.016z M125.954,48.612c0-0.401-0.174-1.071-0.931-1.071
			c-0.693,0-0.974,0.627-1.017,1.071H125.954z"/>
		<path fill="#FFFFFF" d="M128.463,48.31c0-0.779-0.021-1.288-0.043-1.743h1.418l0.055,0.974h0.043
			c0.27-0.769,0.919-1.093,1.428-1.093c0.151,0,0.227,0,0.346,0.022v1.548c-0.119-0.022-0.259-0.043-0.444-0.043
			c-0.606,0-1.017,0.325-1.125,0.833c-0.022,0.109-0.033,0.238-0.033,0.368v2.684h-1.646V48.31z"/>
		<path fill="#FFFFFF" d="M137.543,46.567c-0.022,0.335-0.044,0.779-0.044,1.57v2.954c0,1.017-0.206,1.851-0.8,2.381
			c-0.585,0.498-1.375,0.649-2.154,0.649c-0.693,0-1.428-0.141-1.905-0.412l0.325-1.244c0.335,0.195,0.92,0.401,1.537,0.401
			c0.779,0,1.375-0.423,1.375-1.397v-0.346h-0.022c-0.314,0.444-0.822,0.693-1.428,0.693c-1.309,0-2.24-1.061-2.24-2.587
			c0-1.698,1.104-2.781,2.403-2.781c0.725,0,1.18,0.314,1.451,0.747h0.021l0.054-0.628H137.543z M135.854,48.721
			c0-0.109-0.011-0.216-0.033-0.303c-0.119-0.433-0.432-0.725-0.888-0.725c-0.595,0-1.082,0.541-1.082,1.504
			c0,0.79,0.389,1.406,1.082,1.406c0.423,0,0.758-0.281,0.866-0.671c0.043-0.119,0.054-0.292,0.054-0.433V48.721z"/>
		<path fill="#FFFFFF" d="M137.996,53.148c0.335-0.964,0.627-2.089,0.779-3.074l1.677-0.108c-0.357,1.104-0.844,2.239-1.363,3.084
			L137.996,53.148z"/>
		<path fill="#FFFFFF" d="M149.044,51.654c-0.303,0.152-0.985,0.314-1.872,0.314c-2.522,0-3.819-1.57-3.819-3.648
			c0-2.489,1.774-3.874,3.982-3.874c0.855,0,1.504,0.173,1.796,0.325l-0.335,1.309c-0.335-0.14-0.8-0.27-1.385-0.27
			c-1.309,0-2.327,0.79-2.327,2.413c0,1.461,0.866,2.38,2.337,2.38c0.499,0,1.05-0.108,1.375-0.238L149.044,51.654z"/>
		<path fill="#FFFFFF" d="M155.094,49.154c0,1.937-1.375,2.824-2.793,2.824c-1.548,0-2.738-1.017-2.738-2.727
			c0-1.71,1.126-2.803,2.824-2.803C154.011,46.448,155.094,47.563,155.094,49.154z M151.263,49.208c0,0.909,0.378,1.591,1.082,1.591
			c0.639,0,1.05-0.639,1.05-1.591c0-0.79-0.303-1.591-1.05-1.591C151.555,47.617,151.263,48.429,151.263,49.208z"/>
		<path fill="#FFFFFF" d="M157.95,45.052v1.515h1.18v1.212h-1.18v1.916c0,0.639,0.152,0.931,0.649,0.931
			c0.206,0,0.368-0.022,0.487-0.043l0.011,1.244c-0.216,0.086-0.606,0.141-1.071,0.141c-0.53,0-0.974-0.184-1.233-0.454
			c-0.304-0.314-0.454-0.823-0.454-1.57V47.78h-0.704v-1.212h0.704V45.42L157.95,45.052z"/>
		<path fill="#FFFFFF" d="M161.368,46.567l0.791,2.598c0.086,0.314,0.194,0.703,0.259,0.985h0.033
			c0.076-0.281,0.162-0.682,0.238-0.985l0.649-2.598h1.764l-1.233,3.485c-0.758,2.099-1.266,2.943-1.862,3.474
			c-0.573,0.498-1.18,0.671-1.591,0.725l-0.347-1.397c0.206-0.032,0.466-0.13,0.715-0.281c0.249-0.131,0.52-0.39,0.682-0.661
			c0.054-0.076,0.086-0.162,0.086-0.238c0-0.054-0.012-0.14-0.076-0.27l-1.938-4.838H161.368z"/>
		<path fill="#FFFFFF" d="M164.637,53.148c0.335-0.964,0.627-2.089,0.779-3.074l1.677-0.108c-0.357,1.104-0.844,2.239-1.363,3.084
			L164.637,53.148z"/>
		<path fill="#FFFFFF" d="M22.086,60.401c0.606-0.097,1.396-0.151,2.23-0.151c1.385,0,2.283,0.249,2.987,0.779
			c0.757,0.563,1.233,1.461,1.233,2.748c0,1.396-0.508,2.359-1.212,2.955c-0.769,0.638-1.937,0.941-3.365,0.941
			c-0.855,0-1.461-0.054-1.872-0.109V60.401z M23.741,66.353c0.141,0.033,0.368,0.033,0.574,0.033
			c1.493,0.012,2.467-0.812,2.467-2.553c0.011-1.516-0.876-2.316-2.294-2.316c-0.368,0-0.606,0.033-0.747,0.064V66.353z"/>
		<path fill="#FFFFFF" d="M31.305,60.835c0,0.454-0.347,0.822-0.888,0.822c-0.52,0-0.866-0.368-0.855-0.822
			c-0.011-0.476,0.335-0.833,0.866-0.833S31.293,60.358,31.305,60.835z M29.606,67.598v-5.292h1.645v5.292H29.606z"/>
		<path fill="#FFFFFF" d="M35.579,67.598l-0.098-0.53h-0.032c-0.347,0.422-0.888,0.649-1.516,0.649c-1.071,0-1.71-0.779-1.71-1.623
			c0-1.375,1.234-2.035,3.107-2.024v-0.075c0-0.281-0.152-0.682-0.964-0.682c-0.541,0-1.114,0.183-1.461,0.401l-0.303-1.061
			c0.368-0.206,1.093-0.466,2.056-0.466c1.765,0,2.327,1.039,2.327,2.283v1.84c0,0.509,0.022,0.996,0.076,1.288H35.579z
			 M35.384,65.099c-0.866-0.012-1.537,0.194-1.537,0.833c0,0.422,0.281,0.627,0.649,0.627c0.411,0,0.747-0.27,0.855-0.605
			c0.022-0.086,0.033-0.184,0.033-0.281V65.099z"/>
		<path fill="#FFFFFF" d="M43.338,62.306c-0.022,0.335-0.044,0.779-0.044,1.57v2.954c0,1.017-0.206,1.851-0.8,2.381
			c-0.585,0.498-1.375,0.649-2.154,0.649c-0.693,0-1.428-0.141-1.905-0.412l0.325-1.244c0.335,0.195,0.92,0.401,1.537,0.401
			c0.779,0,1.375-0.423,1.375-1.397v-0.346h-0.022c-0.314,0.444-0.822,0.693-1.428,0.693c-1.309,0-2.24-1.061-2.24-2.587
			c0-1.698,1.104-2.781,2.403-2.781c0.725,0,1.18,0.314,1.451,0.747h0.021l0.054-0.628H43.338z M41.649,64.46
			c0-0.109-0.011-0.216-0.033-0.303c-0.119-0.433-0.432-0.725-0.888-0.725c-0.595,0-1.082,0.541-1.082,1.504
			c0,0.79,0.389,1.406,1.082,1.406c0.423,0,0.758-0.281,0.866-0.671c0.043-0.119,0.054-0.292,0.054-0.433V64.46z"/>
		<path fill="#FFFFFF" d="M45.88,65.477c0.054,0.682,0.725,1.007,1.494,1.007c0.563,0,1.017-0.076,1.461-0.217l0.216,1.115
			c-0.541,0.216-1.202,0.325-1.916,0.325c-1.796,0-2.824-1.039-2.824-2.695c0-1.342,0.833-2.825,2.672-2.825
			c1.71,0,2.359,1.331,2.359,2.641c0,0.281-0.033,0.53-0.054,0.649H45.88z M47.817,64.351c0-0.401-0.174-1.071-0.931-1.071
			c-0.693,0-0.974,0.627-1.017,1.071H47.817z"/>
		<path fill="#FFFFFF" d="M55.554,64.893c0,1.937-1.375,2.824-2.793,2.824c-1.548,0-2.738-1.017-2.738-2.727
			c0-1.71,1.126-2.803,2.824-2.803C54.472,62.187,55.554,63.302,55.554,64.893z M51.723,64.947c0,0.909,0.378,1.591,1.082,1.591
			c0.639,0,1.05-0.639,1.05-1.591c0-0.79-0.303-1.591-1.05-1.591C52.015,63.356,51.723,64.168,51.723,64.947z"/>
		<path fill="#FFFFFF" d="M55.564,68.887c0.336-0.964,0.628-2.089,0.779-3.074l1.678-0.108c-0.357,1.104-0.844,2.239-1.364,3.084
			L55.564,68.887z"/>
		<path fill="#FFFFFF" d="M65.596,64.514h-2.684v1.732h2.998v1.353h-4.654v-7.294h4.503v1.353h-2.846v1.515h2.684V64.514z"/>
		<path fill="#FFFFFF" d="M67.013,66.159c0.303,0.183,0.931,0.4,1.417,0.4c0.499,0,0.704-0.173,0.704-0.443
			c0-0.271-0.162-0.401-0.779-0.606c-1.093-0.368-1.516-0.964-1.504-1.591c0-0.985,0.843-1.732,2.154-1.732
			c0.617,0,1.168,0.141,1.493,0.304l-0.292,1.136c-0.238-0.131-0.693-0.304-1.147-0.304c-0.401,0-0.628,0.162-0.628,0.433
			c0,0.249,0.207,0.378,0.855,0.606c1.007,0.346,1.429,0.855,1.44,1.634c0,0.985-0.779,1.71-2.295,1.71
			c-0.693,0-1.309-0.152-1.709-0.368L67.013,66.159z"/>
		<path fill="#FFFFFF" d="M73.56,60.791v1.515h1.18v1.212h-1.18v1.916c0,0.639,0.151,0.931,0.649,0.931
			c0.206,0,0.368-0.022,0.487-0.043l0.011,1.244c-0.217,0.086-0.606,0.141-1.072,0.141c-0.53,0-0.973-0.184-1.233-0.454
			c-0.303-0.314-0.454-0.823-0.454-1.57v-2.164h-0.703v-1.212h0.703v-1.147L73.56,60.791z"/>
		<path fill="#FFFFFF" d="M76.904,65.477c0.054,0.682,0.724,1.007,1.493,1.007c0.563,0,1.017-0.076,1.461-0.217l0.216,1.115
			c-0.541,0.216-1.201,0.325-1.916,0.325c-1.796,0-2.824-1.039-2.824-2.695c0-1.342,0.833-2.825,2.673-2.825
			c1.71,0,2.359,1.331,2.359,2.641c0,0.281-0.033,0.53-0.055,0.649H76.904z M79.219,60.401V61.3h-2.705v-0.898H79.219z
			 M78.84,64.351c0-0.401-0.173-1.071-0.931-1.071c-0.693,0-0.974,0.627-1.017,1.071H78.84z"/>
		<path fill="#FFFFFF" d="M82.616,65.477c0.054,0.682,0.725,1.007,1.494,1.007c0.563,0,1.017-0.076,1.461-0.217l0.216,1.115
			c-0.541,0.216-1.202,0.325-1.916,0.325c-1.796,0-2.824-1.039-2.824-2.695c0-1.342,0.833-2.825,2.672-2.825
			c1.71,0,2.359,1.331,2.359,2.641c0,0.281-0.033,0.53-0.054,0.649H82.616z M84.554,64.351c0-0.401-0.174-1.071-0.931-1.071
			c-0.693,0-0.974,0.627-1.017,1.071H84.554z"/>
		<path fill="#FFFFFF" d="M89.25,59.914h1.645v7.684H89.25V59.914z"/>
		<path fill="#FFFFFF" d="M95.233,67.598l-0.097-0.53h-0.033c-0.346,0.422-0.888,0.649-1.515,0.649c-1.071,0-1.71-0.779-1.71-1.623
			c0-1.375,1.233-2.035,3.106-2.024v-0.075c0-0.281-0.152-0.682-0.963-0.682c-0.542,0-1.115,0.183-1.461,0.401l-0.304-1.061
			c0.368-0.206,1.093-0.466,2.057-0.466c1.764,0,2.327,1.039,2.327,2.283v1.84c0,0.509,0.021,0.996,0.076,1.288H95.233z
			 M95.039,65.099c-0.866-0.012-1.537,0.194-1.537,0.833c0,0.422,0.281,0.627,0.649,0.627c0.411,0,0.746-0.27,0.855-0.605
			c0.021-0.086,0.033-0.184,0.033-0.281V65.099z"/>
		<path fill="#FFFFFF" d="M102.927,65.899c0,0.693,0.022,1.256,0.043,1.699h-1.428l-0.075-0.746h-0.033
			c-0.206,0.325-0.704,0.866-1.656,0.866c-1.071,0-1.862-0.671-1.862-2.306v-3.106h1.656v2.846c0,0.769,0.249,1.233,0.822,1.233
			c0.454,0,0.715-0.313,0.822-0.574c0.044-0.097,0.055-0.227,0.055-0.357v-3.149h1.655V65.899z"/>
		<path fill="#FFFFFF" d="M109.377,59.914v6.104c0,0.596,0.021,1.223,0.043,1.58h-1.461l-0.076-0.779h-0.021
			c-0.336,0.595-0.974,0.898-1.656,0.898c-1.256,0-2.261-1.071-2.261-2.717c-0.012-1.786,1.104-2.814,2.37-2.814
			c0.649,0,1.158,0.228,1.396,0.596h0.021v-2.868H109.377z M107.731,64.546c0-0.086-0.011-0.206-0.021-0.292
			c-0.097-0.444-0.454-0.812-0.964-0.812c-0.746,0-1.136,0.671-1.136,1.504c0,0.898,0.444,1.461,1.126,1.461
			c0.476,0,0.855-0.325,0.952-0.791c0.033-0.119,0.043-0.237,0.043-0.378V64.546z"/>
		<path fill="#FFFFFF" d="M111.963,65.477c0.054,0.682,0.724,1.007,1.493,1.007c0.563,0,1.017-0.076,1.461-0.217l0.216,1.115
			c-0.541,0.216-1.201,0.325-1.916,0.325c-1.796,0-2.824-1.039-2.824-2.695c0-1.342,0.833-2.825,2.673-2.825
			c1.71,0,2.359,1.331,2.359,2.641c0,0.281-0.033,0.53-0.055,0.649H111.963z M113.9,64.351c0-0.401-0.173-1.071-0.931-1.071
			c-0.693,0-0.974,0.627-1.017,1.071H113.9z"/>
		<path fill="#FFFFFF" d="M116.41,64.049c0-0.779-0.022-1.288-0.043-1.743h1.418l0.054,0.974h0.043
			c0.271-0.769,0.92-1.093,1.428-1.093c0.152,0,0.228,0,0.347,0.022v1.548c-0.119-0.022-0.26-0.043-0.444-0.043
			c-0.606,0-1.017,0.325-1.126,0.833c-0.021,0.109-0.033,0.238-0.033,0.368v2.684h-1.645V64.049z"/>
		<path fill="#FFFFFF" d="M119.179,68.887c0.336-0.964,0.628-2.089,0.779-3.074l1.678-0.108c-0.357,1.104-0.844,2.239-1.364,3.084
			L119.179,68.887z"/>
		<path fill="#FFFFFF" d="M126.299,60.304h1.646v4.61c0,2.078-0.996,2.803-2.598,2.803c-0.378,0-0.877-0.065-1.202-0.173
			l0.184-1.331c0.228,0.076,0.52,0.13,0.844,0.13c0.693,0,1.125-0.314,1.125-1.45V60.304z"/>
		<path fill="#FFFFFF" d="M134.492,64.893c0,1.937-1.375,2.824-2.793,2.824c-1.548,0-2.738-1.017-2.738-2.727
			c0-1.71,1.126-2.803,2.824-2.803C133.409,62.187,134.492,63.302,134.492,64.893z M130.661,64.947c0,0.909,0.378,1.591,1.082,1.591
			c0.639,0,1.05-0.639,1.05-1.591c0-0.79-0.303-1.591-1.05-1.591C130.953,63.356,130.661,64.168,130.661,64.947z"/>
		<path fill="#FFFFFF" d="M137.694,63.995c0-0.661-0.021-1.223-0.043-1.689h1.385l0.076,0.715h0.033
			c0.228-0.336,0.693-0.834,1.601-0.834c0.682,0,1.223,0.347,1.451,0.898h0.021c0.195-0.27,0.433-0.487,0.682-0.638
			c0.292-0.174,0.617-0.26,1.007-0.26c1.017,0,1.786,0.715,1.786,2.295v3.116h-1.602v-2.879c0-0.769-0.249-1.211-0.779-1.211
			c-0.378,0-0.649,0.259-0.757,0.574c-0.043,0.119-0.065,0.292-0.065,0.422v3.095h-1.601v-2.965c0-0.671-0.238-1.125-0.758-1.125
			c-0.422,0-0.671,0.325-0.769,0.595c-0.054,0.13-0.064,0.281-0.064,0.411v3.085h-1.602V63.995z"/>
		<path fill="#FFFFFF" d="M150.008,67.598l-0.097-0.53h-0.033c-0.346,0.422-0.888,0.649-1.515,0.649c-1.071,0-1.71-0.779-1.71-1.623
			c0-1.375,1.233-2.035,3.106-2.024v-0.075c0-0.281-0.152-0.682-0.963-0.682c-0.542,0-1.115,0.183-1.461,0.401l-0.304-1.061
			c0.368-0.206,1.093-0.466,2.057-0.466c1.764,0,2.327,1.039,2.327,2.283v1.84c0,0.509,0.021,0.996,0.076,1.288H150.008z
			 M149.814,65.099c-0.866-0.012-1.537,0.194-1.537,0.833c0,0.422,0.281,0.627,0.649,0.627c0.411,0,0.746-0.27,0.855-0.605
			c0.021-0.086,0.033-0.184,0.033-0.281V65.099z"/>
		<path fill="#FFFFFF" d="M152.713,59.914h1.645v7.684h-1.645V59.914z"/>
		<path fill="#FFFFFF" d="M160.916,64.893c0,1.937-1.375,2.824-2.793,2.824c-1.548,0-2.738-1.017-2.738-2.727
			c0-1.71,1.126-2.803,2.824-2.803C159.833,62.187,160.916,63.302,160.916,64.893z M157.085,64.947c0,0.909,0.378,1.591,1.082,1.591
			c0.639,0,1.05-0.639,1.05-1.591c0-0.79-0.303-1.591-1.05-1.591C157.377,63.356,157.085,64.168,157.085,64.947z"/>
		<path fill="#FFFFFF" d="M161.932,63.995c0-0.661-0.022-1.223-0.043-1.689h1.428l0.076,0.725h0.033
			c0.216-0.335,0.757-0.844,1.634-0.844c1.082,0,1.893,0.715,1.893,2.273v3.138h-1.645v-2.933c0-0.682-0.238-1.147-0.834-1.147
			c-0.454,0-0.724,0.314-0.833,0.617c-0.043,0.097-0.065,0.259-0.065,0.411v3.052h-1.645V63.995z"/>
		<path fill="#FFFFFF" d="M169.54,65.477c0.054,0.682,0.724,1.007,1.493,1.007c0.563,0,1.017-0.076,1.461-0.217l0.216,1.115
			c-0.541,0.216-1.201,0.325-1.916,0.325c-1.796,0-2.824-1.039-2.824-2.695c0-1.342,0.833-2.825,2.673-2.825
			c1.71,0,2.359,1.331,2.359,2.641c0,0.281-0.033,0.53-0.055,0.649H169.54z M171.476,64.351c0-0.401-0.173-1.071-0.931-1.071
			c-0.693,0-0.974,0.627-1.017,1.071H171.476z"/>
		<path fill="#FFFFFF" d="M173.175,68.887c0.336-0.964,0.628-2.089,0.779-3.074l1.678-0.108c-0.357,1.104-0.844,2.239-1.364,3.084
			L173.175,68.887z"/>
		<path fill="#FFFFFF" d="M33.378,80.545c-0.033-0.876-0.064-1.937-0.064-2.997h-0.033c-0.228,0.931-0.53,1.969-0.812,2.824
			l-0.888,2.846h-1.288l-0.779-2.824c-0.237-0.855-0.487-1.894-0.66-2.846h-0.021c-0.043,0.985-0.076,2.111-0.131,3.019l-0.13,2.77
			h-1.525l0.465-7.294h2.197l0.715,2.435c0.227,0.843,0.454,1.753,0.617,2.608h0.033c0.206-0.844,0.454-1.808,0.693-2.62
			l0.779-2.424h2.154l0.4,7.294h-1.612L33.378,80.545z"/>
		<path fill="#FFFFFF" d="M38.074,76.574c0,0.454-0.346,0.822-0.888,0.822c-0.519,0-0.866-0.368-0.855-0.822
			c-0.011-0.476,0.336-0.833,0.866-0.833C37.728,75.741,38.063,76.097,38.074,76.574z M36.374,83.337v-5.292h1.646v5.292H36.374z"/>
		<path fill="#FFFFFF" d="M43.311,83.208c-0.292,0.13-0.844,0.238-1.472,0.238c-1.71,0-2.803-1.039-2.803-2.706
			c0-1.548,1.061-2.814,3.03-2.814c0.433,0,0.91,0.076,1.256,0.206l-0.259,1.223c-0.195-0.086-0.487-0.162-0.92-0.162
			c-0.866,0-1.428,0.617-1.418,1.483c0,0.974,0.649,1.482,1.451,1.482c0.39,0,0.693-0.065,0.941-0.162L43.311,83.208z"/>
		<path fill="#FFFFFF" d="M44.219,75.653h1.646v3.02h0.021c0.174-0.228,0.39-0.401,0.649-0.542c0.238-0.13,0.552-0.206,0.855-0.206
			c1.05,0,1.851,0.725,1.851,2.316v3.095h-1.646v-2.911c0-0.693-0.238-1.169-0.855-1.169c-0.432,0-0.703,0.281-0.822,0.574
			c-0.043,0.109-0.054,0.249-0.054,0.368v3.138h-1.646V75.653z"/>
		<path fill="#FFFFFF" d="M53.569,83.337l-0.098-0.53h-0.032c-0.347,0.422-0.888,0.649-1.516,0.649c-1.071,0-1.71-0.779-1.71-1.623
			c0-1.375,1.234-2.035,3.107-2.024v-0.075c0-0.281-0.152-0.682-0.964-0.682c-0.541,0-1.114,0.183-1.461,0.401l-0.303-1.061
			c0.368-0.206,1.093-0.466,2.056-0.466c1.765,0,2.327,1.039,2.327,2.283v1.84c0,0.509,0.022,0.996,0.076,1.288H53.569z
			 M53.374,80.838c-0.866-0.012-1.537,0.194-1.537,0.833c0,0.422,0.281,0.627,0.649,0.627c0.411,0,0.747-0.27,0.855-0.605
			c0.022-0.086,0.033-0.184,0.033-0.281V80.838z"/>
		<path fill="#FFFFFF" d="M57.54,81.216c0.054,0.682,0.724,1.007,1.493,1.007c0.563,0,1.017-0.076,1.461-0.217l0.216,1.115
			c-0.541,0.216-1.201,0.325-1.916,0.325c-1.796,0-2.824-1.039-2.824-2.695c0-1.342,0.833-2.825,2.673-2.825
			c1.71,0,2.359,1.331,2.359,2.641c0,0.281-0.033,0.53-0.055,0.649H57.54z M59.477,80.091c0-0.401-0.173-1.071-0.931-1.071
			c-0.693,0-0.974,0.627-1.017,1.071H59.477z"/>
		<path fill="#FFFFFF" d="M61.987,75.653h1.645v7.684h-1.645V75.653z"/>
		<path fill="#FFFFFF" d="M67.202,76.043h1.634v3.225h0.033c0.162-0.281,0.335-0.541,0.498-0.801l1.656-2.424h2.024l-2.414,3.106
			l2.544,4.188H71.25l-1.786-3.149l-0.628,0.769v2.38h-1.634V76.043z"/>
		<path fill="#FFFFFF" d="M78.835,80.632c0,1.937-1.375,2.824-2.793,2.824c-1.548,0-2.738-1.017-2.738-2.727
			c0-1.71,1.126-2.803,2.824-2.803C77.753,77.926,78.835,79.042,78.835,80.632z M75.004,80.686c0,0.909,0.378,1.591,1.082,1.591
			c0.639,0,1.05-0.639,1.05-1.591c0-0.79-0.303-1.591-1.05-1.591C75.296,79.095,75.004,79.907,75.004,80.686z"/>
		<path fill="#FFFFFF" d="M79.852,79.788c0-0.779-0.022-1.288-0.043-1.743h1.418l0.054,0.974h0.043
			c0.271-0.769,0.92-1.093,1.428-1.093c0.152,0,0.228,0,0.347,0.022v1.548c-0.119-0.022-0.26-0.043-0.444-0.043
			c-0.606,0-1.017,0.325-1.126,0.833c-0.021,0.109-0.033,0.238-0.033,0.368v2.684h-1.645V79.788z"/>
		<path fill="#FFFFFF" d="M83.953,81.898c0.303,0.183,0.931,0.4,1.417,0.4c0.499,0,0.704-0.173,0.704-0.443
			c0-0.271-0.162-0.401-0.779-0.606c-1.093-0.368-1.516-0.964-1.504-1.591c0-0.985,0.843-1.732,2.154-1.732
			c0.617,0,1.168,0.141,1.493,0.304l-0.292,1.136c-0.238-0.131-0.693-0.304-1.147-0.304c-0.401,0-0.628,0.162-0.628,0.433
			c0,0.249,0.207,0.378,0.855,0.606c1.007,0.346,1.429,0.855,1.44,1.634c0,0.985-0.779,1.71-2.295,1.71
			c-0.693,0-1.309-0.152-1.709-0.368L83.953,81.898z"/>
		<path fill="#FFFFFF" d="M87.912,84.626c0.336-0.964,0.628-2.089,0.779-3.074l1.678-0.108c-0.357,1.104-0.844,2.239-1.364,3.084
			L87.912,84.626z"/>
		<path fill="#FFFFFF" d="M94.59,77.429h-1.959v-1.385h5.605v1.385h-1.991v5.909H94.59V77.429z"/>
		<path fill="#FFFFFF" d="M100.508,76.574c0,0.454-0.346,0.822-0.888,0.822c-0.519,0-0.866-0.368-0.855-0.822
			c-0.011-0.476,0.336-0.833,0.866-0.833S100.498,76.097,100.508,76.574z M98.809,83.337v-5.292h1.646v5.292H98.809z"/>
		<path fill="#FFFFFF" d="M105.302,83.337v-4.08h-1.688v4.08h-1.656v-4.08h-0.693v-1.212h0.693v-0.109
			c0-0.627,0.162-1.255,0.606-1.698c0.357-0.357,0.876-0.585,1.623-0.585c0.27,0,0.541,0.065,0.703,0.131l-0.228,1.211
			c-0.13-0.043-0.27-0.076-0.422-0.076c-0.487,0-0.639,0.401-0.639,0.931v0.195h1.699V77.84c0-0.639,0.195-1.342,0.671-1.774
			c0.411-0.39,0.973-0.531,1.46-0.531c0.357,0,0.649,0.044,0.877,0.109l-0.065,1.266c-0.151-0.043-0.313-0.076-0.541-0.076
			c-0.541,0-0.769,0.423-0.769,0.941v0.271h1.061v1.212h-1.05v4.08H105.302z"/>
		<path fill="#FFFFFF" d="M111.816,83.337l-0.098-0.53h-0.032c-0.347,0.422-0.888,0.649-1.516,0.649c-1.071,0-1.71-0.779-1.71-1.623
			c0-1.375,1.234-2.035,3.107-2.024v-0.075c0-0.281-0.152-0.682-0.964-0.682c-0.541,0-1.114,0.183-1.461,0.401l-0.303-1.061
			c0.368-0.206,1.093-0.466,2.056-0.466c1.765,0,2.327,1.039,2.327,2.283v1.84c0,0.509,0.022,0.996,0.076,1.288H111.816z
			 M111.621,80.838c-0.866-0.012-1.537,0.194-1.537,0.833c0,0.422,0.281,0.627,0.649,0.627c0.411,0,0.747-0.27,0.855-0.605
			c0.022-0.086,0.033-0.184,0.033-0.281V80.838z"/>
		<path fill="#FFFFFF" d="M114.52,79.734c0-0.661-0.021-1.223-0.043-1.689h1.428l0.076,0.725h0.033
			c0.216-0.335,0.758-0.844,1.634-0.844c1.083,0,1.894,0.715,1.894,2.273v3.138h-1.646v-2.933c0-0.682-0.238-1.147-0.833-1.147
			c-0.454,0-0.725,0.314-0.834,0.617c-0.043,0.097-0.064,0.259-0.064,0.411v3.052h-1.646V79.734z"/>
		<path fill="#FFFFFF" d="M121.889,78.045l0.791,2.598c0.086,0.314,0.194,0.703,0.259,0.985h0.033
			c0.076-0.281,0.162-0.682,0.238-0.985l0.649-2.598h1.764l-1.233,3.485c-0.758,2.099-1.266,2.943-1.862,3.474
			c-0.574,0.498-1.18,0.671-1.591,0.725l-0.347-1.397c0.206-0.032,0.466-0.13,0.715-0.281c0.249-0.131,0.52-0.39,0.682-0.661
			c0.054-0.076,0.086-0.162,0.086-0.238c0-0.054-0.012-0.14-0.076-0.27l-1.938-4.838H121.889z"/>
		<path fill="#FFFFFF" d="M125.157,84.626c0.335-0.964,0.627-2.089,0.779-3.074l1.677-0.108c-0.357,1.104-0.844,2.239-1.363,3.084
			L125.157,84.626z"/>
		<path fill="#FFFFFF" d="M132.494,76.043v4.199c0,1.256,0.476,1.894,1.321,1.894c0.866,0,1.342-0.606,1.342-1.894v-4.199h1.645
			v4.09c0,2.252-1.136,3.323-3.041,3.323c-1.84,0-2.921-1.017-2.921-3.344v-4.069H132.494z"/>
		<path fill="#FFFFFF" d="M138.174,79.734c0-0.661-0.021-1.223-0.043-1.689h1.428l0.076,0.725h0.033
			c0.216-0.335,0.758-0.844,1.634-0.844c1.083,0,1.894,0.715,1.894,2.273v3.138h-1.646v-2.933c0-0.682-0.238-1.147-0.833-1.147
			c-0.454,0-0.725,0.314-0.834,0.617c-0.043,0.097-0.064,0.259-0.064,0.411v3.052h-1.646V79.734z"/>
		<path fill="#FFFFFF" d="M146.214,76.574c0,0.454-0.347,0.822-0.888,0.822c-0.52,0-0.866-0.368-0.855-0.822
			c-0.011-0.476,0.335-0.833,0.866-0.833S146.203,76.097,146.214,76.574z M144.515,83.337v-5.292h1.645v5.292H144.515z"/>
		<path fill="#FFFFFF" d="M147.48,75.653h1.645v7.684h-1.645V75.653z"/>
		<path fill="#FFFFFF" d="M151.722,81.216c0.054,0.682,0.724,1.007,1.493,1.007c0.563,0,1.017-0.076,1.461-0.217l0.216,1.115
			c-0.541,0.216-1.201,0.325-1.916,0.325c-1.796,0-2.824-1.039-2.824-2.695c0-1.342,0.833-2.825,2.673-2.825
			c1.71,0,2.359,1.331,2.359,2.641c0,0.281-0.033,0.53-0.055,0.649H151.722z M153.658,80.091c0-0.401-0.173-1.071-0.931-1.071
			c-0.693,0-0.974,0.627-1.017,1.071H153.658z"/>
		<path fill="#FFFFFF" d="M157.326,78.045l0.715,2.456c0.13,0.444,0.228,0.866,0.303,1.288h0.033
			c0.086-0.433,0.173-0.833,0.292-1.288l0.682-2.456h1.732l-1.97,5.292h-1.645l-1.926-5.292H157.326z"/>
		<path fill="#FFFFFF" d="M162.943,81.216c0.054,0.682,0.724,1.007,1.493,1.007c0.563,0,1.017-0.076,1.461-0.217l0.216,1.115
			c-0.541,0.216-1.201,0.325-1.916,0.325c-1.796,0-2.824-1.039-2.824-2.695c0-1.342,0.833-2.825,2.673-2.825
			c1.71,0,2.359,1.331,2.359,2.641c0,0.281-0.033,0.53-0.055,0.649H162.943z M164.88,80.091c0-0.401-0.173-1.071-0.931-1.071
			c-0.693,0-0.974,0.627-1.017,1.071H164.88z"/>
		<path fill="#FFFFFF" d="M167.39,79.788c0-0.779-0.022-1.288-0.043-1.743h1.418l0.054,0.974h0.043
			c0.271-0.769,0.92-1.093,1.428-1.093c0.152,0,0.228,0,0.347,0.022v1.548c-0.119-0.022-0.26-0.043-0.444-0.043
			c-0.606,0-1.017,0.325-1.126,0.833c-0.021,0.109-0.033,0.238-0.033,0.368v2.684h-1.645V79.788z"/>
		<path fill="#FFFFFF" d="M56.891,93.168h-1.959v-1.385h5.605v1.385h-1.991v5.909h-1.655V93.168z"/>
		<path fill="#FFFFFF" d="M61.229,91.392h1.646v3.02h0.021c0.174-0.228,0.39-0.401,0.649-0.542c0.238-0.13,0.552-0.206,0.855-0.206
			c1.05,0,1.851,0.725,1.851,2.316v3.095h-1.646v-2.911c0-0.693-0.238-1.169-0.855-1.169c-0.432,0-0.703,0.281-0.822,0.574
			c-0.043,0.109-0.054,0.249-0.054,0.368v3.138h-1.646V91.392z"/>
		<path fill="#FFFFFF" d="M68.836,96.955c0.054,0.682,0.725,1.007,1.494,1.007c0.563,0,1.017-0.076,1.461-0.217l0.216,1.115
			c-0.541,0.216-1.202,0.325-1.916,0.325c-1.796,0-2.824-1.039-2.824-2.695c0-1.342,0.833-2.825,2.672-2.825
			c1.71,0,2.359,1.331,2.359,2.641c0,0.281-0.033,0.53-0.054,0.649H68.836z M70.774,95.83c0-0.401-0.174-1.071-0.931-1.071
			c-0.693,0-0.974,0.627-1.017,1.071H70.774z"/>
		<path fill="#FFFFFF" d="M80.881,98.871c-0.304,0.152-0.985,0.314-1.872,0.314c-2.522,0-3.82-1.57-3.82-3.648
			c0-2.489,1.775-3.874,3.983-3.874c0.855,0,1.504,0.173,1.796,0.325l-0.335,1.309c-0.336-0.14-0.801-0.27-1.385-0.27
			c-1.309,0-2.327,0.79-2.327,2.413c0,1.461,0.866,2.38,2.337,2.38c0.498,0,1.05-0.108,1.375-0.238L80.881,98.871z"/>
		<path fill="#FFFFFF" d="M84.808,99.077l-0.097-0.53h-0.033c-0.346,0.422-0.888,0.649-1.515,0.649c-1.071,0-1.71-0.779-1.71-1.623
			c0-1.375,1.233-2.035,3.106-2.024v-0.075c0-0.281-0.152-0.682-0.963-0.682c-0.542,0-1.115,0.183-1.461,0.401l-0.304-1.061
			c0.368-0.206,1.093-0.466,2.057-0.466c1.764,0,2.327,1.039,2.327,2.283v1.84c0,0.509,0.021,0.996,0.076,1.288H84.808z
			 M84.614,96.577c-0.866-0.012-1.537,0.194-1.537,0.833c0,0.422,0.281,0.627,0.649,0.627c0.411,0,0.746-0.27,0.855-0.605
			c0.021-0.086,0.033-0.184,0.033-0.281V96.577z"/>
		<path fill="#FFFFFF" d="M87.47,99.077c0.021-0.346,0.043-0.985,0.043-1.58v-6.104h1.645v3.02h0.022
			c0.314-0.455,0.866-0.747,1.601-0.747c1.266,0,2.197,1.05,2.186,2.673c0,1.905-1.212,2.857-2.425,2.857
			c-0.617,0-1.211-0.228-1.591-0.855h-0.021l-0.065,0.736H87.47z M89.157,96.826c0,0.108,0.012,0.206,0.033,0.292
			c0.109,0.444,0.487,0.779,0.964,0.779c0.703,0,1.136-0.541,1.136-1.494c0-0.822-0.368-1.472-1.136-1.472
			c-0.444,0-0.855,0.335-0.964,0.812c-0.021,0.098-0.033,0.195-0.033,0.304V96.826z"/>
		<path fill="#FFFFFF" d="M95.683,92.313c0,0.454-0.347,0.822-0.888,0.822c-0.52,0-0.866-0.368-0.855-0.822
			c-0.011-0.476,0.335-0.833,0.866-0.833C95.336,91.48,95.671,91.836,95.683,92.313z M93.984,99.077v-5.292h1.645v5.292H93.984z"/>
		<path fill="#FFFFFF" d="M96.948,95.473c0-0.661-0.022-1.223-0.043-1.689h1.428l0.076,0.725h0.033
			c0.216-0.335,0.757-0.844,1.634-0.844c1.082,0,1.893,0.715,1.893,2.273v3.138h-1.645v-2.933c0-0.682-0.238-1.147-0.834-1.147
			c-0.454,0-0.724,0.314-0.833,0.617c-0.043,0.097-0.065,0.259-0.065,0.411v3.052h-1.645V95.473z"/>
		<path fill="#FFFFFF" d="M104.555,96.955c0.054,0.682,0.724,1.007,1.493,1.007c0.563,0,1.017-0.076,1.461-0.217l0.216,1.115
			c-0.541,0.216-1.201,0.325-1.916,0.325c-1.796,0-2.824-1.039-2.824-2.695c0-1.342,0.833-2.825,2.673-2.825
			c1.71,0,2.359,1.331,2.359,2.641c0,0.281-0.033,0.53-0.055,0.649H104.555z M106.492,95.83c0-0.401-0.173-1.071-0.931-1.071
			c-0.693,0-0.974,0.627-1.017,1.071H106.492z"/>
		<path fill="#FFFFFF" d="M110.842,92.269v1.515h1.18v1.212h-1.18v1.916c0,0.639,0.152,0.931,0.649,0.931
			c0.206,0,0.368-0.022,0.487-0.043l0.011,1.244c-0.216,0.086-0.606,0.141-1.071,0.141c-0.53,0-0.974-0.184-1.233-0.454
			c-0.304-0.314-0.454-0.823-0.454-1.57v-2.164h-0.704v-1.212h0.704v-1.147L110.842,92.269z"/>
		<path fill="#FFFFFF" d="M121.891,95.354c0,2.391-1.451,3.842-3.582,3.842c-2.164,0-3.43-1.634-3.43-3.712
			c0-2.186,1.396-3.82,3.55-3.82C120.668,91.663,121.891,93.341,121.891,95.354z M116.62,95.451c0,1.428,0.671,2.435,1.775,2.435
			c1.114,0,1.753-1.061,1.753-2.478c0-1.309-0.627-2.435-1.764-2.435C117.269,92.973,116.62,94.033,116.62,95.451z"/>
		<path fill="#FFFFFF" d="M130.471,92.789c-0.26-0.119-0.639-0.217-1.083-0.217c-0.866,0-1.169,0.444-1.169,1.029v0.183h3.226v5.292
			h-1.656v-4.08h-1.558v4.08h-1.646v-4.08h-1.72v4.08h-1.656v-4.08h-0.693v-1.212h0.693v-0.119c0-0.627,0.207-1.266,0.682-1.71
			c0.357-0.335,0.877-0.563,1.591-0.563c0.368,0,0.715,0.098,0.92,0.174l-0.368,1.19c-0.119-0.054-0.292-0.109-0.466-0.109
			c-0.216,0-0.378,0.076-0.487,0.184c-0.173,0.183-0.227,0.487-0.227,0.769v0.183h1.731v-0.227c0-1.461,1.126-2.284,2.76-2.284
			c0.52,0,1.126,0.109,1.482,0.281L130.471,92.789z"/>
		<path fill="#FFFFFF" d="M136.724,98.947c-0.292,0.13-0.843,0.238-1.472,0.238c-1.71,0-2.802-1.039-2.802-2.706
			c0-1.548,1.061-2.814,3.03-2.814c0.433,0,0.909,0.076,1.256,0.206l-0.26,1.223c-0.194-0.086-0.487-0.162-0.919-0.162
			c-0.866,0-1.428,0.617-1.418,1.483c0,0.974,0.649,1.482,1.451,1.482c0.389,0,0.693-0.065,0.941-0.162L136.724,98.947z"/>
		<path fill="#FFFFFF" d="M138.78,96.955c0.054,0.682,0.725,1.007,1.494,1.007c0.563,0,1.017-0.076,1.461-0.217l0.216,1.115
			c-0.541,0.216-1.202,0.325-1.915,0.325c-1.796,0-2.824-1.039-2.824-2.695c0-1.342,0.833-2.825,2.672-2.825
			c1.71,0,2.359,1.331,2.359,2.641c0,0.281-0.033,0.53-0.054,0.649H138.78z M140.718,95.83c0-0.401-0.174-1.071-0.931-1.071
			c-0.693,0-0.974,0.627-1.017,1.071H140.718z"/>
	</g>
	<linearGradient id="SVGID_1_" gradientUnits="userSpaceOnUse" x1="98.6681" y1="123.6319" x2="98.6681" y2="103.8299">
		<stop  offset="0.0284" style="stop-color:#1869B3;stop-opacity:0"/>
		<stop  offset="1" style="stop-color:#1869B3"/>
	</linearGradient>
	<path opacity="0.8" fill="url(#SVGID_1_)" d="M178.488,123.632c-8.74-11.998-22.89-19.802-38.869-19.802
		c-5.955,0-75.946,0-81.902,0c-15.98,0-30.13,7.804-38.869,19.802H178.488z"/>
</g>
</svg>
