<?xml version="1.0" encoding="utf-8"?>
<!-- Generator: Adobe Illustrator 17.0.0, SVG Export Plug-In . SVG Version: 6.00 Build 0)  -->
<!DOCTYPE svg PUBLIC "-//W3C//DTD SVG 1.1//EN" "http://www.w3.org/Graphics/SVG/1.1/DTD/svg11.dtd">
<svg version="1.1" id="Layer_1" xmlns="http://www.w3.org/2000/svg" xmlns:xlink="http://www.w3.org/1999/xlink" x="0px" y="0px"
	 width="305px" height="158px" viewBox="0 0 305 158" enable-background="new 0 0 305 158" xml:space="preserve">
<g>
	<path opacity="0.8" fill="#018B91" d="M236.361,11.655c-6.733,0-164.579,0-171.312,0c-30.013,0-54.343,24.33-54.343,54.343
		s24.33,54.343,54.343,54.343c6.733,0,164.579,0,171.312,0c30.013,0,54.343-24.33,54.343-54.343S266.373,11.655,236.361,11.655z"/>
	<linearGradient id="SVGID_1_" gradientUnits="userSpaceOnUse" x1="150.7047" y1="142.7282" x2="150.7047" y2="120.3408">
		<stop  offset="0.0284" style="stop-color:#018B91;stop-opacity:0"/>
		<stop  offset="1" style="stop-color:#018B91"/>
	</linearGradient>
	<path opacity="0.8" fill="url(#SVGID_1_)" d="M280.305,142.728c-9.881-13.564-25.878-22.387-43.944-22.387
		c-6.733,0-164.579,0-171.312,0c-18.066,0-34.063,8.823-43.944,22.387H280.305z"/>
	<g>
		<path fill="#FFFFFF" d="M51.278,27.375l-1.677-7.065h1.708l0.535,2.914c0.157,0.839,0.304,1.751,0.419,2.464h0.021
			c0.115-0.766,0.283-1.615,0.461-2.485l0.597-2.893h1.698l0.566,2.977c0.157,0.828,0.272,1.583,0.377,2.369h0.021
			c0.105-0.786,0.262-1.614,0.409-2.453l0.577-2.893h1.625l-1.824,7.065h-1.73l-0.597-3.04c-0.137-0.713-0.252-1.373-0.335-2.18
			h-0.021c-0.126,0.796-0.241,1.467-0.409,2.18l-0.671,3.04H51.278z"/>
		<path fill="#FFFFFF" d="M60.748,20.823c0,0.44-0.335,0.797-0.859,0.797c-0.503,0-0.839-0.356-0.828-0.797
			c-0.011-0.461,0.325-0.807,0.838-0.807S60.737,20.362,60.748,20.823z M59.102,27.375v-5.126h1.593v5.126H59.102z"/>
		<path fill="#FFFFFF" d="M63.754,20.781v1.468h1.143v1.174h-1.143v1.855c0,0.619,0.147,0.902,0.629,0.902
			c0.199,0,0.356-0.021,0.472-0.042l0.011,1.206c-0.209,0.083-0.587,0.136-1.038,0.136c-0.514,0-0.944-0.178-1.195-0.44
			c-0.293-0.304-0.44-0.797-0.44-1.52v-2.097h-0.681v-1.174h0.681v-1.111L63.754,20.781z"/>
		<path fill="#FFFFFF" d="M65.816,19.932h1.593v2.925h0.021c0.167-0.22,0.377-0.388,0.629-0.524c0.23-0.126,0.535-0.199,0.828-0.199
			c1.017,0,1.792,0.702,1.792,2.243v2.998h-1.593v-2.82c0-0.671-0.23-1.132-0.828-1.132c-0.419,0-0.682,0.272-0.797,0.556
			c-0.042,0.105-0.052,0.241-0.052,0.356v3.04h-1.593V19.932z"/>
		<path fill="#FFFFFF" d="M77.918,27.249c-0.283,0.126-0.818,0.231-1.426,0.231c-1.656,0-2.715-1.006-2.715-2.621
			c0-1.5,1.027-2.726,2.936-2.726c0.419,0,0.88,0.073,1.216,0.199l-0.251,1.185c-0.189-0.084-0.472-0.158-0.891-0.158
			c-0.838,0-1.384,0.598-1.373,1.437c0,0.943,0.629,1.436,1.404,1.436c0.377,0,0.671-0.063,0.912-0.157L77.918,27.249z"/>
		<path fill="#FFFFFF" d="M83.743,24.754c0,1.876-1.332,2.736-2.705,2.736c-1.499,0-2.652-0.985-2.652-2.642s1.09-2.715,2.736-2.715
			C82.694,22.134,83.743,23.213,83.743,24.754z M80.032,24.807c0,0.881,0.367,1.541,1.048,1.541c0.619,0,1.017-0.619,1.017-1.541
			c0-0.765-0.293-1.541-1.017-1.541C80.315,23.266,80.032,24.052,80.032,24.807z"/>
		<path fill="#FFFFFF" d="M84.724,23.884c0-0.64-0.021-1.185-0.042-1.635h1.384l0.073,0.702h0.031
			c0.21-0.325,0.734-0.817,1.583-0.817c1.048,0,1.834,0.692,1.834,2.201v3.04h-1.593v-2.841c0-0.661-0.23-1.111-0.807-1.111
			c-0.44,0-0.703,0.304-0.807,0.598c-0.042,0.094-0.063,0.251-0.063,0.398v2.956h-1.593V23.884z"/>
		<path fill="#FFFFFF" d="M92.582,20.781v1.468h1.143v1.174h-1.143v1.855c0,0.619,0.147,0.902,0.629,0.902
			c0.199,0,0.356-0.021,0.472-0.042l0.011,1.206c-0.209,0.083-0.587,0.136-1.038,0.136c-0.514,0-0.944-0.178-1.195-0.44
			c-0.293-0.304-0.44-0.797-0.44-1.52v-2.097h-0.681v-1.174h0.681v-1.111L92.582,20.781z"/>
		<path fill="#FFFFFF" d="M95.818,25.32c0.053,0.661,0.703,0.975,1.447,0.975c0.545,0,0.985-0.074,1.415-0.21l0.21,1.08
			c-0.524,0.209-1.164,0.314-1.855,0.314c-1.74,0-2.736-1.006-2.736-2.61c0-1.3,0.808-2.736,2.589-2.736
			c1.656,0,2.285,1.289,2.285,2.558c0,0.272-0.031,0.514-0.052,0.629H95.818z M97.695,24.23c0-0.388-0.167-1.038-0.901-1.038
			c-0.671,0-0.943,0.608-0.985,1.038H97.695z"/>
		<path fill="#FFFFFF" d="M100.123,23.884c0-0.64-0.021-1.185-0.042-1.635h1.384l0.073,0.702h0.031
			c0.21-0.325,0.734-0.817,1.583-0.817c1.048,0,1.834,0.692,1.834,2.201v3.04h-1.593v-2.841c0-0.661-0.23-1.111-0.807-1.111
			c-0.44,0-0.703,0.304-0.807,0.598c-0.042,0.094-0.063,0.251-0.063,0.398v2.956h-1.593V23.884z"/>
		<path fill="#FFFFFF" d="M107.98,20.781v1.468h1.143v1.174h-1.143v1.855c0,0.619,0.147,0.902,0.629,0.902
			c0.199,0,0.356-0.021,0.472-0.042l0.011,1.206c-0.209,0.083-0.587,0.136-1.038,0.136c-0.514,0-0.944-0.178-1.195-0.44
			c-0.293-0.304-0.44-0.797-0.44-1.52v-2.097h-0.681v-1.174h0.681v-1.111L107.98,20.781z"/>
		<path fill="#FFFFFF" d="M117.127,19.932v5.913c0,0.576,0.021,1.185,0.042,1.53h-1.416l-0.073-0.755h-0.021
			c-0.325,0.577-0.943,0.87-1.604,0.87c-1.216,0-2.191-1.038-2.191-2.631c-0.01-1.73,1.069-2.726,2.296-2.726
			c0.629,0,1.122,0.22,1.353,0.576h0.021v-2.778H117.127z M115.534,24.419c0-0.084-0.011-0.199-0.021-0.283
			c-0.095-0.43-0.44-0.786-0.933-0.786c-0.723,0-1.101,0.65-1.101,1.457c0,0.87,0.43,1.415,1.09,1.415
			c0.461,0,0.828-0.314,0.923-0.765c0.031-0.115,0.042-0.23,0.042-0.367V24.419z"/>
		<path fill="#FFFFFF" d="M119.628,25.32c0.053,0.661,0.703,0.975,1.447,0.975c0.545,0,0.985-0.074,1.415-0.21l0.21,1.08
			c-0.524,0.209-1.164,0.314-1.855,0.314c-1.74,0-2.736-1.006-2.736-2.61c0-1.3,0.808-2.736,2.589-2.736
			c1.656,0,2.285,1.289,2.285,2.558c0,0.272-0.031,0.514-0.052,0.629H119.628z M121.504,24.23c0-0.388-0.167-1.038-0.901-1.038
			c-0.671,0-0.943,0.608-0.985,1.038H121.504z"/>
		<path fill="#FFFFFF" d="M125.054,22.249l0.692,2.379c0.125,0.43,0.22,0.839,0.293,1.248h0.031
			c0.084-0.419,0.168-0.807,0.283-1.248l0.66-2.379h1.677l-1.908,5.126h-1.593l-1.866-5.126H125.054z"/>
		<path fill="#FFFFFF" d="M130.491,25.32c0.053,0.661,0.703,0.975,1.447,0.975c0.545,0,0.985-0.074,1.415-0.21l0.21,1.08
			c-0.524,0.209-1.164,0.314-1.855,0.314c-1.74,0-2.736-1.006-2.736-2.61c0-1.3,0.808-2.736,2.589-2.736
			c1.656,0,2.285,1.289,2.285,2.558c0,0.272-0.031,0.514-0.052,0.629H130.491z M132.367,24.23c0-0.388-0.167-1.038-0.901-1.038
			c-0.671,0-0.943,0.608-0.985,1.038H132.367z"/>
		<path fill="#FFFFFF" d="M134.795,19.932h1.593v7.443h-1.593V19.932z"/>
		<path fill="#FFFFFF" d="M142.739,24.754c0,1.876-1.332,2.736-2.705,2.736c-1.499,0-2.652-0.985-2.652-2.642
			s1.09-2.715,2.736-2.715C141.691,22.134,142.739,23.213,142.739,24.754z M139.028,24.807c0,0.881,0.367,1.541,1.048,1.541
			c0.619,0,1.017-0.619,1.017-1.541c0-0.765-0.293-1.541-1.017-1.541C139.312,23.266,139.028,24.052,139.028,24.807z"/>
		<path fill="#FFFFFF" d="M143.721,23.968c0-0.671-0.021-1.248-0.042-1.719h1.384l0.073,0.713h0.021
			c0.377-0.545,0.964-0.828,1.708-0.828c1.122,0,2.128,0.975,2.128,2.61c0,1.866-1.185,2.747-2.327,2.747
			c-0.618,0-1.101-0.251-1.331-0.587h-0.021v2.547h-1.593V23.968z M145.314,25.174c0,0.125,0.01,0.241,0.031,0.335
			c0.105,0.43,0.472,0.754,0.933,0.754c0.692,0,1.101-0.576,1.101-1.446c0-0.818-0.367-1.437-1.08-1.437
			c-0.451,0-0.849,0.335-0.954,0.808c-0.021,0.083-0.031,0.188-0.031,0.283V25.174z"/>
		<path fill="#FFFFFF" d="M149.985,23.884c0-0.64-0.021-1.185-0.042-1.635h1.342l0.073,0.692h0.031
			c0.22-0.325,0.671-0.807,1.552-0.807c0.66,0,1.185,0.335,1.405,0.87h0.021c0.188-0.262,0.419-0.472,0.66-0.619
			c0.283-0.168,0.598-0.251,0.975-0.251c0.985,0,1.729,0.692,1.729,2.222v3.019h-1.551v-2.789c0-0.744-0.241-1.174-0.755-1.174
			c-0.367,0-0.629,0.251-0.734,0.556c-0.042,0.115-0.063,0.283-0.063,0.409v2.998h-1.551v-2.872c0-0.65-0.23-1.09-0.734-1.09
			c-0.409,0-0.65,0.314-0.744,0.577c-0.053,0.125-0.063,0.272-0.063,0.398v2.988h-1.551V23.884z"/>
		<path fill="#FFFFFF" d="M160.22,25.32c0.053,0.661,0.703,0.975,1.447,0.975c0.545,0,0.985-0.074,1.415-0.21l0.21,1.08
			c-0.524,0.209-1.164,0.314-1.855,0.314c-1.74,0-2.736-1.006-2.736-2.61c0-1.3,0.808-2.736,2.589-2.736
			c1.656,0,2.285,1.289,2.285,2.558c0,0.272-0.031,0.514-0.052,0.629H160.22z M162.096,24.23c0-0.388-0.167-1.038-0.901-1.038
			c-0.671,0-0.943,0.608-0.985,1.038H162.096z"/>
		<path fill="#FFFFFF" d="M164.524,23.884c0-0.64-0.021-1.185-0.042-1.635h1.384l0.073,0.702h0.031
			c0.21-0.325,0.734-0.817,1.583-0.817c1.048,0,1.834,0.692,1.834,2.201v3.04h-1.593v-2.841c0-0.661-0.23-1.111-0.807-1.111
			c-0.44,0-0.703,0.304-0.807,0.598c-0.042,0.094-0.063,0.251-0.063,0.398v2.956h-1.593V23.884z"/>
		<path fill="#FFFFFF" d="M172.382,20.781v1.468h1.143v1.174h-1.143v1.855c0,0.619,0.147,0.902,0.629,0.902
			c0.199,0,0.356-0.021,0.472-0.042l0.011,1.206c-0.209,0.083-0.587,0.136-1.038,0.136c-0.514,0-0.944-0.178-1.195-0.44
			c-0.293-0.304-0.44-0.797-0.44-1.52v-2.097h-0.681v-1.174h0.681v-1.111L172.382,20.781z"/>
		<path fill="#FFFFFF" d="M179.475,27.375l-0.094-0.514h-0.032c-0.335,0.409-0.859,0.629-1.467,0.629
			c-1.038,0-1.656-0.755-1.656-1.572c0-1.332,1.195-1.971,3.008-1.96v-0.073c0-0.272-0.146-0.661-0.933-0.661
			c-0.524,0-1.08,0.178-1.415,0.388l-0.293-1.027c0.356-0.199,1.059-0.451,1.992-0.451c1.708,0,2.254,1.006,2.254,2.212v1.782
			c0,0.493,0.021,0.964,0.073,1.248H179.475z M179.286,24.954c-0.838-0.011-1.488,0.188-1.488,0.807
			c0,0.409,0.272,0.608,0.629,0.608c0.398,0,0.723-0.262,0.828-0.587c0.021-0.084,0.031-0.178,0.031-0.272V24.954z"/>
		<path fill="#FFFFFF" d="M182.091,23.884c0-0.64-0.021-1.185-0.042-1.635h1.384l0.073,0.702h0.031
			c0.21-0.325,0.734-0.817,1.583-0.817c1.048,0,1.834,0.692,1.834,2.201v3.04h-1.593v-2.841c0-0.661-0.23-1.111-0.807-1.111
			c-0.44,0-0.703,0.304-0.807,0.598c-0.042,0.094-0.063,0.251-0.063,0.398v2.956h-1.593V23.884z"/>
		<path fill="#FFFFFF" d="M193.199,19.932v5.913c0,0.576,0.021,1.185,0.042,1.53h-1.416l-0.073-0.755h-0.021
			c-0.325,0.577-0.943,0.87-1.604,0.87c-1.216,0-2.191-1.038-2.191-2.631c-0.01-1.73,1.069-2.726,2.296-2.726
			c0.629,0,1.122,0.22,1.353,0.576h0.021v-2.778H193.199z M191.605,24.419c0-0.084-0.011-0.199-0.021-0.283
			c-0.095-0.43-0.44-0.786-0.933-0.786c-0.723,0-1.101,0.65-1.101,1.457c0,0.87,0.43,1.415,1.09,1.415
			c0.461,0,0.828-0.314,0.923-0.765c0.031-0.115,0.042-0.23,0.042-0.367V24.419z"/>
		<path fill="#FFFFFF" d="M197.815,25.32c0.053,0.661,0.703,0.975,1.447,0.975c0.545,0,0.985-0.074,1.415-0.21l0.21,1.08
			c-0.524,0.209-1.164,0.314-1.855,0.314c-1.74,0-2.736-1.006-2.736-2.61c0-1.3,0.808-2.736,2.589-2.736
			c1.656,0,2.285,1.289,2.285,2.558c0,0.272-0.031,0.514-0.052,0.629H197.815z M199.691,24.23c0-0.388-0.167-1.038-0.901-1.038
			c-0.671,0-0.943,0.608-0.985,1.038H199.691z"/>
		<path fill="#FFFFFF" d="M203.21,22.249l0.503,0.849c0.147,0.262,0.283,0.524,0.419,0.765h0.021
			c0.136-0.272,0.262-0.535,0.398-0.786l0.451-0.828h1.729l-1.688,2.442l1.708,2.684h-1.803l-0.514-0.922
			c-0.147-0.251-0.272-0.514-0.398-0.776h-0.031c-0.126,0.272-0.262,0.524-0.388,0.776l-0.482,0.922h-1.751l1.74-2.61l-1.698-2.516
			H203.21z"/>
		<path fill="#FFFFFF" d="M208.426,25.32c0.053,0.661,0.703,0.975,1.447,0.975c0.545,0,0.985-0.074,1.415-0.21l0.21,1.08
			c-0.524,0.209-1.164,0.314-1.855,0.314c-1.74,0-2.736-1.006-2.736-2.61c0-1.3,0.808-2.736,2.589-2.736
			c1.656,0,2.285,1.289,2.285,2.558c0,0.272-0.031,0.514-0.052,0.629H208.426z M210.303,24.23c0-0.388-0.167-1.038-0.901-1.038
			c-0.671,0-0.943,0.608-0.985,1.038H210.303z"/>
		<path fill="#FFFFFF" d="M216.578,27.249c-0.283,0.126-0.818,0.231-1.426,0.231c-1.656,0-2.715-1.006-2.715-2.621
			c0-1.5,1.027-2.726,2.936-2.726c0.419,0,0.88,0.073,1.216,0.199l-0.251,1.185c-0.189-0.084-0.472-0.158-0.891-0.158
			c-0.838,0-1.384,0.598-1.373,1.437c0,0.943,0.629,1.436,1.404,1.436c0.377,0,0.671-0.063,0.912-0.157L216.578,27.249z"/>
		<path fill="#FFFFFF" d="M222.288,25.729c0,0.671,0.021,1.216,0.042,1.646h-1.384l-0.074-0.723h-0.031
			c-0.199,0.314-0.681,0.838-1.604,0.838c-1.038,0-1.803-0.65-1.803-2.233v-3.008h1.604v2.757c0,0.744,0.241,1.195,0.797,1.195
			c0.44,0,0.692-0.304,0.797-0.556c0.042-0.095,0.052-0.22,0.052-0.346v-3.05h1.604V25.729z"/>
		<path fill="#FFFFFF" d="M225.344,20.781v1.468h1.143v1.174h-1.143v1.855c0,0.619,0.147,0.902,0.629,0.902
			c0.199,0,0.356-0.021,0.472-0.042l0.011,1.206c-0.209,0.083-0.587,0.136-1.038,0.136c-0.514,0-0.944-0.178-1.195-0.44
			c-0.293-0.304-0.44-0.797-0.44-1.52v-2.097h-0.681v-1.174h0.681v-1.111L225.344,20.781z"/>
		<path fill="#FFFFFF" d="M229.052,20.823c0,0.44-0.335,0.797-0.859,0.797c-0.503,0-0.839-0.356-0.828-0.797
			c-0.011-0.461,0.325-0.807,0.838-0.807S229.042,20.362,229.052,20.823z M227.406,27.375v-5.126H229v5.126H227.406z"/>
		<path fill="#FFFFFF" d="M235.339,24.754c0,1.876-1.332,2.736-2.705,2.736c-1.499,0-2.652-0.985-2.652-2.642
			s1.09-2.715,2.736-2.715C234.291,22.134,235.339,23.213,235.339,24.754z M231.628,24.807c0,0.881,0.367,1.541,1.048,1.541
			c0.619,0,1.017-0.619,1.017-1.541c0-0.765-0.293-1.541-1.017-1.541C231.912,23.266,231.628,24.052,231.628,24.807z"/>
		<path fill="#FFFFFF" d="M236.321,23.884c0-0.64-0.021-1.185-0.042-1.635h1.384l0.073,0.702h0.031
			c0.21-0.325,0.734-0.817,1.583-0.817c1.048,0,1.834,0.692,1.834,2.201v3.04h-1.593v-2.841c0-0.661-0.23-1.111-0.807-1.111
			c-0.44,0-0.703,0.304-0.807,0.598c-0.042,0.094-0.063,0.251-0.063,0.398v2.956h-1.593V23.884z"/>
		<path fill="#FFFFFF" d="M246.221,20.823c0,0.44-0.335,0.797-0.859,0.797c-0.503,0-0.839-0.356-0.828-0.797
			c-0.011-0.461,0.325-0.807,0.838-0.807S246.211,20.362,246.221,20.823z M244.576,27.375v-5.126h1.593v5.126H244.576z"/>
		<path fill="#FFFFFF" d="M247.446,23.884c0-0.64-0.021-1.185-0.042-1.635h1.384l0.073,0.702h0.031
			c0.21-0.325,0.734-0.817,1.583-0.817c1.048,0,1.834,0.692,1.834,2.201v3.04h-1.593v-2.841c0-0.661-0.23-1.111-0.807-1.111
			c-0.44,0-0.703,0.304-0.807,0.598c-0.042,0.094-0.063,0.251-0.063,0.398v2.956h-1.593V23.884z"/>
		<path fill="#FFFFFF" d="M46.033,37.325c0,1.876-1.332,2.736-2.705,2.736c-1.499,0-2.652-0.985-2.652-2.642s1.09-2.715,2.736-2.715
			C44.984,34.704,46.033,35.784,46.033,37.325z M42.322,37.377c0,0.881,0.367,1.541,1.048,1.541c0.619,0,1.017-0.619,1.017-1.541
			c0-0.765-0.293-1.541-1.017-1.541C42.605,35.836,42.322,36.622,42.322,37.377z"/>
		<path fill="#FFFFFF" d="M51.847,38.299c0,0.671,0.021,1.216,0.042,1.646h-1.384l-0.074-0.723H50.4
			c-0.199,0.314-0.681,0.838-1.604,0.838c-1.038,0-1.803-0.65-1.803-2.233v-3.008h1.604v2.757c0,0.744,0.241,1.195,0.797,1.195
			c0.44,0,0.692-0.304,0.797-0.556c0.042-0.095,0.052-0.22,0.052-0.346v-3.05h1.604V38.299z"/>
		<path fill="#FFFFFF" d="M53.121,36.507c0-0.755-0.021-1.248-0.042-1.688h1.373l0.052,0.943h0.042
			c0.262-0.744,0.891-1.059,1.384-1.059c0.147,0,0.22,0,0.335,0.021v1.499c-0.115-0.021-0.251-0.042-0.43-0.042
			c-0.587,0-0.985,0.314-1.09,0.807c-0.021,0.104-0.031,0.23-0.031,0.356v2.6h-1.593V36.507z"/>
		<path fill="#FFFFFF" d="M59.27,32.974c0.587-0.094,1.352-0.146,2.16-0.146c1.342,0,2.211,0.241,2.893,0.754
			c0.734,0.545,1.195,1.416,1.195,2.663c0,1.352-0.493,2.285-1.174,2.861c-0.744,0.619-1.876,0.912-3.26,0.912
			c-0.828,0-1.415-0.052-1.813-0.104V32.974z M60.874,38.74c0.136,0.032,0.356,0.032,0.556,0.032c1.446,0.01,2.39-0.787,2.39-2.474
			c0.011-1.468-0.849-2.243-2.222-2.243c-0.356,0-0.587,0.031-0.723,0.062V38.74z"/>
		<path fill="#FFFFFF" d="M66.561,39.945V32.88h1.866l1.468,2.589c0.419,0.744,0.839,1.625,1.153,2.421h0.031
			c-0.105-0.933-0.136-1.887-0.136-2.946V32.88h1.467v7.065h-1.677l-1.51-2.726c-0.419-0.755-0.88-1.667-1.227-2.495l-0.031,0.01
			c0.042,0.933,0.063,1.929,0.063,3.082v2.128H66.561z"/>
		<path fill="#FFFFFF" d="M75.435,38.132l-0.503,1.813h-1.656l2.16-7.065h2.096l2.191,7.065h-1.719l-0.545-1.813H75.435z
			 M77.228,36.937l-0.44-1.499c-0.126-0.419-0.251-0.943-0.356-1.362H76.41c-0.105,0.419-0.209,0.954-0.325,1.362l-0.419,1.499
			H77.228z"/>
		<path fill="#FFFFFF" d="M79.99,41.193c0.325-0.933,0.608-2.023,0.755-2.977l1.625-0.105c-0.346,1.069-0.817,2.17-1.321,2.988
			L79.99,41.193z"/>
		<path fill="#FFFFFF" d="M87.104,32.88v7.065H85.5V32.88H87.104z"/>
		<path fill="#FFFFFF" d="M93.675,39.746c-0.293,0.147-0.954,0.304-1.813,0.304c-2.442,0-3.701-1.52-3.701-3.533
			c0-2.411,1.719-3.753,3.858-3.753c0.828,0,1.457,0.167,1.74,0.314l-0.325,1.269c-0.325-0.136-0.775-0.262-1.342-0.262
			c-1.269,0-2.254,0.765-2.254,2.337c0,1.416,0.839,2.307,2.265,2.307c0.482,0,1.017-0.105,1.331-0.231L93.675,39.746z"/>
		<path fill="#FFFFFF" d="M94.718,32.974c0.493-0.083,1.185-0.146,2.16-0.146c0.985,0,1.688,0.188,2.159,0.566
			c0.451,0.356,0.755,0.943,0.755,1.635s-0.23,1.279-0.65,1.677c-0.545,0.514-1.353,0.744-2.296,0.744
			c-0.209,0-0.398-0.01-0.545-0.031v2.526h-1.583V32.974z M96.301,36.182c0.136,0.031,0.304,0.042,0.535,0.042
			c0.849,0,1.373-0.43,1.373-1.153c0-0.65-0.451-1.038-1.248-1.038c-0.325,0-0.545,0.031-0.66,0.062V36.182z"/>
		<path fill="#FFFFFF" d="M105.782,39.945l-0.094-0.514h-0.032c-0.335,0.409-0.859,0.629-1.467,0.629
			c-1.038,0-1.656-0.755-1.656-1.572c0-1.332,1.195-1.971,3.008-1.96v-0.073c0-0.272-0.146-0.661-0.933-0.661
			c-0.524,0-1.08,0.178-1.415,0.388l-0.293-1.027c0.356-0.199,1.059-0.451,1.992-0.451c1.708,0,2.254,1.006,2.254,2.212v1.782
			c0,0.493,0.021,0.964,0.073,1.248H105.782z M105.593,37.524c-0.838-0.011-1.488,0.188-1.488,0.807
			c0,0.409,0.272,0.608,0.629,0.608c0.398,0,0.723-0.262,0.828-0.587c0.021-0.084,0.031-0.178,0.031-0.272V37.524z"/>
		<path fill="#FFFFFF" d="M108.399,36.507c0-0.755-0.021-1.248-0.042-1.688h1.373l0.052,0.943h0.042
			c0.262-0.744,0.891-1.059,1.384-1.059c0.147,0,0.22,0,0.335,0.021v1.499c-0.115-0.021-0.251-0.042-0.43-0.042
			c-0.587,0-0.985,0.314-1.09,0.807c-0.021,0.104-0.031,0.23-0.031,0.356v2.6h-1.593V36.507z"/>
		<path fill="#FFFFFF" d="M113.521,37.891c0.053,0.661,0.703,0.975,1.447,0.975c0.545,0,0.985-0.074,1.415-0.21l0.21,1.08
			c-0.524,0.209-1.164,0.314-1.855,0.314c-1.74,0-2.736-1.006-2.736-2.61c0-1.3,0.808-2.736,2.589-2.736
			c1.656,0,2.285,1.289,2.285,2.558c0,0.272-0.031,0.514-0.052,0.629H113.521z M115.398,36.8c0-0.388-0.167-1.038-0.901-1.038
			c-0.671,0-0.943,0.608-0.985,1.038H115.398z"/>
		<path fill="#FFFFFF" d="M121.724,33.352v1.468h1.143v1.174h-1.143v1.855c0,0.619,0.147,0.902,0.629,0.902
			c0.199,0,0.356-0.021,0.472-0.042l0.01,1.206c-0.209,0.083-0.587,0.136-1.038,0.136c-0.514,0-0.944-0.178-1.195-0.44
			c-0.293-0.304-0.44-0.797-0.44-1.52v-2.097h-0.681v-1.174h0.681v-1.111L121.724,33.352z"/>
		<path fill="#FFFFFF" d="M123.787,32.502h1.593v2.925h0.021c0.167-0.22,0.377-0.388,0.629-0.524
			c0.23-0.126,0.535-0.199,0.828-0.199c1.017,0,1.792,0.702,1.792,2.243v2.998h-1.593v-2.82c0-0.671-0.23-1.132-0.828-1.132
			c-0.419,0-0.682,0.272-0.797,0.556c-0.042,0.105-0.052,0.241-0.052,0.356v3.04h-1.593V32.502z"/>
		<path fill="#FFFFFF" d="M131.151,37.891c0.053,0.661,0.703,0.975,1.447,0.975c0.545,0,0.985-0.074,1.415-0.21l0.21,1.08
			c-0.524,0.209-1.164,0.314-1.855,0.314c-1.74,0-2.736-1.006-2.736-2.61c0-1.3,0.808-2.736,2.589-2.736
			c1.656,0,2.285,1.289,2.285,2.558c0,0.272-0.031,0.514-0.052,0.629H131.151z M133.028,36.8c0-0.388-0.167-1.038-0.901-1.038
			c-0.671,0-0.943,0.608-0.985,1.038H133.028z"/>
		<path fill="#FFFFFF" d="M142.635,37.325c0,1.876-1.332,2.736-2.705,2.736c-1.499,0-2.652-0.985-2.652-2.642
			s1.09-2.715,2.736-2.715C141.587,34.704,142.635,35.784,142.635,37.325z M138.924,37.377c0,0.881,0.367,1.541,1.048,1.541
			c0.619,0,1.017-0.619,1.017-1.541c0-0.765-0.293-1.541-1.017-1.541C139.208,35.836,138.924,36.622,138.924,37.377z"/>
		<path fill="#FFFFFF" d="M143.617,36.455c0-0.64-0.021-1.185-0.042-1.635h1.384l0.073,0.702h0.031
			c0.21-0.325,0.734-0.817,1.583-0.817c1.048,0,1.834,0.692,1.834,2.201v3.04h-1.593v-2.841c0-0.661-0.23-1.111-0.807-1.111
			c-0.44,0-0.703,0.304-0.807,0.598c-0.042,0.094-0.063,0.251-0.063,0.398v2.956h-1.593V36.455z"/>
		<path fill="#FFFFFF" d="M149.755,32.502h1.593v7.443h-1.593V32.502z"/>
		<path fill="#FFFFFF" d="M153.831,34.819l0.765,2.516c0.084,0.304,0.189,0.682,0.251,0.954h0.032
			c0.073-0.272,0.157-0.661,0.23-0.954l0.629-2.516h1.709l-1.195,3.375c-0.734,2.034-1.227,2.851-1.803,3.365
			c-0.556,0.482-1.143,0.65-1.541,0.703l-0.335-1.353c0.199-0.031,0.451-0.125,0.692-0.272c0.241-0.126,0.503-0.377,0.66-0.64
			c0.053-0.073,0.084-0.157,0.084-0.23c0-0.052-0.01-0.136-0.073-0.262l-1.876-4.686H153.831z"/>
		<path fill="#FFFFFF" d="M162.012,33.352v1.468h1.143v1.174h-1.143v1.855c0,0.619,0.147,0.902,0.629,0.902
			c0.199,0,0.356-0.021,0.472-0.042l0.01,1.206c-0.209,0.083-0.587,0.136-1.038,0.136c-0.514,0-0.944-0.178-1.195-0.44
			c-0.293-0.304-0.44-0.797-0.44-1.52v-2.097h-0.681v-1.174h0.681v-1.111L162.012,33.352z"/>
		<path fill="#FFFFFF" d="M165.249,37.891c0.053,0.661,0.703,0.975,1.447,0.975c0.545,0,0.985-0.074,1.415-0.21l0.21,1.08
			c-0.524,0.209-1.164,0.314-1.855,0.314c-1.74,0-2.736-1.006-2.736-2.61c0-1.3,0.808-2.736,2.589-2.736
			c1.656,0,2.285,1.289,2.285,2.558c0,0.272-0.031,0.514-0.052,0.629H165.249z M167.125,36.8c0-0.388-0.167-1.038-0.901-1.038
			c-0.671,0-0.943,0.608-0.985,1.038H167.125z"/>
		<path fill="#FFFFFF" d="M172.467,39.945l-0.094-0.514h-0.032c-0.335,0.409-0.859,0.629-1.467,0.629
			c-1.038,0-1.656-0.755-1.656-1.572c0-1.332,1.195-1.971,3.008-1.96v-0.073c0-0.272-0.146-0.661-0.933-0.661
			c-0.524,0-1.08,0.178-1.415,0.388l-0.293-1.027c0.356-0.199,1.059-0.451,1.992-0.451c1.708,0,2.254,1.006,2.254,2.212v1.782
			c0,0.493,0.021,0.964,0.073,1.248H172.467z M172.278,37.524c-0.838-0.011-1.488,0.188-1.488,0.807
			c0,0.409,0.272,0.608,0.629,0.608c0.398,0,0.723-0.262,0.828-0.587c0.021-0.084,0.031-0.178,0.031-0.272V37.524z"/>
		<path fill="#FFFFFF" d="M175.084,36.455c0-0.64-0.021-1.185-0.042-1.635h1.342l0.073,0.692h0.031
			c0.22-0.325,0.671-0.807,1.552-0.807c0.66,0,1.185,0.335,1.405,0.87h0.021c0.188-0.262,0.419-0.472,0.66-0.619
			c0.283-0.168,0.598-0.251,0.975-0.251c0.985,0,1.729,0.692,1.729,2.222v3.019h-1.551v-2.789c0-0.744-0.241-1.174-0.755-1.174
			c-0.367,0-0.629,0.251-0.734,0.556c-0.042,0.115-0.063,0.283-0.063,0.409v2.998h-1.551v-2.872c0-0.65-0.23-1.09-0.734-1.09
			c-0.409,0-0.65,0.314-0.744,0.577c-0.053,0.125-0.063,0.272-0.063,0.398v2.988h-1.551V36.455z"/>
		<path fill="#FFFFFF" d="M187.309,34.819l0.409,2.097c0.105,0.534,0.209,1.101,0.293,1.688h0.021
			c0.105-0.587,0.251-1.174,0.377-1.677l0.545-2.107h1.258l0.514,2.044c0.136,0.577,0.272,1.153,0.377,1.74h0.021
			c0.074-0.587,0.178-1.164,0.294-1.75l0.44-2.034h1.562l-1.572,5.126h-1.499l-0.482-1.803c-0.125-0.503-0.22-0.964-0.325-1.593
			h-0.021c-0.094,0.64-0.199,1.111-0.335,1.593l-0.514,1.803h-1.499l-1.489-5.126H187.309z"/>
		<path fill="#FFFFFF" d="M195.805,33.394c0,0.44-0.335,0.797-0.859,0.797c-0.503,0-0.839-0.356-0.828-0.797
			c-0.011-0.461,0.325-0.807,0.838-0.807S195.794,32.932,195.805,33.394z M194.159,39.945v-5.126h1.593v5.126H194.159z"/>
		<path fill="#FFFFFF" d="M198.811,33.352v1.468h1.143v1.174h-1.143v1.855c0,0.619,0.147,0.902,0.629,0.902
			c0.199,0,0.356-0.021,0.472-0.042l0.01,1.206c-0.209,0.083-0.587,0.136-1.038,0.136c-0.514,0-0.944-0.178-1.195-0.44
			c-0.293-0.304-0.44-0.797-0.44-1.52v-2.097h-0.681v-1.174h0.681v-1.111L198.811,33.352z"/>
		<path fill="#FFFFFF" d="M200.874,32.502h1.593v2.925h0.021c0.167-0.22,0.377-0.388,0.629-0.524
			c0.23-0.126,0.535-0.199,0.828-0.199c1.017,0,1.792,0.702,1.792,2.243v2.998h-1.593v-2.82c0-0.671-0.23-1.132-0.828-1.132
			c-0.419,0-0.682,0.272-0.797,0.556c-0.042,0.105-0.052,0.241-0.052,0.356v3.04h-1.593V32.502z"/>
		<path fill="#FFFFFF" d="M210.91,33.352v1.468h1.143v1.174h-1.143v1.855c0,0.619,0.147,0.902,0.629,0.902
			c0.199,0,0.356-0.021,0.472-0.042l0.011,1.206c-0.209,0.083-0.587,0.136-1.038,0.136c-0.514,0-0.944-0.178-1.195-0.44
			c-0.293-0.304-0.44-0.797-0.44-1.52v-2.097h-0.681v-1.174h0.681v-1.111L210.91,33.352z"/>
		<path fill="#FFFFFF" d="M212.973,32.502h1.593v2.925h0.021c0.167-0.22,0.377-0.388,0.629-0.524
			c0.23-0.126,0.535-0.199,0.828-0.199c1.017,0,1.792,0.702,1.792,2.243v2.998h-1.593v-2.82c0-0.671-0.23-1.132-0.828-1.132
			c-0.419,0-0.682,0.272-0.797,0.556c-0.042,0.105-0.052,0.241-0.052,0.356v3.04h-1.593V32.502z"/>
		<path fill="#FFFFFF" d="M220.337,37.891c0.053,0.661,0.703,0.975,1.447,0.975c0.545,0,0.985-0.074,1.415-0.21l0.21,1.08
			c-0.524,0.209-1.164,0.314-1.855,0.314c-1.74,0-2.736-1.006-2.736-2.61c0-1.3,0.808-2.736,2.589-2.736
			c1.656,0,2.285,1.289,2.285,2.558c0,0.272-0.031,0.514-0.052,0.629H220.337z M222.214,36.8c0-0.388-0.167-1.038-0.901-1.038
			c-0.671,0-0.943,0.608-0.985,1.038H222.214z"/>
		<path fill="#FFFFFF" d="M226.758,36.539c0-0.671-0.021-1.248-0.042-1.719h1.384l0.073,0.713h0.021
			c0.377-0.545,0.964-0.828,1.708-0.828c1.122,0,2.128,0.975,2.128,2.61c0,1.866-1.185,2.747-2.327,2.747
			c-0.618,0-1.101-0.251-1.331-0.587h-0.021v2.547h-1.593V36.539z M228.352,37.744c0,0.125,0.01,0.241,0.031,0.335
			c0.105,0.43,0.472,0.754,0.933,0.754c0.692,0,1.101-0.576,1.101-1.446c0-0.818-0.367-1.437-1.08-1.437
			c-0.451,0-0.849,0.335-0.954,0.808c-0.021,0.083-0.031,0.188-0.031,0.283V37.744z"/>
		<path fill="#FFFFFF" d="M235.937,39.945l-0.094-0.514h-0.032c-0.335,0.409-0.859,0.629-1.467,0.629
			c-1.038,0-1.656-0.755-1.656-1.572c0-1.332,1.195-1.971,3.008-1.96v-0.073c0-0.272-0.146-0.661-0.933-0.661
			c-0.524,0-1.08,0.178-1.415,0.388l-0.293-1.027c0.356-0.199,1.059-0.451,1.992-0.451c1.708,0,2.254,1.006,2.254,2.212v1.782
			c0,0.493,0.021,0.964,0.073,1.248H235.937z M235.748,37.524c-0.838-0.011-1.488,0.188-1.488,0.807
			c0,0.409,0.272,0.608,0.629,0.608c0.398,0,0.723-0.262,0.828-0.587c0.021-0.084,0.031-0.178,0.031-0.272V37.524z"/>
		<path fill="#FFFFFF" d="M238.542,38.551c0.293,0.178,0.901,0.388,1.374,0.388c0.482,0,0.681-0.167,0.681-0.43
			s-0.157-0.388-0.755-0.587c-1.059-0.356-1.467-0.933-1.457-1.541c0-0.954,0.818-1.677,2.086-1.677
			c0.598,0,1.132,0.136,1.447,0.293l-0.283,1.101c-0.23-0.126-0.671-0.293-1.111-0.293c-0.388,0-0.608,0.157-0.608,0.419
			c0,0.241,0.199,0.367,0.828,0.587c0.975,0.335,1.383,0.828,1.394,1.583c0,0.954-0.755,1.656-2.222,1.656
			c-0.671,0-1.269-0.147-1.657-0.356L238.542,38.551z"/>
		<path fill="#FFFFFF" d="M243.089,38.551c0.293,0.178,0.901,0.388,1.374,0.388c0.482,0,0.681-0.167,0.681-0.43
			s-0.157-0.388-0.755-0.587c-1.059-0.356-1.467-0.933-1.457-1.541c0-0.954,0.818-1.677,2.086-1.677
			c0.598,0,1.132,0.136,1.447,0.293l-0.283,1.101c-0.23-0.126-0.671-0.293-1.111-0.293c-0.388,0-0.608,0.157-0.608,0.419
			c0,0.241,0.199,0.367,0.828,0.587c0.975,0.335,1.383,0.828,1.394,1.583c0,0.954-0.755,1.656-2.222,1.656
			c-0.671,0-1.269-0.147-1.657-0.356L243.089,38.551z"/>
		<path fill="#FFFFFF" d="M249.292,33.394c0,0.44-0.335,0.797-0.859,0.797c-0.503,0-0.839-0.356-0.828-0.797
			c-0.011-0.461,0.325-0.807,0.838-0.807S249.281,32.932,249.292,33.394z M247.646,39.945v-5.126h1.593v5.126H247.646z"/>
		<path fill="#FFFFFF" d="M255.579,37.325c0,1.876-1.332,2.736-2.705,2.736c-1.499,0-2.652-0.985-2.652-2.642
			s1.09-2.715,2.736-2.715C254.531,34.704,255.579,35.784,255.579,37.325z M251.868,37.377c0,0.881,0.367,1.541,1.048,1.541
			c0.619,0,1.017-0.619,1.017-1.541c0-0.765-0.293-1.541-1.017-1.541C252.151,35.836,251.868,36.622,251.868,37.377z"/>
		<path fill="#FFFFFF" d="M256.561,36.455c0-0.64-0.021-1.185-0.042-1.635h1.384l0.073,0.702h0.031
			c0.21-0.325,0.734-0.817,1.583-0.817c1.048,0,1.834,0.692,1.834,2.201v3.04h-1.593v-2.841c0-0.661-0.23-1.111-0.807-1.111
			c-0.44,0-0.703,0.304-0.807,0.598c-0.042,0.094-0.063,0.251-0.063,0.398v2.956h-1.593V36.455z"/>
		<path fill="#FFFFFF" d="M39.866,52.516l-0.094-0.514H39.74c-0.335,0.409-0.859,0.629-1.467,0.629
			c-1.038,0-1.656-0.755-1.656-1.572c0-1.332,1.195-1.971,3.008-1.96v-0.073c0-0.272-0.146-0.661-0.933-0.661
			c-0.524,0-1.08,0.178-1.415,0.388l-0.293-1.027c0.356-0.199,1.059-0.451,1.992-0.451c1.708,0,2.254,1.006,2.254,2.212v1.782
			c0,0.493,0.021,0.964,0.073,1.248H39.866z M39.677,50.094c-0.838-0.011-1.488,0.188-1.488,0.807c0,0.409,0.272,0.608,0.629,0.608
			c0.398,0,0.723-0.262,0.828-0.587c0.021-0.084,0.031-0.178,0.031-0.272V50.094z"/>
		<path fill="#FFFFFF" d="M42.483,49.025c0-0.64-0.021-1.185-0.042-1.635h1.384l0.073,0.702h0.031
			c0.21-0.325,0.734-0.817,1.583-0.817c1.048,0,1.834,0.692,1.834,2.201v3.04h-1.593v-2.841c0-0.661-0.23-1.111-0.807-1.111
			c-0.44,0-0.703,0.304-0.807,0.598c-0.042,0.094-0.063,0.251-0.063,0.398v2.956h-1.593V49.025z"/>
		<path fill="#FFFFFF" d="M53.59,45.073v5.913c0,0.576,0.021,1.185,0.042,1.53h-1.416l-0.073-0.755h-0.021
			c-0.325,0.577-0.943,0.87-1.604,0.87c-1.216,0-2.191-1.038-2.191-2.631c-0.01-1.73,1.069-2.726,2.296-2.726
			c0.629,0,1.122,0.22,1.353,0.576h0.021v-2.778H53.59z M51.997,49.56c0-0.084-0.011-0.199-0.021-0.283
			c-0.095-0.43-0.44-0.786-0.933-0.786c-0.723,0-1.101,0.65-1.101,1.457c0,0.87,0.43,1.415,1.09,1.415
			c0.461,0,0.828-0.314,0.923-0.765c0.031-0.115,0.042-0.23,0.042-0.367V49.56z"/>
		<path fill="#FFFFFF" d="M61.813,50.87c0,0.671,0.021,1.216,0.042,1.646h-1.384l-0.074-0.723h-0.031
			c-0.199,0.314-0.681,0.838-1.604,0.838c-1.038,0-1.803-0.65-1.803-2.233V47.39h1.604v2.757c0,0.744,0.241,1.195,0.797,1.195
			c0.44,0,0.692-0.304,0.797-0.556c0.042-0.095,0.052-0.22,0.052-0.346v-3.05h1.604V50.87z"/>
		<path fill="#FFFFFF" d="M63.077,51.122c0.293,0.178,0.901,0.388,1.374,0.388c0.482,0,0.681-0.167,0.681-0.43
			s-0.157-0.388-0.755-0.587c-1.059-0.356-1.467-0.933-1.457-1.541c0-0.954,0.818-1.677,2.086-1.677
			c0.598,0,1.132,0.136,1.447,0.293l-0.283,1.101c-0.23-0.126-0.671-0.293-1.111-0.293c-0.388,0-0.608,0.157-0.608,0.419
			c0,0.241,0.199,0.367,0.828,0.587c0.975,0.335,1.383,0.828,1.394,1.583c0,0.954-0.755,1.656-2.222,1.656
			c-0.671,0-1.269-0.147-1.657-0.356L63.077,51.122z"/>
		<path fill="#FFFFFF" d="M68.86,50.461c0.053,0.661,0.703,0.975,1.447,0.975c0.545,0,0.985-0.074,1.415-0.21l0.21,1.08
			c-0.524,0.209-1.164,0.314-1.855,0.314c-1.74,0-2.736-1.006-2.736-2.61c0-1.3,0.808-2.736,2.589-2.736
			c1.656,0,2.285,1.289,2.285,2.558c0,0.272-0.031,0.514-0.052,0.629H68.86z M70.736,49.371c0-0.388-0.167-1.038-0.901-1.038
			c-0.671,0-0.943,0.608-0.985,1.038H70.736z"/>
		<path fill="#FFFFFF" d="M73.165,49.077c0-0.755-0.021-1.248-0.042-1.688h1.373l0.052,0.943h0.042
			c0.262-0.744,0.891-1.059,1.384-1.059c0.147,0,0.22,0,0.335,0.021v1.499c-0.115-0.021-0.251-0.042-0.43-0.042
			c-0.587,0-0.985,0.314-1.09,0.807c-0.021,0.104-0.031,0.23-0.031,0.356v2.6h-1.593V49.077z"/>
		<path fill="#FFFFFF" d="M80.487,50.461c0.053,0.661,0.703,0.975,1.447,0.975c0.545,0,0.985-0.074,1.415-0.21l0.21,1.08
			c-0.524,0.209-1.164,0.314-1.855,0.314c-1.74,0-2.736-1.006-2.736-2.61c0-1.3,0.808-2.736,2.589-2.736
			c1.656,0,2.285,1.289,2.285,2.558c0,0.272-0.031,0.514-0.052,0.629H80.487z M82.363,49.371c0-0.388-0.167-1.038-0.901-1.038
			c-0.671,0-0.943,0.608-0.985,1.038H82.363z"/>
		<path fill="#FFFFFF" d="M84.792,49.025c0-0.64-0.021-1.185-0.042-1.635h1.342l0.073,0.692h0.031
			c0.22-0.325,0.671-0.807,1.552-0.807c0.66,0,1.185,0.335,1.405,0.87h0.021c0.188-0.262,0.419-0.472,0.66-0.619
			c0.283-0.168,0.598-0.251,0.975-0.251c0.985,0,1.729,0.692,1.729,2.222v3.019h-1.551v-2.789c0-0.744-0.241-1.174-0.755-1.174
			c-0.367,0-0.629,0.251-0.734,0.556c-0.042,0.115-0.063,0.283-0.063,0.409v2.998h-1.551v-2.872c0-0.65-0.23-1.09-0.734-1.09
			c-0.409,0-0.65,0.314-0.744,0.577c-0.053,0.125-0.063,0.272-0.063,0.398v2.988h-1.551V49.025z"/>
		<path fill="#FFFFFF" d="M93.8,49.109c0-0.671-0.021-1.248-0.042-1.719h1.384l0.073,0.713h0.021
			c0.377-0.545,0.964-0.828,1.708-0.828c1.122,0,2.128,0.975,2.128,2.61c0,1.866-1.185,2.747-2.327,2.747
			c-0.618,0-1.101-0.251-1.331-0.587h-0.021v2.547H93.8V49.109z M95.394,50.314c0,0.125,0.01,0.241,0.031,0.335
			c0.105,0.43,0.472,0.754,0.933,0.754c0.692,0,1.101-0.576,1.101-1.446c0-0.818-0.367-1.437-1.08-1.437
			c-0.451,0-0.849,0.335-0.954,0.808c-0.021,0.083-0.031,0.188-0.031,0.283V50.314z"/>
		<path fill="#FFFFFF" d="M102.979,52.516l-0.094-0.514h-0.032c-0.335,0.409-0.859,0.629-1.467,0.629
			c-1.038,0-1.656-0.755-1.656-1.572c0-1.332,1.195-1.971,3.008-1.96v-0.073c0-0.272-0.146-0.661-0.933-0.661
			c-0.524,0-1.08,0.178-1.415,0.388l-0.293-1.027c0.356-0.199,1.059-0.451,1.992-0.451c1.708,0,2.254,1.006,2.254,2.212v1.782
			c0,0.493,0.021,0.964,0.073,1.248H102.979z M102.79,50.094c-0.838-0.011-1.488,0.188-1.488,0.807c0,0.409,0.272,0.608,0.629,0.608
			c0.398,0,0.723-0.262,0.828-0.587c0.021-0.084,0.031-0.178,0.031-0.272V50.094z"/>
		<path fill="#FFFFFF" d="M107.293,45.922v1.468h1.143v1.174h-1.143v1.855c0,0.619,0.147,0.902,0.629,0.902
			c0.199,0,0.356-0.021,0.472-0.042l0.011,1.206c-0.209,0.083-0.587,0.136-1.038,0.136c-0.514,0-0.944-0.178-1.195-0.44
			c-0.293-0.304-0.44-0.797-0.44-1.52v-2.097h-0.681V47.39h0.681v-1.111L107.293,45.922z"/>
		<path fill="#FFFFFF" d="M109.355,45.073h1.593v2.925h0.021c0.167-0.22,0.377-0.388,0.629-0.524
			c0.23-0.126,0.535-0.199,0.828-0.199c1.017,0,1.792,0.702,1.792,2.243v2.998h-1.593v-2.82c0-0.671-0.23-1.132-0.828-1.132
			c-0.419,0-0.682,0.272-0.797,0.556c-0.042,0.105-0.052,0.241-0.052,0.356v3.04h-1.593V45.073z"/>
		<path fill="#FFFFFF" d="M116.49,47.39l0.765,2.516c0.084,0.304,0.189,0.682,0.251,0.954h0.032c0.073-0.272,0.157-0.661,0.23-0.954
			l0.629-2.516h1.709l-1.195,3.375c-0.734,2.034-1.227,2.851-1.803,3.365c-0.556,0.482-1.143,0.65-1.541,0.703l-0.335-1.353
			c0.199-0.031,0.451-0.125,0.692-0.272c0.241-0.126,0.503-0.377,0.66-0.64c0.053-0.073,0.084-0.157,0.084-0.23
			c0-0.052-0.01-0.136-0.073-0.262l-1.876-4.686H116.49z"/>
		<path fill="#FFFFFF" d="M124.672,45.922v1.468h1.143v1.174h-1.143v1.855c0,0.619,0.147,0.902,0.629,0.902
			c0.199,0,0.356-0.021,0.472-0.042l0.011,1.206c-0.209,0.083-0.587,0.136-1.038,0.136c-0.514,0-0.944-0.178-1.195-0.44
			c-0.293-0.304-0.44-0.797-0.44-1.52v-2.097h-0.681V47.39h0.681v-1.111L124.672,45.922z"/>
		<path fill="#FFFFFF" d="M131.745,49.895c0,1.876-1.332,2.736-2.705,2.736c-1.499,0-2.652-0.985-2.652-2.642
			s1.09-2.715,2.736-2.715C130.697,47.274,131.745,48.354,131.745,49.895z M128.034,49.947c0,0.881,0.367,1.541,1.048,1.541
			c0.619,0,1.017-0.619,1.017-1.541c0-0.765-0.293-1.541-1.017-1.541C128.317,48.406,128.034,49.192,128.034,49.947z"/>
		<path fill="#FFFFFF" d="M134.843,49.025c0-0.64-0.021-1.185-0.042-1.635h1.342l0.073,0.692h0.031
			c0.22-0.325,0.671-0.807,1.552-0.807c0.66,0,1.185,0.335,1.405,0.87h0.021c0.188-0.262,0.419-0.472,0.66-0.619
			c0.283-0.168,0.598-0.251,0.975-0.251c0.985,0,1.729,0.692,1.729,2.222v3.019h-1.551v-2.789c0-0.744-0.241-1.174-0.755-1.174
			c-0.367,0-0.629,0.251-0.734,0.556c-0.042,0.115-0.063,0.283-0.063,0.409v2.998h-1.551v-2.872c0-0.65-0.23-1.09-0.734-1.09
			c-0.409,0-0.65,0.314-0.744,0.577c-0.053,0.125-0.063,0.272-0.063,0.398v2.988h-1.551V49.025z"/>
		<path fill="#FFFFFF" d="M146.766,52.516l-0.094-0.514h-0.032c-0.335,0.409-0.859,0.629-1.467,0.629
			c-1.038,0-1.656-0.755-1.656-1.572c0-1.332,1.195-1.971,3.008-1.96v-0.073c0-0.272-0.146-0.661-0.933-0.661
			c-0.524,0-1.08,0.178-1.415,0.388l-0.293-1.027c0.356-0.199,1.059-0.451,1.992-0.451c1.708,0,2.254,1.006,2.254,2.212v1.782
			c0,0.493,0.021,0.964,0.073,1.248H146.766z M146.577,50.094c-0.838-0.011-1.488,0.188-1.488,0.807
			c0,0.409,0.272,0.608,0.629,0.608c0.398,0,0.723-0.262,0.828-0.587c0.021-0.084,0.031-0.178,0.031-0.272V50.094z"/>
		<path fill="#FFFFFF" d="M150.976,49.549h0.021c0.115-0.209,0.241-0.419,0.367-0.618l1.038-1.541h1.918l-1.834,2.076l2.097,3.05
			h-1.96l-1.237-2.107l-0.409,0.503v1.604h-1.593v-7.443h1.593V49.549z"/>
		<path fill="#FFFFFF" d="M156.14,50.461c0.053,0.661,0.703,0.975,1.447,0.975c0.545,0,0.985-0.074,1.415-0.21l0.21,1.08
			c-0.524,0.209-1.164,0.314-1.855,0.314c-1.74,0-2.736-1.006-2.736-2.61c0-1.3,0.808-2.736,2.589-2.736
			c1.656,0,2.285,1.289,2.285,2.558c0,0.272-0.031,0.514-0.052,0.629H156.14z M158.016,49.371c0-0.388-0.167-1.038-0.901-1.038
			c-0.671,0-0.943,0.608-0.985,1.038H158.016z"/>
		<path fill="#FFFFFF" d="M168.588,49.811c-0.031-0.849-0.063-1.876-0.063-2.904h-0.031c-0.22,0.902-0.514,1.908-0.786,2.736
			l-0.86,2.757h-1.247l-0.755-2.736c-0.231-0.828-0.472-1.834-0.64-2.757h-0.021c-0.042,0.954-0.073,2.044-0.125,2.925l-0.126,2.684
			h-1.478l0.451-7.065h2.128l0.692,2.359c0.22,0.817,0.44,1.698,0.598,2.526h0.031c0.199-0.817,0.44-1.75,0.671-2.537l0.755-2.348
			h2.086l0.388,7.065h-1.562L168.588,49.811z"/>
		<path fill="#FFFFFF" d="M174.368,52.516l-0.094-0.514h-0.032c-0.335,0.409-0.859,0.629-1.467,0.629
			c-1.038,0-1.656-0.755-1.656-1.572c0-1.332,1.195-1.971,3.008-1.96v-0.073c0-0.272-0.146-0.661-0.933-0.661
			c-0.524,0-1.08,0.178-1.415,0.388l-0.293-1.027c0.356-0.199,1.059-0.451,1.992-0.451c1.708,0,2.254,1.006,2.254,2.212v1.782
			c0,0.493,0.021,0.964,0.073,1.248H174.368z M174.179,50.094c-0.838-0.011-1.488,0.188-1.488,0.807
			c0,0.409,0.272,0.608,0.629,0.608c0.398,0,0.723-0.262,0.828-0.587c0.021-0.084,0.031-0.178,0.031-0.272V50.094z"/>
		<path fill="#FFFFFF" d="M176.984,49.077c0-0.755-0.021-1.248-0.042-1.688h1.373l0.052,0.943h0.042
			c0.262-0.744,0.891-1.059,1.384-1.059c0.147,0,0.22,0,0.335,0.021v1.499c-0.115-0.021-0.251-0.042-0.43-0.042
			c-0.587,0-0.985,0.314-1.09,0.807c-0.021,0.104-0.031,0.23-0.031,0.356v2.6h-1.593V49.077z"/>
		<path fill="#FFFFFF" d="M182.527,49.549h0.021c0.115-0.209,0.241-0.419,0.367-0.618l1.038-1.541h1.918l-1.834,2.076l2.097,3.05
			h-1.96l-1.237-2.107l-0.409,0.503v1.604h-1.593v-7.443h1.593V49.549z"/>
		<path fill="#FFFFFF" d="M187.691,50.461c0.053,0.661,0.703,0.975,1.447,0.975c0.545,0,0.985-0.074,1.415-0.21l0.21,1.08
			c-0.524,0.209-1.164,0.314-1.855,0.314c-1.74,0-2.736-1.006-2.736-2.61c0-1.3,0.808-2.736,2.589-2.736
			c1.656,0,2.285,1.289,2.285,2.558c0,0.272-0.031,0.514-0.052,0.629H187.691z M189.567,49.371c0-0.388-0.167-1.038-0.901-1.038
			c-0.671,0-0.943,0.608-0.985,1.038H189.567z"/>
		<path fill="#FFFFFF" d="M193.777,45.922v1.468h1.143v1.174h-1.143v1.855c0,0.619,0.147,0.902,0.629,0.902
			c0.199,0,0.356-0.021,0.472-0.042l0.011,1.206c-0.209,0.083-0.587,0.136-1.038,0.136c-0.514,0-0.944-0.178-1.195-0.44
			c-0.293-0.304-0.44-0.797-0.44-1.52v-2.097h-0.681V47.39h0.681v-1.111L193.777,45.922z"/>
		<path fill="#FFFFFF" d="M197.485,45.964c0,0.44-0.335,0.797-0.859,0.797c-0.503,0-0.839-0.356-0.828-0.797
			c-0.011-0.461,0.325-0.807,0.838-0.807S197.475,45.502,197.485,45.964z M195.84,52.516V47.39h1.593v5.126H195.84z"/>
		<path fill="#FFFFFF" d="M198.71,49.025c0-0.64-0.021-1.185-0.042-1.635h1.384l0.073,0.702h0.031
			c0.21-0.325,0.734-0.817,1.583-0.817c1.048,0,1.834,0.692,1.834,2.201v3.04h-1.593v-2.841c0-0.661-0.23-1.111-0.807-1.111
			c-0.44,0-0.703,0.304-0.807,0.598c-0.042,0.094-0.063,0.251-0.063,0.398v2.956h-1.593V49.025z"/>
		<path fill="#FFFFFF" d="M209.744,47.39c-0.021,0.325-0.042,0.755-0.042,1.52v2.862c0,0.985-0.199,1.792-0.776,2.306
			c-0.566,0.482-1.332,0.629-2.086,0.629c-0.671,0-1.384-0.136-1.845-0.398l0.314-1.206c0.325,0.189,0.891,0.388,1.489,0.388
			c0.755,0,1.331-0.409,1.331-1.353v-0.335h-0.021c-0.304,0.43-0.796,0.671-1.384,0.671c-1.268,0-2.17-1.027-2.17-2.505
			c0-1.646,1.069-2.694,2.328-2.694c0.702,0,1.143,0.304,1.404,0.723h0.021l0.053-0.608H209.744z M208.108,49.476
			c0-0.105-0.01-0.209-0.031-0.293c-0.115-0.419-0.419-0.702-0.859-0.702c-0.577,0-1.048,0.524-1.048,1.457
			c0,0.765,0.377,1.363,1.048,1.363c0.409,0,0.733-0.273,0.838-0.65c0.042-0.116,0.052-0.283,0.052-0.419V49.476z"/>
		<path fill="#FFFFFF" d="M214.099,46.792h-1.897V45.45h5.43v1.342h-1.929v5.724h-1.604V46.792z"/>
		<path fill="#FFFFFF" d="M218.802,50.461c0.053,0.661,0.703,0.975,1.447,0.975c0.545,0,0.985-0.074,1.415-0.21l0.21,1.08
			c-0.524,0.209-1.164,0.314-1.855,0.314c-1.74,0-2.736-1.006-2.736-2.61c0-1.3,0.808-2.736,2.589-2.736
			c1.656,0,2.285,1.289,2.285,2.558c0,0.272-0.031,0.514-0.052,0.629H218.802z M220.679,49.371c0-0.388-0.167-1.038-0.901-1.038
			c-0.671,0-0.943,0.608-0.985,1.038H220.679z"/>
		<path fill="#FFFFFF" d="M226.954,52.39c-0.283,0.126-0.818,0.231-1.426,0.231c-1.656,0-2.715-1.006-2.715-2.621
			c0-1.5,1.027-2.726,2.936-2.726c0.419,0,0.88,0.073,1.216,0.199l-0.251,1.185c-0.189-0.084-0.472-0.158-0.891-0.158
			c-0.838,0-1.384,0.598-1.373,1.437c0,0.943,0.629,1.436,1.404,1.436c0.377,0,0.671-0.063,0.912-0.157L226.954,52.39z"/>
		<path fill="#FFFFFF" d="M227.831,45.073h1.593v2.925h0.021c0.167-0.22,0.377-0.388,0.629-0.524
			c0.23-0.126,0.535-0.199,0.828-0.199c1.017,0,1.792,0.702,1.792,2.243v2.998h-1.593v-2.82c0-0.671-0.23-1.132-0.828-1.132
			c-0.419,0-0.682,0.272-0.797,0.556c-0.042,0.105-0.052,0.241-0.052,0.356v3.04h-1.593V45.073z"/>
		<path fill="#FFFFFF" d="M233.97,49.025c0-0.64-0.021-1.185-0.042-1.635h1.384l0.073,0.702h0.031
			c0.21-0.325,0.734-0.817,1.583-0.817c1.048,0,1.834,0.692,1.834,2.201v3.04h-1.593v-2.841c0-0.661-0.23-1.111-0.807-1.111
			c-0.44,0-0.703,0.304-0.807,0.598c-0.042,0.094-0.063,0.251-0.063,0.398v2.956h-1.593V49.025z"/>
		<path fill="#FFFFFF" d="M245.171,49.895c0,1.876-1.332,2.736-2.705,2.736c-1.499,0-2.652-0.985-2.652-2.642
			s1.09-2.715,2.736-2.715C244.123,47.274,245.171,48.354,245.171,49.895z M241.46,49.947c0,0.881,0.367,1.541,1.048,1.541
			c0.619,0,1.017-0.619,1.017-1.541c0-0.765-0.293-1.541-1.017-1.541C241.744,48.406,241.46,49.192,241.46,49.947z"/>
		<path fill="#FFFFFF" d="M246.153,45.073h1.593v7.443h-1.593V45.073z"/>
		<path fill="#FFFFFF" d="M254.097,49.895c0,1.876-1.332,2.736-2.705,2.736c-1.499,0-2.652-0.985-2.652-2.642
			s1.09-2.715,2.736-2.715C253.048,47.274,254.097,48.354,254.097,49.895z M250.386,49.947c0,0.881,0.367,1.541,1.048,1.541
			c0.619,0,1.017-0.619,1.017-1.541c0-0.765-0.293-1.541-1.017-1.541C250.669,48.406,250.386,49.192,250.386,49.947z"/>
		<path fill="#FFFFFF" d="M260.005,47.39c-0.021,0.325-0.042,0.755-0.042,1.52v2.862c0,0.985-0.199,1.792-0.776,2.306
			c-0.566,0.482-1.332,0.629-2.086,0.629c-0.671,0-1.384-0.136-1.845-0.398l0.314-1.206c0.325,0.189,0.891,0.388,1.489,0.388
			c0.755,0,1.331-0.409,1.331-1.353v-0.335h-0.021c-0.304,0.43-0.796,0.671-1.384,0.671c-1.268,0-2.17-1.027-2.17-2.505
			c0-1.646,1.069-2.694,2.328-2.694c0.702,0,1.143,0.304,1.404,0.723h0.021l0.053-0.608H260.005z M258.369,49.476
			c0-0.105-0.01-0.209-0.031-0.293c-0.115-0.419-0.419-0.702-0.859-0.702c-0.577,0-1.048,0.524-1.048,1.457
			c0,0.765,0.377,1.363,1.048,1.363c0.409,0,0.733-0.273,0.838-0.65c0.042-0.116,0.052-0.283,0.052-0.419V49.476z"/>
		<path fill="#FFFFFF" d="M262.432,47.39l0.765,2.516c0.084,0.304,0.189,0.682,0.252,0.954h0.031
			c0.073-0.272,0.157-0.661,0.23-0.954l0.629-2.516h1.709l-1.195,3.375c-0.733,2.034-1.227,2.851-1.803,3.365
			c-0.556,0.482-1.143,0.65-1.541,0.703l-0.335-1.353c0.199-0.031,0.451-0.125,0.692-0.272c0.241-0.126,0.503-0.377,0.66-0.64
			c0.053-0.073,0.084-0.157,0.084-0.23c0-0.052-0.01-0.136-0.073-0.262l-1.876-4.686H262.432z"/>
		<path fill="#FFFFFF" d="M45.81,61.647c0-0.755-0.021-1.248-0.042-1.688h1.373l0.052,0.943h0.042
			c0.262-0.744,0.891-1.059,1.384-1.059c0.147,0,0.22,0,0.335,0.021v1.499c-0.115-0.021-0.251-0.042-0.43-0.042
			c-0.587,0-0.985,0.314-1.09,0.807c-0.021,0.104-0.031,0.23-0.031,0.356v2.6H45.81V61.647z"/>
		<path fill="#FFFFFF" d="M50.932,63.031c0.053,0.661,0.703,0.975,1.447,0.975c0.545,0,0.985-0.074,1.415-0.21l0.21,1.08
			c-0.524,0.209-1.164,0.314-1.855,0.314c-1.74,0-2.736-1.006-2.736-2.61c0-1.3,0.808-2.736,2.589-2.736
			c1.656,0,2.285,1.289,2.285,2.558c0,0.272-0.031,0.514-0.052,0.629H50.932z M52.809,61.941c0-0.388-0.167-1.038-0.901-1.038
			c-0.671,0-0.943,0.608-0.985,1.038H52.809z"/>
		<path fill="#FFFFFF" d="M58.151,65.086l-0.094-0.514h-0.032c-0.335,0.409-0.859,0.629-1.467,0.629
			c-1.038,0-1.656-0.755-1.656-1.572c0-1.332,1.195-1.971,3.008-1.96v-0.073c0-0.272-0.146-0.661-0.933-0.661
			c-0.524,0-1.08,0.178-1.415,0.388l-0.293-1.027c0.356-0.199,1.059-0.451,1.992-0.451c1.708,0,2.254,1.006,2.254,2.212v1.782
			c0,0.493,0.021,0.964,0.073,1.248H58.151z M57.962,62.665c-0.838-0.011-1.488,0.188-1.488,0.807c0,0.409,0.272,0.608,0.629,0.608
			c0.398,0,0.723-0.262,0.828-0.587c0.021-0.084,0.031-0.178,0.031-0.272V62.665z"/>
		<path fill="#FFFFFF" d="M60.768,57.643h1.593v7.443h-1.593V57.643z"/>
		<path fill="#FFFFFF" d="M63.648,57.643h1.593v7.443h-1.593V57.643z"/>
		<path fill="#FFFFFF" d="M67.724,59.96l0.765,2.516c0.084,0.304,0.189,0.682,0.252,0.954h0.031c0.073-0.272,0.157-0.661,0.23-0.954
			l0.629-2.516h1.709l-1.195,3.375c-0.733,2.034-1.227,2.851-1.803,3.365c-0.556,0.482-1.143,0.65-1.541,0.703l-0.335-1.353
			c0.199-0.031,0.451-0.125,0.692-0.272c0.241-0.126,0.503-0.377,0.66-0.64c0.053-0.073,0.084-0.157,0.084-0.23
			c0-0.052-0.01-0.136-0.073-0.262l-1.876-4.686H67.724z"/>
		<path fill="#FFFFFF" d="M75.225,59.96l0.409,2.097c0.105,0.534,0.209,1.101,0.293,1.688h0.021
			c0.105-0.587,0.251-1.174,0.377-1.677l0.545-2.107h1.258l0.514,2.044c0.136,0.577,0.272,1.153,0.377,1.74h0.021
			c0.074-0.587,0.178-1.164,0.294-1.75l0.44-2.034h1.562l-1.572,5.126h-1.499l-0.482-1.803c-0.125-0.503-0.22-0.964-0.325-1.593
			h-0.021c-0.095,0.64-0.199,1.111-0.335,1.593l-0.514,1.803h-1.499L73.6,59.96H75.225z"/>
		<path fill="#FFFFFF" d="M86.981,62.465c0,1.876-1.332,2.736-2.705,2.736c-1.499,0-2.652-0.985-2.652-2.642s1.09-2.715,2.736-2.715
			C85.933,59.845,86.981,60.924,86.981,62.465z M83.27,62.518c0,0.881,0.367,1.541,1.048,1.541c0.619,0,1.017-0.619,1.017-1.541
			c0-0.765-0.293-1.541-1.017-1.541C83.553,60.977,83.27,61.763,83.27,62.518z"/>
		<path fill="#FFFFFF" d="M87.962,61.647c0-0.755-0.021-1.248-0.042-1.688h1.373l0.052,0.943h0.042
			c0.262-0.744,0.891-1.059,1.384-1.059c0.147,0,0.22,0,0.335,0.021v1.499c-0.115-0.021-0.251-0.042-0.43-0.042
			c-0.587,0-0.985,0.314-1.09,0.807c-0.021,0.104-0.031,0.23-0.031,0.356v2.6h-1.593V61.647z"/>
		<path fill="#FFFFFF" d="M93.505,62.119h0.021c0.115-0.209,0.241-0.419,0.367-0.618l1.038-1.541h1.918l-1.834,2.076l2.097,3.05
			h-1.96l-1.237-2.107l-0.409,0.503v1.604h-1.593v-7.443h1.593V62.119z"/>
		<path fill="#FFFFFF" d="M101.351,58.534c0,0.44-0.335,0.797-0.859,0.797c-0.503,0-0.839-0.356-0.828-0.797
			c-0.011-0.461,0.325-0.807,0.838-0.807S101.341,58.073,101.351,58.534z M99.706,65.086V59.96h1.593v5.126H99.706z"/>
		<path fill="#FFFFFF" d="M102.576,61.595c0-0.64-0.021-1.185-0.042-1.635h1.384l0.073,0.702h0.031
			c0.21-0.325,0.734-0.817,1.583-0.817c1.048,0,1.834,0.692,1.834,2.201v3.04h-1.593v-2.841c0-0.661-0.23-1.111-0.807-1.111
			c-0.44,0-0.703,0.304-0.807,0.598c-0.042,0.094-0.063,0.251-0.063,0.398v2.956h-1.593V61.595z"/>
		<path fill="#FFFFFF" d="M110.82,63.692c0.293,0.178,0.901,0.388,1.374,0.388c0.482,0,0.681-0.167,0.681-0.43
			s-0.157-0.388-0.755-0.587c-1.059-0.356-1.467-0.933-1.457-1.541c0-0.954,0.818-1.677,2.086-1.677
			c0.598,0,1.132,0.136,1.447,0.293l-0.283,1.101c-0.23-0.126-0.671-0.293-1.111-0.293c-0.388,0-0.608,0.157-0.608,0.419
			c0,0.241,0.199,0.367,0.828,0.587c0.975,0.335,1.383,0.828,1.394,1.583c0,0.954-0.755,1.656-2.222,1.656
			c-0.671,0-1.269-0.147-1.657-0.356L110.82,63.692z"/>
		<path fill="#FFFFFF" d="M116.603,63.031c0.053,0.661,0.703,0.975,1.447,0.975c0.545,0,0.985-0.074,1.415-0.21l0.21,1.08
			c-0.524,0.209-1.164,0.314-1.855,0.314c-1.74,0-2.736-1.006-2.736-2.61c0-1.3,0.808-2.736,2.589-2.736
			c1.656,0,2.285,1.289,2.285,2.558c0,0.272-0.031,0.514-0.052,0.629H116.603z M118.479,61.941c0-0.388-0.167-1.038-0.901-1.038
			c-0.671,0-0.943,0.608-0.985,1.038H118.479z"/>
		<path fill="#FFFFFF" d="M120.908,61.647c0-0.755-0.021-1.248-0.042-1.688h1.373l0.052,0.943h0.042
			c0.262-0.744,0.891-1.059,1.384-1.059c0.147,0,0.22,0,0.335,0.021v1.499c-0.115-0.021-0.251-0.042-0.43-0.042
			c-0.587,0-0.985,0.314-1.09,0.807c-0.021,0.104-0.031,0.23-0.031,0.356v2.6h-1.593V61.647z"/>
		<path fill="#FFFFFF" d="M126.261,59.96l0.691,2.379c0.126,0.43,0.22,0.839,0.294,1.248h0.031c0.084-0.419,0.168-0.807,0.283-1.248
			l0.66-2.379h1.677l-1.908,5.126h-1.593l-1.866-5.126H126.261z"/>
		<path fill="#FFFFFF" d="M132.273,58.534c0,0.44-0.335,0.797-0.859,0.797c-0.503,0-0.839-0.356-0.828-0.797
			c-0.011-0.461,0.325-0.807,0.838-0.807S132.263,58.073,132.273,58.534z M130.628,65.086V59.96h1.593v5.126H130.628z"/>
		<path fill="#FFFFFF" d="M137.345,64.96c-0.283,0.126-0.818,0.231-1.426,0.231c-1.656,0-2.715-1.006-2.715-2.621
			c0-1.5,1.027-2.726,2.936-2.726c0.419,0,0.88,0.073,1.216,0.199l-0.251,1.185c-0.189-0.084-0.472-0.158-0.891-0.158
			c-0.839,0-1.384,0.598-1.373,1.437c0,0.943,0.629,1.436,1.404,1.436c0.377,0,0.671-0.063,0.912-0.157L137.345,64.96z"/>
		<path fill="#FFFFFF" d="M139.333,63.031c0.053,0.661,0.703,0.975,1.447,0.975c0.545,0,0.985-0.074,1.415-0.21l0.21,1.08
			c-0.524,0.209-1.164,0.314-1.855,0.314c-1.74,0-2.736-1.006-2.736-2.61c0-1.3,0.808-2.736,2.589-2.736
			c1.656,0,2.285,1.289,2.285,2.558c0,0.272-0.031,0.514-0.052,0.629H139.333z M141.21,61.941c0-0.388-0.167-1.038-0.901-1.038
			c-0.671,0-0.943,0.608-0.985,1.038H141.21z"/>
		<path fill="#FFFFFF" d="M150.817,62.465c0,1.876-1.332,2.736-2.705,2.736c-1.499,0-2.652-0.985-2.652-2.642
			s1.09-2.715,2.736-2.715C149.769,59.845,150.817,60.924,150.817,62.465z M147.106,62.518c0,0.881,0.367,1.541,1.048,1.541
			c0.619,0,1.017-0.619,1.017-1.541c0-0.765-0.293-1.541-1.017-1.541C147.39,60.977,147.106,61.763,147.106,62.518z"/>
		<path fill="#FFFFFF" d="M151.977,65.086v-3.952h-0.671V59.96h0.671v-0.199c0-0.619,0.188-1.3,0.65-1.719
			c0.398-0.377,0.954-0.514,1.415-0.514c0.356,0,0.629,0.042,0.849,0.105l-0.063,1.227c-0.136-0.042-0.304-0.074-0.514-0.074
			c-0.524,0-0.744,0.409-0.744,0.912v0.262h1.027v1.174h-1.017v3.952H151.977z"/>
		<path fill="#FFFFFF" d="M157.539,58.115c0.419-0.083,1.269-0.146,2.065-0.146c0.975,0,1.573,0.094,2.086,0.398
			c0.493,0.262,0.849,0.744,0.849,1.383c0,0.629-0.367,1.216-1.164,1.51v0.021c0.807,0.22,1.404,0.828,1.404,1.74
			c0,0.639-0.293,1.143-0.733,1.499c-0.514,0.409-1.374,0.639-2.778,0.639c-0.786,0-1.373-0.052-1.729-0.104V58.115z
			 M159.122,60.819h0.524c0.839,0,1.29-0.346,1.29-0.87c0-0.535-0.409-0.817-1.132-0.817c-0.346,0-0.545,0.021-0.681,0.042V60.819z
			 M159.122,63.954c0.157,0.021,0.346,0.021,0.618,0.021c0.724,0,1.363-0.272,1.363-1.017c0-0.713-0.639-0.996-1.436-0.996h-0.545
			V63.954z"/>
		<path fill="#FFFFFF" d="M163.814,61.647c0-0.755-0.021-1.248-0.042-1.688h1.373l0.052,0.943h0.042
			c0.262-0.744,0.891-1.059,1.384-1.059c0.147,0,0.22,0,0.335,0.021v1.499c-0.115-0.021-0.251-0.042-0.43-0.042
			c-0.587,0-0.985,0.314-1.09,0.807c-0.021,0.104-0.031,0.23-0.031,0.356v2.6h-1.593V61.647z"/>
		<path fill="#FFFFFF" d="M170.593,65.086l-0.094-0.514h-0.032c-0.335,0.409-0.859,0.629-1.467,0.629
			c-1.038,0-1.656-0.755-1.656-1.572c0-1.332,1.195-1.971,3.008-1.96v-0.073c0-0.272-0.146-0.661-0.933-0.661
			c-0.524,0-1.08,0.178-1.415,0.388l-0.293-1.027c0.356-0.199,1.059-0.451,1.992-0.451c1.708,0,2.254,1.006,2.254,2.212v1.782
			c0,0.493,0.021,0.964,0.073,1.248H170.593z M170.404,62.665c-0.838-0.011-1.488,0.188-1.488,0.807
			c0,0.409,0.272,0.608,0.629,0.608c0.398,0,0.723-0.262,0.828-0.587c0.021-0.084,0.031-0.178,0.031-0.272V62.665z"/>
		<path fill="#FFFFFF" d="M173.21,61.595c0-0.64-0.021-1.185-0.042-1.635h1.384l0.073,0.702h0.031
			c0.21-0.325,0.734-0.817,1.583-0.817c1.048,0,1.834,0.692,1.834,2.201v3.04h-1.593v-2.841c0-0.661-0.23-1.111-0.807-1.111
			c-0.44,0-0.703,0.304-0.807,0.598c-0.042,0.094-0.063,0.251-0.063,0.398v2.956h-1.593V61.595z"/>
		<path fill="#FFFFFF" d="M184.317,57.643v5.913c0,0.576,0.021,1.185,0.042,1.53h-1.416l-0.073-0.755h-0.021
			c-0.325,0.577-0.943,0.87-1.604,0.87c-1.216,0-2.191-1.038-2.191-2.631c-0.01-1.73,1.069-2.726,2.296-2.726
			c0.629,0,1.122,0.22,1.353,0.576h0.021v-2.778H184.317z M182.724,62.13c0-0.084-0.011-0.199-0.021-0.283
			c-0.095-0.43-0.44-0.786-0.933-0.786c-0.723,0-1.101,0.65-1.101,1.457c0,0.87,0.43,1.415,1.09,1.415
			c0.461,0,0.828-0.314,0.923-0.765c0.031-0.115,0.042-0.23,0.042-0.367V62.13z"/>
		<path fill="#FFFFFF" d="M185.581,63.692c0.293,0.178,0.901,0.388,1.374,0.388c0.482,0,0.681-0.167,0.681-0.43
			s-0.157-0.388-0.755-0.587c-1.059-0.356-1.467-0.933-1.457-1.541c0-0.954,0.818-1.677,2.086-1.677
			c0.598,0,1.132,0.136,1.447,0.293l-0.283,1.101c-0.23-0.126-0.671-0.293-1.111-0.293c-0.388,0-0.608,0.157-0.608,0.419
			c0,0.241,0.199,0.367,0.828,0.587c0.975,0.335,1.383,0.828,1.394,1.583c0,0.954-0.755,1.656-2.222,1.656
			c-0.671,0-1.269-0.147-1.657-0.356L185.581,63.692z"/>
		<path fill="#FFFFFF" d="M195.168,65.086l-0.094-0.514h-0.032c-0.335,0.409-0.859,0.629-1.467,0.629
			c-1.038,0-1.656-0.755-1.656-1.572c0-1.332,1.195-1.971,3.008-1.96v-0.073c0-0.272-0.146-0.661-0.933-0.661
			c-0.524,0-1.08,0.178-1.415,0.388l-0.293-1.027c0.356-0.199,1.059-0.451,1.992-0.451c1.708,0,2.254,1.006,2.254,2.212v1.782
			c0,0.493,0.021,0.964,0.073,1.248H195.168z M194.979,62.665c-0.838-0.011-1.488,0.188-1.488,0.807
			c0,0.409,0.272,0.608,0.629,0.608c0.398,0,0.723-0.262,0.828-0.587c0.021-0.084,0.031-0.178,0.031-0.272V62.665z"/>
		<path fill="#FFFFFF" d="M197.785,61.595c0-0.64-0.021-1.185-0.042-1.635h1.384l0.073,0.702h0.031
			c0.21-0.325,0.734-0.817,1.583-0.817c1.048,0,1.834,0.692,1.834,2.201v3.04h-1.593v-2.841c0-0.661-0.23-1.111-0.807-1.111
			c-0.44,0-0.703,0.304-0.807,0.598c-0.042,0.094-0.063,0.251-0.063,0.398v2.956h-1.593V61.595z"/>
		<path fill="#FFFFFF" d="M208.893,57.643v5.913c0,0.576,0.021,1.185,0.042,1.53h-1.416l-0.073-0.755h-0.021
			c-0.325,0.577-0.943,0.87-1.604,0.87c-1.216,0-2.191-1.038-2.191-2.631c-0.01-1.73,1.069-2.726,2.296-2.726
			c0.629,0,1.122,0.22,1.353,0.576h0.021v-2.778H208.893z M207.299,62.13c0-0.084-0.011-0.199-0.021-0.283
			c-0.095-0.43-0.44-0.786-0.933-0.786c-0.723,0-1.101,0.65-1.101,1.457c0,0.87,0.43,1.415,1.09,1.415
			c0.461,0,0.828-0.314,0.923-0.765c0.031-0.115,0.042-0.23,0.042-0.367V62.13z"/>
		<path fill="#FFFFFF" d="M217.524,64.887c-0.293,0.147-0.954,0.304-1.813,0.304c-2.442,0-3.701-1.52-3.701-3.533
			c0-2.411,1.719-3.753,3.858-3.753c0.828,0,1.457,0.167,1.74,0.314l-0.325,1.269c-0.325-0.136-0.776-0.262-1.342-0.262
			c-1.269,0-2.254,0.765-2.254,2.337c0,1.416,0.839,2.307,2.265,2.307c0.482,0,1.017-0.105,1.331-0.231L217.524,64.887z"/>
		<path fill="#FFFFFF" d="M218.473,61.647c0-0.755-0.021-1.248-0.042-1.688h1.373l0.052,0.943h0.042
			c0.262-0.744,0.891-1.059,1.384-1.059c0.147,0,0.22,0,0.335,0.021v1.499c-0.115-0.021-0.251-0.042-0.43-0.042
			c-0.587,0-0.985,0.314-1.09,0.807c-0.021,0.104-0.031,0.23-0.031,0.356v2.6h-1.593V61.647z"/>
		<path fill="#FFFFFF" d="M223.596,63.031c0.053,0.661,0.703,0.975,1.447,0.975c0.545,0,0.985-0.074,1.415-0.21l0.21,1.08
			c-0.524,0.209-1.164,0.314-1.855,0.314c-1.74,0-2.736-1.006-2.736-2.61c0-1.3,0.808-2.736,2.589-2.736
			c1.656,0,2.285,1.289,2.285,2.558c0,0.272-0.031,0.514-0.052,0.629H223.596z M225.473,61.941c0-0.388-0.167-1.038-0.901-1.038
			c-0.671,0-0.943,0.608-0.985,1.038H225.473z"/>
		<path fill="#FFFFFF" d="M230.815,65.086l-0.094-0.514h-0.032c-0.335,0.409-0.859,0.629-1.467,0.629
			c-1.038,0-1.656-0.755-1.656-1.572c0-1.332,1.195-1.971,3.008-1.96v-0.073c0-0.272-0.146-0.661-0.933-0.661
			c-0.524,0-1.08,0.178-1.415,0.388l-0.293-1.027c0.356-0.199,1.059-0.451,1.992-0.451c1.708,0,2.254,1.006,2.254,2.212v1.782
			c0,0.493,0.021,0.964,0.073,1.248H230.815z M230.626,62.665c-0.838-0.011-1.488,0.188-1.488,0.807
			c0,0.409,0.272,0.608,0.629,0.608c0.398,0,0.723-0.262,0.828-0.587c0.021-0.084,0.031-0.178,0.031-0.272V62.665z"/>
		<path fill="#FFFFFF" d="M235.129,58.492v1.468h1.143v1.174h-1.143v1.855c0,0.619,0.147,0.902,0.629,0.902
			c0.199,0,0.356-0.021,0.472-0.042l0.01,1.206c-0.209,0.083-0.587,0.136-1.038,0.136c-0.514,0-0.944-0.178-1.195-0.44
			c-0.293-0.304-0.44-0.797-0.44-1.52v-2.097h-0.681V59.96h0.681v-1.111L235.129,58.492z"/>
		<path fill="#FFFFFF" d="M238.837,58.534c0,0.44-0.335,0.797-0.859,0.797c-0.503,0-0.839-0.356-0.828-0.797
			c-0.011-0.461,0.325-0.807,0.838-0.807S238.827,58.073,238.837,58.534z M237.192,65.086V59.96h1.593v5.126H237.192z"/>
		<path fill="#FFFFFF" d="M241.247,59.96l0.692,2.379c0.125,0.43,0.22,0.839,0.293,1.248h0.031c0.084-0.419,0.168-0.807,0.283-1.248
			l0.66-2.379h1.677l-1.908,5.126h-1.593l-1.866-5.126H241.247z"/>
		<path fill="#FFFFFF" d="M247.259,58.534c0,0.44-0.335,0.797-0.859,0.797c-0.503,0-0.839-0.356-0.828-0.797
			c-0.011-0.461,0.325-0.807,0.838-0.807S247.249,58.073,247.259,58.534z M245.614,65.086V59.96h1.593v5.126H245.614z"/>
		<path fill="#FFFFFF" d="M250.266,58.492v1.468h1.143v1.174h-1.143v1.855c0,0.619,0.147,0.902,0.629,0.902
			c0.199,0,0.356-0.021,0.472-0.042l0.011,1.206c-0.209,0.083-0.587,0.136-1.038,0.136c-0.514,0-0.944-0.178-1.195-0.44
			c-0.293-0.304-0.44-0.797-0.44-1.52v-2.097h-0.681V59.96h0.681v-1.111L250.266,58.492z"/>
		<path fill="#FFFFFF" d="M253.575,59.96l0.765,2.516c0.084,0.304,0.189,0.682,0.251,0.954h0.032
			c0.073-0.272,0.157-0.661,0.23-0.954l0.629-2.516h1.709l-1.195,3.375c-0.734,2.034-1.227,2.851-1.803,3.365
			c-0.556,0.482-1.143,0.65-1.541,0.703l-0.335-1.353c0.199-0.031,0.451-0.125,0.692-0.272c0.241-0.126,0.503-0.377,0.66-0.64
			c0.053-0.073,0.084-0.157,0.084-0.23c0-0.052-0.01-0.136-0.073-0.262l-1.876-4.686H253.575z"/>
		<path fill="#FFFFFF" d="M31.736,79.686c0.419-0.083,1.269-0.146,2.065-0.146c0.975,0,1.573,0.094,2.086,0.398
			c0.493,0.262,0.849,0.744,0.849,1.383c0,0.629-0.367,1.216-1.164,1.51v0.021c0.808,0.22,1.405,0.828,1.405,1.74
			c0,0.639-0.293,1.143-0.734,1.499C35.73,86.5,34.87,86.73,33.465,86.73c-0.786,0-1.373-0.052-1.729-0.104V79.686z M33.319,82.39
			h0.524c0.839,0,1.29-0.346,1.29-0.87c0-0.535-0.409-0.817-1.132-0.817c-0.346,0-0.545,0.021-0.681,0.042V82.39z M33.319,85.524
			c0.157,0.021,0.346,0.021,0.618,0.021c0.724,0,1.363-0.272,1.363-1.017c0-0.713-0.639-0.996-1.436-0.996h-0.545V85.524z"/>
		<path fill="#FFFFFF" d="M39.143,81.531l0.765,2.516c0.084,0.304,0.189,0.682,0.251,0.954h0.032
			c0.073-0.272,0.157-0.661,0.23-0.954l0.629-2.516h1.709l-1.195,3.375c-0.734,2.034-1.227,2.851-1.803,3.365
			c-0.556,0.482-1.143,0.65-1.541,0.703l-0.335-1.353c0.199-0.031,0.451-0.126,0.692-0.272c0.241-0.126,0.503-0.377,0.66-0.64
			c0.053-0.073,0.084-0.157,0.084-0.23c0-0.052-0.01-0.136-0.073-0.262l-1.876-4.686H39.143z"/>
		<path fill="#FFFFFF" d="M45.542,83.25c0-0.671-0.021-1.248-0.042-1.719h1.384l0.073,0.713h0.021
			c0.377-0.545,0.964-0.828,1.708-0.828c1.122,0,2.128,0.975,2.128,2.61c0,1.866-1.185,2.747-2.327,2.747
			c-0.618,0-1.101-0.251-1.331-0.587h-0.021v2.547h-1.593V83.25z M47.136,84.456c0,0.125,0.01,0.241,0.031,0.335
			c0.105,0.43,0.472,0.754,0.933,0.754c0.692,0,1.101-0.576,1.101-1.446c0-0.818-0.367-1.437-1.08-1.437
			c-0.451,0-0.849,0.335-0.954,0.807c-0.021,0.084-0.031,0.189-0.031,0.283V84.456z"/>
		<path fill="#FFFFFF" d="M56.639,85.011c0,0.671,0.021,1.216,0.042,1.646h-1.384l-0.074-0.723h-0.031
			c-0.199,0.314-0.681,0.838-1.604,0.838c-1.038,0-1.803-0.65-1.803-2.233v-3.008h1.604v2.757c0,0.744,0.241,1.195,0.797,1.195
			c0.44,0,0.692-0.304,0.797-0.555c0.042-0.095,0.052-0.22,0.052-0.346v-3.05h1.604V85.011z"/>
		<path fill="#FFFFFF" d="M59.695,80.063v1.468h1.143v1.174h-1.143v1.855c0,0.619,0.147,0.902,0.629,0.902
			c0.199,0,0.356-0.021,0.472-0.042l0.011,1.206c-0.209,0.083-0.587,0.136-1.038,0.136c-0.514,0-0.944-0.178-1.195-0.44
			c-0.293-0.304-0.44-0.797-0.44-1.52v-2.097h-0.681v-1.174h0.681v-1.111L59.695,80.063z"/>
		<path fill="#FFFFFF" d="M63.54,80.063v1.468h1.143v1.174H63.54v1.855c0,0.619,0.147,0.902,0.629,0.902
			c0.199,0,0.356-0.021,0.472-0.042l0.01,1.206c-0.209,0.083-0.587,0.136-1.038,0.136c-0.514,0-0.944-0.178-1.195-0.44
			c-0.293-0.304-0.44-0.797-0.44-1.52v-2.097h-0.681v-1.174h0.681v-1.111L63.54,80.063z"/>
		<path fill="#FFFFFF" d="M67.248,80.105c0,0.44-0.335,0.797-0.859,0.797c-0.503,0-0.839-0.356-0.828-0.797
			c-0.011-0.461,0.325-0.807,0.838-0.807S67.237,79.644,67.248,80.105z M65.602,86.657v-5.126h1.593v5.126H65.602z"/>
		<path fill="#FFFFFF" d="M68.472,83.166c0-0.64-0.021-1.185-0.042-1.635h1.384l0.073,0.702h0.031
			c0.21-0.325,0.734-0.817,1.583-0.817c1.048,0,1.834,0.692,1.834,2.201v3.04h-1.593v-2.841c0-0.661-0.23-1.111-0.807-1.111
			c-0.44,0-0.703,0.304-0.807,0.598c-0.042,0.094-0.063,0.251-0.063,0.398v2.956h-1.593V83.166z"/>
		<path fill="#FFFFFF" d="M79.506,81.531c-0.021,0.325-0.042,0.755-0.042,1.52v2.862c0,0.985-0.199,1.792-0.776,2.306
			c-0.566,0.482-1.332,0.629-2.086,0.629c-0.671,0-1.384-0.136-1.845-0.398l0.314-1.206c0.325,0.189,0.891,0.388,1.489,0.388
			c0.755,0,1.331-0.409,1.331-1.353v-0.335h-0.021c-0.304,0.43-0.796,0.671-1.383,0.671c-1.269,0-2.17-1.027-2.17-2.505
			c0-1.646,1.069-2.694,2.328-2.694c0.702,0,1.143,0.304,1.404,0.723h0.021l0.053-0.608H79.506z M77.871,83.617
			c0-0.105-0.01-0.209-0.031-0.293c-0.115-0.419-0.419-0.702-0.859-0.702c-0.577,0-1.048,0.524-1.048,1.457
			c0,0.765,0.377,1.363,1.048,1.363c0.409,0,0.733-0.273,0.838-0.65c0.042-0.116,0.052-0.283,0.052-0.419V83.617z"/>
		<path fill="#FFFFFF" d="M84.637,80.063v1.468h1.143v1.174h-1.143v1.855c0,0.619,0.147,0.902,0.629,0.902
			c0.199,0,0.356-0.021,0.472-0.042l0.011,1.206c-0.209,0.083-0.587,0.136-1.038,0.136c-0.514,0-0.944-0.178-1.195-0.44
			c-0.293-0.304-0.44-0.797-0.44-1.52v-2.097h-0.681v-1.174h0.681v-1.111L84.637,80.063z"/>
		<path fill="#FFFFFF" d="M86.699,79.214h1.593v2.925h0.021c0.167-0.22,0.377-0.388,0.629-0.524c0.23-0.126,0.535-0.199,0.828-0.199
			c1.017,0,1.792,0.702,1.792,2.243v2.998H89.97v-2.82c0-0.671-0.23-1.132-0.828-1.132c-0.419,0-0.682,0.272-0.797,0.556
			c-0.042,0.105-0.052,0.241-0.052,0.356v3.04h-1.593V79.214z"/>
		<path fill="#FFFFFF" d="M94.064,84.602c0.053,0.661,0.703,0.975,1.447,0.975c0.545,0,0.985-0.074,1.415-0.21l0.21,1.08
			c-0.524,0.209-1.164,0.314-1.855,0.314c-1.74,0-2.736-1.006-2.736-2.61c0-1.3,0.808-2.736,2.589-2.736
			c1.656,0,2.285,1.289,2.285,2.558c0,0.272-0.031,0.514-0.052,0.629H94.064z M95.94,83.512c0-0.388-0.167-1.038-0.901-1.038
			c-0.671,0-0.943,0.608-0.985,1.038H95.94z"/>
		<path fill="#FFFFFF" d="M102.13,79.591v4.067c0,1.216,0.461,1.834,1.279,1.834c0.839,0,1.3-0.587,1.3-1.834v-4.067h1.594v3.962
			c0,2.181-1.101,3.218-2.946,3.218c-1.782,0-2.831-0.985-2.831-3.239v-3.941H102.13z"/>
		<path fill="#FFFFFF" d="M107.482,85.263c0.293,0.178,0.901,0.388,1.374,0.388c0.482,0,0.681-0.168,0.681-0.43
			c0-0.262-0.157-0.388-0.755-0.587c-1.059-0.356-1.467-0.933-1.457-1.541c0-0.954,0.818-1.677,2.086-1.677
			c0.598,0,1.132,0.136,1.447,0.293l-0.283,1.101c-0.23-0.126-0.671-0.293-1.111-0.293c-0.388,0-0.608,0.157-0.608,0.419
			c0,0.241,0.199,0.367,0.828,0.587c0.975,0.335,1.383,0.828,1.394,1.583c0,0.954-0.755,1.656-2.222,1.656
			c-0.671,0-1.269-0.147-1.657-0.356L107.482,85.263z"/>
		<path fill="#FFFFFF" d="M113.266,84.602c0.053,0.661,0.703,0.975,1.447,0.975c0.545,0,0.985-0.074,1.415-0.21l0.21,1.08
			c-0.524,0.209-1.164,0.314-1.855,0.314c-1.74,0-2.736-1.006-2.736-2.61c0-1.3,0.808-2.736,2.589-2.736
			c1.656,0,2.285,1.289,2.285,2.558c0,0.272-0.031,0.514-0.052,0.629H113.266z M115.142,83.512c0-0.388-0.167-1.038-0.901-1.038
			c-0.671,0-0.943,0.608-0.985,1.038H115.142z"/>
		<path fill="#FFFFFF" d="M117.57,83.218c0-0.754-0.021-1.248-0.042-1.688h1.373l0.052,0.943h0.042
			c0.262-0.744,0.891-1.059,1.384-1.059c0.147,0,0.22,0,0.335,0.021v1.499c-0.115-0.021-0.251-0.042-0.43-0.042
			c-0.587,0-0.985,0.314-1.09,0.807c-0.021,0.105-0.031,0.23-0.031,0.356v2.6h-1.593V83.218z"/>
		<path fill="#FFFFFF" d="M123.845,86.657v-3.952h-0.671v-1.174h0.671v-0.199c0-0.619,0.188-1.3,0.65-1.719
			c0.398-0.377,0.954-0.514,1.415-0.514c0.356,0,0.629,0.042,0.849,0.105l-0.063,1.227c-0.136-0.042-0.304-0.074-0.514-0.074
			c-0.524,0-0.744,0.409-0.744,0.912v0.262h1.027v1.174h-1.017v3.952H123.845z"/>
		<path fill="#FFFFFF" d="M127.238,83.218c0-0.754-0.021-1.248-0.042-1.688h1.373l0.052,0.943h0.042
			c0.262-0.744,0.891-1.059,1.384-1.059c0.147,0,0.22,0,0.335,0.021v1.499c-0.115-0.021-0.251-0.042-0.43-0.042
			c-0.587,0-0.985,0.314-1.09,0.807c-0.021,0.105-0.031,0.23-0.031,0.356v2.6h-1.593V83.218z"/>
		<path fill="#FFFFFF" d="M136.198,84.036c0,1.876-1.332,2.736-2.705,2.736c-1.499,0-2.652-0.985-2.652-2.642
			s1.09-2.715,2.736-2.715C135.149,81.416,136.198,82.495,136.198,84.036z M132.487,84.088c0,0.881,0.367,1.541,1.048,1.541
			c0.619,0,1.017-0.619,1.017-1.541c0-0.765-0.293-1.541-1.017-1.541C132.77,82.547,132.487,83.333,132.487,84.088z"/>
		<path fill="#FFFFFF" d="M137.179,83.166c0-0.64-0.021-1.185-0.042-1.635h1.384l0.073,0.702h0.031
			c0.21-0.325,0.734-0.817,1.583-0.817c1.048,0,1.834,0.692,1.834,2.201v3.04h-1.593v-2.841c0-0.661-0.23-1.111-0.807-1.111
			c-0.44,0-0.703,0.304-0.807,0.598c-0.042,0.094-0.063,0.251-0.063,0.398v2.956h-1.593V83.166z"/>
		<path fill="#FFFFFF" d="M145.037,80.063v1.468h1.143v1.174h-1.143v1.855c0,0.619,0.147,0.902,0.629,0.902
			c0.199,0,0.356-0.021,0.472-0.042l0.011,1.206c-0.209,0.083-0.587,0.136-1.038,0.136c-0.514,0-0.944-0.178-1.195-0.44
			c-0.293-0.304-0.44-0.797-0.44-1.52v-2.097h-0.681v-1.174h0.681v-1.111L145.037,80.063z"/>
		<path fill="#FFFFFF" d="M152.129,86.657l-0.094-0.514h-0.032c-0.335,0.409-0.859,0.629-1.467,0.629
			c-1.038,0-1.656-0.755-1.656-1.572c0-1.332,1.195-1.971,3.008-1.96v-0.073c0-0.272-0.146-0.661-0.933-0.661
			c-0.524,0-1.08,0.178-1.415,0.388l-0.293-1.027c0.356-0.199,1.059-0.451,1.992-0.451c1.708,0,2.254,1.006,2.254,2.212v1.782
			c0,0.493,0.021,0.964,0.073,1.248H152.129z M151.94,84.235c-0.838-0.011-1.488,0.188-1.488,0.807c0,0.409,0.272,0.608,0.629,0.608
			c0.398,0,0.723-0.262,0.828-0.587c0.021-0.084,0.031-0.178,0.031-0.272V84.235z"/>
		<path fill="#FFFFFF" d="M154.746,83.166c0-0.64-0.021-1.185-0.042-1.635h1.384l0.073,0.702h0.031
			c0.21-0.325,0.734-0.817,1.583-0.817c1.048,0,1.834,0.692,1.834,2.201v3.04h-1.593v-2.841c0-0.661-0.23-1.111-0.807-1.111
			c-0.44,0-0.703,0.304-0.807,0.598c-0.042,0.094-0.063,0.251-0.063,0.398v2.956h-1.593V83.166z"/>
		<path fill="#FFFFFF" d="M165.854,79.214v5.913c0,0.576,0.021,1.185,0.042,1.53h-1.416l-0.073-0.755h-0.021
			c-0.325,0.577-0.943,0.87-1.604,0.87c-1.216,0-2.191-1.038-2.191-2.631c-0.01-1.729,1.069-2.725,2.296-2.725
			c0.629,0,1.122,0.22,1.353,0.576h0.021v-2.778H165.854z M164.26,83.701c0-0.084-0.011-0.199-0.021-0.283
			c-0.095-0.43-0.44-0.786-0.933-0.786c-0.723,0-1.101,0.65-1.101,1.457c0,0.87,0.43,1.415,1.09,1.415
			c0.461,0,0.828-0.314,0.923-0.765c0.031-0.115,0.042-0.23,0.042-0.367V83.701z"/>
		<path fill="#FFFFFF" d="M173.091,86.531c-0.283,0.126-0.818,0.231-1.426,0.231c-1.656,0-2.715-1.006-2.715-2.621
			c0-1.499,1.027-2.725,2.936-2.725c0.419,0,0.88,0.073,1.216,0.199l-0.251,1.184c-0.189-0.083-0.472-0.157-0.891-0.157
			c-0.838,0-1.384,0.598-1.373,1.437c0,0.943,0.629,1.436,1.404,1.436c0.377,0,0.671-0.063,0.912-0.157L173.091,86.531z"/>
		<path fill="#FFFFFF" d="M175.079,84.602c0.053,0.661,0.703,0.975,1.447,0.975c0.545,0,0.985-0.074,1.415-0.21l0.21,1.08
			c-0.524,0.209-1.164,0.314-1.855,0.314c-1.74,0-2.736-1.006-2.736-2.61c0-1.3,0.808-2.736,2.589-2.736
			c1.656,0,2.285,1.289,2.285,2.558c0,0.272-0.031,0.514-0.052,0.629H175.079z M176.955,83.512c0-0.388-0.167-1.038-0.901-1.038
			c-0.671,0-0.943,0.608-0.985,1.038H176.955z"/>
		<path fill="#FFFFFF" d="M179.383,83.166c0-0.64-0.021-1.185-0.042-1.635h1.384l0.073,0.702h0.031
			c0.21-0.325,0.734-0.817,1.583-0.817c1.048,0,1.834,0.692,1.834,2.201v3.04h-1.593v-2.841c0-0.661-0.23-1.111-0.807-1.111
			c-0.44,0-0.703,0.304-0.807,0.598c-0.042,0.094-0.063,0.251-0.063,0.398v2.956h-1.593V83.166z"/>
		<path fill="#FFFFFF" d="M187.241,80.063v1.468h1.143v1.174h-1.143v1.855c0,0.619,0.147,0.902,0.629,0.902
			c0.199,0,0.356-0.021,0.472-0.042l0.01,1.206c-0.209,0.083-0.587,0.136-1.038,0.136c-0.514,0-0.944-0.178-1.195-0.44
			c-0.293-0.304-0.44-0.797-0.44-1.52v-2.097h-0.681v-1.174h0.681v-1.111L187.241,80.063z"/>
		<path fill="#FFFFFF" d="M189.303,83.218c0-0.754-0.021-1.248-0.042-1.688h1.373l0.052,0.943h0.042
			c0.262-0.744,0.891-1.059,1.384-1.059c0.147,0,0.22,0,0.335,0.021v1.499c-0.115-0.021-0.251-0.042-0.43-0.042
			c-0.587,0-0.985,0.314-1.09,0.807c-0.021,0.105-0.031,0.23-0.031,0.356v2.6h-1.593V83.218z"/>
		<path fill="#FFFFFF" d="M194.426,84.602c0.053,0.661,0.703,0.975,1.447,0.975c0.545,0,0.985-0.074,1.415-0.21l0.21,1.08
			c-0.524,0.209-1.164,0.314-1.855,0.314c-1.74,0-2.736-1.006-2.736-2.61c0-1.3,0.808-2.736,2.589-2.736
			c1.656,0,2.285,1.289,2.285,2.558c0,0.272-0.031,0.514-0.052,0.629H194.426z M196.303,83.512c0-0.388-0.167-1.038-0.901-1.038
			c-0.671,0-0.943,0.608-0.985,1.038H196.303z"/>
		<path fill="#FFFFFF" d="M197.945,87.904c0.325-0.933,0.608-2.023,0.755-2.977l1.625-0.105c-0.346,1.069-0.817,2.17-1.321,2.988
			L197.945,87.904z"/>
		<path fill="#FFFFFF" d="M204.504,81.531l0.409,2.097c0.105,0.534,0.209,1.101,0.293,1.688h0.021
			c0.105-0.587,0.251-1.174,0.377-1.677l0.545-2.107h1.258l0.514,2.044c0.136,0.577,0.272,1.153,0.377,1.74h0.021
			c0.074-0.587,0.178-1.164,0.294-1.75l0.44-2.034h1.562l-1.572,5.126h-1.499l-0.482-1.803c-0.125-0.503-0.22-0.964-0.325-1.593
			h-0.021c-0.095,0.64-0.199,1.111-0.335,1.593l-0.514,1.803h-1.499l-1.489-5.126H204.504z"/>
		<path fill="#FFFFFF" d="M212.423,84.602c0.053,0.661,0.703,0.975,1.447,0.975c0.545,0,0.985-0.074,1.415-0.21l0.21,1.08
			c-0.524,0.209-1.164,0.314-1.855,0.314c-1.74,0-2.736-1.006-2.736-2.61c0-1.3,0.808-2.736,2.589-2.736
			c1.656,0,2.285,1.289,2.285,2.558c0,0.272-0.031,0.514-0.052,0.629H212.423z M214.299,83.512c0-0.388-0.167-1.038-0.901-1.038
			c-0.671,0-0.943,0.608-0.985,1.038H214.299z"/>
		<path fill="#FFFFFF" d="M220.07,84.602c0.053,0.661,0.703,0.975,1.447,0.975c0.545,0,0.985-0.074,1.415-0.21l0.21,1.08
			c-0.524,0.209-1.164,0.314-1.855,0.314c-1.74,0-2.736-1.006-2.736-2.61c0-1.3,0.808-2.736,2.589-2.736
			c1.656,0,2.285,1.289,2.285,2.558c0,0.272-0.031,0.514-0.052,0.629H220.07z M221.946,83.512c0-0.388-0.167-1.038-0.901-1.038
			c-0.671,0-0.943,0.608-0.985,1.038H221.946z"/>
		<path fill="#FFFFFF" d="M224.375,83.166c0-0.64-0.021-1.185-0.042-1.635h1.384l0.073,0.702h0.031
			c0.21-0.325,0.734-0.817,1.583-0.817c1.048,0,1.834,0.692,1.834,2.201v3.04h-1.593v-2.841c0-0.661-0.23-1.111-0.807-1.111
			c-0.44,0-0.703,0.304-0.807,0.598c-0.042,0.094-0.063,0.251-0.063,0.398v2.956h-1.593V83.166z"/>
		<path fill="#FFFFFF" d="M230.502,85.263c0.293,0.178,0.901,0.388,1.374,0.388c0.482,0,0.681-0.168,0.681-0.43
			c0-0.262-0.157-0.388-0.755-0.587c-1.059-0.356-1.467-0.933-1.457-1.541c0-0.954,0.818-1.677,2.086-1.677
			c0.598,0,1.132,0.136,1.447,0.293l-0.283,1.101c-0.23-0.126-0.671-0.293-1.111-0.293c-0.388,0-0.608,0.157-0.608,0.419
			c0,0.241,0.199,0.367,0.828,0.587c0.975,0.335,1.383,0.828,1.394,1.583c0,0.954-0.755,1.656-2.222,1.656
			c-0.671,0-1.269-0.147-1.657-0.356L230.502,85.263z"/>
		<path fill="#FFFFFF" d="M239.892,85.011c0,0.671,0.021,1.216,0.042,1.646h-1.384l-0.074-0.723h-0.031
			c-0.199,0.314-0.681,0.838-1.604,0.838c-1.038,0-1.803-0.65-1.803-2.233v-3.008h1.604v2.757c0,0.744,0.241,1.195,0.797,1.195
			c0.44,0,0.692-0.304,0.797-0.555c0.042-0.095,0.052-0.22,0.052-0.346v-3.05h1.604V85.011z"/>
		<path fill="#FFFFFF" d="M241.167,83.218c0-0.754-0.021-1.248-0.042-1.688h1.373l0.052,0.943h0.042
			c0.262-0.744,0.891-1.059,1.384-1.059c0.147,0,0.22,0,0.335,0.021v1.499c-0.115-0.021-0.251-0.042-0.43-0.042
			c-0.587,0-0.985,0.314-1.09,0.807c-0.021,0.105-0.031,0.23-0.031,0.356v2.6h-1.593V83.218z"/>
		<path fill="#FFFFFF" d="M246.289,84.602c0.053,0.661,0.703,0.975,1.447,0.975c0.545,0,0.985-0.074,1.415-0.21l0.21,1.08
			c-0.524,0.209-1.164,0.314-1.855,0.314c-1.74,0-2.736-1.006-2.736-2.61c0-1.3,0.808-2.736,2.589-2.736
			c1.656,0,2.285,1.289,2.285,2.558c0,0.272-0.031,0.514-0.052,0.629H246.289z M248.166,83.512c0-0.388-0.167-1.038-0.901-1.038
			c-0.671,0-0.943,0.608-0.985,1.038H248.166z"/>
		<path fill="#FFFFFF" d="M254.492,80.063v1.468h1.143v1.174h-1.143v1.855c0,0.619,0.147,0.902,0.629,0.902
			c0.199,0,0.356-0.021,0.472-0.042l0.01,1.206c-0.209,0.083-0.587,0.136-1.038,0.136c-0.514,0-0.944-0.178-1.195-0.44
			c-0.293-0.304-0.44-0.797-0.44-1.52v-2.097h-0.681v-1.174h0.681v-1.111L254.492,80.063z"/>
		<path fill="#FFFFFF" d="M256.554,79.214h1.593v2.925h0.021c0.167-0.22,0.377-0.388,0.629-0.524
			c0.23-0.126,0.535-0.199,0.828-0.199c1.017,0,1.792,0.702,1.792,2.243v2.998h-1.593v-2.82c0-0.671-0.23-1.132-0.828-1.132
			c-0.419,0-0.682,0.272-0.797,0.556c-0.042,0.105-0.052,0.241-0.052,0.356v3.04h-1.593V79.214z"/>
		<path fill="#FFFFFF" d="M265.607,86.657l-0.094-0.514h-0.032c-0.335,0.409-0.859,0.629-1.467,0.629
			c-1.038,0-1.656-0.755-1.656-1.572c0-1.332,1.195-1.971,3.008-1.96v-0.073c0-0.272-0.146-0.661-0.933-0.661
			c-0.524,0-1.08,0.178-1.415,0.388l-0.293-1.027c0.356-0.199,1.059-0.451,1.992-0.451c1.708,0,2.254,1.006,2.254,2.212v1.782
			c0,0.493,0.021,0.964,0.073,1.248H265.607z M265.418,84.235c-0.838-0.011-1.488,0.188-1.488,0.807
			c0,0.409,0.272,0.608,0.629,0.608c0.398,0,0.723-0.262,0.828-0.587c0.021-0.084,0.031-0.178,0.031-0.272V84.235z"/>
		<path fill="#FFFFFF" d="M269.922,80.063v1.468h1.143v1.174h-1.143v1.855c0,0.619,0.147,0.902,0.629,0.902
			c0.199,0,0.356-0.021,0.472-0.042l0.011,1.206c-0.209,0.083-0.587,0.136-1.038,0.136c-0.514,0-0.944-0.178-1.195-0.44
			c-0.293-0.304-0.44-0.797-0.44-1.52v-2.097h-0.681v-1.174h0.681v-1.111L269.922,80.063z"/>
		<path fill="#FFFFFF" d="M44.087,92.162v4.067c0,1.216,0.461,1.834,1.279,1.834c0.839,0,1.3-0.587,1.3-1.834v-4.067h1.593v3.962
			c0,2.181-1.101,3.218-2.946,3.218c-1.782,0-2.831-0.985-2.831-3.239v-3.941H44.087z"/>
		<path fill="#FFFFFF" d="M49.438,97.833c0.293,0.178,0.901,0.388,1.374,0.388c0.482,0,0.681-0.168,0.681-0.43
			c0-0.262-0.157-0.388-0.755-0.587c-1.059-0.356-1.467-0.933-1.457-1.541c0-0.954,0.818-1.677,2.086-1.677
			c0.598,0,1.132,0.136,1.447,0.293l-0.283,1.101c-0.23-0.126-0.671-0.293-1.111-0.293c-0.388,0-0.608,0.157-0.608,0.419
			c0,0.241,0.199,0.367,0.828,0.587c0.975,0.335,1.383,0.828,1.394,1.583c0,0.954-0.755,1.656-2.222,1.656
			c-0.671,0-1.269-0.147-1.657-0.356L49.438,97.833z"/>
		<path fill="#FFFFFF" d="M55.222,97.172c0.053,0.661,0.703,0.975,1.447,0.975c0.545,0,0.985-0.074,1.415-0.21l0.21,1.08
			c-0.524,0.209-1.164,0.314-1.855,0.314c-1.74,0-2.736-1.006-2.736-2.61c0-1.3,0.808-2.736,2.589-2.736
			c1.656,0,2.285,1.289,2.285,2.558c0,0.272-0.031,0.514-0.052,0.629H55.222z M57.098,96.082c0-0.388-0.167-1.038-0.901-1.038
			c-0.671,0-0.943,0.608-0.985,1.038H57.098z"/>
		<path fill="#FFFFFF" d="M59.526,95.789c0-0.754-0.021-1.248-0.042-1.688h1.373l0.052,0.943h0.042
			c0.262-0.744,0.891-1.059,1.384-1.059c0.147,0,0.22,0,0.335,0.021v1.499c-0.115-0.021-0.251-0.042-0.43-0.042
			c-0.587,0-0.985,0.314-1.09,0.807c-0.021,0.105-0.031,0.23-0.031,0.356v2.6h-1.593V95.789z"/>
		<path fill="#FFFFFF" d="M67.321,97.414l-0.503,1.813h-1.656l2.16-7.065h2.096l2.191,7.065h-1.719l-0.545-1.813H67.321z
			 M69.113,96.218l-0.44-1.499c-0.126-0.419-0.251-0.943-0.356-1.363h-0.021c-0.105,0.419-0.209,0.954-0.325,1.363l-0.419,1.499
			H69.113z"/>
		<path fill="#FFFFFF" d="M77.316,91.784v5.913c0,0.576,0.021,1.185,0.042,1.53h-1.416l-0.073-0.755h-0.021
			c-0.325,0.577-0.943,0.87-1.604,0.87c-1.216,0-2.191-1.038-2.191-2.631c-0.01-1.729,1.069-2.725,2.296-2.725
			c0.629,0,1.122,0.22,1.353,0.576h0.021v-2.778H77.316z M75.723,96.271c0-0.084-0.011-0.199-0.021-0.283
			c-0.095-0.43-0.44-0.786-0.933-0.786c-0.723,0-1.101,0.65-1.101,1.457c0,0.87,0.43,1.415,1.09,1.415
			c0.461,0,0.828-0.314,0.923-0.765c0.031-0.115,0.042-0.23,0.042-0.367V96.271z"/>
		<path fill="#FFFFFF" d="M83.654,96.606c0,1.876-1.332,2.736-2.705,2.736c-1.499,0-2.652-0.985-2.652-2.642s1.09-2.715,2.736-2.715
			C82.605,93.986,83.654,95.065,83.654,96.606z M79.943,96.659c0,0.881,0.367,1.541,1.048,1.541c0.619,0,1.017-0.619,1.017-1.541
			c0-0.765-0.293-1.541-1.017-1.541C80.226,95.118,79.943,95.904,79.943,96.659z"/>
		<path fill="#FFFFFF" d="M84.635,95.82c0-0.671-0.021-1.248-0.042-1.719h1.384l0.073,0.713h0.021
			c0.377-0.545,0.964-0.828,1.708-0.828c1.122,0,2.128,0.975,2.128,2.61c0,1.866-1.185,2.747-2.327,2.747
			c-0.618,0-1.101-0.251-1.331-0.587h-0.021v2.547h-1.593V95.82z M86.229,97.026c0,0.125,0.01,0.241,0.031,0.335
			c0.105,0.43,0.472,0.754,0.933,0.754c0.692,0,1.101-0.576,1.101-1.446c0-0.818-0.367-1.437-1.08-1.437
			c-0.451,0-0.849,0.335-0.954,0.807c-0.021,0.084-0.031,0.189-0.031,0.283V97.026z"/>
		<path fill="#FFFFFF" d="M92.681,92.633v1.468h1.143v1.174h-1.143v1.855c0,0.619,0.147,0.902,0.629,0.902
			c0.199,0,0.356-0.021,0.472-0.042l0.01,1.206c-0.209,0.083-0.587,0.136-1.038,0.136c-0.514,0-0.944-0.178-1.195-0.44
			c-0.293-0.304-0.44-0.797-0.44-1.52v-2.097h-0.681v-1.174h0.681V92.99L92.681,92.633z"/>
		<path fill="#FFFFFF" d="M96.389,92.675c0,0.44-0.335,0.797-0.859,0.797c-0.503,0-0.839-0.356-0.828-0.797
			c-0.011-0.461,0.325-0.807,0.838-0.807S96.379,92.214,96.389,92.675z M94.744,99.227v-5.126h1.593v5.126H94.744z"/>
		<path fill="#FFFFFF" d="M102.677,96.606c0,1.876-1.332,2.736-2.705,2.736c-1.499,0-2.652-0.985-2.652-2.642
			s1.09-2.715,2.736-2.715C101.628,93.986,102.677,95.065,102.677,96.606z M98.966,96.659c0,0.881,0.367,1.541,1.048,1.541
			c0.619,0,1.017-0.619,1.017-1.541c0-0.765-0.293-1.541-1.017-1.541C99.249,95.118,98.966,95.904,98.966,96.659z"/>
		<path fill="#FFFFFF" d="M103.658,95.736c0-0.64-0.021-1.185-0.042-1.635H105l0.073,0.702h0.031
			c0.21-0.325,0.734-0.817,1.583-0.817c1.048,0,1.834,0.692,1.834,2.201v3.04h-1.593v-2.841c0-0.661-0.23-1.111-0.807-1.111
			c-0.44,0-0.703,0.304-0.807,0.598c-0.042,0.094-0.063,0.251-0.063,0.398v2.956h-1.593V95.736z"/>
		<path fill="#FFFFFF" d="M114.827,99.227l-0.094-0.514h-0.032c-0.335,0.409-0.859,0.629-1.467,0.629
			c-1.038,0-1.656-0.755-1.656-1.572c0-1.332,1.195-1.971,3.008-1.96v-0.073c0-0.272-0.146-0.661-0.933-0.661
			c-0.524,0-1.08,0.178-1.415,0.388l-0.293-1.027c0.356-0.199,1.059-0.451,1.992-0.451c1.708,0,2.254,1.006,2.254,2.212v1.782
			c0,0.493,0.021,0.964,0.073,1.248H114.827z M114.638,96.806c-0.838-0.011-1.488,0.188-1.488,0.807
			c0,0.409,0.272,0.608,0.629,0.608c0.398,0,0.723-0.262,0.828-0.587c0.021-0.084,0.031-0.178,0.031-0.272V96.806z"/>
		<path fill="#FFFFFF" d="M117.443,95.736c0-0.64-0.021-1.185-0.042-1.635h1.384l0.073,0.702h0.031
			c0.21-0.325,0.734-0.817,1.583-0.817c1.048,0,1.834,0.692,1.834,2.201v3.04h-1.593v-2.841c0-0.661-0.23-1.111-0.807-1.111
			c-0.44,0-0.703,0.304-0.807,0.598c-0.042,0.094-0.063,0.251-0.063,0.398v2.956h-1.593V95.736z"/>
		<path fill="#FFFFFF" d="M128.551,91.784v5.913c0,0.576,0.021,1.185,0.042,1.53h-1.416l-0.073-0.755h-0.021
			c-0.325,0.577-0.943,0.87-1.604,0.87c-1.216,0-2.191-1.038-2.191-2.631c-0.01-1.729,1.069-2.725,2.296-2.725
			c0.629,0,1.122,0.22,1.353,0.576h0.021v-2.778H128.551z M126.958,96.271c0-0.084-0.011-0.199-0.021-0.283
			c-0.095-0.43-0.44-0.786-0.933-0.786c-0.723,0-1.101,0.65-1.101,1.457c0,0.87,0.43,1.415,1.09,1.415
			c0.461,0,0.828-0.314,0.923-0.765c0.031-0.115,0.042-0.23,0.042-0.367V96.271z"/>
		<path fill="#FFFFFF" d="M137.182,99.028c-0.293,0.147-0.954,0.304-1.813,0.304c-2.442,0-3.701-1.52-3.701-3.533
			c0-2.411,1.719-3.753,3.858-3.753c0.828,0,1.457,0.167,1.74,0.314l-0.325,1.269c-0.325-0.136-0.776-0.262-1.342-0.262
			c-1.269,0-2.254,0.765-2.254,2.338c0,1.415,0.839,2.306,2.265,2.306c0.482,0,1.017-0.105,1.331-0.231L137.182,99.028z"/>
		<path fill="#FFFFFF" d="M143.038,96.606c0,1.876-1.332,2.736-2.705,2.736c-1.499,0-2.652-0.985-2.652-2.642
			s1.09-2.715,2.736-2.715C141.989,93.986,143.038,95.065,143.038,96.606z M139.327,96.659c0,0.881,0.367,1.541,1.048,1.541
			c0.619,0,1.017-0.619,1.017-1.541c0-0.765-0.293-1.541-1.017-1.541C139.61,95.118,139.327,95.904,139.327,96.659z"/>
		<path fill="#FFFFFF" d="M144.019,95.736c0-0.64-0.021-1.185-0.042-1.635h1.384l0.073,0.702h0.031
			c0.21-0.325,0.734-0.817,1.583-0.817c1.048,0,1.834,0.692,1.834,2.201v3.04h-1.593v-2.841c0-0.661-0.23-1.111-0.807-1.111
			c-0.44,0-0.703,0.304-0.807,0.598c-0.042,0.094-0.063,0.251-0.063,0.398v2.956h-1.593V95.736z"/>
		<path fill="#FFFFFF" d="M150.147,97.833c0.293,0.178,0.901,0.388,1.374,0.388c0.482,0,0.681-0.168,0.681-0.43
			c0-0.262-0.157-0.388-0.755-0.587c-1.059-0.356-1.467-0.933-1.457-1.541c0-0.954,0.818-1.677,2.086-1.677
			c0.598,0,1.132,0.136,1.447,0.293l-0.283,1.101c-0.23-0.126-0.671-0.293-1.111-0.293c-0.388,0-0.608,0.157-0.608,0.419
			c0,0.241,0.199,0.367,0.828,0.587c0.975,0.335,1.383,0.828,1.394,1.583c0,0.954-0.755,1.656-2.222,1.656
			c-0.671,0-1.269-0.147-1.657-0.356L150.147,97.833z"/>
		<path fill="#FFFFFF" d="M159.537,97.581c0,0.671,0.021,1.216,0.042,1.646h-1.384l-0.074-0.723h-0.031
			c-0.199,0.314-0.681,0.838-1.604,0.838c-1.038,0-1.803-0.65-1.803-2.233v-3.008h1.604v2.757c0,0.744,0.241,1.195,0.797,1.195
			c0.44,0,0.692-0.304,0.797-0.555c0.042-0.095,0.052-0.22,0.052-0.346v-3.05h1.604V97.581z"/>
		<path fill="#FFFFFF" d="M160.811,95.736c0-0.64-0.021-1.185-0.042-1.635h1.342l0.073,0.692h0.031
			c0.22-0.325,0.671-0.807,1.552-0.807c0.66,0,1.185,0.335,1.405,0.87h0.021c0.188-0.262,0.419-0.472,0.66-0.619
			c0.283-0.168,0.598-0.251,0.975-0.251c0.985,0,1.729,0.692,1.729,2.222v3.019h-1.551v-2.789c0-0.744-0.241-1.174-0.755-1.174
			c-0.367,0-0.629,0.251-0.734,0.556c-0.042,0.115-0.063,0.283-0.063,0.409v2.998h-1.551v-2.872c0-0.65-0.23-1.09-0.734-1.09
			c-0.409,0-0.65,0.314-0.744,0.577c-0.053,0.125-0.063,0.272-0.063,0.398v2.988h-1.551V95.736z"/>
		<path fill="#FFFFFF" d="M171.046,97.172c0.053,0.661,0.703,0.975,1.447,0.975c0.545,0,0.985-0.074,1.415-0.21l0.21,1.08
			c-0.524,0.209-1.164,0.314-1.855,0.314c-1.74,0-2.736-1.006-2.736-2.61c0-1.3,0.808-2.736,2.589-2.736
			c1.656,0,2.285,1.289,2.285,2.558c0,0.272-0.031,0.514-0.052,0.629H171.046z M172.922,96.082c0-0.388-0.167-1.038-0.901-1.038
			c-0.671,0-0.943,0.608-0.985,1.038H172.922z"/>
		<path fill="#FFFFFF" d="M175.351,95.789c0-0.754-0.021-1.248-0.042-1.688h1.373l0.052,0.943h0.042
			c0.262-0.744,0.891-1.059,1.384-1.059c0.147,0,0.22,0,0.335,0.021v1.499c-0.115-0.021-0.251-0.042-0.43-0.042
			c-0.587,0-0.985,0.314-1.09,0.807c-0.021,0.105-0.031,0.23-0.031,0.356v2.6h-1.593V95.789z"/>
		<path fill="#FFFFFF" d="M185.703,96.239h-2.6v1.677h2.903v1.311H181.5v-7.065h4.361v1.311h-2.757v1.467h2.6V96.239z"/>
		<path fill="#FFFFFF" d="M187.041,95.736c0-0.64-0.021-1.185-0.042-1.635h1.384l0.073,0.702h0.031
			c0.21-0.325,0.734-0.817,1.583-0.817c1.048,0,1.834,0.692,1.834,2.201v3.04h-1.593v-2.841c0-0.661-0.23-1.111-0.807-1.111
			c-0.44,0-0.703,0.304-0.807,0.598c-0.042,0.094-0.063,0.251-0.063,0.398v2.956h-1.593V95.736z"/>
		<path fill="#FFFFFF" d="M198.075,94.101c-0.021,0.325-0.042,0.755-0.042,1.52v2.862c0,0.985-0.199,1.792-0.776,2.306
			c-0.566,0.482-1.332,0.629-2.086,0.629c-0.671,0-1.384-0.136-1.845-0.398l0.314-1.206c0.325,0.189,0.891,0.388,1.489,0.388
			c0.755,0,1.331-0.409,1.331-1.353v-0.335h-0.021c-0.304,0.43-0.796,0.671-1.384,0.671c-1.268,0-2.17-1.027-2.17-2.505
			c0-1.646,1.069-2.694,2.328-2.694c0.702,0,1.143,0.304,1.404,0.723h0.021l0.053-0.608H198.075z M196.439,96.187
			c0-0.105-0.01-0.209-0.031-0.293c-0.115-0.419-0.419-0.702-0.859-0.702c-0.577,0-1.048,0.524-1.048,1.457
			c0,0.765,0.377,1.363,1.048,1.363c0.409,0,0.733-0.273,0.838-0.65c0.042-0.116,0.052-0.283,0.052-0.419V96.187z"/>
		<path fill="#FFFFFF" d="M202.222,99.227l-0.094-0.514h-0.032c-0.335,0.409-0.859,0.629-1.467,0.629
			c-1.038,0-1.656-0.755-1.656-1.572c0-1.332,1.195-1.971,3.008-1.96v-0.073c0-0.272-0.146-0.661-0.933-0.661
			c-0.524,0-1.08,0.178-1.415,0.388l-0.293-1.027c0.356-0.199,1.059-0.451,1.992-0.451c1.708,0,2.254,1.006,2.254,2.212v1.782
			c0,0.493,0.021,0.964,0.073,1.248H202.222z M202.033,96.806c-0.838-0.011-1.488,0.188-1.488,0.807
			c0,0.409,0.272,0.608,0.629,0.608c0.398,0,0.723-0.262,0.828-0.587c0.021-0.084,0.031-0.178,0.031-0.272V96.806z"/>
		<path fill="#FFFFFF" d="M209.733,94.101c-0.021,0.325-0.042,0.755-0.042,1.52v2.862c0,0.985-0.199,1.792-0.776,2.306
			c-0.566,0.482-1.332,0.629-2.086,0.629c-0.671,0-1.384-0.136-1.845-0.398l0.314-1.206c0.325,0.189,0.891,0.388,1.489,0.388
			c0.755,0,1.331-0.409,1.331-1.353v-0.335h-0.021c-0.304,0.43-0.796,0.671-1.383,0.671c-1.269,0-2.17-1.027-2.17-2.505
			c0-1.646,1.069-2.694,2.328-2.694c0.702,0,1.143,0.304,1.404,0.723h0.021l0.053-0.608H209.733z M208.098,96.187
			c0-0.105-0.01-0.209-0.031-0.293c-0.115-0.419-0.419-0.702-0.859-0.702c-0.577,0-1.048,0.524-1.048,1.457
			c0,0.765,0.377,1.363,1.048,1.363c0.409,0,0.733-0.273,0.838-0.65c0.042-0.116,0.052-0.283,0.052-0.419V96.187z"/>
		<path fill="#FFFFFF" d="M212.192,97.172c0.053,0.661,0.703,0.975,1.447,0.975c0.545,0,0.985-0.074,1.415-0.21l0.21,1.08
			c-0.524,0.209-1.164,0.314-1.855,0.314c-1.74,0-2.736-1.006-2.736-2.61c0-1.3,0.808-2.736,2.589-2.736
			c1.656,0,2.285,1.289,2.285,2.558c0,0.272-0.031,0.514-0.052,0.629H212.192z M214.069,96.082c0-0.388-0.167-1.038-0.901-1.038
			c-0.671,0-0.943,0.608-0.985,1.038H214.069z"/>
		<path fill="#FFFFFF" d="M216.497,95.736c0-0.64-0.021-1.185-0.042-1.635h1.342l0.073,0.692h0.031
			c0.22-0.325,0.671-0.807,1.552-0.807c0.66,0,1.185,0.335,1.405,0.87h0.021c0.188-0.262,0.419-0.472,0.66-0.619
			c0.283-0.168,0.598-0.251,0.975-0.251c0.985,0,1.729,0.692,1.729,2.222v3.019h-1.551v-2.789c0-0.744-0.241-1.174-0.755-1.174
			c-0.367,0-0.629,0.251-0.734,0.556c-0.042,0.115-0.063,0.283-0.063,0.409v2.998h-1.551v-2.872c0-0.65-0.23-1.09-0.734-1.09
			c-0.409,0-0.65,0.314-0.744,0.577c-0.053,0.125-0.063,0.272-0.063,0.398v2.988h-1.551V95.736z"/>
		<path fill="#FFFFFF" d="M226.732,97.172c0.053,0.661,0.703,0.975,1.447,0.975c0.545,0,0.985-0.074,1.415-0.21l0.21,1.08
			c-0.524,0.209-1.164,0.314-1.855,0.314c-1.74,0-2.736-1.006-2.736-2.61c0-1.3,0.808-2.736,2.589-2.736
			c1.656,0,2.285,1.289,2.285,2.558c0,0.272-0.031,0.514-0.052,0.629H226.732z M228.608,96.082c0-0.388-0.167-1.038-0.901-1.038
			c-0.671,0-0.943,0.608-0.985,1.038H228.608z"/>
		<path fill="#FFFFFF" d="M231.037,95.736c0-0.64-0.021-1.185-0.042-1.635h1.384l0.073,0.702h0.031
			c0.21-0.325,0.734-0.817,1.583-0.817c1.048,0,1.834,0.692,1.834,2.201v3.04h-1.593v-2.841c0-0.661-0.23-1.111-0.807-1.111
			c-0.44,0-0.703,0.304-0.807,0.598c-0.042,0.094-0.063,0.251-0.063,0.398v2.956h-1.593V95.736z"/>
		<path fill="#FFFFFF" d="M238.894,92.633v1.468h1.143v1.174h-1.143v1.855c0,0.619,0.147,0.902,0.629,0.902
			c0.199,0,0.356-0.021,0.472-0.042l0.01,1.206c-0.209,0.083-0.587,0.136-1.038,0.136c-0.514,0-0.944-0.178-1.195-0.44
			c-0.293-0.304-0.44-0.797-0.44-1.52v-2.097h-0.681v-1.174h0.681V92.99L238.894,92.633z"/>
		<path fill="#FFFFFF" d="M240.254,100.475c0.325-0.933,0.608-2.023,0.755-2.977l1.625-0.105c-0.346,1.069-0.817,2.17-1.321,2.988
			L240.254,100.475z"/>
		<path fill="#FFFFFF" d="M247.495,92.633v1.468h1.143v1.174h-1.143v1.855c0,0.619,0.147,0.902,0.629,0.902
			c0.199,0,0.356-0.021,0.472-0.042l0.01,1.206c-0.209,0.083-0.587,0.136-1.038,0.136c-0.514,0-0.944-0.178-1.195-0.44
			c-0.293-0.304-0.44-0.797-0.44-1.52v-2.097h-0.681v-1.174h0.681V92.99L247.495,92.633z"/>
		<path fill="#FFFFFF" d="M249.557,91.784h1.593v2.925h0.021c0.167-0.22,0.377-0.388,0.629-0.524
			c0.23-0.126,0.535-0.199,0.828-0.199c1.017,0,1.792,0.702,1.792,2.243v2.998h-1.593v-2.82c0-0.671-0.23-1.132-0.828-1.132
			c-0.419,0-0.682,0.272-0.797,0.556c-0.042,0.105-0.052,0.241-0.052,0.356v3.04h-1.593V91.784z"/>
		<path fill="#FFFFFF" d="M256.922,97.172c0.053,0.661,0.703,0.975,1.447,0.975c0.545,0,0.985-0.074,1.415-0.21l0.21,1.08
			c-0.524,0.209-1.164,0.314-1.855,0.314c-1.74,0-2.736-1.006-2.736-2.61c0-1.3,0.808-2.736,2.589-2.736
			c1.656,0,2.285,1.289,2.285,2.558c0,0.272-0.031,0.514-0.052,0.629H256.922z M258.798,96.082c0-0.388-0.167-1.038-0.901-1.038
			c-0.671,0-0.943,0.608-0.985,1.038H258.798z"/>
		<path fill="#FFFFFF" d="M98.029,105.204v1.468h1.143v1.174h-1.143v1.855c0,0.619,0.147,0.902,0.629,0.902
			c0.199,0,0.356-0.021,0.472-0.042l0.011,1.206c-0.209,0.083-0.587,0.136-1.038,0.136c-0.514,0-0.944-0.178-1.195-0.44
			c-0.293-0.304-0.44-0.797-0.44-1.52v-2.097h-0.681v-1.174h0.681v-1.111L98.029,105.204z"/>
		<path fill="#FFFFFF" d="M100.092,108.359c0-0.754-0.021-1.248-0.042-1.688h1.373l0.052,0.943h0.042
			c0.262-0.744,0.891-1.059,1.384-1.059c0.147,0,0.22,0,0.335,0.021v1.499c-0.115-0.021-0.251-0.042-0.43-0.042
			c-0.587,0-0.985,0.314-1.09,0.807c-0.021,0.105-0.031,0.23-0.031,0.356v2.6h-1.593V108.359z"/>
		<path fill="#FFFFFF" d="M108.874,110.151c0,0.671,0.021,1.216,0.042,1.646h-1.384l-0.074-0.723h-0.031
			c-0.199,0.314-0.681,0.838-1.604,0.838c-1.038,0-1.803-0.65-1.803-2.233v-3.008h1.604v2.757c0,0.744,0.241,1.195,0.797,1.195
			c0.44,0,0.692-0.304,0.797-0.555c0.042-0.095,0.052-0.22,0.052-0.346v-3.05h1.604V110.151z"/>
		<path fill="#FFFFFF" d="M111.374,109.743c0.053,0.661,0.703,0.975,1.447,0.975c0.545,0,0.985-0.074,1.415-0.21l0.21,1.08
			c-0.524,0.209-1.164,0.314-1.855,0.314c-1.74,0-2.736-1.006-2.736-2.61c0-1.3,0.808-2.736,2.589-2.736
			c1.656,0,2.285,1.289,2.285,2.558c0,0.272-0.031,0.514-0.052,0.629H111.374z M113.25,108.652c0-0.388-0.167-1.038-0.901-1.038
			c-0.671,0-0.943,0.608-0.985,1.038H113.25z"/>
		<path fill="#FFFFFF" d="M117.847,104.826c0.514-0.083,1.279-0.146,2.128-0.146c1.048,0,1.782,0.157,2.285,0.556
			c0.419,0.335,0.65,0.828,0.65,1.478c0,0.901-0.639,1.52-1.247,1.74v0.032c0.493,0.199,0.765,0.671,0.943,1.321
			c0.22,0.797,0.44,1.719,0.577,1.992h-1.636c-0.115-0.199-0.283-0.776-0.493-1.646c-0.188-0.88-0.493-1.122-1.143-1.132h-0.482
			v2.778h-1.583V104.826z M119.43,107.866h0.629c0.796,0,1.269-0.398,1.269-1.017c0-0.65-0.44-0.975-1.174-0.985
			c-0.388,0-0.608,0.031-0.723,0.052V107.866z"/>
		<path fill="#FFFFFF" d="M130.485,108.191c0,2.316-1.405,3.721-3.47,3.721c-2.097,0-3.323-1.583-3.323-3.596
			c0-2.117,1.353-3.7,3.438-3.7C129.3,104.617,130.485,106.242,130.485,108.191z M125.38,108.286c0,1.384,0.65,2.358,1.719,2.358
			c1.08,0,1.698-1.027,1.698-2.4c0-1.269-0.608-2.358-1.709-2.358C126.009,105.885,125.38,106.913,125.38,108.286z"/>
		<path fill="#FFFFFF" d="M133.132,104.732v7.065h-1.604v-7.065H133.132z"/>
		<path fill="#FFFFFF" d="M133.842,113.045c0.325-0.933,0.608-2.023,0.755-2.977l1.625-0.105c-0.346,1.069-0.817,2.17-1.321,2.988
			L133.842,113.045z"/>
		<path fill="#FFFFFF" d="M142.215,111.797l-0.094-0.514h-0.032c-0.335,0.409-0.859,0.629-1.467,0.629
			c-1.038,0-1.656-0.755-1.656-1.572c0-1.332,1.195-1.971,3.008-1.96v-0.073c0-0.272-0.146-0.661-0.933-0.661
			c-0.524,0-1.08,0.178-1.415,0.388l-0.293-1.027c0.356-0.199,1.059-0.451,1.992-0.451c1.708,0,2.254,1.006,2.254,2.212v1.782
			c0,0.493,0.021,0.964,0.073,1.248H142.215z M142.026,109.376c-0.838-0.011-1.488,0.188-1.488,0.807
			c0,0.409,0.272,0.608,0.629,0.608c0.398,0,0.723-0.262,0.828-0.587c0.021-0.084,0.031-0.178,0.031-0.272V109.376z"/>
		<path fill="#FFFFFF" d="M144.832,108.359c0-0.754-0.021-1.248-0.042-1.688h1.373l0.052,0.943h0.042
			c0.262-0.744,0.891-1.059,1.384-1.059c0.147,0,0.22,0,0.335,0.021v1.499c-0.115-0.021-0.251-0.042-0.43-0.042
			c-0.587,0-0.985,0.314-1.09,0.807c-0.021,0.105-0.031,0.23-0.031,0.356v2.6h-1.593V108.359z"/>
		<path fill="#FFFFFF" d="M149.955,109.743c0.053,0.661,0.703,0.975,1.447,0.975c0.545,0,0.985-0.074,1.415-0.21l0.21,1.08
			c-0.524,0.209-1.164,0.314-1.855,0.314c-1.74,0-2.736-1.006-2.736-2.61c0-1.3,0.808-2.736,2.589-2.736
			c1.656,0,2.285,1.289,2.285,2.558c0,0.272-0.031,0.514-0.052,0.629H149.955z M151.831,108.652c0-0.388-0.167-1.038-0.901-1.038
			c-0.671,0-0.943,0.608-0.985,1.038H151.831z"/>
		<path fill="#FFFFFF" d="M156.375,108.307c0-0.64-0.021-1.185-0.042-1.635h1.342l0.073,0.692h0.031
			c0.22-0.325,0.671-0.807,1.552-0.807c0.66,0,1.185,0.335,1.405,0.87h0.021c0.188-0.262,0.419-0.472,0.66-0.619
			c0.283-0.168,0.598-0.251,0.975-0.251c0.985,0,1.729,0.692,1.729,2.222v3.019h-1.551v-2.789c0-0.744-0.241-1.174-0.755-1.174
			c-0.367,0-0.629,0.251-0.734,0.556c-0.042,0.115-0.063,0.283-0.063,0.409v2.998h-1.551v-2.872c0-0.65-0.23-1.09-0.734-1.09
			c-0.409,0-0.65,0.314-0.744,0.577c-0.053,0.125-0.063,0.272-0.063,0.398v2.988h-1.551V108.307z"/>
		<path fill="#FFFFFF" d="M168.298,111.797l-0.094-0.514h-0.032c-0.335,0.409-0.859,0.629-1.467,0.629
			c-1.038,0-1.656-0.755-1.656-1.572c0-1.332,1.195-1.971,3.008-1.96v-0.073c0-0.272-0.146-0.661-0.933-0.661
			c-0.524,0-1.08,0.178-1.415,0.388l-0.293-1.027c0.356-0.199,1.059-0.451,1.992-0.451c1.708,0,2.254,1.006,2.254,2.212v1.782
			c0,0.493,0.021,0.964,0.073,1.248H168.298z M168.109,109.376c-0.838-0.011-1.488,0.188-1.488,0.807
			c0,0.409,0.272,0.608,0.629,0.608c0.398,0,0.723-0.262,0.828-0.587c0.021-0.084,0.031-0.178,0.031-0.272V109.376z"/>
		<path fill="#FFFFFF" d="M172.131,106.671l0.503,0.849c0.147,0.262,0.283,0.524,0.419,0.765h0.021
			c0.136-0.272,0.262-0.535,0.398-0.786l0.451-0.828h1.729l-1.688,2.442l1.708,2.684h-1.803l-0.514-0.922
			c-0.147-0.252-0.272-0.514-0.398-0.776h-0.031c-0.126,0.272-0.262,0.524-0.388,0.776l-0.482,0.922h-1.751l1.74-2.61l-1.698-2.516
			H172.131z"/>
		<path fill="#FFFFFF" d="M177.997,105.246c0,0.44-0.335,0.797-0.859,0.797c-0.503,0-0.839-0.356-0.828-0.797
			c-0.011-0.461,0.325-0.807,0.838-0.807S177.987,104.784,177.997,105.246z M176.352,111.797v-5.126h1.593v5.126H176.352z"/>
		<path fill="#FFFFFF" d="M179.222,108.307c0-0.64-0.021-1.185-0.042-1.635h1.342l0.073,0.692h0.031
			c0.22-0.325,0.671-0.807,1.552-0.807c0.66,0,1.185,0.335,1.405,0.87h0.021c0.188-0.262,0.419-0.472,0.66-0.619
			c0.283-0.168,0.598-0.251,0.975-0.251c0.985,0,1.729,0.692,1.729,2.222v3.019h-1.551v-2.789c0-0.744-0.241-1.174-0.755-1.174
			c-0.367,0-0.629,0.251-0.734,0.556c-0.042,0.115-0.063,0.283-0.063,0.409v2.998h-1.551v-2.872c0-0.65-0.23-1.09-0.734-1.09
			c-0.409,0-0.65,0.314-0.744,0.577c-0.053,0.125-0.063,0.272-0.063,0.398v2.988h-1.551V108.307z"/>
		<path fill="#FFFFFF" d="M189.876,105.246c0,0.44-0.335,0.797-0.859,0.797c-0.503,0-0.839-0.356-0.828-0.797
			c-0.011-0.461,0.325-0.807,0.838-0.807S189.866,104.784,189.876,105.246z M188.23,111.797v-5.126h1.593v5.126H188.23z"/>
		<path fill="#FFFFFF" d="M191.09,110.403c0.293,0.178,0.901,0.388,1.374,0.388c0.482,0,0.681-0.168,0.681-0.43
			c0-0.262-0.157-0.388-0.755-0.587c-1.059-0.356-1.467-0.933-1.457-1.541c0-0.954,0.818-1.677,2.086-1.677
			c0.598,0,1.132,0.136,1.447,0.293l-0.283,1.101c-0.23-0.126-0.671-0.293-1.111-0.293c-0.388,0-0.608,0.157-0.608,0.419
			c0,0.241,0.199,0.367,0.828,0.587c0.975,0.335,1.383,0.828,1.394,1.583c0,0.954-0.755,1.656-2.222,1.656
			c-0.671,0-1.269-0.147-1.657-0.356L191.09,110.403z"/>
		<path fill="#FFFFFF" d="M196.873,109.743c0.053,0.661,0.703,0.975,1.447,0.975c0.545,0,0.985-0.074,1.415-0.21l0.21,1.08
			c-0.524,0.209-1.164,0.314-1.855,0.314c-1.74,0-2.736-1.006-2.736-2.61c0-1.3,0.808-2.736,2.589-2.736
			c1.656,0,2.285,1.289,2.285,2.558c0,0.272-0.031,0.514-0.052,0.629H196.873z M198.75,108.652c0-0.388-0.167-1.038-0.901-1.038
			c-0.671,0-0.943,0.608-0.985,1.038H198.75z"/>
		<path fill="#FFFFFF" d="M206.146,104.354v5.913c0,0.576,0.021,1.185,0.042,1.53h-1.416l-0.073-0.755h-0.021
			c-0.325,0.577-0.943,0.87-1.604,0.87c-1.216,0-2.191-1.038-2.191-2.631c-0.01-1.729,1.069-2.725,2.296-2.725
			c0.629,0,1.122,0.22,1.353,0.576h0.021v-2.778H206.146z M204.553,108.841c0-0.084-0.011-0.199-0.021-0.283
			c-0.095-0.43-0.44-0.786-0.933-0.786c-0.723,0-1.101,0.65-1.101,1.457c0,0.87,0.43,1.415,1.09,1.415
			c0.461,0,0.828-0.314,0.923-0.765c0.031-0.115,0.042-0.23,0.042-0.367V108.841z"/>
	</g>
</g>
</svg>
