<?xml version="1.0" encoding="utf-8"?>
<!-- Generator: Adobe Illustrator 17.0.0, SVG Export Plug-In . SVG Version: 6.00 Build 0)  -->
<!DOCTYPE svg PUBLIC "-//W3C//DTD SVG 1.1//EN" "http://www.w3.org/Graphics/SVG/1.1/DTD/svg11.dtd">
<svg version="1.1" id="Layer_1" xmlns="http://www.w3.org/2000/svg" xmlns:xlink="http://www.w3.org/1999/xlink" x="0px" y="0px"
	 width="132.304px" height="118.348px" viewBox="0 0 132.304 118.348" enable-background="new 0 0 132.304 118.348"
	 xml:space="preserve">
<g>
	<path opacity="0.8" fill="#F15C2F" d="M79.675,11.446c-4.835,0-21.725,0-26.561,0c-21.553,0-39.026,17.472-39.026,39.026
		s17.472,39.026,39.026,39.026c4.835,0,21.725,0,26.561,0c21.553,0,39.026-17.472,39.026-39.026S101.228,11.446,79.675,11.446z"/>
	<linearGradient id="SVGID_1_" gradientUnits="userSpaceOnUse" x1="66.3944" y1="105.5746" x2="66.3944" y2="89.4972">
		<stop  offset="0.0284" style="stop-color:#F15C2F;stop-opacity:0"/>
		<stop  offset="1" style="stop-color:#F15C2F"/>
	</linearGradient>
	<path opacity="0.8" fill="url(#SVGID_1_)" d="M111.233,105.575c-7.096-9.741-18.584-16.077-31.558-16.077
		c-4.835,0-21.725,0-26.561,0c-12.974,0-24.462,6.336-31.558,16.077H111.233z"/>
	<g>
		<path fill="#FFFFFF" d="M32.281,32.015h-0.055l-3.631,1.599l-0.813-3.767l5.311-2.277h4.093v17.617h-4.906V32.015z"/>
		<path fill="#FFFFFF" d="M50.361,45.512c-5.285,0-7.399-4.309-7.399-9.134c0-4.797,2.114-9.133,7.427-9.133
			s7.427,4.336,7.427,9.133c0,4.825-2.114,9.134-7.427,9.134H50.361z M50.416,41.826c1.382,0,2.303-1.707,2.303-5.448
			c0-3.74-0.921-5.421-2.33-5.421s-2.33,1.681-2.33,5.421c0,3.741,0.921,5.448,2.33,5.448H50.416z"/>
		<path fill="#FFFFFF" d="M67.06,45.512c-5.285,0-7.399-4.309-7.399-9.134c0-4.797,2.114-9.133,7.427-9.133s7.427,4.336,7.427,9.133
			c0,4.825-2.114,9.134-7.427,9.134H67.06z M67.114,41.826c1.382,0,2.303-1.707,2.303-5.448c0-3.74-0.921-5.421-2.33-5.421
			c-1.409,0-2.33,1.681-2.33,5.421c0,3.741,0.921,5.448,2.33,5.448H67.114z"/>
		<path fill="#FFFFFF" d="M81.996,27.245c3.387,0,5.528,2.086,5.528,5.204c0,3.631-2.764,5.691-5.719,5.691
			c-2.927,0-5.556-1.843-5.556-5.34c0-3.089,2.168-5.556,5.719-5.556H81.996z M81.887,30.009c-1.301,0-1.761,1.382-1.761,2.71
			c0,1.409,0.596,2.656,1.816,2.656c1.111,0,1.707-1.002,1.707-2.683c0-1.437-0.487-2.683-1.735-2.683H81.887z M82.592,45.512
			l10.163-18.213h2.656L85.249,45.512H82.592z M96.279,34.617c3.387,0,5.529,2.086,5.529,5.204c0,3.631-2.765,5.691-5.719,5.691
			c-2.928,0-5.556-1.843-5.556-5.34c0-3.089,2.168-5.556,5.719-5.556H96.279z M96.171,37.381c-1.301,0-1.762,1.382-1.762,2.71
			c0,1.409,0.597,2.656,1.816,2.656c1.111,0,1.707-1.002,1.707-2.683c0-1.437-0.487-2.683-1.735-2.683H96.171z"/>
		<path fill="#FFFFFF" d="M51.785,52.285v1.741h1.355v1.392h-1.355v2.199c0,0.734,0.174,1.069,0.746,1.069
			c0.236,0,0.423-0.025,0.559-0.05l0.012,1.43c-0.249,0.1-0.696,0.161-1.231,0.161c-0.609,0-1.118-0.211-1.417-0.522
			c-0.348-0.36-0.522-0.945-0.522-1.802v-2.486h-0.808v-1.392h0.808v-1.318L51.785,52.285z"/>
		<path fill="#FFFFFF" d="M55.626,57.668c0.062,0.783,0.833,1.156,1.715,1.156c0.647,0,1.168-0.087,1.678-0.248l0.249,1.28
			c-0.622,0.249-1.381,0.373-2.2,0.373c-2.064,0-3.245-1.193-3.245-3.095c0-1.541,0.957-3.245,3.071-3.245
			c1.964,0,2.71,1.529,2.71,3.033c0,0.323-0.037,0.609-0.062,0.746H55.626z M57.852,56.375c0-0.46-0.199-1.231-1.069-1.231
			c-0.796,0-1.118,0.721-1.168,1.231H57.852z"/>
		<path fill="#FFFFFF" d="M65.297,59.955c-0.335,0.149-0.969,0.273-1.69,0.273c-1.964,0-3.22-1.193-3.22-3.107
			c0-1.777,1.218-3.232,3.48-3.232c0.498,0,1.044,0.087,1.442,0.236l-0.298,1.405c-0.224-0.099-0.559-0.186-1.057-0.186
			c-0.994,0-1.641,0.708-1.629,1.703c0,1.119,0.746,1.703,1.666,1.703c0.448,0,0.796-0.075,1.081-0.186L65.297,59.955z"/>
		<path fill="#FFFFFF" d="M66.341,51.278h1.89v3.468h0.025c0.199-0.261,0.447-0.46,0.746-0.622c0.273-0.149,0.634-0.236,0.982-0.236
			c1.206,0,2.125,0.833,2.125,2.66v3.555H70.22V56.76c0-0.796-0.274-1.342-0.982-1.342c-0.498,0-0.808,0.323-0.945,0.658
			c-0.049,0.125-0.062,0.286-0.062,0.423v3.605h-1.89V51.278z"/>
		<path fill="#FFFFFF" d="M73.626,55.965c0-0.758-0.025-1.405-0.05-1.939h1.641l0.087,0.832h0.037
			c0.248-0.385,0.87-0.969,1.877-0.969c1.243,0,2.175,0.821,2.175,2.61v3.605h-1.889v-3.369c0-0.783-0.274-1.317-0.957-1.317
			c-0.523,0-0.833,0.36-0.958,0.708c-0.049,0.112-0.074,0.298-0.074,0.473v3.505h-1.89V55.965z"/>
		<path fill="#FFFFFF" d="M86.915,56.997c0,2.224-1.579,3.244-3.207,3.244c-1.777,0-3.145-1.168-3.145-3.132
			c0-1.964,1.292-3.22,3.245-3.22C85.671,53.889,86.915,55.169,86.915,56.997z M82.514,57.058c0,1.044,0.435,1.827,1.243,1.827
			c0.733,0,1.206-0.733,1.206-1.827c0-0.907-0.348-1.827-1.206-1.827C82.85,55.231,82.514,56.164,82.514,57.058z"/>
		<path fill="#FFFFFF" d="M88.083,51.278h1.89v8.826h-1.89V51.278z"/>
		<path fill="#FFFFFF" d="M97.506,56.997c0,2.224-1.579,3.244-3.207,3.244c-1.777,0-3.145-1.168-3.145-3.132
			c0-1.964,1.292-3.22,3.245-3.22C96.262,53.889,97.506,55.169,97.506,56.997z M93.105,57.058c0,1.044,0.435,1.827,1.243,1.827
			c0.733,0,1.206-0.733,1.206-1.827c0-0.907-0.348-1.827-1.206-1.827C93.44,55.231,93.105,56.164,93.105,57.058z"/>
		<path fill="#FFFFFF" d="M104.516,54.026c-0.025,0.385-0.05,0.895-0.05,1.802v3.393c0,1.169-0.236,2.126-0.92,2.735
			c-0.672,0.572-1.579,0.746-2.474,0.746c-0.796,0-1.64-0.161-2.188-0.473l0.373-1.43c0.385,0.224,1.057,0.46,1.766,0.46
			c0.895,0,1.579-0.484,1.579-1.604v-0.398h-0.025c-0.36,0.51-0.945,0.796-1.641,0.796c-1.504,0-2.573-1.218-2.573-2.971
			c0-1.951,1.268-3.195,2.759-3.195c0.833,0,1.355,0.36,1.666,0.858h0.025l0.062-0.721H104.516z M102.578,56.499
			c0-0.124-0.012-0.249-0.037-0.348c-0.136-0.498-0.498-0.833-1.019-0.833c-0.684,0-1.243,0.622-1.243,1.728
			c0,0.908,0.448,1.616,1.243,1.616c0.485,0,0.87-0.323,0.994-0.771c0.05-0.136,0.062-0.335,0.062-0.497V56.499z"/>
		<path fill="#FFFFFF" d="M107.4,54.026l0.907,2.983c0.1,0.36,0.224,0.808,0.299,1.131h0.037c0.087-0.323,0.186-0.783,0.273-1.131
			l0.746-2.983h2.026l-1.417,4.002c-0.87,2.412-1.455,3.381-2.139,3.99c-0.658,0.572-1.355,0.771-1.827,0.833l-0.398-1.604
			c0.236-0.037,0.534-0.149,0.82-0.323c0.286-0.149,0.597-0.448,0.783-0.758c0.062-0.087,0.1-0.186,0.1-0.274
			c0-0.062-0.012-0.161-0.087-0.31l-2.224-5.556H107.4z"/>
		<path fill="#FFFFFF" d="M40.815,75.021l-0.112-0.609h-0.037c-0.398,0.485-1.019,0.746-1.741,0.746
			c-1.23,0-1.964-0.895-1.964-1.864c0-1.579,1.417-2.337,3.567-2.325v-0.087c0-0.324-0.174-0.783-1.106-0.783
			c-0.622,0-1.281,0.211-1.678,0.459l-0.348-1.217c0.423-0.236,1.256-0.535,2.362-0.535c2.026,0,2.673,1.193,2.673,2.623v2.113
			c0,0.584,0.025,1.144,0.087,1.48H40.815z M40.591,72.15c-0.994-0.012-1.765,0.224-1.765,0.958c0,0.484,0.323,0.721,0.746,0.721
			c0.473,0,0.858-0.31,0.982-0.696c0.025-0.1,0.037-0.211,0.037-0.324V72.15z"/>
		<path fill="#FFFFFF" d="M49.728,68.943c-0.025,0.385-0.05,0.895-0.05,1.802v3.393c0,1.169-0.236,2.126-0.92,2.735
			c-0.672,0.572-1.579,0.746-2.474,0.746c-0.796,0-1.64-0.161-2.188-0.473l0.373-1.43c0.386,0.224,1.057,0.46,1.766,0.46
			c0.895,0,1.579-0.484,1.579-1.604v-0.398h-0.025c-0.36,0.51-0.945,0.796-1.641,0.796c-1.504,0-2.573-1.218-2.573-2.971
			c0-1.951,1.268-3.195,2.759-3.195c0.833,0,1.355,0.36,1.666,0.858h0.025l0.062-0.721H49.728z M47.789,71.416
			c0-0.124-0.012-0.249-0.037-0.348c-0.136-0.498-0.498-0.833-1.019-0.833c-0.683,0-1.243,0.622-1.243,1.728
			c0,0.908,0.448,1.616,1.243,1.616c0.485,0,0.87-0.323,0.994-0.771c0.05-0.136,0.062-0.335,0.062-0.497V71.416z"/>
		<path fill="#FFFFFF" d="M51.195,70.882c0-0.758-0.025-1.405-0.05-1.939h1.641l0.087,0.832h0.037
			c0.248-0.385,0.87-0.969,1.877-0.969c1.243,0,2.175,0.821,2.175,2.61v3.605h-1.889v-3.369c0-0.783-0.274-1.317-0.957-1.317
			c-0.523,0-0.833,0.36-0.958,0.708c-0.049,0.112-0.074,0.298-0.074,0.473v3.505h-1.89V70.882z"/>
		<path fill="#FFFFFF" d="M64.483,71.914c0,2.224-1.579,3.244-3.207,3.244c-1.777,0-3.145-1.168-3.145-3.132
			c0-1.964,1.292-3.22,3.245-3.22C63.24,68.806,64.483,70.087,64.483,71.914z M60.083,71.976c0,1.044,0.435,1.827,1.243,1.827
			c0.733,0,1.206-0.733,1.206-1.827c0-0.907-0.348-1.827-1.206-1.827C60.418,70.148,60.083,71.081,60.083,71.976z"/>
		<path fill="#FFFFFF" d="M65.639,73.368c0.348,0.211,1.069,0.46,1.629,0.46c0.572,0,0.808-0.199,0.808-0.509
			c0-0.311-0.186-0.46-0.895-0.696c-1.255-0.423-1.74-1.106-1.728-1.827c0-1.131,0.969-1.989,2.474-1.989
			c0.708,0,1.342,0.161,1.715,0.349l-0.335,1.305c-0.274-0.149-0.796-0.348-1.318-0.348c-0.459,0-0.721,0.186-0.721,0.497
			c0,0.286,0.236,0.435,0.982,0.696c1.156,0.398,1.641,0.982,1.653,1.877c0,1.132-0.895,1.964-2.635,1.964
			c-0.796,0-1.504-0.174-1.964-0.422L65.639,73.368z"/>
		<path fill="#FFFFFF" d="M73.16,67.202v1.741h1.355v1.392H73.16v2.199c0,0.734,0.174,1.069,0.746,1.069
			c0.236,0,0.423-0.025,0.559-0.05l0.012,1.43c-0.249,0.1-0.696,0.161-1.231,0.161c-0.609,0-1.118-0.211-1.417-0.522
			c-0.348-0.36-0.522-0.945-0.522-1.802v-2.486H70.5v-1.392h0.808v-1.318L73.16,67.202z"/>
		<path fill="#FFFFFF" d="M77.56,67.252c0,0.522-0.398,0.945-1.019,0.945c-0.597,0-0.995-0.423-0.983-0.945
			c-0.012-0.547,0.385-0.957,0.994-0.957S77.548,66.706,77.56,67.252z M75.609,75.021v-6.078h1.89v6.078H75.609z"/>
		<path fill="#FFFFFF" d="M83.577,74.872c-0.335,0.149-0.969,0.273-1.69,0.273c-1.964,0-3.22-1.193-3.22-3.107
			c0-1.777,1.218-3.232,3.48-3.232c0.498,0,1.044,0.087,1.442,0.236l-0.298,1.405c-0.224-0.099-0.56-0.186-1.057-0.186
			c-0.994,0-1.641,0.708-1.629,1.703c0,1.119,0.746,1.703,1.666,1.703c0.448,0,0.796-0.075,1.081-0.186L83.577,74.872z"/>
	</g>
</g>
</svg>
