<?xml version="1.0" encoding="utf-8"?>
<!-- Generator: Adobe Illustrator 17.0.0, SVG Export Plug-In . SVG Version: 6.00 Build 0)  -->
<!DOCTYPE svg PUBLIC "-//W3C//DTD SVG 1.1//EN" "http://www.w3.org/Graphics/SVG/1.1/DTD/svg11.dtd">
<svg version="1.1" id="Layer_1" xmlns="http://www.w3.org/2000/svg" xmlns:xlink="http://www.w3.org/1999/xlink" x="0px" y="0px"
	 width="114.043px" height="107.913px" viewBox="0 0 114.043 107.913" enable-background="new 0 0 114.043 107.913"
	 xml:space="preserve">
<g>
	<path opacity="0.8" fill="#F15C2F" d="M67.406,9.597c-4.379,0-19.676,0-24.055,0c-19.52,0-35.344,15.824-35.344,35.344
		s15.824,35.344,35.344,35.344c4.379,0,19.676,0,24.055,0c19.52,0,35.344-15.824,35.344-35.344S86.927,9.597,67.406,9.597z"/>
	<linearGradient id="SVGID_1_" gradientUnits="userSpaceOnUse" x1="55.3789" y1="94.8467" x2="55.3789" y2="80.286">
		<stop  offset="0.0284" style="stop-color:#F15C2F;stop-opacity:0"/>
		<stop  offset="1" style="stop-color:#F15C2F"/>
	</linearGradient>
	<path opacity="0.8" fill="url(#SVGID_1_)" d="M95.988,94.847c-6.426-8.822-16.831-14.561-28.581-14.561c-4.379,0-19.676,0-24.055,0
		c-11.75,0-22.155,5.739-28.581,14.561H95.988z"/>
	<g>
		<path fill="#FFFFFF" d="M31.603,14.791c0.858-0.138,1.976-0.215,3.156-0.215c1.961,0,3.232,0.352,4.228,1.103
			c1.072,0.796,1.746,2.068,1.746,3.891c0,1.976-0.72,3.34-1.716,4.182c-1.087,0.904-2.742,1.333-4.764,1.333
			c-1.21,0-2.068-0.077-2.65-0.153V14.791z M33.946,23.217c0.199,0.046,0.521,0.046,0.812,0.046
			c2.114,0.016,3.493-1.149,3.493-3.615c0.015-2.145-1.241-3.278-3.248-3.278c-0.521,0-0.858,0.046-1.057,0.092V23.217z"/>
		<path fill="#FFFFFF" d="M44.657,15.404c0,0.644-0.49,1.165-1.256,1.165c-0.735,0-1.226-0.521-1.21-1.165
			c-0.015-0.674,0.475-1.18,1.226-1.18C44.167,14.224,44.642,14.73,44.657,15.404z M42.252,24.979v-7.491h2.329v7.491H42.252z"/>
		<path fill="#FFFFFF" d="M53.604,17.487c-0.03,0.475-0.061,1.103-0.061,2.221v4.182c0,1.44-0.291,2.62-1.134,3.37
			c-0.827,0.705-1.945,0.92-3.048,0.92c-0.98,0-2.022-0.199-2.696-0.582l0.459-1.762c0.475,0.275,1.303,0.567,2.176,0.567
			c1.103,0,1.945-0.598,1.945-1.976v-0.49h-0.03c-0.444,0.628-1.164,0.98-2.022,0.98c-1.854,0-3.171-1.501-3.171-3.661
			c0-2.405,1.562-3.937,3.4-3.937c1.026,0,1.67,0.444,2.053,1.057h0.031l0.076-0.889H53.604z M51.215,20.536
			c0-0.153-0.016-0.307-0.046-0.429C51,19.494,50.556,19.08,49.912,19.08c-0.842,0-1.531,0.766-1.531,2.13
			c0,1.118,0.551,1.991,1.531,1.991c0.598,0,1.072-0.398,1.226-0.949c0.061-0.169,0.077-0.414,0.077-0.613V20.536z"/>
		<path fill="#FFFFFF" d="M57.82,15.404c0,0.644-0.49,1.165-1.257,1.165c-0.735,0-1.225-0.521-1.21-1.165
			c-0.015-0.674,0.475-1.18,1.226-1.18C57.33,14.224,57.804,14.73,57.82,15.404z M55.415,24.979v-7.491h2.328v7.491H55.415z"/>
		<path fill="#FFFFFF" d="M62.217,15.343v2.145h1.67v1.716h-1.67v2.712c0,0.903,0.214,1.317,0.919,1.317
			c0.291,0,0.521-0.031,0.689-0.061l0.016,1.762c-0.307,0.122-0.858,0.199-1.517,0.199c-0.751,0-1.379-0.261-1.747-0.644
			c-0.429-0.444-0.644-1.164-0.644-2.222v-3.064h-0.995v-1.716h0.995v-1.624L62.217,15.343z"/>
		<path fill="#FFFFFF" d="M69.495,24.979l-0.138-0.751h-0.046c-0.49,0.598-1.257,0.92-2.145,0.92c-1.517,0-2.421-1.103-2.421-2.299
			c0-1.945,1.746-2.88,4.396-2.864v-0.107c0-0.398-0.214-0.965-1.363-0.965c-0.766,0-1.578,0.26-2.068,0.567l-0.429-1.501
			c0.521-0.291,1.547-0.659,2.911-0.659c2.497,0,3.293,1.471,3.293,3.232v2.604c0,0.72,0.031,1.409,0.107,1.823H69.495z
			 M69.219,21.44c-1.226-0.015-2.176,0.276-2.176,1.18c0,0.598,0.398,0.889,0.919,0.889c0.582,0,1.057-0.383,1.211-0.858
			c0.03-0.122,0.046-0.26,0.046-0.398V21.44z"/>
		<path fill="#FFFFFF" d="M73.327,14.102h2.328v10.877h-2.328V14.102z"/>
		<path fill="#FFFFFF" d="M45.77,29.898c0.368-0.074,1.113-0.129,1.811-0.129c0.855,0,1.379,0.083,1.83,0.35
			c0.432,0.23,0.745,0.653,0.745,1.214c0,0.552-0.321,1.067-1.02,1.324v0.018c0.708,0.194,1.232,0.727,1.232,1.526
			c0,0.561-0.258,1.002-0.644,1.315c-0.451,0.359-1.204,0.561-2.436,0.561c-0.69,0-1.204-0.046-1.517-0.092V29.898z M47.158,32.27
			h0.46c0.735,0,1.131-0.304,1.131-0.764c0-0.468-0.359-0.717-0.993-0.717c-0.303,0-0.478,0.018-0.598,0.037V32.27z M47.158,35.018
			c0.138,0.018,0.304,0.018,0.542,0.018c0.634,0,1.195-0.239,1.195-0.891c0-0.625-0.561-0.874-1.259-0.874h-0.478V35.018z"/>
		<path fill="#FFFFFF" d="M51.277,32.996c0-0.662-0.018-1.094-0.037-1.481h1.204l0.046,0.828h0.037
			c0.23-0.653,0.781-0.929,1.214-0.929c0.129,0,0.193,0,0.295,0.018v1.315c-0.102-0.018-0.221-0.037-0.377-0.037
			c-0.515,0-0.864,0.276-0.956,0.708c-0.018,0.092-0.028,0.202-0.028,0.312v2.28h-1.397V32.996z"/>
		<path fill="#FFFFFF" d="M59.137,33.713c0,1.646-1.167,2.4-2.372,2.4c-1.315,0-2.325-0.864-2.325-2.317
			c0-1.452,0.956-2.381,2.4-2.381C58.218,31.414,59.137,32.362,59.137,33.713z M55.883,33.759c0,0.772,0.322,1.351,0.92,1.351
			c0.542,0,0.891-0.542,0.891-1.351c0-0.671-0.257-1.351-0.891-1.351C56.131,32.407,55.883,33.097,55.883,33.759z"/>
		<path fill="#FFFFFF" d="M62.557,36.011l-0.083-0.451h-0.028c-0.294,0.359-0.754,0.552-1.287,0.552
			c-0.911,0-1.453-0.662-1.453-1.379c0-1.168,1.048-1.728,2.639-1.719V32.95c0-0.239-0.129-0.579-0.818-0.579
			c-0.46,0-0.947,0.156-1.242,0.34l-0.257-0.901c0.313-0.174,0.929-0.396,1.747-0.396c1.499,0,1.976,0.883,1.976,1.94v1.563
			c0,0.432,0.018,0.846,0.064,1.094H62.557z M62.392,33.887c-0.735-0.009-1.305,0.166-1.305,0.708c0,0.358,0.239,0.533,0.552,0.533
			c0.349,0,0.634-0.23,0.726-0.514c0.018-0.073,0.028-0.157,0.028-0.239V33.887z"/>
		<path fill="#FFFFFF" d="M69.214,29.484v5.185c0,0.506,0.018,1.038,0.037,1.342h-1.241l-0.064-0.662h-0.018
			c-0.285,0.506-0.827,0.763-1.406,0.763c-1.067,0-1.921-0.91-1.921-2.308c-0.01-1.517,0.937-2.39,2.013-2.39
			c0.552,0,0.984,0.194,1.186,0.506h0.018v-2.436H69.214z M67.816,33.419c0-0.074-0.009-0.175-0.018-0.249
			c-0.083-0.376-0.386-0.689-0.818-0.689c-0.635,0-0.966,0.57-0.966,1.278c0,0.763,0.377,1.241,0.956,1.241
			c0.404,0,0.726-0.275,0.809-0.671c0.028-0.101,0.037-0.202,0.037-0.321V33.419z"/>
		<path fill="#FFFFFF" d="M73.71,35.901c-0.249,0.11-0.718,0.202-1.25,0.202c-1.453,0-2.381-0.882-2.381-2.299
			c0-1.315,0.901-2.39,2.574-2.39c0.368,0,0.772,0.064,1.067,0.174l-0.221,1.039c-0.165-0.073-0.413-0.138-0.781-0.138
			c-0.735,0-1.214,0.524-1.204,1.259c0,0.828,0.552,1.259,1.232,1.259c0.331,0,0.588-0.055,0.8-0.138L73.71,35.901z"/>
		<path fill="#FFFFFF" d="M77.074,36.011l-0.083-0.451h-0.028c-0.294,0.359-0.754,0.552-1.287,0.552
			c-0.911,0-1.453-0.662-1.453-1.379c0-1.168,1.048-1.728,2.639-1.719V32.95c0-0.239-0.129-0.579-0.818-0.579
			c-0.46,0-0.947,0.156-1.242,0.34l-0.257-0.901c0.313-0.174,0.929-0.396,1.747-0.396c1.499,0,1.976,0.883,1.976,1.94v1.563
			c0,0.432,0.018,0.846,0.064,1.094H77.074z M76.909,33.887c-0.735-0.009-1.305,0.166-1.305,0.708c0,0.358,0.239,0.533,0.552,0.533
			c0.349,0,0.634-0.23,0.726-0.514c0.018-0.073,0.028-0.157,0.028-0.239V33.887z"/>
		<path fill="#FFFFFF" d="M79.364,34.789c0.257,0.156,0.79,0.34,1.204,0.34c0.423,0,0.598-0.147,0.598-0.376
			c0-0.23-0.138-0.34-0.662-0.515c-0.929-0.313-1.287-0.818-1.278-1.351c0-0.837,0.717-1.471,1.829-1.471
			c0.524,0,0.993,0.119,1.269,0.258l-0.248,0.965c-0.203-0.11-0.588-0.257-0.975-0.257c-0.34,0-0.533,0.138-0.533,0.367
			c0,0.212,0.174,0.322,0.726,0.515c0.855,0.295,1.214,0.727,1.223,1.389c0,0.836-0.662,1.452-1.949,1.452
			c-0.588,0-1.113-0.129-1.452-0.312L79.364,34.789z"/>
		<path fill="#FFFFFF" d="M84.926,30.228v1.287h1.002v1.03h-1.002v1.627c0,0.542,0.129,0.79,0.552,0.79
			c0.174,0,0.312-0.018,0.413-0.037l0.009,1.057c-0.184,0.073-0.515,0.119-0.91,0.119c-0.451,0-0.828-0.156-1.048-0.386
			c-0.257-0.267-0.386-0.699-0.386-1.334v-1.839h-0.598v-1.03h0.598v-0.974L84.926,30.228z"/>
		<path fill="#FFFFFF" d="M27.727,38.34c0.864-0.147,2.078-0.257,3.788-0.257c1.728,0,2.96,0.331,3.788,0.992
			c0.791,0.626,1.324,1.655,1.324,2.869c0,1.214-0.404,2.243-1.14,2.942c-0.956,0.901-2.372,1.306-4.027,1.306
			c-0.368,0-0.699-0.018-0.956-0.056v4.432h-2.777V38.34z M30.504,43.967c0.239,0.055,0.533,0.073,0.938,0.073
			c1.489,0,2.409-0.754,2.409-2.023c0-1.139-0.791-1.82-2.188-1.82c-0.57,0-0.956,0.055-1.158,0.111V43.967z"/>
		<path fill="#FFFFFF" d="M38.153,44.537c0-1.324-0.037-2.188-0.073-2.96h2.409l0.092,1.655h0.073
			c0.46-1.306,1.563-1.858,2.427-1.858c0.257,0,0.386,0,0.588,0.037v2.63c-0.202-0.037-0.441-0.073-0.754-0.073
			c-1.03,0-1.728,0.552-1.912,1.416c-0.037,0.184-0.055,0.405-0.055,0.625v4.56h-2.795V44.537z"/>
		<path fill="#FFFFFF" d="M47.144,46.964c0.092,1.158,1.232,1.71,2.537,1.71c0.956,0,1.728-0.129,2.483-0.368l0.367,1.894
			c-0.919,0.368-2.041,0.552-3.254,0.552c-3.053,0-4.799-1.765-4.799-4.578c0-2.28,1.416-4.8,4.542-4.8
			c2.905,0,4.009,2.262,4.009,4.487c0,0.478-0.055,0.901-0.092,1.103H47.144z M50.436,45.052c0-0.681-0.295-1.82-1.582-1.82
			c-1.177,0-1.655,1.066-1.728,1.82H50.436z"/>
		<path fill="#FFFFFF" d="M54.684,48.123c0.515,0.312,1.582,0.68,2.409,0.68c0.846,0,1.195-0.295,1.195-0.754
			c0-0.46-0.275-0.68-1.324-1.03c-1.857-0.625-2.575-1.637-2.556-2.703c0-1.673,1.435-2.942,3.66-2.942
			c1.048,0,1.986,0.239,2.537,0.515l-0.497,1.931c-0.405-0.221-1.177-0.515-1.949-0.515c-0.68,0-1.067,0.275-1.067,0.735
			c0,0.423,0.35,0.644,1.452,1.03c1.71,0.588,2.428,1.452,2.446,2.776c0,1.673-1.324,2.905-3.898,2.905
			c-1.177,0-2.225-0.257-2.905-0.625L54.684,48.123z"/>
		<path fill="#FFFFFF" d="M62.664,48.123c0.515,0.312,1.582,0.68,2.409,0.68c0.846,0,1.195-0.295,1.195-0.754
			c0-0.46-0.275-0.68-1.324-1.03c-1.857-0.625-2.575-1.637-2.556-2.703c0-1.673,1.435-2.942,3.66-2.942
			c1.048,0,1.986,0.239,2.537,0.515l-0.497,1.931c-0.405-0.221-1.177-0.515-1.949-0.515c-0.68,0-1.067,0.275-1.067,0.735
			c0,0.423,0.35,0.644,1.452,1.03c1.71,0.588,2.428,1.452,2.446,2.776c0,1.673-1.324,2.905-3.898,2.905
			c-1.177,0-2.225-0.257-2.905-0.625L62.664,48.123z"/>
		<path fill="#FFFFFF" d="M51.099,64.543c-3.401,0-5.469-2.282-5.469-5.255c0-3.155,2.267-5.438,5.653-5.438
			c3.493,0,5.561,2.252,5.561,5.286c0,3.125-2.19,5.407-5.729,5.407H51.099z M51.252,62.307c1.578,0,2.513-1.317,2.513-3.095
			s-0.98-3.125-2.527-3.125c-1.548,0-2.528,1.348-2.528,3.125s0.98,3.095,2.528,3.095H51.252z"/>
		<path fill="#FFFFFF" d="M63.481,64.543c-3.401,0-5.469-2.282-5.469-5.255c0-3.155,2.267-5.438,5.653-5.438
			c3.493,0,5.561,2.252,5.561,5.286c0,3.125-2.19,5.407-5.729,5.407H63.481z M63.633,62.307c1.578,0,2.513-1.317,2.513-3.095
			s-0.98-3.125-2.527-3.125c-1.548,0-2.528,1.348-2.528,3.125s0.98,3.095,2.528,3.095H63.633z"/>
		<path fill="#FFFFFF" d="M73.686,54.034v3.753h3.891v-3.753h2.895v10.325h-2.895v-4.091h-3.891v4.091H70.79V54.034H73.686z"/>
		<path fill="#FFFFFF" d="M32.844,68.206c0.432-0.074,1.039-0.129,1.894-0.129c0.864,0,1.48,0.166,1.894,0.497
			c0.395,0.313,0.662,0.828,0.662,1.435s-0.202,1.122-0.57,1.471c-0.478,0.451-1.186,0.653-2.014,0.653
			c-0.184,0-0.349-0.009-0.478-0.028v2.216h-1.388V68.206z M34.232,71.018c0.119,0.028,0.267,0.037,0.469,0.037
			c0.745,0,1.204-0.376,1.204-1.011c0-0.57-0.395-0.911-1.094-0.911c-0.285,0-0.478,0.028-0.579,0.055V71.018z"/>
		<path fill="#FFFFFF" d="M40.53,74.319l-0.083-0.451h-0.028c-0.294,0.359-0.754,0.552-1.287,0.552c-0.91,0-1.453-0.662-1.453-1.379
			c0-1.168,1.048-1.728,2.639-1.719v-0.064c0-0.239-0.129-0.579-0.818-0.579c-0.459,0-0.947,0.156-1.241,0.34l-0.257-0.901
			c0.313-0.174,0.929-0.396,1.747-0.396c1.499,0,1.977,0.883,1.977,1.94v1.563c0,0.432,0.018,0.846,0.064,1.094H40.53z
			 M40.364,72.195c-0.735-0.009-1.305,0.166-1.305,0.708c0,0.358,0.239,0.533,0.551,0.533c0.35,0,0.635-0.23,0.727-0.514
			c0.018-0.073,0.028-0.157,0.028-0.239V72.195z"/>
		<path fill="#FFFFFF" d="M46.202,74.209c-0.248,0.11-0.717,0.202-1.25,0.202c-1.453,0-2.381-0.882-2.381-2.299
			c0-1.315,0.901-2.39,2.574-2.39c0.368,0,0.772,0.064,1.066,0.174l-0.22,1.039c-0.165-0.073-0.414-0.138-0.782-0.138
			c-0.736,0-1.214,0.524-1.204,1.259c0,0.828,0.552,1.259,1.232,1.259c0.331,0,0.589-0.055,0.8-0.138L46.202,74.209z"/>
		<path fill="#FFFFFF" d="M48.372,71.718h0.018c0.102-0.184,0.212-0.368,0.322-0.542l0.91-1.352h1.683l-1.608,1.82l1.839,2.676
			h-1.719l-1.085-1.848l-0.359,0.441v1.406h-1.397v-6.528h1.397V71.718z"/>
		<path fill="#FFFFFF" d="M54.559,74.319l-0.083-0.451h-0.028c-0.294,0.359-0.754,0.552-1.287,0.552
			c-0.911,0-1.453-0.662-1.453-1.379c0-1.168,1.048-1.728,2.639-1.719v-0.064c0-0.239-0.129-0.579-0.818-0.579
			c-0.46,0-0.947,0.156-1.242,0.34l-0.257-0.901c0.313-0.174,0.929-0.396,1.747-0.396c1.499,0,1.976,0.883,1.976,1.94v1.563
			c0,0.432,0.018,0.846,0.064,1.094H54.559z M54.394,72.195c-0.735-0.009-1.305,0.166-1.305,0.708c0,0.358,0.239,0.533,0.552,0.533
			c0.349,0,0.634-0.23,0.726-0.514c0.018-0.073,0.028-0.157,0.028-0.239V72.195z"/>
		<path fill="#FFFFFF" d="M61.151,69.823c-0.018,0.285-0.037,0.662-0.037,1.334v2.51c0,0.864-0.174,1.572-0.68,2.022
			c-0.497,0.423-1.168,0.552-1.83,0.552c-0.588,0-1.214-0.119-1.618-0.349l0.276-1.057c0.285,0.165,0.781,0.34,1.305,0.34
			c0.662,0,1.168-0.358,1.168-1.186v-0.294h-0.018c-0.267,0.377-0.699,0.588-1.214,0.588c-1.113,0-1.903-0.901-1.903-2.198
			c0-1.443,0.937-2.363,2.041-2.363c0.616,0,1.002,0.267,1.232,0.634h0.018l0.046-0.533H61.151z M59.717,71.653
			c0-0.092-0.009-0.184-0.028-0.257c-0.101-0.368-0.368-0.616-0.754-0.616c-0.505,0-0.919,0.46-0.919,1.278
			c0,0.671,0.331,1.195,0.919,1.195c0.359,0,0.644-0.239,0.736-0.57c0.037-0.101,0.046-0.248,0.046-0.367V71.653z"/>
		<path fill="#FFFFFF" d="M63.679,68.573c0,0.386-0.294,0.699-0.754,0.699c-0.441,0-0.735-0.312-0.726-0.699
			c-0.009-0.404,0.285-0.708,0.735-0.708S63.67,68.169,63.679,68.573z M62.236,74.319v-4.496h1.397v4.496H62.236z"/>
		<path fill="#FFFFFF" d="M64.755,71.258c0-0.561-0.018-1.039-0.037-1.435h1.214l0.064,0.616h0.028
			c0.184-0.285,0.644-0.717,1.388-0.717c0.92,0,1.609,0.607,1.609,1.931v2.667h-1.397v-2.491c0-0.579-0.203-0.975-0.708-0.975
			c-0.386,0-0.616,0.267-0.708,0.524c-0.037,0.083-0.055,0.22-0.055,0.35v2.592h-1.397V71.258z"/>
		<path fill="#FFFFFF" d="M74.437,69.823c-0.018,0.285-0.037,0.662-0.037,1.334v2.51c0,0.864-0.174,1.572-0.68,2.022
			c-0.497,0.423-1.168,0.552-1.829,0.552c-0.588,0-1.214-0.119-1.618-0.349l0.276-1.057c0.285,0.165,0.781,0.34,1.305,0.34
			c0.662,0,1.168-0.358,1.168-1.186v-0.294h-0.018c-0.267,0.377-0.699,0.588-1.214,0.588c-1.113,0-1.903-0.901-1.903-2.198
			c0-1.443,0.937-2.363,2.041-2.363c0.616,0,1.002,0.267,1.232,0.634h0.018l0.046-0.533H74.437z M73.003,71.653
			c0-0.092-0.009-0.184-0.028-0.257c-0.101-0.368-0.368-0.616-0.754-0.616c-0.505,0-0.919,0.46-0.919,1.278
			c0,0.671,0.331,1.195,0.919,1.195c0.359,0,0.644-0.239,0.736-0.57c0.037-0.101,0.046-0.248,0.046-0.367V71.653z"/>
	</g>
</g>
</svg>
