<?xml version="1.0" encoding="utf-8"?>
<!-- Generator: Adobe Illustrator 17.0.0, SVG Export Plug-In . SVG Version: 6.00 Build 0)  -->
<!DOCTYPE svg PUBLIC "-//W3C//DTD SVG 1.1//EN" "http://www.w3.org/Graphics/SVG/1.1/DTD/svg11.dtd">
<svg version="1.1" id="Layer_1" xmlns="http://www.w3.org/2000/svg" xmlns:xlink="http://www.w3.org/1999/xlink" x="0px" y="0px"
	 width="132.304px" height="117.478px" viewBox="0 0 132.304 117.478" enable-background="new 0 0 132.304 117.478"
	 xml:space="preserve">
<g>
	<path opacity="0.8" fill="#ED228A" d="M77.69,9.994c-4.835,0-21.725,0-26.561,0c-21.553,0-39.026,17.472-39.026,39.026
		s17.472,39.026,39.026,39.026c4.835,0,21.725,0,26.561,0c21.553,0,39.026-17.472,39.026-39.026S99.243,9.994,77.69,9.994z"/>
	<linearGradient id="SVGID_1_" gradientUnits="userSpaceOnUse" x1="64.4093" y1="104.1225" x2="64.4093" y2="88.0451">
		<stop  offset="0.0284" style="stop-color:#ED228A;stop-opacity:0"/>
		<stop  offset="1" style="stop-color:#ED228A"/>
	</linearGradient>
	<path opacity="0.8" fill="url(#SVGID_1_)" d="M109.248,104.122c-7.096-9.741-18.584-16.077-31.558-16.077
		c-4.835,0-21.725,0-26.561,0c-12.974,0-24.462,6.336-31.558,16.077H109.248z"/>
	<g>
		<path fill="#FFFFFF" d="M53.886,22.264c-0.697-0.041-1.437,0-2.422,0.082c-5.541,0.451-8.004,3.284-8.701,6.403h0.123
			c1.313-1.354,3.16-2.135,5.664-2.135c4.475,0,8.25,3.161,8.25,8.702c0,5.295-4.063,9.646-9.851,9.646
			c-7.101,0-10.59-5.295-10.59-11.657c0-5.007,1.847-9.194,4.721-11.862c2.668-2.421,6.115-3.734,10.302-3.94
			c1.149-0.082,1.889-0.082,2.504-0.041V22.264z M50.48,35.645c0-2.463-1.313-4.597-3.981-4.597c-1.684,0-3.079,1.026-3.694,2.381
			c-0.164,0.328-0.246,0.82-0.246,1.56c0.123,2.832,1.478,5.377,4.31,5.377C49.085,40.366,50.48,38.354,50.48,35.645z"/>
		<path fill="#FFFFFF" d="M59.96,27.969c0-2.216,1.519-3.775,3.693-3.775c2.176,0,3.612,1.519,3.653,3.775
			c0,2.135-1.478,3.735-3.694,3.735C61.478,31.704,59.96,30.104,59.96,27.969z M59.96,41.227c0-2.175,1.519-3.775,3.693-3.775
			c2.176,0,3.612,1.56,3.653,3.775c0,2.135-1.478,3.735-3.694,3.735C61.478,44.962,59.96,43.362,59.96,41.227z"/>
		<path fill="#FFFFFF" d="M78.265,23.372h-0.082l-5.09,2.422l-1.025-4.68l7.06-3.283h5.172v26.68h-6.034V23.372z"/>
		<path fill="#FFFFFF" d="M34.324,51.289c0.62-0.102,1.545-0.178,2.571-0.178c1.266,0,2.152,0.19,2.761,0.672
			c0.507,0.405,0.785,1,0.785,1.785c0,1.089-0.772,1.837-1.507,2.103v0.038c0.595,0.24,0.924,0.811,1.14,1.596
			c0.266,0.963,0.531,2.077,0.696,2.406h-1.976c-0.14-0.24-0.342-0.938-0.596-1.988c-0.228-1.063-0.595-1.355-1.38-1.368h-0.583
			v3.356h-1.912V51.289z M36.236,54.962h0.76c0.963,0,1.533-0.481,1.533-1.229c0-0.785-0.532-1.178-1.419-1.19
			c-0.469,0-0.734,0.038-0.874,0.063V54.962z"/>
		<path fill="#FFFFFF" d="M49.599,55.355c0,2.799-1.697,4.496-4.192,4.496c-2.533,0-4.015-1.913-4.015-4.345
			c0-2.558,1.634-4.471,4.154-4.471C48.168,51.035,49.599,52.999,49.599,55.355z M43.431,55.468c0,1.672,0.785,2.85,2.077,2.85
			c1.305,0,2.052-1.241,2.052-2.899c0-1.533-0.734-2.85-2.064-2.85C44.191,52.569,43.431,53.81,43.431,55.468z"/>
		<path fill="#FFFFFF" d="M52.804,51.175v8.536h-1.938v-8.536H52.804z"/>
		<path fill="#FFFFFF" d="M63.09,56.545c0,2.267-1.608,3.306-3.268,3.306c-1.811,0-3.204-1.19-3.204-3.191
			c0-2.002,1.317-3.28,3.306-3.28C61.823,53.379,63.09,54.683,63.09,56.545z M58.606,56.609c0,1.063,0.443,1.861,1.267,1.861
			c0.747,0,1.229-0.747,1.229-1.861c0-0.925-0.354-1.862-1.229-1.862C58.948,54.746,58.606,55.697,58.606,56.609z"/>
		<path fill="#FFFFFF" d="M64.281,55.493c0-0.772-0.025-1.431-0.051-1.976h1.672l0.089,0.849h0.038
			c0.253-0.393,0.887-0.987,1.912-0.987c1.267,0,2.217,0.836,2.217,2.659v3.673h-1.926v-3.433c0-0.798-0.278-1.342-0.975-1.342
			c-0.532,0-0.849,0.367-0.976,0.722c-0.051,0.114-0.076,0.304-0.076,0.481v3.571h-1.925V55.493z"/>
		<path fill="#FFFFFF" d="M80.38,56.545c0,2.267-1.608,3.306-3.268,3.306c-1.811,0-3.204-1.19-3.204-3.191
			c0-2.002,1.317-3.28,3.306-3.28C79.113,53.379,80.38,54.683,80.38,56.545z M75.896,56.609c0,1.063,0.443,1.861,1.267,1.861
			c0.747,0,1.229-0.747,1.229-1.861c0-0.925-0.354-1.862-1.229-1.862C76.238,54.746,75.896,55.697,75.896,56.609z"/>
		<path fill="#FFFFFF" d="M87.41,57.723c0,0.811,0.025,1.469,0.051,1.988h-1.672L85.7,58.837h-0.038
			c-0.24,0.38-0.823,1.014-1.938,1.014c-1.254,0-2.179-0.785-2.179-2.698v-3.635h1.938v3.331c0,0.899,0.292,1.444,0.963,1.444
			c0.532,0,0.836-0.368,0.963-0.672c0.05-0.114,0.062-0.266,0.062-0.418v-3.686h1.938V57.723z"/>
		<path fill="#FFFFFF" d="M88.956,55.557c0-0.912-0.025-1.507-0.051-2.039h1.659l0.063,1.14h0.051
			c0.316-0.898,1.076-1.278,1.672-1.278c0.177,0,0.266,0,0.405,0.025v1.811c-0.14-0.025-0.305-0.051-0.52-0.051
			c-0.709,0-1.19,0.38-1.317,0.976c-0.025,0.126-0.038,0.278-0.038,0.431v3.141h-1.925V55.557z"/>
		<path fill="#FFFFFF" d="M41.418,73.228c0.354,0.216,1.089,0.469,1.659,0.469c0.583,0,0.823-0.202,0.823-0.52
			c0-0.316-0.19-0.469-0.912-0.709c-1.279-0.431-1.772-1.127-1.76-1.861c0-1.153,0.987-2.026,2.52-2.026
			c0.723,0,1.368,0.164,1.748,0.354l-0.342,1.329c-0.278-0.151-0.811-0.354-1.343-0.354c-0.469,0-0.734,0.19-0.734,0.507
			c0,0.291,0.24,0.443,1.001,0.709c1.178,0.405,1.671,1.001,1.684,1.913c0,1.152-0.911,2.001-2.685,2.001
			c-0.811,0-1.532-0.178-2.001-0.431L41.418,73.228z"/>
		<path fill="#FFFFFF" d="M48.409,72.43c0.063,0.798,0.849,1.178,1.748,1.178c0.659,0,1.19-0.089,1.71-0.253l0.253,1.305
			c-0.633,0.253-1.405,0.38-2.241,0.38c-2.103,0-3.306-1.216-3.306-3.154c0-1.57,0.976-3.305,3.128-3.305
			c2.001,0,2.761,1.558,2.761,3.09c0,0.329-0.037,0.62-0.062,0.76H48.409z M50.676,71.113c0-0.468-0.203-1.254-1.089-1.254
			c-0.811,0-1.141,0.735-1.191,1.254H50.676z"/>
		<path fill="#FFFFFF" d="M53.616,70.758c0-0.912-0.025-1.507-0.051-2.039h1.659l0.063,1.14h0.051
			c0.316-0.898,1.076-1.278,1.672-1.278c0.177,0,0.266,0,0.405,0.025v1.811c-0.14-0.025-0.305-0.051-0.52-0.051
			c-0.709,0-1.19,0.38-1.317,0.976c-0.025,0.126-0.038,0.278-0.038,0.431v3.141h-1.925V70.758z"/>
		<path fill="#FFFFFF" d="M60.089,68.719l0.835,2.875c0.152,0.52,0.267,1.014,0.355,1.507h0.038
			c0.101-0.506,0.202-0.975,0.342-1.507l0.798-2.875h2.026l-2.306,6.193h-1.925l-2.254-6.193H60.089z"/>
		<path fill="#FFFFFF" d="M67.359,66.997c0,0.531-0.405,0.962-1.038,0.962c-0.608,0-1.014-0.431-1.001-0.962
			c-0.013-0.558,0.393-0.976,1.014-0.976C66.954,66.022,67.346,66.44,67.359,66.997z M65.371,74.912v-6.193h1.925v6.193H65.371z"/>
		<path fill="#FFFFFF" d="M73.49,74.76c-0.343,0.152-0.988,0.279-1.723,0.279c-2.001,0-3.28-1.216-3.28-3.166
			c0-1.812,1.241-3.293,3.546-3.293c0.507,0,1.064,0.088,1.47,0.24l-0.305,1.432c-0.228-0.102-0.569-0.19-1.076-0.19
			c-1.013,0-1.672,0.722-1.659,1.735c0,1.14,0.76,1.734,1.697,1.734c0.456,0,0.811-0.075,1.102-0.189L73.49,74.76z"/>
		<path fill="#FFFFFF" d="M75.896,72.43c0.063,0.798,0.849,1.178,1.748,1.178c0.658,0,1.19-0.089,1.71-0.253l0.253,1.305
			c-0.633,0.253-1.405,0.38-2.241,0.38c-2.103,0-3.306-1.216-3.306-3.154c0-1.57,0.976-3.305,3.128-3.305
			c2.001,0,2.761,1.558,2.761,3.09c0,0.329-0.037,0.62-0.062,0.76H75.896z M78.164,71.113c0-0.468-0.203-1.254-1.089-1.254
			c-0.811,0-1.141,0.735-1.191,1.254H78.164z"/>
		<path fill="#FFFFFF" d="M81.091,73.228c0.354,0.216,1.089,0.469,1.659,0.469c0.583,0,0.823-0.202,0.823-0.52
			c0-0.316-0.19-0.469-0.912-0.709c-1.279-0.431-1.772-1.127-1.76-1.861c0-1.153,0.987-2.026,2.52-2.026
			c0.723,0,1.368,0.164,1.748,0.354l-0.342,1.329c-0.278-0.151-0.811-0.354-1.343-0.354c-0.469,0-0.734,0.19-0.734,0.507
			c0,0.291,0.24,0.443,1.001,0.709c1.178,0.405,1.671,1.001,1.684,1.913c0,1.152-0.911,2.001-2.685,2.001
			c-0.811,0-1.532-0.178-2.001-0.431L81.091,73.228z"/>
	</g>
</g>
</svg>
