<?xml version="1.0" encoding="utf-8"?>
<!-- Generator: Adobe Illustrator 17.0.0, SVG Export Plug-In . SVG Version: 6.00 Build 0)  -->
<!DOCTYPE svg PUBLIC "-//W3C//DTD SVG 1.1//EN" "http://www.w3.org/Graphics/SVG/1.1/DTD/svg11.dtd">
<svg version="1.1" id="Layer_1" xmlns="http://www.w3.org/2000/svg" xmlns:xlink="http://www.w3.org/1999/xlink" x="0px" y="0px"
	 width="173.174px" height="123.565px" viewBox="0 0 173.174 123.565" enable-background="new 0 0 173.174 123.565"
	 xml:space="preserve">
<g>
	<path opacity="0.8" fill="#ED228A" d="M121.712,12.397c-5.055,0-64.466,0-69.521,0c-22.534,0-40.801,18.267-40.801,40.801
		s18.267,40.801,40.801,40.801c5.055,0,64.466,0,69.521,0c22.534,0,40.801-18.267,40.801-40.801S144.246,12.397,121.712,12.397z"/>
	<g>
		<path fill="#FFFFFF" d="M20.911,42.738c0.496,0.257,1.635,0.735,2.774,0.735c1.451,0,2.186-0.698,2.186-1.598
			c0-1.176-1.176-1.709-2.406-1.709h-1.139v-2.002h1.084c0.937-0.019,2.132-0.368,2.132-1.378c0-0.717-0.588-1.249-1.764-1.249
			c-0.974,0-2.003,0.422-2.498,0.716l-0.57-2.021c0.717-0.459,2.149-0.9,3.693-0.9c2.554,0,3.969,1.341,3.969,2.976
			c0,1.268-0.717,2.26-2.187,2.774v0.037c1.434,0.258,2.591,1.341,2.591,2.903c0,2.113-1.855,3.656-4.887,3.656
			c-1.544,0-2.847-0.404-3.546-0.846L20.911,42.738z"/>
		<path fill="#FFFFFF" d="M38.584,35.83h-4.63l-0.257,1.837c0.257-0.037,0.478-0.037,0.771-0.037c1.139,0,2.297,0.258,3.142,0.864
			c0.9,0.607,1.451,1.598,1.451,2.995c0,2.223-1.911,4.189-5.126,4.189c-1.451,0-2.664-0.331-3.325-0.68l0.496-2.094
			c0.532,0.257,1.617,0.588,2.701,0.588c1.157,0,2.388-0.551,2.388-1.819c0-1.231-0.974-1.984-3.362-1.984
			c-0.661,0-1.121,0.037-1.617,0.11l0.79-6.265h6.577V35.83z"/>
		<path fill="#FFFFFF" d="M49.625,39.45c0,3.693-1.488,6.228-4.539,6.228c-3.086,0-4.446-2.774-4.464-6.155
			c0-3.454,1.47-6.191,4.557-6.191C48.375,33.332,49.625,36.179,49.625,39.45z M43.433,39.523c-0.019,2.737,0.643,4.042,1.726,4.042
			c1.085,0,1.672-1.36,1.672-4.079c0-2.646-0.57-4.042-1.69-4.042C44.112,35.444,43.414,36.749,43.433,39.523z"/>
		<path fill="#FFFFFF" d="M50.265,47.662c0.569-1.635,1.066-3.545,1.323-5.218l2.847-0.183c-0.606,1.874-1.433,3.803-2.315,5.236
			L50.265,47.662z"/>
		<path fill="#FFFFFF" d="M64.596,39.45c0,3.693-1.488,6.228-4.539,6.228c-3.086,0-4.446-2.774-4.464-6.155
			c0-3.454,1.47-6.191,4.557-6.191C63.346,33.332,64.596,36.179,64.596,39.45z M58.404,39.523c-0.019,2.737,0.643,4.042,1.726,4.042
			c1.085,0,1.672-1.36,1.672-4.079c0-2.646-0.57-4.042-1.69-4.042C59.083,35.444,58.385,36.749,58.404,39.523z"/>
		<path fill="#FFFFFF" d="M74.791,39.45c0,3.693-1.488,6.228-4.539,6.228c-3.086,0-4.446-2.774-4.464-6.155
			c0-3.454,1.47-6.191,4.557-6.191C73.541,33.332,74.791,36.179,74.791,39.45z M68.599,39.523c-0.019,2.737,0.643,4.042,1.726,4.042
			c1.085,0,1.672-1.36,1.672-4.079c0-2.646-0.57-4.042-1.69-4.042C69.279,35.444,68.581,36.749,68.599,39.523z"/>
		<path fill="#FFFFFF" d="M84.985,39.45c0,3.693-1.488,6.228-4.538,6.228c-3.086,0-4.446-2.774-4.464-6.155
			c0-3.454,1.469-6.191,4.557-6.191C83.736,33.332,84.985,36.179,84.985,39.45z M78.794,39.523
			c-0.018,2.737,0.643,4.042,1.727,4.042c1.084,0,1.672-1.36,1.672-4.079c0-2.646-0.569-4.042-1.69-4.042
			C79.474,35.444,78.776,36.749,78.794,39.523z"/>
		<path fill="#FFFFFF" d="M29.935,49.571h1.268v5.925h-1.268V49.571z"/>
		<path fill="#FFFFFF" d="M33.541,50.28c0,0.35-0.267,0.634-0.684,0.634c-0.4,0-0.668-0.284-0.659-0.634
			c-0.009-0.368,0.258-0.643,0.667-0.643C33.275,49.637,33.533,49.912,33.541,50.28z M32.232,55.496v-4.081H33.5v4.081H32.232z"/>
		<path fill="#FFFFFF" d="M35.462,51.414l0.55,1.895c0.1,0.342,0.175,0.667,0.234,0.992h0.024c0.067-0.334,0.134-0.643,0.226-0.992
			l0.525-1.895h1.336l-1.519,4.081h-1.268l-1.486-4.081H35.462z"/>
		<path fill="#FFFFFF" d="M39.796,53.86c0.042,0.526,0.559,0.776,1.151,0.776c0.435,0,0.784-0.059,1.127-0.167l0.167,0.859
			c-0.417,0.167-0.926,0.25-1.478,0.25c-1.385,0-2.178-0.801-2.178-2.078c0-1.035,0.643-2.178,2.061-2.178
			c1.319,0,1.819,1.027,1.819,2.036c0,0.217-0.025,0.409-0.042,0.501H39.796z M41.289,52.992c0-0.309-0.134-0.827-0.718-0.827
			c-0.534,0-0.751,0.484-0.784,0.827H41.289z"/>
		<path fill="#FFFFFF" d="M47.235,55.496l-0.075-0.409h-0.025c-0.267,0.325-0.684,0.501-1.168,0.501
			c-0.827,0-1.319-0.601-1.319-1.252c0-1.059,0.951-1.569,2.395-1.56v-0.059c0-0.217-0.117-0.526-0.743-0.526
			c-0.417,0-0.859,0.142-1.127,0.309l-0.233-0.818c0.284-0.159,0.842-0.359,1.585-0.359c1.36,0,1.795,0.801,1.795,1.76v1.419
			c0,0.392,0.016,0.768,0.058,0.993H47.235z M47.085,53.568c-0.668-0.008-1.185,0.15-1.185,0.643c0,0.325,0.217,0.484,0.501,0.484
			c0.317,0,0.576-0.208,0.659-0.467c0.017-0.066,0.025-0.142,0.025-0.217V53.568z"/>
		<path fill="#FFFFFF" d="M49.315,54.386c0.234,0.142,0.718,0.308,1.093,0.308c0.384,0,0.542-0.133,0.542-0.342
			s-0.125-0.309-0.601-0.467c-0.842-0.284-1.168-0.743-1.16-1.227c0-0.759,0.651-1.335,1.66-1.335c0.476,0,0.902,0.108,1.152,0.233
			l-0.226,0.877c-0.183-0.1-0.534-0.234-0.884-0.234c-0.309,0-0.484,0.126-0.484,0.334c0,0.192,0.158,0.292,0.66,0.467
			c0.775,0.267,1.101,0.659,1.11,1.26c0,0.76-0.601,1.319-1.769,1.319c-0.534,0-1.009-0.117-1.319-0.284L49.315,54.386z"/>
		<path fill="#FFFFFF" d="M52.938,54.386c0.234,0.142,0.718,0.308,1.093,0.308c0.384,0,0.542-0.133,0.542-0.342
			s-0.125-0.309-0.601-0.467c-0.842-0.284-1.168-0.743-1.16-1.227c0-0.759,0.651-1.335,1.66-1.335c0.476,0,0.902,0.108,1.152,0.233
			L55.4,52.433c-0.183-0.1-0.534-0.234-0.884-0.234c-0.309,0-0.484,0.126-0.484,0.334c0,0.192,0.158,0.292,0.66,0.467
			c0.775,0.267,1.101,0.659,1.11,1.26c0,0.76-0.601,1.319-1.769,1.319c-0.534,0-1.009-0.117-1.319-0.284L52.938,54.386z"/>
		<path fill="#FFFFFF" d="M57.547,53.86c0.042,0.526,0.559,0.776,1.151,0.776c0.435,0,0.784-0.059,1.127-0.167l0.167,0.859
			c-0.417,0.167-0.926,0.25-1.478,0.25c-1.385,0-2.178-0.801-2.178-2.078c0-1.035,0.643-2.178,2.061-2.178
			c1.319,0,1.819,1.027,1.819,2.036c0,0.217-0.025,0.409-0.042,0.501H57.547z M59.041,52.992c0-0.309-0.134-0.827-0.718-0.827
			c-0.534,0-0.751,0.484-0.784,0.827H59.041z"/>
		<path fill="#FFFFFF" d="M62.398,50.247v1.168h0.91v0.935h-0.91v1.477c0,0.493,0.117,0.718,0.501,0.718
			c0.159,0,0.284-0.016,0.376-0.033l0.008,0.96c-0.166,0.067-0.467,0.108-0.826,0.108c-0.409,0-0.751-0.142-0.952-0.35
			c-0.233-0.242-0.351-0.634-0.351-1.21V52.35h-0.542v-0.935h0.542v-0.884L62.398,50.247z"/>
		<path fill="#FFFFFF" d="M64.035,54.386c0.234,0.142,0.718,0.308,1.093,0.308c0.384,0,0.542-0.133,0.542-0.342
			s-0.125-0.309-0.601-0.467c-0.842-0.284-1.168-0.743-1.16-1.227c0-0.759,0.651-1.335,1.66-1.335c0.476,0,0.902,0.108,1.152,0.233
			l-0.226,0.877c-0.183-0.1-0.534-0.234-0.884-0.234c-0.309,0-0.484,0.126-0.484,0.334c0,0.192,0.158,0.292,0.66,0.467
			c0.775,0.267,1.101,0.659,1.11,1.26c0,0.76-0.601,1.319-1.769,1.319c-0.534,0-1.009-0.117-1.319-0.284L64.035,54.386z"/>
	</g>
	<g>
		<path fill="#FFFFFF" d="M73.37,68.484h-4.63l-0.258,1.837c0.258-0.037,0.478-0.037,0.772-0.037c1.139,0,2.296,0.258,3.141,0.864
			c0.901,0.607,1.451,1.598,1.451,2.995c0,2.223-1.911,4.189-5.126,4.189c-1.451,0-2.664-0.331-3.325-0.68l0.496-2.094
			c0.533,0.257,1.617,0.588,2.701,0.588c1.157,0,2.388-0.551,2.388-1.819c0-1.231-0.974-1.984-3.363-1.984
			c-0.661,0-1.12,0.037-1.616,0.11l0.789-6.265h6.578V68.484z"/>
		<path fill="#FFFFFF" d="M74.857,80.316c0.569-1.635,1.066-3.545,1.323-5.218l2.847-0.183c-0.606,1.874-1.433,3.803-2.315,5.236
			L74.857,80.316z"/>
		<path fill="#FFFFFF" d="M89.186,72.104c0,3.693-1.488,6.228-4.538,6.228c-3.086,0-4.446-2.774-4.464-6.155
			c0-3.454,1.469-6.191,4.557-6.191C87.937,65.986,89.186,68.833,89.186,72.104z M82.995,72.177
			c-0.018,2.737,0.643,4.042,1.727,4.042c1.084,0,1.672-1.36,1.672-4.079c0-2.646-0.569-4.042-1.69-4.042
			C83.675,68.099,82.977,69.403,82.995,72.177z"/>
		<path fill="#FFFFFF" d="M99.381,72.104c0,3.693-1.488,6.228-4.538,6.228c-3.086,0-4.446-2.774-4.464-6.155
			c0-3.454,1.469-6.191,4.557-6.191C98.132,65.986,99.381,68.833,99.381,72.104z M93.19,72.177
			c-0.018,2.737,0.643,4.042,1.727,4.042c1.084,0,1.672-1.36,1.672-4.079c0-2.646-0.569-4.042-1.69-4.042
			C93.87,68.099,93.172,69.403,93.19,72.177z"/>
		<path fill="#FFFFFF" d="M109.577,72.104c0,3.693-1.488,6.228-4.538,6.228c-3.086,0-4.446-2.774-4.464-6.155
			c0-3.454,1.469-6.191,4.557-6.191C108.327,65.986,109.577,68.833,109.577,72.104z M103.385,72.177
			c-0.018,2.737,0.643,4.042,1.727,4.042c1.084,0,1.672-1.36,1.672-4.079c0-2.646-0.569-4.042-1.69-4.042
			C104.065,68.099,103.367,69.403,103.385,72.177z"/>
		<path fill="#FFFFFF" d="M74.903,88.15l-0.075-0.409h-0.025c-0.267,0.325-0.684,0.501-1.168,0.501
			c-0.827,0-1.319-0.601-1.319-1.252c0-1.059,0.951-1.569,2.395-1.56v-0.059c0-0.217-0.117-0.526-0.743-0.526
			c-0.417,0-0.859,0.142-1.127,0.309l-0.233-0.818c0.284-0.159,0.842-0.359,1.585-0.359c1.36,0,1.795,0.801,1.795,1.76v1.419
			c0,0.392,0.016,0.768,0.058,0.993H74.903z M74.753,86.222c-0.668-0.008-1.185,0.15-1.185,0.643c0,0.325,0.217,0.484,0.501,0.484
			c0.317,0,0.576-0.208,0.659-0.467c0.017-0.066,0.025-0.142,0.025-0.217V86.222z"/>
		<path fill="#FFFFFF" d="M80.889,84.069c-0.016,0.259-0.033,0.601-0.033,1.21v2.278c0,0.784-0.158,1.427-0.617,1.836
			c-0.451,0.384-1.06,0.501-1.661,0.501c-0.534,0-1.102-0.108-1.469-0.317l0.25-0.96c0.258,0.15,0.709,0.309,1.185,0.309
			c0.601,0,1.06-0.325,1.06-1.076v-0.267h-0.017c-0.241,0.342-0.634,0.534-1.101,0.534c-1.01,0-1.728-0.818-1.728-1.995
			c0-1.31,0.851-2.145,1.853-2.145c0.559,0,0.91,0.242,1.118,0.576h0.017l0.042-0.484H80.889z M79.587,85.73
			c0-0.083-0.008-0.167-0.024-0.234c-0.092-0.334-0.334-0.559-0.684-0.559c-0.459,0-0.835,0.417-0.835,1.16
			c0,0.609,0.301,1.085,0.835,1.085c0.325,0,0.584-0.217,0.667-0.518c0.033-0.091,0.042-0.225,0.042-0.334V85.73z"/>
		<path fill="#FFFFFF" d="M82.853,86.514c0.042,0.526,0.559,0.776,1.152,0.776c0.434,0,0.784-0.059,1.126-0.167l0.167,0.859
			c-0.417,0.167-0.926,0.25-1.477,0.25c-1.385,0-2.179-0.801-2.179-2.078c0-1.035,0.643-2.178,2.061-2.178
			c1.319,0,1.819,1.027,1.819,2.036c0,0.217-0.024,0.409-0.042,0.501H82.853z M84.347,85.647c0-0.309-0.133-0.827-0.718-0.827
			c-0.534,0-0.751,0.484-0.784,0.827H84.347z"/>
		<path fill="#FFFFFF" d="M86.286,85.371c0-0.509-0.016-0.943-0.033-1.302h1.102l0.059,0.559h0.024
			c0.167-0.258,0.585-0.651,1.261-0.651c0.834,0,1.46,0.55,1.46,1.752v2.42h-1.269v-2.262c0-0.525-0.183-0.884-0.643-0.884
			c-0.351,0-0.559,0.241-0.643,0.475c-0.033,0.075-0.05,0.201-0.05,0.317v2.353h-1.269V85.371z"/>
		<path fill="#FFFFFF" d="M94.242,88.05c-0.226,0.1-0.652,0.183-1.135,0.183c-1.319,0-2.162-0.801-2.162-2.086
			c0-1.194,0.818-2.17,2.337-2.17c0.334,0,0.7,0.058,0.968,0.158l-0.201,0.943c-0.15-0.067-0.375-0.126-0.709-0.126
			c-0.667,0-1.102,0.476-1.093,1.143c0,0.751,0.501,1.143,1.118,1.143c0.3,0,0.534-0.05,0.726-0.125L94.242,88.05z"/>
		<path fill="#FFFFFF" d="M96.254,82.934c0,0.35-0.267,0.634-0.684,0.634c-0.4,0-0.668-0.284-0.659-0.634
			c-0.009-0.368,0.258-0.643,0.667-0.643C95.988,82.291,96.246,82.567,96.254,82.934z M94.945,88.15v-4.081h1.268v4.081H94.945z"/>
		<path fill="#FFFFFF" d="M98.208,86.514c0.042,0.526,0.559,0.776,1.152,0.776c0.434,0,0.784-0.059,1.126-0.167l0.167,0.859
			c-0.417,0.167-0.926,0.25-1.477,0.25c-1.385,0-2.179-0.801-2.179-2.078c0-1.035,0.643-2.178,2.061-2.178
			c1.319,0,1.819,1.027,1.819,2.036c0,0.217-0.024,0.409-0.042,0.501H98.208z M99.702,85.647c0-0.309-0.133-0.827-0.718-0.827
			c-0.534,0-0.751,0.484-0.784,0.827H99.702z"/>
		<path fill="#FFFFFF" d="M101.633,87.04c0.233,0.142,0.718,0.308,1.093,0.308c0.383,0,0.542-0.133,0.542-0.342
			s-0.126-0.309-0.601-0.467c-0.843-0.284-1.168-0.743-1.16-1.227c0-0.759,0.652-1.335,1.661-1.335c0.475,0,0.901,0.108,1.151,0.233
			l-0.225,0.877c-0.183-0.1-0.534-0.234-0.885-0.234c-0.309,0-0.484,0.126-0.484,0.334c0,0.192,0.158,0.292,0.659,0.467
			c0.776,0.267,1.102,0.659,1.11,1.26c0,0.76-0.601,1.319-1.769,1.319c-0.534,0-1.01-0.117-1.319-0.284L101.633,87.04z"/>
	</g>
	<g>
		<path fill="#FFFFFF" d="M106.551,53.197V50.35h-5.291V48.53l4.52-7.275h3.417v7h1.433v2.095h-1.433v2.847H106.551z
			 M106.551,48.255v-2.645c0-0.717,0.037-1.451,0.092-2.224h-0.073c-0.387,0.772-0.698,1.47-1.102,2.224l-1.598,2.609v0.037H106.551
			z"/>
		<path fill="#FFFFFF" d="M120.622,47.171c0,3.693-1.487,6.228-4.538,6.228c-3.086,0-4.446-2.774-4.464-6.155
			c0-3.454,1.469-6.191,4.557-6.191C119.373,41.053,120.622,43.9,120.622,47.171z M114.432,47.244
			c-0.02,2.737,0.643,4.042,1.726,4.042c1.084,0,1.672-1.36,1.672-4.079c0-2.646-0.57-4.042-1.691-4.042
			C115.111,43.166,114.412,44.47,114.432,47.244z"/>
		<path fill="#FFFFFF" d="M121.263,55.383c0.57-1.635,1.067-3.545,1.323-5.218l2.847-0.183c-0.606,1.874-1.433,3.803-2.315,5.236
			L121.263,55.383z"/>
		<path fill="#FFFFFF" d="M135.593,47.171c0,3.693-1.487,6.228-4.538,6.228c-3.086,0-4.446-2.774-4.464-6.155
			c0-3.454,1.469-6.191,4.557-6.191C134.344,41.053,135.593,43.9,135.593,47.171z M129.403,47.244
			c-0.02,2.737,0.643,4.042,1.726,4.042s1.672-1.36,1.672-4.079c0-2.646-0.57-4.042-1.691-4.042
			C130.082,43.166,129.383,44.47,129.403,47.244z"/>
		<path fill="#FFFFFF" d="M145.789,47.171c0,3.693-1.489,6.228-4.539,6.228c-3.086,0-4.446-2.774-4.464-6.155
			c0-3.454,1.47-6.191,4.556-6.191C144.539,41.053,145.789,43.9,145.789,47.171z M139.597,47.244
			c-0.018,2.737,0.643,4.042,1.727,4.042c1.085,0,1.672-1.36,1.672-4.079c0-2.646-0.569-4.042-1.69-4.042
			C140.277,43.166,139.579,44.47,139.597,47.244z"/>
		<path fill="#FFFFFF" d="M155.984,47.171c0,3.693-1.488,6.228-4.539,6.228c-3.086,0-4.446-2.774-4.464-6.155
			c0-3.454,1.469-6.191,4.557-6.191C154.734,41.053,155.984,43.9,155.984,47.171z M149.792,47.244
			c-0.019,2.737,0.643,4.042,1.726,4.042c1.085,0,1.672-1.36,1.672-4.079c0-2.646-0.57-4.042-1.69-4.042
			C150.471,43.166,149.773,44.47,149.792,47.244z"/>
		<path fill="#FFFFFF" d="M134.082,61.071c0,0.534,0.016,0.968,0.033,1.31h-1.101l-0.059-0.576h-0.025
			c-0.159,0.25-0.542,0.668-1.277,0.668c-0.826,0-1.435-0.518-1.435-1.778v-2.396h1.276v2.195c0,0.593,0.192,0.952,0.634,0.952
			c0.351,0,0.551-0.242,0.634-0.443c0.034-0.075,0.042-0.175,0.042-0.275v-2.429h1.277V61.071z"/>
		<path fill="#FFFFFF" d="M135.093,61.272c0.234,0.142,0.718,0.308,1.093,0.308c0.383,0,0.542-0.133,0.542-0.342
			s-0.125-0.309-0.601-0.467c-0.843-0.284-1.168-0.743-1.16-1.227c0-0.759,0.651-1.335,1.66-1.335c0.476,0,0.902,0.108,1.151,0.233
			l-0.225,0.877c-0.183-0.1-0.534-0.234-0.884-0.234c-0.31,0-0.484,0.126-0.484,0.334c0,0.192,0.158,0.292,0.659,0.467
			c0.776,0.267,1.102,0.659,1.111,1.26c0,0.76-0.602,1.319-1.769,1.319c-0.534,0-1.009-0.117-1.319-0.284L135.093,61.272z"/>
		<path fill="#FFFFFF" d="M139.701,60.746c0.042,0.526,0.559,0.776,1.152,0.776c0.435,0,0.784-0.059,1.126-0.167l0.168,0.859
			c-0.417,0.167-0.926,0.25-1.478,0.25c-1.385,0-2.179-0.801-2.179-2.078c0-1.035,0.643-2.178,2.061-2.178
			c1.319,0,1.82,1.027,1.82,2.036c0,0.217-0.025,0.409-0.042,0.501H139.701z M141.195,59.878c0-0.309-0.133-0.827-0.718-0.827
			c-0.533,0-0.75,0.484-0.784,0.827H141.195z"/>
		<path fill="#FFFFFF" d="M143.134,59.644c0-0.601-0.016-0.993-0.033-1.344h1.093l0.041,0.751h0.034
			c0.209-0.592,0.709-0.842,1.101-0.842c0.117,0,0.176,0,0.267,0.016v1.194c-0.091-0.017-0.201-0.033-0.342-0.033
			c-0.466,0-0.784,0.25-0.868,0.643c-0.016,0.083-0.024,0.183-0.024,0.284v2.07h-1.269V59.644z"/>
		<path fill="#FFFFFF" d="M146.298,61.272c0.234,0.142,0.718,0.308,1.094,0.308c0.383,0,0.541-0.133,0.541-0.342
			s-0.125-0.309-0.6-0.467c-0.843-0.284-1.169-0.743-1.16-1.227c0-0.759,0.652-1.335,1.661-1.335c0.475,0,0.901,0.108,1.151,0.233
			l-0.225,0.877c-0.184-0.1-0.535-0.234-0.885-0.234c-0.309,0-0.484,0.126-0.484,0.334c0,0.192,0.158,0.292,0.659,0.467
			c0.776,0.267,1.101,0.659,1.11,1.26c0,0.76-0.601,1.319-1.769,1.319c-0.535,0-1.01-0.117-1.319-0.284L146.298,61.272z"/>
	</g>
	<g>
		<path fill="#FFFFFF" d="M62.697,22.747l-1.602-6.75h1.632l0.511,2.785c0.15,0.801,0.29,1.672,0.4,2.353h0.02
			c0.111-0.731,0.271-1.543,0.441-2.374l0.571-2.764h1.622l0.541,2.844c0.15,0.792,0.26,1.513,0.36,2.264h0.02
			c0.1-0.751,0.25-1.542,0.391-2.344l0.551-2.764h1.552l-1.743,6.75h-1.652l-0.571-2.905c-0.13-0.681-0.241-1.311-0.32-2.083h-0.02
			c-0.12,0.761-0.23,1.402-0.391,2.083l-0.641,2.905H62.697z"/>
		<path fill="#FFFFFF" d="M71.205,20.784c0.05,0.631,0.671,0.931,1.382,0.931c0.52,0,0.941-0.07,1.352-0.201l0.2,1.032
			c-0.501,0.201-1.111,0.301-1.773,0.301c-1.662,0-2.613-0.961-2.613-2.494c0-1.242,0.771-2.614,2.473-2.614
			c1.583,0,2.184,1.232,2.184,2.444c0,0.26-0.03,0.491-0.051,0.601H71.205z M72.997,19.743c0-0.371-0.16-0.992-0.861-0.992
			c-0.641,0-0.901,0.581-0.941,0.992H72.997z"/>
		<path fill="#FFFFFF" d="M77.347,19.412c0-0.611-0.02-1.131-0.04-1.562h1.282l0.07,0.661h0.03c0.21-0.311,0.641-0.771,1.482-0.771
			c0.63,0,1.131,0.32,1.341,0.832h0.02c0.18-0.25,0.4-0.451,0.631-0.591c0.27-0.16,0.571-0.241,0.931-0.241
			c0.941,0,1.652,0.661,1.652,2.123v2.884h-1.482v-2.664c0-0.711-0.231-1.121-0.722-1.121c-0.35,0-0.601,0.24-0.7,0.531
			c-0.04,0.11-0.06,0.27-0.06,0.391v2.864h-1.482v-2.744c0-0.621-0.22-1.041-0.7-1.041c-0.391,0-0.621,0.3-0.711,0.55
			c-0.051,0.121-0.06,0.26-0.06,0.381v2.854h-1.482V19.412z"/>
		<path fill="#FFFFFF" d="M88.748,22.747l-0.091-0.491h-0.03c-0.32,0.391-0.821,0.601-1.402,0.601c-0.992,0-1.583-0.721-1.583-1.502
			c0-1.272,1.142-1.883,2.874-1.873v-0.07c0-0.26-0.14-0.63-0.891-0.63c-0.501,0-1.032,0.17-1.352,0.37l-0.281-0.982
			c0.341-0.19,1.012-0.431,1.903-0.431c1.632,0,2.153,0.961,2.153,2.114v1.703c0,0.47,0.02,0.921,0.07,1.191H88.748z M88.568,20.433
			c-0.802-0.01-1.422,0.18-1.422,0.771c0,0.391,0.26,0.581,0.6,0.581c0.381,0,0.691-0.25,0.792-0.561c0.02-0.08,0.03-0.17,0.03-0.26
			V20.433z"/>
		<path fill="#FFFFFF" d="M91.255,19.412c0-0.611-0.02-1.131-0.04-1.562h1.322l0.07,0.671h0.03c0.2-0.31,0.7-0.781,1.512-0.781
			c1.001,0,1.752,0.661,1.752,2.103v2.905H94.38v-2.714c0-0.631-0.221-1.062-0.771-1.062c-0.421,0-0.671,0.29-0.771,0.571
			c-0.04,0.091-0.06,0.241-0.06,0.381v2.824h-1.522V19.412z"/>
		<path fill="#FFFFFF" d="M99.911,22.747l-0.091-0.491h-0.03c-0.32,0.391-0.821,0.601-1.402,0.601c-0.992,0-1.583-0.721-1.583-1.502
			c0-1.272,1.142-1.883,2.874-1.873v-0.07c0-0.26-0.14-0.63-0.891-0.63c-0.501,0-1.032,0.17-1.352,0.37l-0.281-0.982
			c0.341-0.19,1.012-0.431,1.903-0.431c1.632,0,2.153,0.961,2.153,2.114v1.703c0,0.47,0.02,0.921,0.07,1.191H99.911z M99.73,20.433
			c-0.802-0.01-1.422,0.18-1.422,0.771c0,0.391,0.26,0.581,0.6,0.581c0.381,0,0.691-0.25,0.792-0.561c0.02-0.08,0.03-0.17,0.03-0.26
			V20.433z"/>
		<path fill="#FFFFFF" d="M107.094,17.849c-0.02,0.311-0.041,0.722-0.041,1.452v2.734c0,0.941-0.19,1.712-0.74,2.203
			c-0.541,0.461-1.272,0.601-1.993,0.601c-0.641,0-1.322-0.13-1.763-0.381l0.301-1.151c0.31,0.18,0.851,0.37,1.422,0.37
			c0.721,0,1.271-0.391,1.271-1.292v-0.32h-0.02c-0.291,0.41-0.762,0.641-1.322,0.641c-1.212,0-2.073-0.982-2.073-2.393
			c0-1.573,1.021-2.574,2.223-2.574c0.671,0,1.091,0.291,1.341,0.691h0.02l0.05-0.581H107.094z M105.531,19.842
			c0-0.099-0.011-0.2-0.03-0.28c-0.11-0.401-0.4-0.671-0.821-0.671c-0.551,0-1.001,0.501-1.001,1.392
			c0,0.731,0.36,1.301,1.001,1.301c0.391,0,0.7-0.26,0.801-0.621c0.04-0.11,0.051-0.271,0.051-0.4V19.842z"/>
		<path fill="#FFFFFF" d="M109.45,20.784c0.05,0.631,0.671,0.931,1.382,0.931c0.521,0,0.941-0.07,1.352-0.201l0.2,1.032
			c-0.501,0.201-1.111,0.301-1.772,0.301c-1.663,0-2.614-0.961-2.614-2.494c0-1.242,0.771-2.614,2.474-2.614
			c1.582,0,2.183,1.232,2.183,2.444c0,0.26-0.03,0.491-0.05,0.601H109.45z M111.242,19.743c0-0.371-0.16-0.992-0.861-0.992
			c-0.641,0-0.901,0.581-0.941,0.992H111.242z"/>
	</g>
	<linearGradient id="SVGID_1_" gradientUnits="userSpaceOnUse" x1="86.9516" y1="110.8067" x2="86.9516" y2="93.9981">
		<stop  offset="0.0284" style="stop-color:#ED228A;stop-opacity:0"/>
		<stop  offset="1" style="stop-color:#ED228A"/>
	</linearGradient>
	<path opacity="0.8" fill="url(#SVGID_1_)" d="M154.705,110.807c-7.419-10.184-19.429-16.809-32.993-16.809
		c-5.055,0-64.466,0-69.521,0c-13.564,0-25.575,6.624-32.993,16.809H154.705z"/>
</g>
</svg>
