<?xml version="1.0" encoding="utf-8"?>
<!-- Generator: Adobe Illustrator 17.0.0, SVG Export Plug-In . SVG Version: 6.00 Build 0)  -->
<!DOCTYPE svg PUBLIC "-//W3C//DTD SVG 1.1//EN" "http://www.w3.org/Graphics/SVG/1.1/DTD/svg11.dtd">
<svg version="1.1" id="Layer_1" xmlns="http://www.w3.org/2000/svg" xmlns:xlink="http://www.w3.org/1999/xlink" x="0px" y="0px"
	 width="144.478px" height="129.652px" viewBox="0 0 144.478 129.652" enable-background="new 0 0 144.478 129.652"
	 xml:space="preserve">
<g>
	<path opacity="0.8" fill="#652F8F" d="M86.343,8.848c-5.585,0-25.094,0-30.678,0c-24.895,0-45.076,20.181-45.076,45.076
		S30.77,99,55.665,99c5.585,0,25.094,0,30.678,0c24.895,0,45.076-20.181,45.076-45.076S111.238,8.848,86.343,8.848z"/>
	<linearGradient id="SVGID_1_" gradientUnits="userSpaceOnUse" x1="71.0041" y1="117.5698" x2="71.0041" y2="99">
		<stop  offset="0.0284" style="stop-color:#652F8F;stop-opacity:0"/>
		<stop  offset="1" style="stop-color:#652F8F"/>
	</linearGradient>
	<path opacity="0.8" fill="url(#SVGID_1_)" d="M122.794,117.57C114.598,106.319,101.329,99,86.343,99c-5.585,0-25.094,0-30.678,0
		c-14.985,0-28.255,7.319-36.451,18.57H122.794z"/>
	<g>
		<path fill="#FFFFFF" d="M45.709,23.176l-2.389-7.211h1.848l0.907,3.049c0.254,0.856,0.486,1.679,0.663,2.577h0.033
			c0.188-0.866,0.421-1.722,0.675-2.546l0.952-3.081h1.792l-2.512,7.211H45.709z"/>
		<path fill="#FFFFFF" d="M51.764,21.078c0.055,0.675,0.741,0.995,1.527,0.995c0.575,0,1.04-0.075,1.494-0.214l0.221,1.102
			c-0.553,0.214-1.228,0.322-1.958,0.322c-1.837,0-2.888-1.027-2.888-2.664c0-1.327,0.852-2.793,2.733-2.793
			c1.748,0,2.412,1.316,2.412,2.611c0,0.278-0.033,0.524-0.055,0.641H51.764z M53.744,19.967c0-0.396-0.177-1.059-0.951-1.059
			c-0.708,0-0.995,0.621-1.04,1.059H53.744z"/>
		<path fill="#FFFFFF" d="M56.314,19.667c0-0.77-0.022-1.273-0.044-1.722h1.449l0.055,0.963h0.044
			c0.277-0.759,0.941-1.081,1.461-1.081c0.154,0,0.232,0,0.354,0.022v1.53c-0.123-0.021-0.266-0.042-0.454-0.042
			c-0.62,0-1.04,0.321-1.15,0.823c-0.023,0.107-0.033,0.235-0.033,0.364v2.653h-1.682V19.667z"/>
		<path fill="#FFFFFF" d="M60.51,21.753c0.31,0.181,0.951,0.395,1.449,0.395c0.509,0,0.719-0.171,0.719-0.439
			c0-0.268-0.166-0.395-0.796-0.599c-1.118-0.364-1.549-0.952-1.538-1.573c0-0.973,0.863-1.712,2.202-1.712
			c0.631,0,1.195,0.14,1.526,0.3l-0.298,1.123c-0.243-0.129-0.708-0.3-1.173-0.3c-0.409,0-0.641,0.161-0.641,0.428
			c0,0.247,0.21,0.375,0.874,0.599c1.029,0.342,1.46,0.846,1.471,1.615c0,0.974-0.796,1.691-2.345,1.691
			c-0.708,0-1.339-0.15-1.749-0.364L60.51,21.753z"/>
		<path fill="#FFFFFF" d="M67.062,16.489c0,0.45-0.354,0.813-0.907,0.813c-0.531,0-0.885-0.364-0.874-0.813
			c-0.011-0.47,0.343-0.823,0.886-0.823C66.708,15.666,67.051,16.019,67.062,16.489z M65.325,23.176v-5.231h1.682v5.231H65.325z"/>
		<path fill="#FFFFFF" d="M73.702,20.501c0,1.915-1.405,2.793-2.855,2.793c-1.582,0-2.799-1.006-2.799-2.696
			s1.151-2.771,2.888-2.771C72.596,17.826,73.702,18.929,73.702,20.501z M69.785,20.555c0,0.898,0.387,1.572,1.107,1.572
			c0.652,0,1.073-0.631,1.073-1.572c0-0.781-0.31-1.573-1.073-1.573C70.084,18.982,69.785,19.785,69.785,20.555z"/>
		<path fill="#FFFFFF" d="M74.745,19.614c0-0.653-0.022-1.209-0.044-1.669h1.46l0.077,0.717h0.033
			c0.222-0.332,0.775-0.835,1.67-0.835c1.107,0,1.937,0.706,1.937,2.247v3.103h-1.682v-2.899c0-0.674-0.243-1.134-0.852-1.134
			c-0.465,0-0.741,0.311-0.851,0.61c-0.045,0.096-0.067,0.257-0.067,0.406v3.017h-1.682V19.614z"/>
		<path fill="#FFFFFF" d="M82.969,16.489c0,0.45-0.354,0.813-0.907,0.813c-0.531,0-0.885-0.364-0.874-0.813
			c-0.011-0.47,0.343-0.823,0.886-0.823C82.615,15.666,82.958,16.019,82.969,16.489z M81.232,23.176v-5.231h1.682v5.231H81.232z"/>
		<path fill="#FFFFFF" d="M84.265,19.614c0-0.653-0.022-1.209-0.044-1.669h1.46l0.077,0.717h0.033
			c0.222-0.332,0.775-0.835,1.67-0.835c1.107,0,1.937,0.706,1.937,2.247v3.103h-1.682v-2.899c0-0.674-0.243-1.134-0.852-1.134
			c-0.465,0-0.741,0.311-0.851,0.61c-0.045,0.096-0.067,0.257-0.067,0.406v3.017h-1.682V19.614z"/>
		<path fill="#FFFFFF" d="M95.918,17.944c-0.022,0.332-0.044,0.77-0.044,1.551v2.921c0,1.005-0.21,1.83-0.818,2.353
			c-0.598,0.493-1.405,0.642-2.202,0.642c-0.708,0-1.461-0.139-1.948-0.406l0.332-1.231c0.342,0.193,0.94,0.395,1.57,0.395
			c0.797,0,1.405-0.417,1.405-1.38v-0.342h-0.022c-0.322,0.439-0.841,0.685-1.46,0.685c-1.34,0-2.291-1.048-2.291-2.557
			c0-1.679,1.129-2.749,2.457-2.749c0.741,0,1.205,0.311,1.482,0.739h0.023l0.055-0.621H95.918z M94.193,20.073
			c0-0.106-0.012-0.214-0.033-0.299c-0.122-0.428-0.442-0.717-0.907-0.717c-0.609,0-1.106,0.535-1.106,1.487
			c0,0.781,0.398,1.39,1.106,1.39c0.432,0,0.774-0.277,0.885-0.663c0.044-0.117,0.056-0.288,0.056-0.428V20.073z"/>
		<path fill="#FFFFFF" d="M40.571,36.021l-0.099-0.524h-0.033c-0.354,0.417-0.907,0.642-1.549,0.642
			c-1.095,0-1.749-0.77-1.749-1.605c0-1.359,1.261-2.011,3.176-2v-0.075c0-0.278-0.155-0.675-0.985-0.675
			c-0.553,0-1.14,0.182-1.494,0.396l-0.31-1.049c0.377-0.204,1.117-0.459,2.102-0.459c1.804,0,2.379,1.027,2.379,2.257v1.819
			c0,0.503,0.022,0.984,0.077,1.273H40.571z M40.372,33.55c-0.885-0.011-1.571,0.193-1.571,0.823c0,0.417,0.288,0.621,0.664,0.621
			c0.421,0,0.764-0.268,0.874-0.599c0.023-0.086,0.033-0.182,0.033-0.278V33.55z"/>
		<path fill="#FFFFFF" d="M43.34,32.459c0-0.653-0.022-1.209-0.044-1.669h1.46l0.077,0.717h0.033
			c0.222-0.332,0.775-0.834,1.67-0.834c1.107,0,1.937,0.705,1.937,2.246v3.103h-1.682v-2.899c0-0.674-0.243-1.134-0.852-1.134
			c-0.465,0-0.741,0.31-0.851,0.61c-0.045,0.096-0.067,0.257-0.067,0.406v3.017H43.34V32.459z"/>
		<path fill="#FFFFFF" d="M55.071,28.426v6.033c0,0.588,0.023,1.209,0.045,1.562h-1.494l-0.077-0.77h-0.023
			c-0.343,0.588-0.995,0.888-1.693,0.888c-1.284,0-2.313-1.059-2.313-2.685c-0.011-1.765,1.129-2.781,2.423-2.781
			c0.664,0,1.184,0.224,1.427,0.588h0.023v-2.835H55.071z M53.39,33.004c0-0.086-0.012-0.203-0.023-0.288
			c-0.099-0.439-0.465-0.803-0.985-0.803c-0.763,0-1.161,0.663-1.161,1.487c0,0.887,0.453,1.444,1.15,1.444
			c0.486,0,0.874-0.322,0.974-0.781c0.032-0.118,0.044-0.235,0.044-0.375V33.004z"/>
		<path fill="#FFFFFF" d="M61.737,36.021l-0.099-0.524h-0.033c-0.354,0.417-0.907,0.642-1.549,0.642
			c-1.095,0-1.749-0.77-1.749-1.605c0-1.359,1.261-2.011,3.176-2v-0.075c0-0.278-0.155-0.675-0.985-0.675
			c-0.553,0-1.14,0.182-1.494,0.396l-0.31-1.049c0.377-0.204,1.117-0.459,2.102-0.459c1.804,0,2.379,1.027,2.379,2.257v1.819
			c0,0.503,0.022,0.984,0.077,1.273H61.737z M61.538,33.55c-0.885-0.011-1.571,0.193-1.571,0.823c0,0.417,0.288,0.621,0.664,0.621
			c0.421,0,0.764-0.268,0.874-0.599c0.023-0.086,0.033-0.182,0.033-0.278V33.55z"/>
		<path fill="#FFFFFF" d="M69.75,28.426v6.033c0,0.588,0.023,1.209,0.045,1.562h-1.494l-0.077-0.77h-0.023
			c-0.343,0.588-0.995,0.888-1.693,0.888c-1.284,0-2.313-1.059-2.313-2.685c-0.011-1.765,1.129-2.781,2.423-2.781
			c0.664,0,1.184,0.224,1.427,0.588h0.023v-2.835H69.75z M68.069,33.004c0-0.086-0.012-0.203-0.023-0.288
			c-0.099-0.439-0.465-0.803-0.985-0.803c-0.763,0-1.161,0.663-1.161,1.487c0,0.887,0.453,1.444,1.15,1.444
			c0.486,0,0.874-0.322,0.974-0.781c0.032-0.118,0.044-0.235,0.044-0.375V33.004z"/>
		<path fill="#FFFFFF" d="M74.179,36.021l-0.099-0.524h-0.033c-0.354,0.417-0.907,0.642-1.549,0.642
			c-1.095,0-1.749-0.77-1.749-1.605c0-1.359,1.261-2.011,3.176-2v-0.075c0-0.278-0.155-0.675-0.985-0.675
			c-0.553,0-1.14,0.182-1.494,0.396l-0.31-1.049c0.377-0.204,1.117-0.459,2.102-0.459c1.804,0,2.379,1.027,2.379,2.257v1.819
			c0,0.503,0.022,0.984,0.077,1.273H74.179z M73.979,33.55c-0.885-0.011-1.571,0.193-1.571,0.823c0,0.417,0.288,0.621,0.664,0.621
			c0.421,0,0.764-0.268,0.874-0.599c0.023-0.086,0.033-0.182,0.033-0.278V33.55z"/>
		<path fill="#FFFFFF" d="M76.948,32.545c0-0.685-0.022-1.274-0.044-1.755h1.46l0.077,0.728h0.023
			c0.398-0.557,1.018-0.845,1.804-0.845c1.184,0,2.246,0.995,2.246,2.663c0,1.904-1.25,2.803-2.457,2.803
			c-0.652,0-1.161-0.257-1.405-0.599H78.63v2.599h-1.682V32.545z M78.63,33.774c0,0.129,0.011,0.246,0.033,0.342
			c0.111,0.439,0.497,0.77,0.985,0.77c0.73,0,1.161-0.588,1.161-1.476c0-0.835-0.387-1.466-1.14-1.466
			c-0.476,0-0.895,0.342-1.006,0.823c-0.023,0.086-0.033,0.193-0.033,0.289V33.774z"/>
		<path fill="#FFFFFF" d="M85.448,29.292v1.497h1.206v1.198h-1.206v1.894c0,0.632,0.155,0.92,0.664,0.92
			c0.21,0,0.376-0.021,0.498-0.042l0.011,1.23c-0.222,0.086-0.62,0.14-1.095,0.14c-0.542,0-0.995-0.182-1.261-0.45
			c-0.31-0.31-0.465-0.813-0.465-1.551v-2.14h-0.719V30.79H83.8v-1.134L85.448,29.292z"/>
		<path fill="#FFFFFF" d="M89.367,29.335c0,0.45-0.354,0.813-0.907,0.813c-0.531,0-0.885-0.364-0.874-0.813
			c-0.011-0.47,0.343-0.823,0.886-0.823C89.013,28.511,89.356,28.865,89.367,29.335z M87.63,36.021V30.79h1.682v5.231H87.63z"/>
		<path fill="#FFFFFF" d="M90.663,32.459c0-0.653-0.022-1.209-0.044-1.669h1.46l0.077,0.717h0.033
			c0.222-0.332,0.775-0.834,1.67-0.834c1.107,0,1.937,0.705,1.937,2.246v3.103h-1.682v-2.899c0-0.674-0.243-1.134-0.852-1.134
			c-0.465,0-0.741,0.31-0.851,0.61c-0.045,0.096-0.067,0.257-0.067,0.406v3.017h-1.682V32.459z"/>
		<path fill="#FFFFFF" d="M102.316,30.79c-0.022,0.332-0.044,0.77-0.044,1.551v2.921c0,1.005-0.21,1.829-0.818,2.353
			c-0.598,0.493-1.405,0.642-2.202,0.642c-0.708,0-1.461-0.14-1.948-0.406l0.332-1.231c0.342,0.193,0.94,0.395,1.57,0.395
			c0.797,0,1.405-0.417,1.405-1.379v-0.342h-0.022c-0.322,0.438-0.841,0.685-1.46,0.685c-1.34,0-2.291-1.049-2.291-2.558
			c0-1.679,1.129-2.749,2.457-2.749c0.741,0,1.205,0.31,1.482,0.738h0.023l0.055-0.621H102.316z M100.591,32.918
			c0-0.107-0.012-0.214-0.033-0.299c-0.122-0.428-0.442-0.717-0.907-0.717c-0.609,0-1.106,0.535-1.106,1.487
			c0,0.781,0.398,1.391,1.106,1.391c0.432,0,0.774-0.278,0.885-0.664c0.044-0.117,0.056-0.288,0.056-0.428V32.918z"/>
		<path fill="#FFFFFF" d="M40.139,48.738c-0.298,0.128-0.863,0.235-1.504,0.235c-1.748,0-2.866-1.027-2.866-2.675
			c0-1.53,1.085-2.782,3.098-2.782c0.442,0,0.93,0.076,1.284,0.204l-0.266,1.209c-0.199-0.086-0.498-0.16-0.94-0.16
			c-0.885,0-1.46,0.61-1.449,1.466c0,0.963,0.664,1.466,1.483,1.466c0.398,0,0.708-0.065,0.962-0.16L40.139,48.738z"/>
		<path fill="#FFFFFF" d="M46.293,46.192c0,1.915-1.405,2.793-2.855,2.793c-1.582,0-2.799-1.006-2.799-2.696
			s1.151-2.771,2.888-2.771C45.187,43.517,46.293,44.62,46.293,46.192z M42.376,46.246c0,0.898,0.387,1.572,1.107,1.572
			c0.652,0,1.073-0.631,1.073-1.572c0-0.781-0.31-1.573-1.073-1.573C42.675,44.673,42.376,45.476,42.376,46.246z"/>
		<path fill="#FFFFFF" d="M47.336,45.304c0-0.653-0.022-1.209-0.044-1.669h1.46l0.077,0.717h0.033
			c0.222-0.332,0.775-0.835,1.67-0.835c1.107,0,1.937,0.706,1.937,2.247v3.103h-1.682v-2.899c0-0.674-0.243-1.134-0.852-1.134
			c-0.465,0-0.741,0.311-0.851,0.61c-0.045,0.096-0.067,0.257-0.067,0.406v3.017h-1.682V45.304z"/>
		<path fill="#FFFFFF" d="M55.638,42.138v1.497h1.206v1.198h-1.206v1.894c0,0.632,0.155,0.92,0.664,0.92
			c0.21,0,0.376-0.022,0.497-0.042l0.012,1.23c-0.222,0.086-0.62,0.14-1.095,0.14c-0.542,0-0.995-0.182-1.261-0.45
			c-0.31-0.31-0.465-0.813-0.465-1.551v-2.14H53.27v-1.198h0.719v-1.134L55.638,42.138z"/>
		<path fill="#FFFFFF" d="M59.058,46.769c0.055,0.675,0.741,0.995,1.527,0.995c0.576,0,1.04-0.075,1.494-0.214l0.221,1.102
			c-0.553,0.214-1.228,0.322-1.958,0.322c-1.837,0-2.888-1.027-2.888-2.664c0-1.327,0.852-2.793,2.733-2.793
			c1.748,0,2.412,1.316,2.412,2.611c0,0.278-0.033,0.524-0.055,0.641H59.058z M61.039,45.657c0-0.396-0.177-1.059-0.951-1.059
			c-0.708,0-0.995,0.621-1.04,1.059H61.039z"/>
		<path fill="#FFFFFF" d="M63.609,45.304c0-0.653-0.022-1.209-0.044-1.669h1.46l0.077,0.717h0.033
			c0.222-0.332,0.775-0.835,1.67-0.835c1.107,0,1.937,0.706,1.937,2.247v3.103h-1.682v-2.899c0-0.674-0.243-1.134-0.852-1.134
			c-0.465,0-0.741,0.311-0.851,0.61c-0.045,0.096-0.067,0.257-0.067,0.406v3.017h-1.682V45.304z"/>
		<path fill="#FFFFFF" d="M71.91,42.138v1.497h1.206v1.198H71.91v1.894c0,0.632,0.155,0.92,0.664,0.92
			c0.21,0,0.376-0.022,0.498-0.042l0.011,1.23c-0.222,0.086-0.62,0.14-1.095,0.14c-0.542,0-0.995-0.182-1.261-0.45
			c-0.31-0.31-0.465-0.813-0.465-1.551v-2.14h-0.719v-1.198h0.719v-1.134L71.91,42.138z"/>
		<path fill="#FFFFFF" d="M79.404,48.866l-0.099-0.524h-0.033c-0.354,0.417-0.907,0.642-1.549,0.642
			c-1.095,0-1.749-0.77-1.749-1.605c0-1.359,1.261-2.011,3.176-2v-0.075c0-0.278-0.155-0.674-0.985-0.674
			c-0.553,0-1.14,0.181-1.494,0.395l-0.31-1.049c0.377-0.203,1.117-0.46,2.102-0.46c1.804,0,2.379,1.027,2.379,2.258v1.819
			c0,0.503,0.022,0.984,0.077,1.273H79.404z M79.204,46.395c-0.885-0.011-1.571,0.193-1.571,0.823c0,0.417,0.288,0.621,0.664,0.621
			c0.421,0,0.764-0.268,0.874-0.599c0.023-0.086,0.033-0.182,0.033-0.278V46.395z"/>
		<path fill="#FFFFFF" d="M86.233,48.738c-0.298,0.128-0.863,0.235-1.504,0.235c-1.748,0-2.866-1.027-2.866-2.675
			c0-1.53,1.085-2.782,3.098-2.782c0.442,0,0.93,0.076,1.284,0.204l-0.266,1.209c-0.199-0.086-0.498-0.16-0.94-0.16
			c-0.886,0-1.46,0.61-1.449,1.466c0,0.963,0.664,1.466,1.483,1.466c0.398,0,0.708-0.065,0.962-0.16L86.233,48.738z"/>
		<path fill="#FFFFFF" d="M87.165,45.357c0-0.77-0.022-1.273-0.044-1.722h1.449l0.055,0.963h0.044
			c0.277-0.759,0.941-1.081,1.461-1.081c0.154,0,0.232,0,0.354,0.022v1.53c-0.123-0.021-0.266-0.042-0.454-0.042
			c-0.62,0-1.04,0.321-1.15,0.823c-0.023,0.107-0.033,0.235-0.033,0.364v2.653h-1.682V45.357z"/>
		<path fill="#FFFFFF" d="M96.627,46.192c0,1.915-1.405,2.793-2.855,2.793c-1.582,0-2.799-1.006-2.799-2.696
			s1.151-2.771,2.888-2.771C95.521,43.517,96.627,44.62,96.627,46.192z M92.71,46.246c0,0.898,0.387,1.572,1.107,1.572
			c0.652,0,1.073-0.631,1.073-1.572c0-0.781-0.31-1.573-1.073-1.573C93.009,44.673,92.71,45.476,92.71,46.246z"/>
		<path fill="#FFFFFF" d="M97.66,47.444c0.31,0.181,0.951,0.395,1.449,0.395c0.509,0,0.719-0.171,0.719-0.439
			c0-0.268-0.166-0.395-0.796-0.599c-1.118-0.364-1.549-0.952-1.538-1.573c0-0.973,0.863-1.712,2.202-1.712
			c0.631,0,1.195,0.14,1.526,0.3l-0.298,1.123c-0.243-0.129-0.708-0.3-1.173-0.3c-0.409,0-0.641,0.161-0.641,0.428
			c0,0.247,0.21,0.375,0.874,0.599c1.029,0.342,1.46,0.846,1.471,1.615c0,0.974-0.796,1.691-2.345,1.691
			c-0.708,0-1.339-0.15-1.749-0.364L97.66,47.444z"/>
		<path fill="#FFFFFF" d="M102.464,47.444c0.31,0.181,0.951,0.395,1.449,0.395c0.509,0,0.719-0.171,0.719-0.439
			c0-0.268-0.166-0.395-0.796-0.599c-1.118-0.364-1.549-0.952-1.538-1.573c0-0.973,0.863-1.712,2.202-1.712
			c0.631,0,1.195,0.14,1.526,0.3l-0.298,1.123c-0.243-0.129-0.708-0.3-1.173-0.3c-0.409,0-0.641,0.161-0.641,0.428
			c0,0.247,0.21,0.375,0.874,0.599c1.029,0.342,1.46,0.846,1.471,1.615c0,0.974-0.796,1.691-2.345,1.691
			c-0.708,0-1.339-0.15-1.749-0.364L102.464,47.444z"/>
		<path fill="#FFFFFF" d="M46.794,59.877h-0.081l-5.034,2.315l-1.015-4.474l6.983-3.14h5.115v25.509h-5.967V59.877z"/>
		<path fill="#FFFFFF" d="M80.931,67.215c0,7.889-3.288,13.304-10.027,13.304c-6.82,0-9.824-5.926-9.864-13.146
			c0-7.378,3.248-13.226,10.067-13.226C78.17,54.147,80.931,60.23,80.931,67.215z M67.251,67.373
			c-0.041,5.848,1.421,8.633,3.815,8.633c2.395,0,3.694-2.903,3.694-8.711c0-5.651-1.259-8.634-3.735-8.634
			C68.753,58.661,67.209,61.447,67.251,67.373z"/>
		<path fill="#FFFFFF" d="M100.819,58.817c-0.69-0.039-1.422,0-2.395,0.078c-5.481,0.432-7.916,3.14-8.606,6.122h0.122
			c1.299-1.295,3.126-2.04,5.602-2.04c4.425,0,8.16,3.021,8.16,8.319c0,5.063-4.019,9.222-9.743,9.222
			c-7.023,0-10.473-5.062-10.473-11.145c0-4.787,1.827-8.791,4.668-11.341c2.639-2.315,6.048-3.571,10.19-3.767
			c1.136-0.078,1.867-0.078,2.476-0.04V58.817z M97.449,71.611c0-2.355-1.299-4.396-3.938-4.396c-1.664,0-3.044,0.982-3.653,2.276
			c-0.163,0.314-0.244,0.785-0.244,1.491c0.123,2.708,1.462,5.141,4.263,5.141C96.069,76.124,97.449,74.201,97.449,71.611z"/>
		<path fill="#FFFFFF" d="M46.601,92.405c-0.398,0.171-1.151,0.313-2.008,0.313c-2.333,0-3.824-1.37-3.824-3.567
			c0-2.041,1.447-3.712,4.134-3.712c0.591,0,1.24,0.1,1.713,0.271l-0.355,1.613c-0.266-0.114-0.664-0.214-1.255-0.214
			c-1.181,0-1.949,0.813-1.934,1.955c0,1.285,0.886,1.956,1.978,1.956c0.532,0,0.945-0.086,1.285-0.214L46.601,92.405z"/>
		<path fill="#FFFFFF" d="M54.808,89.008c0,2.555-1.875,3.725-3.809,3.725c-2.112,0-3.736-1.341-3.736-3.596
			c0-2.256,1.536-3.697,3.854-3.697C53.332,85.44,54.808,86.91,54.808,89.008z M49.581,89.079c0,1.199,0.517,2.098,1.477,2.098
			c0.871,0,1.432-0.841,1.432-2.098c0-1.041-0.413-2.098-1.432-2.098C49.98,86.981,49.581,88.052,49.581,89.079z"/>
		<path fill="#FFFFFF" d="M63.001,90.336c0,0.913,0.03,1.655,0.059,2.24h-1.949l-0.104-0.985h-0.044
			c-0.28,0.428-0.959,1.141-2.259,1.141c-1.461,0-2.54-0.885-2.54-3.04v-4.097h2.259v3.754c0,1.013,0.34,1.628,1.122,1.628
			c0.621,0,0.975-0.414,1.122-0.757c0.059-0.129,0.074-0.3,0.074-0.471v-4.154h2.259V90.336z"/>
		<path fill="#FFFFFF" d="M64.798,87.823c0-0.87-0.03-1.613-0.059-2.227h1.949l0.104,0.957h0.044
			c0.295-0.442,1.033-1.113,2.23-1.113c1.477,0,2.584,0.942,2.584,2.997v4.139h-2.244v-3.868c0-0.899-0.325-1.513-1.137-1.513
			c-0.621,0-0.99,0.413-1.137,0.813c-0.059,0.129-0.089,0.342-0.089,0.542v4.025h-2.244V87.823z"/>
		<path fill="#FFFFFF" d="M75.869,83.598v1.998h1.61v1.599h-1.61v2.526c0,0.842,0.207,1.228,0.886,1.228
			c0.28,0,0.502-0.029,0.664-0.058l0.015,1.641c-0.295,0.114-0.827,0.186-1.462,0.186c-0.723,0-1.329-0.242-1.684-0.599
			c-0.413-0.413-0.62-1.085-0.62-2.069v-2.855h-0.959v-1.599h0.959v-1.513L75.869,83.598z"/>
		<path fill="#FFFFFF" d="M78.776,87.894c0-1.028-0.03-1.698-0.059-2.298h1.934l0.074,1.285h0.059
			c0.369-1.013,1.255-1.441,1.949-1.441c0.206,0,0.31,0,0.472,0.029v2.04c-0.162-0.028-0.354-0.057-0.605-0.057
			c-0.827,0-1.388,0.428-1.536,1.099c-0.029,0.142-0.044,0.314-0.044,0.486v3.539h-2.244V87.894z"/>
		<path fill="#FFFFFF" d="M86.701,83.656c0,0.599-0.472,1.085-1.211,1.085c-0.709,0-1.181-0.486-1.167-1.085
			c-0.014-0.628,0.458-1.099,1.182-1.099C86.229,82.557,86.687,83.028,86.701,83.656z M84.383,92.576v-6.98h2.244v6.98H84.383z"/>
		<path fill="#FFFFFF" d="M90.156,89.779c0.073,0.899,0.989,1.327,2.037,1.327c0.768,0,1.388-0.1,1.994-0.286l0.295,1.47
			c-0.739,0.286-1.639,0.428-2.613,0.428c-2.451,0-3.854-1.37-3.854-3.554c0-1.769,1.137-3.725,3.647-3.725
			c2.333,0,3.22,1.756,3.22,3.483c0,0.371-0.045,0.699-0.074,0.857H90.156z M92.798,88.294c0-0.528-0.236-1.413-1.269-1.413
			c-0.945,0-1.329,0.828-1.388,1.413H92.798z"/>
		<path fill="#FFFFFF" d="M96.206,90.678c0.413,0.242,1.27,0.528,1.935,0.528c0.679,0,0.959-0.228,0.959-0.586
			c0-0.357-0.222-0.528-1.063-0.799c-1.492-0.486-2.067-1.27-2.052-2.098c0-1.299,1.151-2.284,2.938-2.284
			c0.842,0,1.595,0.186,2.038,0.4l-0.398,1.498c-0.325-0.171-0.945-0.399-1.566-0.399c-0.546,0-0.856,0.214-0.856,0.57
			c0,0.329,0.28,0.5,1.166,0.8c1.374,0.457,1.949,1.127,1.964,2.155c0,1.299-1.063,2.255-3.13,2.255
			c-0.945,0-1.787-0.199-2.333-0.485L96.206,90.678z"/>
	</g>
</g>
</svg>
