<?xml version="1.0" encoding="utf-8"?>
<!-- Generator: Adobe Illustrator 17.0.0, SVG Export Plug-In . SVG Version: 6.00 Build 0)  -->
<!DOCTYPE svg PUBLIC "-//W3C//DTD SVG 1.1//EN" "http://www.w3.org/Graphics/SVG/1.1/DTD/svg11.dtd">
<svg version="1.1" id="Layer_1" xmlns="http://www.w3.org/2000/svg" xmlns:xlink="http://www.w3.org/1999/xlink" x="0px" y="0px"
	 width="130.565px" height="118.348px" viewBox="0 0 130.565 118.348" enable-background="new 0 0 130.565 118.348"
	 xml:space="preserve">
<g>
	<path opacity="0.8" fill="#652F8F" d="M77.778,9.573c-4.835,0-21.725,0-26.561,0c-21.553,0-39.026,17.472-39.026,39.026
		s17.472,39.026,39.026,39.026c4.835,0,21.725,0,26.561,0c21.553,0,39.026-17.472,39.026-39.026S99.331,9.573,77.778,9.573z"/>
	<linearGradient id="SVGID_1_" gradientUnits="userSpaceOnUse" x1="64.4975" y1="103.7017" x2="64.4975" y2="87.6244">
		<stop  offset="0.0284" style="stop-color:#652F8F;stop-opacity:0"/>
		<stop  offset="1" style="stop-color:#652F8F"/>
	</linearGradient>
	<path opacity="0.8" fill="url(#SVGID_1_)" d="M109.336,103.702c-7.096-9.741-18.584-16.077-31.558-16.077
		c-4.835,0-21.725,0-26.561,0c-12.974,0-24.462,6.336-31.558,16.077H109.336z"/>
	<g>
		<path fill="#FFFFFF" d="M48.595,22.682c0,2.276-1.427,3.656-3.525,3.656c-2.13,0-3.376-1.554-3.376-3.532
			c0-2.08,1.374-3.635,3.493-3.635C47.392,19.171,48.595,20.766,48.595,22.682z M43.408,22.775c0,1.359,0.66,2.317,1.746,2.317
			c1.097,0,1.726-1.009,1.726-2.359c0-1.246-0.618-2.317-1.736-2.317C44.047,20.416,43.408,21.426,43.408,22.775z"/>
		<path fill="#FFFFFF" d="M57.042,20.242c-0.256-0.113-0.629-0.206-1.065-0.206c-0.852,0-1.15,0.422-1.15,0.978v0.175H58v5.035
			h-1.63v-3.883h-1.533v3.883h-1.619v-3.883h-1.693v3.883h-1.63v-3.883h-0.682v-1.153h0.682v-0.114c0-0.597,0.203-1.204,0.672-1.627
			c0.351-0.319,0.863-0.535,1.565-0.535c0.362,0,0.703,0.093,0.906,0.165l-0.363,1.132c-0.117-0.051-0.287-0.103-0.458-0.103
			c-0.213,0-0.373,0.073-0.479,0.175c-0.171,0.175-0.224,0.463-0.224,0.731v0.175h1.704v-0.217c0-1.39,1.108-2.172,2.716-2.172
			c0.512,0,1.108,0.103,1.459,0.268L57.042,20.242z"/>
		<path fill="#FFFFFF" d="M63.199,26.101c-0.288,0.123-0.831,0.226-1.448,0.226c-1.683,0-2.759-0.988-2.759-2.575
			c0-1.473,1.044-2.678,2.982-2.678c0.427,0,0.895,0.073,1.236,0.196l-0.256,1.164c-0.192-0.082-0.48-0.154-0.906-0.154
			c-0.852,0-1.406,0.587-1.395,1.411c0,0.927,0.639,1.411,1.427,1.411c0.384,0,0.682-0.062,0.927-0.154L63.199,26.101z"/>
		<path fill="#FFFFFF" d="M65.223,24.206c0.053,0.649,0.714,0.958,1.469,0.958c0.555,0,1.001-0.072,1.438-0.206l0.213,1.061
			c-0.533,0.206-1.182,0.309-1.885,0.309c-1.768,0-2.78-0.988-2.78-2.564c0-1.277,0.82-2.688,2.631-2.688
			c1.682,0,2.322,1.267,2.322,2.513c0,0.268-0.032,0.505-0.053,0.618H65.223z M67.129,23.135c0-0.381-0.17-1.019-0.916-1.019
			c-0.682,0-0.959,0.597-1.001,1.019H67.129z"/>
		<path fill="#FFFFFF" d="M69.59,24.855c0.299,0.175,0.916,0.381,1.395,0.381c0.491,0,0.693-0.165,0.693-0.422
			s-0.16-0.381-0.767-0.576c-1.076-0.35-1.491-0.916-1.48-1.514c0-0.937,0.831-1.648,2.119-1.648c0.608,0,1.15,0.134,1.47,0.289
			l-0.288,1.081c-0.234-0.123-0.682-0.288-1.129-0.288c-0.394,0-0.618,0.154-0.618,0.412c0,0.237,0.203,0.36,0.842,0.576
			c0.991,0.33,1.406,0.813,1.416,1.555c0,0.937-0.767,1.627-2.258,1.627c-0.682,0-1.288-0.144-1.682-0.35L69.59,24.855z"/>
		<path fill="#FFFFFF" d="M78.047,19.788c0,0.433-0.341,0.782-0.874,0.782c-0.511,0-0.852-0.349-0.842-0.782
			c-0.01-0.453,0.331-0.793,0.852-0.793S78.036,19.335,78.047,19.788z M76.374,26.225v-5.035h1.619v5.035H76.374z"/>
		<path fill="#FFFFFF" d="M79.293,22.795c0-0.628-0.021-1.164-0.043-1.606h1.406l0.075,0.689h0.032
			c0.213-0.319,0.746-0.803,1.608-0.803c1.065,0,1.864,0.68,1.864,2.163v2.986h-1.619v-2.791c0-0.649-0.235-1.092-0.821-1.092
			c-0.447,0-0.714,0.299-0.82,0.587c-0.043,0.093-0.064,0.247-0.064,0.392v2.904h-1.619V22.795z"/>
		<path fill="#FFFFFF" d="M85.418,22.074c0-0.556,0.394-0.948,0.959-0.948s0.937,0.381,0.948,0.948c0,0.536-0.383,0.937-0.959,0.937
			C85.812,23.012,85.418,22.61,85.418,22.074z M85.418,25.401c0-0.546,0.394-0.948,0.959-0.948s0.937,0.392,0.948,0.948
			c0,0.535-0.383,0.937-0.959,0.937C85.812,26.338,85.418,25.936,85.418,25.401z"/>
		<path fill="#FFFFFF" d="M41.11,32.945h2.172v7.499h3.805v1.758H41.11V32.945z"/>
		<path fill="#FFFFFF" d="M55.027,38.768c0,2.458-1.803,3.585-3.663,3.585c-2.03,0-3.592-1.292-3.592-3.461
			c0-2.17,1.476-3.557,3.706-3.557C53.606,35.334,55.027,36.749,55.027,38.768z M50.001,38.837c0,1.154,0.497,2.018,1.419,2.018
			c0.838,0,1.377-0.81,1.377-2.018c0-1.003-0.398-2.019-1.377-2.019C50.384,36.818,50.001,37.848,50.001,38.837z"/>
		<path fill="#FFFFFF" d="M56.363,37.628c0-0.838-0.028-1.552-0.056-2.143h1.873l0.1,0.92h0.042
			c0.284-0.426,0.994-1.072,2.144-1.072c1.419,0,2.485,0.907,2.485,2.884v3.983h-2.158V38.48c0-0.866-0.313-1.456-1.093-1.456
			c-0.596,0-0.951,0.399-1.093,0.783c-0.056,0.123-0.085,0.33-0.085,0.522v3.873h-2.158V37.628z"/>
		<path fill="#FFFFFF" d="M71.415,32.45v7.746c0,0.756,0.028,1.552,0.056,2.005h-1.916l-0.099-0.989h-0.029
			c-0.44,0.756-1.278,1.14-2.172,1.14c-1.646,0-2.967-1.36-2.967-3.447c-0.015-2.267,1.448-3.571,3.109-3.571
			c0.852,0,1.519,0.289,1.831,0.756h0.029v-3.64H71.415z M69.257,38.328c0-0.11-0.014-0.261-0.029-0.37
			c-0.127-0.563-0.596-1.03-1.264-1.03c-0.98,0-1.49,0.852-1.49,1.909c0,1.139,0.582,1.854,1.476,1.854
			c0.625,0,1.122-0.412,1.249-1.003c0.043-0.151,0.057-0.302,0.057-0.48V38.328z"/>
		<path fill="#FFFFFF" d="M80.008,38.768c0,2.458-1.803,3.585-3.663,3.585c-2.03,0-3.592-1.292-3.592-3.461
			c0-2.17,1.476-3.557,3.706-3.557C78.588,35.334,80.008,36.749,80.008,38.768z M74.982,38.837c0,1.154,0.497,2.018,1.42,2.018
			c0.838,0,1.377-0.81,1.377-2.018c0-1.003-0.398-2.019-1.377-2.019C75.365,36.818,74.982,37.848,74.982,38.837z"/>
		<path fill="#FFFFFF" d="M81.345,37.628c0-0.838-0.028-1.552-0.056-2.143h1.873l0.1,0.92h0.042
			c0.284-0.426,0.994-1.072,2.144-1.072c1.419,0,2.485,0.907,2.485,2.884v3.983h-2.158V38.48c0-0.866-0.313-1.456-1.093-1.456
			c-0.596,0-0.951,0.399-1.093,0.783c-0.056,0.123-0.085,0.33-0.085,0.522v3.873h-2.158V37.628z"/>
		<path fill="#FFFFFF" d="M32.028,58.18v-9.257h2.528l1.987,3.393c0.568,0.975,1.136,2.128,1.561,3.173h0.043
			c-0.142-1.223-0.185-2.472-0.185-3.86v-2.706h1.988v9.257h-2.272l-2.044-3.571c-0.568-0.989-1.193-2.184-1.661-3.269l-0.042,0.013
			c0.056,1.222,0.085,2.527,0.085,4.038v2.788H32.028z"/>
		<path fill="#FFFFFF" d="M43.375,55.488c0.071,0.865,0.952,1.277,1.959,1.277c0.739,0,1.334-0.096,1.917-0.275l0.284,1.415
			c-0.71,0.275-1.576,0.412-2.513,0.412c-2.357,0-3.706-1.318-3.706-3.42c0-1.703,1.093-3.585,3.507-3.585
			c2.243,0,3.095,1.689,3.095,3.351c0,0.357-0.042,0.673-0.071,0.824H43.375z M45.917,54.059c0-0.508-0.228-1.359-1.221-1.359
			c-0.909,0-1.278,0.796-1.334,1.359H45.917z"/>
		<path fill="#FFFFFF" d="M50.618,51.464l0.554,2.747c0.142,0.7,0.284,1.442,0.397,2.211h0.029c0.142-0.769,0.341-1.538,0.511-2.197
			l0.739-2.761h1.703l0.696,2.678c0.185,0.755,0.369,1.511,0.511,2.28h0.029c0.099-0.769,0.241-1.525,0.397-2.294l0.597-2.664h2.115
			l-2.129,6.716h-2.03l-0.654-2.362c-0.17-0.659-0.298-1.264-0.44-2.087h-0.028c-0.128,0.838-0.27,1.455-0.455,2.087l-0.696,2.362
			h-2.03l-2.016-6.716H50.618z"/>
		<path fill="#FFFFFF" d="M64.493,58.18v-3.791l-3.024-5.467h2.47l0.98,2.225c0.298,0.673,0.497,1.168,0.739,1.772h0.028
			c0.213-0.577,0.44-1.113,0.725-1.772l0.965-2.225h2.428l-3.152,5.398v3.859H64.493z"/>
		<path fill="#FFFFFF" d="M76.08,54.746c0,2.458-1.802,3.585-3.663,3.585c-2.03,0-3.592-1.292-3.592-3.461s1.476-3.557,3.706-3.557
			C74.661,51.312,76.08,52.727,76.08,54.746z M71.055,54.815c0,1.154,0.497,2.018,1.419,2.018c0.838,0,1.377-0.81,1.377-2.018
			c0-1.003-0.398-2.019-1.377-2.019C71.438,52.796,71.055,53.826,71.055,54.815z"/>
		<path fill="#FFFFFF" d="M83.963,56.023c0,0.879,0.028,1.593,0.057,2.157h-1.874l-0.099-0.948h-0.043
			c-0.27,0.412-0.923,1.099-2.172,1.099c-1.405,0-2.442-0.852-2.442-2.926v-3.942h2.172v3.612c0,0.976,0.327,1.566,1.079,1.566
			c0.596,0,0.937-0.399,1.079-0.728c0.057-0.123,0.071-0.288,0.071-0.453v-3.996h2.172V56.023z"/>
		<path fill="#FFFFFF" d="M85.698,53.675c0-0.989-0.028-1.634-0.056-2.211h1.859l0.071,1.236h0.057
			c0.355-0.975,1.207-1.388,1.874-1.388c0.199,0,0.298,0,0.454,0.028v1.964c-0.156-0.028-0.341-0.055-0.582-0.055
			c-0.795,0-1.334,0.413-1.476,1.058c-0.029,0.137-0.043,0.303-0.043,0.467v3.406h-2.158V53.675z"/>
		<path fill="#FFFFFF" d="M93.21,54.293h0.029c0.156-0.275,0.326-0.55,0.497-0.81l1.405-2.019h2.598l-2.484,2.72l2.839,3.996h-2.655
			l-1.675-2.76l-0.554,0.659v2.101h-2.158v-9.752h2.158V54.293z"/>
		<path fill="#FFFFFF" d="M47.321,70.614c-0.042-1.113-0.085-2.458-0.085-3.805h-0.043c-0.298,1.181-0.696,2.5-1.065,3.585
			l-1.164,3.612h-1.689l-1.022-3.585c-0.313-1.085-0.639-2.403-0.867-3.612h-0.028c-0.057,1.249-0.1,2.678-0.171,3.832l-0.17,3.516
			h-2.002l0.611-9.257h2.882l0.937,3.09c0.298,1.072,0.596,2.225,0.809,3.31h0.043c0.27-1.071,0.596-2.294,0.909-3.323l1.023-3.077
			h2.825l0.525,9.257h-2.115L47.321,70.614z"/>
		<path fill="#FFFFFF" d="M57.717,72c0,0.879,0.028,1.593,0.057,2.157H55.9l-0.099-0.948h-0.043
			c-0.27,0.412-0.923,1.099-2.172,1.099c-1.405,0-2.442-0.852-2.442-2.926v-3.942h2.172v3.612c0,0.976,0.327,1.566,1.079,1.566
			c0.597,0,0.937-0.399,1.079-0.728c0.057-0.123,0.071-0.288,0.071-0.453v-3.996h2.172V72z"/>
		<path fill="#FFFFFF" d="M59.452,69.583c0-0.838-0.028-1.552-0.056-2.143h1.817l0.099,0.906h0.043
			c0.298-0.426,0.909-1.058,2.101-1.058c0.894,0,1.604,0.44,1.902,1.14h0.028c0.256-0.343,0.568-0.618,0.895-0.81
			c0.384-0.22,0.81-0.33,1.32-0.33c1.334,0,2.342,0.907,2.342,2.912v3.956h-2.101v-3.653c0-0.975-0.326-1.538-1.022-1.538
			c-0.497,0-0.852,0.329-0.994,0.728c-0.057,0.151-0.086,0.37-0.086,0.536v3.928H63.64v-3.763c0-0.852-0.312-1.428-0.994-1.428
			c-0.554,0-0.88,0.412-1.008,0.755c-0.071,0.165-0.086,0.357-0.086,0.522v3.915h-2.101V69.583z"/>
		<path fill="#FFFFFF" d="M71.61,74.157c0.028-0.44,0.056-1.249,0.056-2.005v-7.746h2.158v3.832h0.029
			c0.412-0.576,1.136-0.948,2.101-0.948c1.661,0,2.882,1.332,2.868,3.393c0,2.417-1.59,3.626-3.181,3.626
			c-0.809,0-1.59-0.289-2.087-1.085h-0.028l-0.085,0.934H71.61z M73.824,71.3c0,0.137,0.014,0.261,0.043,0.371
			c0.142,0.563,0.639,0.989,1.264,0.989c0.923,0,1.49-0.687,1.49-1.896c0-1.044-0.483-1.867-1.49-1.867
			c-0.582,0-1.122,0.426-1.264,1.03c-0.029,0.124-0.043,0.247-0.043,0.385V71.3z"/>
		<path fill="#FFFFFF" d="M84.106,74.157l-0.128-0.673h-0.043c-0.454,0.536-1.164,0.824-1.987,0.824
			c-1.405,0-2.243-0.989-2.243-2.061c0-1.744,1.618-2.582,4.074-2.568v-0.096c0-0.357-0.199-0.865-1.264-0.865
			c-0.71,0-1.462,0.233-1.916,0.508l-0.398-1.345c0.483-0.261,1.434-0.591,2.698-0.591c2.314,0,3.052,1.319,3.052,2.898v2.334
			c0,0.646,0.029,1.264,0.1,1.635H84.106z M83.85,70.984c-1.136-0.013-2.016,0.247-2.016,1.058c0,0.536,0.37,0.797,0.852,0.797
			c0.539,0,0.98-0.344,1.122-0.77c0.028-0.11,0.042-0.233,0.042-0.356V70.984z"/>
		<path fill="#FFFFFF" d="M89.886,65.573c0,0.577-0.454,1.044-1.164,1.044c-0.682,0-1.136-0.466-1.122-1.044
			c-0.015-0.604,0.44-1.058,1.136-1.058S89.872,64.968,89.886,65.573z M87.657,74.157v-6.716h2.158v6.716H87.657z"/>
	</g>
</g>
</svg>
